<?xml version="1.0" encoding="UTF-8"?>
<svg version="1.1" xmlns="http://www.w3.org/2000/svg" width="200" height="200">
<path d="M0 0 C66 0 132 0 200 0 C200 66 200 132 200 200 C134 200 68 200 0 200 C0 134 0 68 0 0 Z " fill="#282828" transform="translate(0,0)"/>
<path d="M0 0 C0.72703125 0.68578125 1.4540625 1.3715625 2.203125 2.078125 C5.78037295 4.53623393 8.81033498 4.52319003 13 4.5 C18.54979833 4.46928156 21.88818529 4.9524324 26 9 C25.40300869 12.33135891 24.27987719 14.21275667 22.0625 16.75 C21.53785156 17.36359375 21.01320312 17.9771875 20.47265625 18.609375 C19 20 19 20 17 20 C16.67 20.99 16.34 21.98 16 23 C14.37347684 24.70586575 12.70993434 26.3777546 11 28 C12.5733309 34.48653967 14.83906365 39.71948022 18.37109375 45.3671875 C26.47686295 58.46859862 27.11855702 66.73182072 23.90234375 81.5234375 C19.84397706 97.1595689 7.2727836 110.09809649 -6.3125 118.1171875 C-12.23681208 121.28218684 -18.57805527 123.36103831 -24.97021484 125.36376953 C-26.80581252 125.93913248 -28.63208873 126.54402958 -30.45703125 127.15234375 C-48.98120737 132.97548334 -67.74124804 133.46738726 -87 133 C-87.125 126.25 -87.125 126.25 -86 124 C-83.49698849 123.30438151 -81.03828763 122.7211599 -78.5 122.1875 C-55.34818258 117.54565034 -55.34818258 117.54565034 -36 105 C-34.5185026 101.56544696 -34.5185026 101.56544696 -34 98 C-33.7215625 96.7315625 -33.7215625 96.7315625 -33.4375 95.4375 C-34.37661974 91.36798113 -37.6713507 89.30705165 -41 87 C-51.695078 80.7196056 -66.74049498 81.54056739 -78.75 81.6875 C-80.33300673 81.69616416 -81.91601457 81.70462595 -83.49902344 81.71289062 C-94.74418119 81.80795314 -105.85554657 82.4319362 -117 84 C-116.34 82.68 -115.68 81.36 -115 80 C-114.34 80 -113.68 80 -113 80 C-112.773125 79.4225 -112.54625 78.845 -112.3125 78.25 C-110.65238361 75.40408619 -108.60812043 74.00158079 -106 72 C-105.29875 71.2575 -104.5975 70.515 -103.875 69.75 C-91.76771063 58.16911452 -76.47496888 50.7506035 -60 48 C-70.54974604 43.05809239 -81.16400284 38.28587948 -92 34 C-86.66775123 27.54614028 -74.8501238 26.40756033 -66.953125 25.30859375 C-44.36429143 23.54523619 -44.36429143 23.54523619 -37 26 C-37.05800781 25.38253906 -37.11601563 24.76507813 -37.17578125 24.12890625 C-37.54756845 17.14992944 -36.26271262 12.56320122 -32 7 C-23.23883334 -2.62047085 -11.94818096 -6.4336359 0 0 Z " fill="#EAEAEA" transform="translate(121,32)"/>
<path d="M0 0 C5.83233502 2.17976157 9.779647 5.76396892 12.5703125 11.3671875 C12.5703125 12.6871875 12.5703125 14.0071875 12.5703125 15.3671875 C13.2303125 15.5528125 13.8903125 15.7384375 14.5703125 15.9296875 C18.83188554 17.97169125 22.486758 20.77210877 25.5703125 24.3671875 C26.3046875 27.09765625 26.3046875 27.09765625 26.5703125 29.3671875 C24.17570662 30.18346196 21.77974724 30.99530395 19.3828125 31.8046875 C18.70927734 32.03478516 18.03574219 32.26488281 17.34179688 32.50195312 C13.77516759 33.70242835 10.2831964 34.73996245 6.5703125 35.3671875 C4.64797093 42.89572042 4.23965377 49.89245594 4.26757812 57.63867188 C4.01400928 68.82024007 -2.7904888 75.7279888 -10.4296875 83.3671875 C-14.64057955 87.02126737 -19.18171817 89.55058273 -24.4296875 91.3671875 C-25.4196875 91.0371875 -26.4096875 90.7071875 -27.4296875 90.3671875 C-26.68460937 89.79484375 -25.93953125 89.2225 -25.171875 88.6328125 C-14.05865021 79.45094586 -7.36446455 65.16368471 -5.9453125 50.953125 C-5.04737854 36.98661167 -8.5049088 28.73727536 -16.23339844 17.28955078 C-18.7172657 13.29812816 -19.4296875 10.02268262 -19.4296875 5.3671875 C-14.53944696 -1.69289488 -7.74296763 -2.01665716 0 0 Z " fill="#AEAEAE" transform="translate(154.4296875,53.6328125)"/>
<path d="M0 0 C7.83907331 0.41995036 13.06143004 2.8353862 18.4375 8.625 C21.58234056 13.40515765 21.28076748 18.21757127 21.5234375 23.7734375 C22.03721527 27.25196571 23.19608998 29.03814244 25 32 C25.29296875 34.67578125 25.29296875 34.67578125 25.1875 37.3125 C25.14689453 38.63701172 25.14689453 38.63701172 25.10546875 39.98828125 C25.07066406 40.65214844 25.03585938 41.31601563 25 42 C18.02330843 42.39325819 12.48343811 41.63096039 6 39 C5.38125 39.66 4.7625 40.32 4.125 41 C2 43 2 43 0 43 C-0.2784375 43.72316406 -0.556875 44.44632813 -0.84375 45.19140625 C-4.57149674 54.24630458 -8.85670546 60.02582205 -18 64 C-23.44705165 65.9071212 -28.24348882 66.30766087 -33.9375 66.25 C-34.69740234 66.25773437 -35.45730469 66.26546875 -36.24023438 66.2734375 C-41.46676955 66.25558426 -45.9758606 65.44036761 -51 64 C-47.21718546 59.58671637 -42.35901079 58.03874761 -36.875 56.6875 C-29.28075719 54.72131933 -21.54091109 51.67605527 -16 46 C-15.34 46 -14.68 46 -14 46 C-13.73058594 45.40832031 -13.46117187 44.81664062 -13.18359375 44.20703125 C-11.68051883 41.40426778 -9.7098295 39.37125214 -7.53515625 37.07421875 C-2.90976664 30.82464653 -2.5494487 25.03787942 -2.4375 17.5 C-2.31917484 11.30326737 -2.01475803 5.89053754 0 0 Z " fill="#757575" transform="translate(163,91)"/>
<path d="M0 0 C0.66 0.33 1.32 0.66 2 1 C1.44892578 1.81017578 1.44892578 1.81017578 0.88671875 2.63671875 C-0.83783129 7.23298648 2.121554 11.90776895 4.05078125 16.17041016 C5.02521217 18.04859567 6.1223205 19.72262407 7.34375 21.44921875 C14.64174811 31.83244376 15.90113295 41.42411477 14 54 C10.91908851 67.00230827 4.43903935 81.37397376 -7 89 C5.03224693 86.20991376 13.1251276 77.90790434 20 68 C21.76112606 64.97967081 22.27251678 62.71107407 22.37890625 59.2265625 C22.41306641 58.3190625 22.44722656 57.4115625 22.48242188 56.4765625 C22.50884766 55.53554687 22.53527344 54.59453125 22.5625 53.625 C22.93057113 42.28527654 22.93057113 42.28527654 24 37 C24.99 36.67 25.98 36.34 27 36 C26.94783104 40.50092231 26.85267928 44.99996895 26.75 49.5 C26.73582031 50.7684375 26.72164062 52.036875 26.70703125 53.34375 C26.5207205 60.49808269 26.09367204 66.02301833 22 72 C21.40960938 72.89847656 20.81921875 73.79695313 20.2109375 74.72265625 C12.16302015 84.97947007 3.22543352 89.84854193 -9 94 C-9.89847656 94.309375 -10.79695313 94.61875 -11.72265625 94.9375 C-13.80979369 95.64339364 -15.90182036 96.32785587 -18 97 C-19.485 97.495 -19.485 97.495 -21 98 C-19.67361893 93.74693025 -18.28276225 92.16141643 -14.5 89.875 C-2.52034404 81.91745718 5.62663722 70.87295445 9 57 C9.20625 56.17242187 9.4125 55.34484375 9.625 54.4921875 C12.9631219 39.70245297 8.96289337 31.53796558 1.25 18.8125 C-1.47311118 14.18503045 -4.19874734 9.5298524 -4 4 C-2.125 1.4375 -2.125 1.4375 0 0 Z " fill="#333333" transform="translate(135,55)"/>
<path d="M0 0 C2.875 0.6875 2.875 0.6875 3.875 1.6875 C4.0625 5.125 4.0625 5.125 3.875 8.6875 C1.875 10.6875 1.875 10.6875 -1.0625 11.0625 C-4.125 10.6875 -4.125 10.6875 -6.0625 9 C-7.41469442 6.05698861 -7.23568406 4.70221387 -6.125 1.6875 C-3.125 -0.3125 -3.125 -0.3125 0 0 Z " fill="#353535" transform="translate(113.125,40.3125)"/>
<path d="M0 0 C3 0.25 3 0.25 5 2.25 C4.67028521 5.54714793 4.3773161 6.8726839 2 9.25 C-0.5 9.5 -0.5 9.5 -3 9.25 C-5 7.25 -5 7.25 -5.25 4.75 C-4.86630891 0.91308908 -3.76694968 0.31391247 0 0 Z " fill="#353535" transform="translate(153,64.75)"/>
<path d="M0 0 C0.78375 0.04125 1.5675 0.0825 2.375 0.125 C3 3 3 3 3.375 6.125 C2.715 6.785 2.055 7.445 1.375 8.125 C-1.25 7.75 -1.25 7.75 -3.625 7.125 C-4.25 4.75 -4.25 4.75 -4.625 2.125 C-2.625 0.125 -2.625 0.125 0 0 Z " fill="#2B2B2B" transform="translate(171.625,105.875)"/>
<path d="M0 0 C0.33 0.99 0.66 1.98 1 3 C-1.1238669 6.85442512 -2.8027804 9.46101948 -7 11 C-7.99 11.495 -7.99 11.495 -9 12 C-6.78854247 7.20850869 -4.43836824 2.95891216 0 0 Z " fill="#393939" transform="translate(142,123)"/>
</svg>
