<?xml version="1.0" encoding="UTF-8"?>
<svg version="1.1" xmlns="http://www.w3.org/2000/svg" width="287" height="333">
<path d="M0 0 C0.77673065 -0.00570007 1.5534613 -0.01140015 2.35372925 -0.01727295 C3.98906114 -0.02665857 5.6244114 -0.03323106 7.25976562 -0.03710938 C9.71519459 -0.04676881 12.16976828 -0.07783449 14.625 -0.109375 C27.04996192 -0.19456667 38.77822503 0.69146062 49.9921875 6.578125 C55.16184403 9.18244979 60.24602377 11.15453333 65.8046875 12.765625 C76.75380368 15.99378788 86.00245166 20.69027398 94.6171875 28.203125 C95.22046875 28.70070313 95.82375 29.19828125 96.4453125 29.7109375 C107.3637745 39.49820749 113.04912043 54.97328269 114.6171875 69.203125 C117.23656665 119.67871502 94.72275998 165.70929338 73.6171875 210.203125 C74.4210791 210.32357178 75.2249707 210.44401855 76.05322266 210.56811523 C77.11847168 210.73512939 78.1837207 210.90214355 79.28125 211.07421875 C80.3326416 211.23591553 81.3840332 211.3976123 82.46728516 211.56420898 C89.25123038 212.94024252 94.82329884 215.5472906 99.0546875 221.140625 C104.37159551 230.24676604 104.96978286 241.49175806 105.79589844 251.81030273 C106.27208947 257.06558019 107.43101283 261.37882609 109.6171875 266.203125 C114.62062023 269.53874682 119.7796959 268.87396577 125.6171875 268.203125 C134.96795485 265.96574457 146.0300414 262.14224346 153.6171875 256.203125 C154.63346753 254.2359985 154.63346753 254.2359985 154.6171875 252.203125 C153.658125 251.089375 153.658125 251.089375 152.6796875 249.953125 C149.81969593 246.1398029 150.30015683 243.87932734 150.6171875 239.203125 C156.55153044 238.70859642 160.73518132 239.69046202 165.6171875 243.203125 C171.328252 248.78556192 174.34275375 255.7892956 174.74609375 263.74609375 C174.24803833 273.48081335 169.22027846 280.43657571 162.33203125 287.00390625 C157.1837875 291.17435407 151.48698705 294.19246462 145.6171875 297.203125 C144.18826172 297.94755859 144.18826172 297.94755859 142.73046875 298.70703125 C128.99807102 305.42287539 113.45874067 307.68360094 98.6171875 303.578125 C86.80172315 299.39682011 79.30696395 290.5041967 72.6171875 280.203125 C72.16730469 280.93015625 71.71742188 281.6571875 71.25390625 282.40625 C62.1892319 296.57548045 52.26461956 306.7075913 36.95703125 314.04296875 C34.90111762 315.06234496 32.99727736 316.17482396 31.0546875 317.390625 C23.59070615 321.3261788 15.73344771 321.56339949 7.4296875 321.515625 C6.420271 321.51071045 5.41085449 321.5057959 4.37084961 321.50073242 C-8.56133252 321.29890965 -20.22005436 319.71647548 -29.6328125 310.140625 C-35.98033987 302.21918757 -37.838711 291.02537745 -37.03125 281.140625 C-35.68657667 258.924035 -46.2975061 241.53473468 -56.2477417 222.40283203 C-58.84829671 217.3630943 -61.30782421 212.25495433 -63.7578125 207.140625 C-64.22155273 206.17697021 -64.68529297 205.21331543 -65.16308594 204.22045898 C-79.51697153 174.10894007 -92.53570407 142.17354261 -98.3828125 109.203125 C-98.50978516 108.48995117 -98.63675781 107.77677734 -98.76757812 107.04199219 C-102.90041823 82.62591168 -101.30226812 57.76160052 -87.25390625 36.734375 C-76.60223711 22.3246013 -60.09494795 14.97450807 -43.2890625 10.1328125 C-40.81623728 9.34177432 -38.81441935 8.47281703 -36.5703125 7.203125 C-32.70689111 5.11901922 -28.61711318 4.07359465 -24.3828125 3.015625 C-23.71789795 2.84869141 -23.0529834 2.68175781 -22.36791992 2.50976562 C-14.93944998 0.73373001 -7.61850206 0.04471313 0 0 Z " fill="#E9D164" transform="translate(104.3828125,4.796875)"/>
<path d="M0 0 C0.77673065 -0.00570007 1.5534613 -0.01140015 2.35372925 -0.01727295 C3.98906114 -0.02665857 5.6244114 -0.03323106 7.25976562 -0.03710938 C9.71519459 -0.04676881 12.16976828 -0.07783449 14.625 -0.109375 C27.04996192 -0.19456667 38.77822503 0.69146062 49.9921875 6.578125 C55.16184403 9.18244979 60.24602377 11.15453333 65.8046875 12.765625 C76.75380368 15.99378788 86.00245166 20.69027398 94.6171875 28.203125 C95.22046875 28.70070313 95.82375 29.19828125 96.4453125 29.7109375 C107.3637745 39.49820749 113.04912043 54.97328269 114.6171875 69.203125 C117.45811576 123.94797929 91.4122103 177.43968991 66.0703125 224.59765625 C63.18170258 229.98237613 60.42354547 235.43102328 57.6796875 240.890625 C57.21860596 241.80005859 56.75752441 242.70949219 56.2824707 243.64648438 C53.72771959 248.74746602 51.51523423 253.82219385 49.6171875 259.203125 C49.2871875 259.203125 48.9571875 259.203125 48.6171875 259.203125 C48.6171875 235.113125 48.6171875 211.023125 48.6171875 186.203125 C51.5871875 185.873125 54.5571875 185.543125 57.6171875 185.203125 C57.0396875 184.56503906 56.4621875 183.92695313 55.8671875 183.26953125 C55.1246875 182.44324219 54.3821875 181.61695313 53.6171875 180.765625 C52.8746875 179.94191406 52.1321875 179.11820313 51.3671875 178.26953125 C49.6171875 176.203125 49.6171875 176.203125 49.6171875 175.203125 C53.2471875 175.203125 56.8771875 175.203125 60.6171875 175.203125 C59.7509375 174.21054688 58.8846875 173.21796875 57.9921875 172.1953125 C51.40924837 164.30360492 47.1855153 158.87800212 47.90234375 148.2890625 C48.73473451 144.69568164 49.45075865 142.21879396 51.6171875 139.203125 C54.52940586 138.24938099 56.82347597 137.70305466 59.8046875 137.328125 C60.55427734 137.21210938 61.30386719 137.09609375 62.07617188 136.9765625 C63.91966843 136.69475411 65.7681188 136.44569558 67.6171875 136.203125 C63.1621875 132.738125 63.1621875 132.738125 58.6171875 129.203125 C59.2771875 127.553125 59.9371875 125.903125 60.6171875 124.203125 C67.5471875 123.213125 67.5471875 123.213125 74.6171875 122.203125 C71.9771875 120.223125 69.3371875 118.243125 66.6171875 116.203125 C66.9471875 114.553125 67.2771875 112.903125 67.6171875 111.203125 C73.2271875 109.883125 78.8371875 108.563125 84.6171875 107.203125 C81.3171875 105.883125 78.0171875 104.563125 74.6171875 103.203125 C74.6171875 101.883125 74.6171875 100.563125 74.6171875 99.203125 C76.57304075 98.19828296 78.53194987 97.19938695 80.4921875 96.203125 C81.58273438 95.64625 82.67328125 95.089375 83.796875 94.515625 C86.6171875 93.203125 86.6171875 93.203125 88.6171875 93.203125 C88.6171875 92.543125 88.6171875 91.883125 88.6171875 91.203125 C87.4415625 90.7390625 87.4415625 90.7390625 86.2421875 90.265625 C83.6171875 89.203125 83.6171875 89.203125 81.6171875 88.203125 C81.49790499 72.90088285 81.49790499 72.90088285 84.2421875 68.73828125 C86.1796875 67.140625 86.1796875 67.140625 89.6171875 65.203125 C88.72966797 65.25146484 88.72966797 65.25146484 87.82421875 65.30078125 C85.18120908 65.26197687 83.12661503 65.05775474 80.6171875 64.203125 C78.0944475 61.51671731 76.70833374 58.7087225 75.6171875 55.203125 C75.73600409 51.93566889 76.17777706 50.08194588 77.6171875 47.203125 C77.01390625 47.32171875 76.410625 47.4403125 75.7890625 47.5625 C74.98984375 47.69140625 74.190625 47.8203125 73.3671875 47.953125 C72.57828125 48.09234375 71.789375 48.2315625 70.9765625 48.375 C68.6171875 48.203125 68.6171875 48.203125 66.3359375 46.609375 C64.12780681 43.51799203 64.20376748 41.7117855 64.3671875 37.953125 C64.40328125 36.87546875 64.439375 35.7978125 64.4765625 34.6875 C64.52296875 33.86765625 64.569375 33.0478125 64.6171875 32.203125 C63.2971875 33.853125 61.9771875 35.503125 60.6171875 37.203125 C56.97205824 36.60502859 56.69822385 36.31375483 54.328125 33.078125 C53.53738086 31.79382915 52.75911271 30.50178502 51.9921875 29.203125 C49.51350094 24.50075116 49.51350094 24.50075116 45.6171875 21.203125 C41.9067118 28.93239672 38.25921172 36.6800624 34.84765625 44.546875 C34.37432861 45.63750244 33.90100098 46.72812988 33.41333008 47.85180664 C32.48645492 49.9967878 31.56543278 52.14431045 30.65112305 54.29467773 C21.96674307 74.38622077 21.96674307 74.38622077 13.8046875 80.578125 C9.45240512 81.82163425 5.75694446 82.14445219 1.6015625 80.31640625 C-9.36382147 73.12846754 -14.86932555 57.65933373 -20.3828125 46.203125 C-21.07938965 44.76283936 -21.07938965 44.76283936 -21.79003906 43.29345703 C-23.30400526 40.16102859 -24.81342117 37.02646269 -26.3203125 33.890625 C-26.80540283 32.8814502 -27.29049316 31.87227539 -27.7902832 30.83251953 C-28.24234131 29.88618652 -28.69439941 28.93985352 -29.16015625 27.96484375 C-29.56484131 27.11881592 -29.96952637 26.27278809 -30.38647461 25.40112305 C-31.3828125 23.203125 -31.3828125 23.203125 -32.3828125 20.203125 C-36.08886569 23.70148344 -38.90480742 27.21162564 -41.6953125 31.515625 C-42.39269531 32.58425781 -43.09007812 33.65289062 -43.80859375 34.75390625 C-44.32808594 35.56214844 -44.84757812 36.37039062 -45.3828125 37.203125 C-48.54397026 35.83328997 -49.3755217 35.2140612 -51.3828125 32.203125 C-51.32480469 32.93917969 -51.26679687 33.67523438 -51.20703125 34.43359375 C-50.84218894 42.32461171 -50.84218894 42.32461171 -53.3828125 46.453125 C-57.57633139 48.89934435 -59.71089129 48.23253137 -64.3828125 47.203125 C-64.0321875 47.780625 -63.6815625 48.358125 -63.3203125 48.953125 C-61.93963426 52.26675278 -63.018201 54.27203555 -64.29296875 57.52734375 C-67.35735467 63.81193183 -67.35735467 63.81193183 -70.4921875 65.0078125 C-72.6953125 65.265625 -72.6953125 65.265625 -76.3828125 65.203125 C-75.41085938 65.83605469 -74.43890625 66.46898438 -73.4375 67.12109375 C-70.6489291 69.44490283 -69.91258746 71.02473273 -69.578125 74.62890625 C-69.5253891 76.25712731 -69.50266943 77.88655826 -69.5078125 79.515625 C-69.4871875 80.35158203 -69.4665625 81.18753906 -69.4453125 82.04882812 C-69.39843245 84.0998305 -69.38707321 86.15159135 -69.3828125 88.203125 C-74.1328125 91.203125 -74.1328125 91.203125 -76.3828125 91.203125 C-76.3828125 91.863125 -76.3828125 92.523125 -76.3828125 93.203125 C-75.7434375 93.285625 -75.1040625 93.368125 -74.4453125 93.453125 C-71.71366268 94.12210047 -69.24348781 94.92051339 -66.6328125 95.953125 C-65.85421875 96.25734375 -65.075625 96.5615625 -64.2734375 96.875 C-62.3828125 98.203125 -62.3828125 98.203125 -61.3828125 103.203125 C-64.6828125 104.523125 -67.9828125 105.843125 -71.3828125 107.203125 C-66.1028125 108.523125 -60.8228125 109.843125 -55.3828125 111.203125 C-55.0528125 113.183125 -54.7228125 115.163125 -54.3828125 117.203125 C-56.6928125 118.853125 -59.0028125 120.503125 -61.3828125 122.203125 C-60.46757813 122.31269531 -59.55234375 122.42226562 -58.609375 122.53515625 C-56.82660156 122.77298828 -56.82660156 122.77298828 -55.0078125 123.015625 C-53.23277344 123.24185547 -53.23277344 123.24185547 -51.421875 123.47265625 C-48.3828125 124.203125 -48.3828125 124.203125 -46.3828125 127.203125 C-46.5833341 129.85618001 -47.03613801 130.88721059 -49.01171875 132.6875 C-49.96884766 133.31398437 -49.96884766 133.31398437 -50.9453125 133.953125 C-51.58597656 134.38109375 -52.22664063 134.8090625 -52.88671875 135.25 C-53.38042969 135.56453125 -53.87414063 135.8790625 -54.3828125 136.203125 C-53.40699219 136.37328125 -52.43117187 136.5434375 -51.42578125 136.71875 C-50.15347656 136.96109375 -48.88117187 137.2034375 -47.5703125 137.453125 C-45.67345703 137.80117188 -45.67345703 137.80117188 -43.73828125 138.15625 C-39.94382489 139.34008505 -39.25312742 139.80393197 -37.3828125 143.203125 C-37.04285146 145.79858969 -36.86785803 148.15150716 -36.84375 150.75 C-36.83139313 151.48003235 -36.81903625 152.2100647 -36.80630493 152.96221924 C-36.78677057 154.50533058 -36.77551218 156.04856596 -36.77197266 157.59179688 C-36.75793227 159.93315307 -36.69065088 162.26909821 -36.62109375 164.609375 C-36.44280682 177.15392536 -36.44280682 177.15392536 -40.921875 182.28125 C-42.87353516 184.05957031 -42.87353516 184.05957031 -44.3828125 185.203125 C-42.0728125 185.533125 -39.7628125 185.863125 -37.3828125 186.203125 C-37.3828125 210.623125 -37.3828125 235.043125 -37.3828125 260.203125 C-39.88428994 256.86782174 -41.4378725 254.19897056 -43.1328125 250.4609375 C-43.91289673 248.75599121 -43.91289673 248.75599121 -44.70874023 247.01660156 C-44.98128632 246.41593872 -45.2538324 245.81527588 -45.53463745 245.19641113 C-49.77723439 235.85118808 -54.13651616 226.58700929 -58.8203125 217.453125 C-82.49661942 170.81215379 -113.30539752 107.07056159 -96.31640625 53.86328125 C-88.66592732 34.24472637 -75.61874982 23.01363138 -56.72265625 14.54296875 C-52.32102388 12.77716769 -47.84308401 11.44480441 -43.2890625 10.1328125 C-40.81623728 9.34177432 -38.81441935 8.47281703 -36.5703125 7.203125 C-32.70689111 5.11901922 -28.61711318 4.07359465 -24.3828125 3.015625 C-23.71789795 2.84869141 -23.0529834 2.68175781 -22.36791992 2.50976562 C-14.93944998 0.73373001 -7.61850206 0.04471313 0 0 Z " fill="#A7A5A6" transform="translate(104.3828125,4.796875)"/>
<path d="M0 0 C0.73605469 0.40992188 1.47210938 0.81984375 2.23046875 1.2421875 C3.20628906 1.78101563 4.18210937 2.31984375 5.1875 2.875 C6.15042969 3.40867188 7.11335938 3.94234375 8.10546875 4.4921875 C12.27750631 6.66547562 15.9542249 8.18611666 20.64453125 8.6328125 C21.48564453 8.71660156 22.32675781 8.80039063 23.19335938 8.88671875 C24.48983398 9.00466797 24.48983398 9.00466797 25.8125 9.125 C26.69615234 9.21136719 27.57980469 9.29773438 28.49023438 9.38671875 C30.65952058 9.59778444 32.82968458 9.79979426 35 10 C35.12190678 18.39802254 34.84327749 26.64251778 34 35 C34.99 35 35.98 35 37 35 C37.33 31.7 37.66 28.4 38 25 C38.99 24.67 39.98 24.34 41 24 C42.19287411 27.87684087 43 30.91621923 43 35 C43.99 35 44.98 35 46 35 C45.855625 33.94941406 45.71125 32.89882812 45.5625 31.81640625 C45.37469492 30.39847787 45.18721231 28.98050676 45 27.5625 C44.90460938 26.87478516 44.80921875 26.18707031 44.7109375 25.47851562 C44.0341939 20.28209157 43.91739466 15.24027651 44 10 C45.84851563 9.88785156 45.84851563 9.88785156 47.734375 9.7734375 C58.27945197 8.98746241 65.83036916 7.46038781 75 2 C75.99 1.67 76.98 1.34 78 1 C78.04685764 17.98613356 78.08205598 34.97224675 78.10362434 51.95843029 C78.11390803 59.8465765 78.1279123 67.73468241 78.15087891 75.62280273 C78.17090231 82.50336861 78.18373754 89.38390528 78.18817699 96.26449949 C78.19076932 99.90291897 78.19680072 103.54125491 78.21146011 107.17964745 C78.22774655 111.25546241 78.227974 115.33113496 78.22705078 119.40698242 C78.23424133 120.59454132 78.24143188 121.78210022 78.24884033 123.00564575 C78.21717665 136.0028917 77.42712041 149.93535853 68.1796875 159.9765625 C60.6227363 166.18733616 51.30963857 167.5300335 41.8125 167.375 C40.90411377 167.36484863 39.99572754 167.35469727 39.05981445 167.34423828 C28.85577415 167.11226697 17.61253254 166.7771209 9.578125 159.73828125 C-0.37319324 148.777052 -0.15453197 135.61459506 -0.11352539 121.58569336 C-0.11367142 120.26764709 -0.11381744 118.94960083 -0.1139679 117.59161377 C-0.11425302 114.00340429 -0.10840259 110.41522873 -0.10139394 106.82702708 C-0.09511274 103.06743085 -0.09455285 99.3078337 -0.09336853 95.54823303 C-0.09026921 88.44054068 -0.08207479 81.33286384 -0.07201904 74.2251783 C-0.06081432 66.1283906 -0.0553365 58.03160214 -0.05032361 49.93480861 C-0.03989092 33.28986335 -0.02231873 16.64493366 0 0 Z " fill="#E9D063" transform="translate(71,155)"/>
<path d="M0 0 C9.08411155 -0.28181658 15.88959011 1.11150745 23.875 5.625 C30.99114146 13.57833458 32.41930706 23.17318045 33.453125 33.41796875 C33.57457886 34.59649414 33.57457886 34.59649414 33.69848633 35.79882812 C33.85367327 37.34974646 33.99741527 38.90186844 34.12768555 40.45507812 C34.63565275 45.7533689 35.79382997 50.13579378 38 55 C43.00343273 58.33562182 48.1625084 57.67084077 54 57 C63.35076735 54.76261957 74.4128539 50.93911846 82 45 C83.01628003 43.0328735 83.01628003 43.0328735 83 41 C82.360625 40.2575 81.72125 39.515 81.0625 38.75 C78.20250843 34.9366779 78.68296933 32.67620234 79 28 C84.93434294 27.50547142 89.11799382 28.48733702 94 32 C99.7110645 37.58243692 102.72556625 44.5861706 103.12890625 52.54296875 C102.63085083 62.27768835 97.60309096 69.23345071 90.71484375 75.80078125 C85.5666 79.97122907 79.86979955 82.98933962 74 86 C72.57107422 86.74443359 72.57107422 86.74443359 71.11328125 87.50390625 C57.38088352 94.21975039 41.84155317 96.48047594 27 92.375 C16.35327348 88.60729284 8.65395043 80.88285568 2.625 71.4375 C2.08875 70.633125 1.5525 69.82875 1 69 C0.34 69 -0.32 69 -1 69 C-1.33 67.68 -1.66 66.36 -2 65 C-2.3403125 65.60585938 -2.680625 66.21171875 -3.03125 66.8359375 C-9.20222705 77.50384995 -16.90483243 89.65493117 -29 94 C-28.58427734 92.38931641 -28.58427734 92.38931641 -28.16015625 90.74609375 C-27.79407904 89.30994471 -27.42820442 87.87374401 -27.0625 86.4375 C-26.88009766 85.73302734 -26.69769531 85.02855469 -26.50976562 84.30273438 C-24.94861319 78.14327839 -23.96472283 72.22121371 -23.9296875 65.84765625 C-23.919375 64.90470703 -23.9090625 63.96175781 -23.8984375 62.99023438 C-23.8830943 61.0736132 -23.89004522 59.15665265 -23.921875 57.24023438 C-23.74393963 47.82872447 -20.06416556 40.27141705 -16 32 C-15.65880127 31.29658478 -15.31760254 30.59316956 -14.96606445 29.86843872 C-12.54661922 24.88752437 -10.06294969 19.94062018 -7.5625 15 C-6.82318526 13.53144248 -6.08425145 12.06269311 -5.34570312 10.59375 C-3.56815743 7.06028728 -1.78557626 3.52941094 0 0 Z " fill="#E9D163" transform="translate(176,216)"/>
<path d="M0 0 C0.66 0 1.32 0 2 0 C2.495 1.485 2.495 1.485 3 3 C1.66656193 5.51457202 0.30161586 7.73418353 -1.3125 10.0625 C-2.02901733 11.10748657 -2.02901733 11.10748657 -2.76000977 12.17358398 C-7.71673951 19.09764783 -13.62351028 24.96413664 -19.80395508 30.79516602 C-28.48942019 39.06305164 -32.05893432 46.86429642 -32.4609375 58.9609375 C-31.12435043 67.77335055 -25.42564875 75.86146011 -21.125 83.5 C-19.78054571 85.89153176 -18.43711445 88.28363719 -17.09375 90.67578125 C-16.58299423 91.58358086 -16.58299423 91.58358086 -16.06192017 92.50971985 C-13.73145751 96.66219124 -11.46324515 100.84338159 -9.21875 105.04296875 C-8.61401855 106.16058594 -8.00928711 107.27820313 -7.38623047 108.4296875 C-6.24637137 110.53812663 -5.11948097 112.65365053 -4.00830078 114.77734375 C0.80996726 123.60812966 7.10455964 130.93896181 16.84423828 134.35546875 C23.56388937 135.72788704 30.40649638 135.58623912 37.23999023 135.52148438 C39.9284922 135.50007174 42.61431449 135.52133882 45.30273438 135.546875 C57.96031577 135.57385438 68.35315229 134.67804664 77.90478516 125.4765625 C81.99411069 120.64294351 84.79114292 115.09537834 87.6875 109.5 C88.71532804 107.56390627 89.74980456 105.63147397 90.78514099 103.6993866 C91.48592738 102.39150642 92.18479019 101.08259374 92.88172913 99.7726593 C96.872833 92.29682006 101.20137268 85.02596616 105.57104492 77.765625 C111.35515222 68.02905877 114.96619822 59.59041365 112.34375 48.1328125 C109.66462183 39.79518086 104.95432208 34.82661177 98.75 28.88671875 C92.73569706 23.08600941 87.13557928 17.40664406 82.5625 10.375 C82.17916504 9.79540527 81.79583008 9.21581055 81.40087891 8.61865234 C79.85866631 6.11707004 78.93336851 4.57622164 79.27734375 1.6015625 C79.51582031 1.07304687 79.75429687 0.54453125 80 0 C85.1711115 4.54431011 88.44663108 10.15281368 92 16 C95.79588866 15.45773019 97.47211993 13.79872437 100 11 C99.96519531 11.90363281 99.93039063 12.80726562 99.89453125 13.73828125 C99.85392578 15.50751953 99.85392578 15.50751953 99.8125 17.3125 C99.77769531 18.48425781 99.74289063 19.65601563 99.70703125 20.86328125 C99.752237 23.93308169 99.752237 23.93308169 101.21875 25.90625 C103.52054842 27.319635 105.00567369 27.30410114 107.6875 27.1875 C108.49574219 27.16042969 109.30398437 27.13335937 110.13671875 27.10546875 C110.75160156 27.07066406 111.36648437 27.03585938 112 27 C111.62875 28.7634375 111.62875 28.7634375 111.25 30.5625 C110.58694177 35.53985714 112.294865 37.90131061 115 42 C115 42.66 115 43.32 115 44 C118.3 44 121.6 44 125 44 C122.66666667 46.33333333 120.33333333 48.66666667 118 51 C117.5326333 53.8907496 117.16300658 56.71660569 116.875 59.625 C116.74544922 60.82769531 116.74544922 60.82769531 116.61328125 62.0546875 C116.40103673 64.03563635 116.19950069 66.01772718 116 68 C117.175625 68.4640625 117.175625 68.4640625 118.375 68.9375 C121 70 121 70 123 71 C123 71.66 123 72.32 123 73 C118.38 75.31 113.76 77.62 109 80 C109 80.66 109 81.32 109 82 C112.63 83.65 116.26 85.3 120 87 C114.33165837 89.83417082 108.39067647 91.41230171 102 91 C101.6655812 93.36322505 101.6655812 93.36322505 102 96 C103.72041272 97.85654421 103.72041272 97.85654421 106 99.25 C107.34197454 100.15396896 108.67778569 101.06736669 110 102 C110 102.33 110 102.66 110 103 C102.575 103.99 102.575 103.99 95 105 C94.67 106.32 94.34 107.64 94 109 C98.455 112.465 98.455 112.465 103 116 C98.9566353 118.02168235 96.67870655 118.35927761 92.25 118.625 C90.49429688 118.73714844 90.49429688 118.73714844 88.703125 118.8515625 C87.81109375 118.90054688 86.9190625 118.94953125 86 119 C85.855625 119.61875 85.71125 120.2375 85.5625 120.875 C85 123 85 123 84 125 C82.99172823 131.2863553 82.53905472 137.25422768 86.1953125 142.7109375 C87.93438173 145.02004734 89.79628671 147.19446616 91.71484375 149.35546875 C94 152 94 152 95 155 C91.7 155.33 88.4 155.66 85 156 C85.5775 156.63808594 86.155 157.27617187 86.75 157.93359375 C87.4925 158.75988281 88.235 159.58617187 89 160.4375 C89.7425 161.26121094 90.485 162.08492187 91.25 162.93359375 C93 165 93 165 93 166 C89.7 166 86.4 166 83 166 C83.00999275 167.75074829 83.00999275 167.75074829 83.02018738 169.53686523 C83.08130745 180.59839211 83.12611988 191.65988421 83.15543652 202.72154236 C83.17101572 208.40688173 83.19211065 214.09208352 83.22631836 219.77734375 C83.25919035 225.27573985 83.27691107 230.77400458 83.28463173 236.27249146 C83.2901257 238.35818547 83.30085223 240.44387324 83.31719017 242.5295105 C83.42530481 256.91834147 82.81164116 270.28206859 78 284 C88.76663011 277.64469751 95.11561564 269.31702914 101.3359375 258.72265625 C103 256 103 256 105 254 C106.25415472 257.76246416 106.525452 259.8154121 104.89453125 263.4921875 C96.51125097 277.23200553 85.80558915 286.90787639 71.33984375 293.83984375 C69.28393012 294.85921996 67.38008986 295.97169896 65.4375 297.1875 C57.97351865 301.1230538 50.11626021 301.36027449 41.8125 301.3125 C40.8030835 301.30758545 39.79366699 301.3026709 38.75366211 301.29760742 C25.82147998 301.09578465 14.16275814 299.51335048 4.75 289.9375 C-2.83994734 280.46557661 -3.15947865 267.49619178 -3.11352539 255.91210938 C-3.11367142 254.93558411 -3.11381744 253.95905884 -3.1139679 252.95294189 C-3.1132755 249.74985473 -3.10551479 246.54682691 -3.09765625 243.34375 C-3.09578968 241.1131595 -3.0943669 238.88256859 -3.09336853 236.65197754 C-3.0895622 230.79946752 -3.07974807 224.94698258 -3.06866455 219.09448242 C-3.05840984 213.11507506 -3.05386223 207.13566363 -3.04882812 201.15625 C-3.03812404 189.43748902 -3.02107035 177.7187466 -3 166 C-5.64 166 -8.28 166 -11 166 C-9.51023465 163.31842237 -8.31893512 161.25894298 -5.91943359 159.31079102 C-3.26331539 156.11311119 -3.4590973 153.24834177 -3.5390625 149.27734375 C-3.53997894 148.53545303 -3.54089539 147.79356232 -3.5418396 147.02919006 C-3.54786789 145.46495137 -3.56359098 143.90072381 -3.58837891 142.33666992 C-3.62492958 139.94211336 -3.62939785 137.54910353 -3.62890625 135.15429688 C-3.63873651 133.63279913 -3.65039312 132.11131185 -3.6640625 130.58984375 C-3.66628815 129.87416733 -3.66851379 129.15849091 -3.67080688 128.42112732 C-3.74110764 124.74309924 -3.90524444 123.14213334 -6 120 C-8.74245324 119.29554319 -11.34127096 118.75241573 -14.125 118.3125 C-15.25615234 118.11817383 -15.25615234 118.11817383 -16.41015625 117.91992188 C-18.27151866 117.60184096 -20.13554435 117.29941714 -22 117 C-19.18600451 114.08979954 -16.54865549 111.97147527 -13 110 C-13.33 108.35 -13.66 106.7 -14 105 C-18.62 104.34 -23.24 103.68 -28 103 C-23 98 -23 98 -20 97 C-20.33 95.02 -20.66 93.04 -21 91 C-21.89203125 90.87882812 -22.7840625 90.75765625 -23.703125 90.6328125 C-24.87359375 90.46523437 -26.0440625 90.29765625 -27.25 90.125 C-28.41015625 89.96257812 -29.5703125 89.80015625 -30.765625 89.6328125 C-33.58193313 89.08179569 -35.55217557 88.44203518 -38 87 C-36.73308493 86.32591692 -35.46129251 85.66099503 -34.1875 85 C-33.47980469 84.62875 -32.77210937 84.2575 -32.04296875 83.875 C-30 83 -30 83 -27 83 C-27.52258547 80.53987872 -27.52258547 80.53987872 -29 78 C-32.05941418 76.31154225 -32.05941418 76.31154225 -35.625 75.1875 C-36.81351563 74.76855469 -38.00203125 74.34960938 -39.2265625 73.91796875 C-40.14179687 73.61503906 -41.05703125 73.31210938 -42 73 C-42 72.34 -42 71.68 -42 71 C-40.02 70.01 -38.04 69.02 -36 68 C-36.00602259 65.10012502 -36.05349007 62.2108868 -36.125 59.3125 C-36.12113281 58.08756836 -36.12113281 58.08756836 -36.1171875 56.83789062 C-36.2041312 52.23186238 -36.2041312 52.23186238 -38.39355469 48.33740234 C-40.21615235 46.80571804 -40.21615235 46.80571804 -43 45 C-43 44.67 -43 44.34 -43 44 C-40.03 44 -37.06 44 -34 44 C-33.731875 43.0925 -33.46375 42.185 -33.1875 41.25 C-32 38 -32 38 -30.3125 36.0625 C-28.3216873 32.93408004 -29.2603115 30.49670929 -30 27 C-28.7625 27.0825 -27.525 27.165 -26.25 27.25 C-23.24283851 27.45047743 -22.23724712 27.17134514 -19.75 25.375 C-17.48869589 22.30608729 -17.58614884 20.51857668 -17.75 16.75 C-17.80414063 15.13351563 -17.80414063 15.13351563 -17.859375 13.484375 C-17.90578125 12.66453125 -17.9521875 11.8446875 -18 11 C-17.21625 11.825 -16.4325 12.65 -15.625 13.5 C-13.36278736 16.22988506 -13.36278736 16.22988506 -11 16 C-9.41522101 13.73518525 -7.94150299 11.47838029 -6.5 9.125 C-2.22070312 2.22070312 -2.22070312 2.22070312 0 0 Z M1 130 C0.95314727 147.37728521 0.9179464 164.75455052 0.89637566 182.13188457 C0.88609095 190.20163276 0.87208467 198.27134156 0.84912109 206.34106445 C0.82910088 213.37984346 0.81626321 220.41859392 0.81182301 227.45740062 C0.80923015 231.17965629 0.80319526 234.90183033 0.78853989 238.62405968 C0.77225986 242.79327289 0.7720258 246.96234684 0.77294922 251.1315918 C0.76575867 252.34720291 0.75856812 253.56281403 0.75115967 254.81526184 C0.78045827 267.11069437 1.19561585 279.10205411 9.53125 288.77734375 C18.1225112 297.06466882 31.04390283 297.18528444 42.3125 297.25 C43.19873047 297.270625 44.08496094 297.29125 44.99804688 297.3125 C53.78165888 297.36375375 62.24748844 295.6738759 69.1796875 289.9765625 C79.28583105 279.00293881 79.3122325 263.47520847 79.22705078 249.40698242 C79.22734283 248.11761276 79.22763489 246.8282431 79.22793579 245.49980164 C79.22850299 242.00888944 79.21685293 238.51811838 79.20278788 235.02723861 C79.19017336 231.36243032 79.18910166 227.69761779 79.18673706 224.03279114 C79.18055347 217.1129133 79.16418552 210.19309966 79.14403808 203.27324992 C79.12158114 195.38677142 79.11066117 187.50028964 79.10064721 179.61378706 C79.07981604 163.40915397 79.04470167 147.20458521 79 131 C76.9232941 132.02762588 74.88258997 133.06721455 72.87109375 134.21875 C63.99671443 138.89097539 54.83056268 139.31746352 45 140 C44.90594149 145.96683641 45.18075808 151.65620859 46 157.5625 C46.09539062 158.28501953 46.19078125 159.00753906 46.2890625 159.75195312 C46.52085635 161.5019967 46.75966166 163.25110938 47 165 C46.01 165 45.02 165 44 165 C43.77213542 163.01432292 43.54427083 161.02864583 43.31640625 159.04296875 C43.02829265 156.80603607 43.02829265 156.80603607 42 154 C41.01 154.33 40.02 154.66 39 155 C38.67 158.3 38.34 161.6 38 165 C37.01 165 36.02 165 35 165 C35.0721875 164.28457031 35.144375 163.56914062 35.21875 162.83203125 C35.92965607 155.19966468 36.11123156 147.6626184 36 140 C34.76765625 139.92523438 33.5353125 139.85046875 32.265625 139.7734375 C21.77660845 138.99262267 14.07554338 137.55707149 5 132 C3.67077321 131.32518272 2.33805862 130.65713115 1 130 Z " fill="#F1E7B4" transform="translate(70,25)"/>
<path d="M0 0 C4.79152676 1.22469994 9.11523887 2.79305668 12 7 C12.96781586 12.44396422 10.84284709 15.55805142 8 20 C8.50789063 19.71125 9.01578125 19.4225 9.5390625 19.125 C13.84527328 16.80254924 16.97417876 15.38709497 22 16 C23 17 23 17 23.28125 19.29296875 C22.9268179 22.70437773 21.83582811 23.85153824 19.5 26.3125 C18.52546875 27.35857422 18.52546875 27.35857422 17.53125 28.42578125 C17.0259375 28.94527344 16.520625 29.46476562 16 30 C16.95261719 29.96519531 17.90523437 29.93039063 18.88671875 29.89453125 C20.14097656 29.86746094 21.39523438 29.84039062 22.6875 29.8125 C23.92886719 29.77769531 25.17023438 29.74289063 26.44921875 29.70703125 C30.18564321 30.0153171 32.00629483 30.81911727 35 33 C34.62198705 39.80423303 32.702899 45.24231311 29 51 C28.01 51.66 27.02 52.32 26 53 C26.7734375 52.7525 26.7734375 52.7525 27.5625 52.5 C30.80842738 51.83416874 33.69543832 51.75966824 37 52 C39.07473788 53.52875423 39.89786281 54.37970342 40.3203125 56.9453125 C39.70483092 63.81408696 36.74972397 68.10276907 32 73 C30.69098231 74.03162515 29.36411209 75.04241138 28 76 C29.4540625 76.680625 29.4540625 76.680625 30.9375 77.375 C34 79 34 79 35 81 C35.375 83.875 35.375 83.875 35 87 C31.41466781 90.51188963 27.97035377 91.89727368 23.1875 93.25 C21.44533203 93.75273437 21.44533203 93.75273437 19.66796875 94.265625 C18.78753906 94.50796875 17.90710938 94.7503125 17 95 C17.84304687 95.40992187 18.68609375 95.81984375 19.5546875 96.2421875 C20.65039062 96.78101562 21.74609375 97.31984375 22.875 97.875 C23.96554688 98.40867187 25.05609375 98.94234375 26.1796875 99.4921875 C29 101 29 101 31 103 C30.44444444 107.55555556 30.44444444 107.55555556 29 109 C21.39608317 109.44364779 14.27428751 109.327772 7 107 C7.71285156 107.3403125 8.42570312 107.680625 9.16015625 108.03125 C15.51328002 111.24628976 21.40099941 114.62497847 25 121 C25.30078125 123.62109375 25.30078125 123.62109375 25 126 C23 128 23 128 20 128.375 C14.96141801 128.26847607 10.52522998 126.03954027 6 124 C5.67 124.33 5.34 124.66 5 125 C5.49371094 125.49628906 5.98742187 125.99257812 6.49609375 126.50390625 C10.67269078 130.93261176 13.12424822 133.78758897 13 140 C10.5500632 142.4499368 9.8095533 142.29666876 6.4375 142.3125 C1.2068604 142.22874886 -3.18155434 140.95531128 -8 139 C-6.95199219 139.88751953 -6.95199219 139.88751953 -5.8828125 140.79296875 C-4.51769531 141.97826172 -4.51769531 141.97826172 -3.125 143.1875 C-2.22007812 143.96480469 -1.31515625 144.74210938 -0.3828125 145.54296875 C1.99586095 147.99573203 3.00190486 149.77053123 4 153 C2.02 154.65 0.04 156.3 -2 158 C-1.34 158.515625 -0.68 159.03125 0 159.5625 C2 162 2 162 2.4375 165.5625 C2 169 2 169 0.9375 171 C-2.13335213 172.58495594 -4.72186775 171.68036707 -8 171 C-7.71125 171.61746094 -7.4225 172.23492187 -7.125 172.87109375 C-4.63812238 178.54428332 -2.84287559 183.75691017 -4 190 C-6 192 -6 192 -8.12890625 192.23046875 C-8.93199219 192.21628906 -9.73507813 192.20210937 -10.5625 192.1875 C-11.77099609 192.17783203 -11.77099609 192.17783203 -13.00390625 192.16796875 C-15 192 -15 192 -16 191 C-16.08767112 188.92737924 -16.10695873 186.85179706 -16.09765625 184.77734375 C-16.09282227 182.88725586 -16.09282227 182.88725586 -16.08789062 180.95898438 C-16.07953403 179.61848891 -16.07106907 178.27799412 -16.0625 176.9375 C-16.0574866 175.59310058 -16.05292342 174.2486994 -16.04882812 172.90429688 C-16.03699488 169.60282059 -16.02050971 166.30143197 -16 163 C-13.03 162.67 -10.06 162.34 -7 162 C-7.5775 161.36191406 -8.155 160.72382813 -8.75 160.06640625 C-9.4925 159.24011719 -10.235 158.41382813 -11 157.5625 C-11.7425 156.73878906 -12.485 155.91507813 -13.25 155.06640625 C-15 153 -15 153 -15 152 C-11.37 152 -7.74 152 -4 152 C-4.86625 151.00742188 -5.7325 150.01484375 -6.625 148.9921875 C-13.20793913 141.10047992 -17.4316722 135.67487712 -16.71484375 125.0859375 C-15.88245299 121.49255664 -15.16642885 119.01566896 -13 116 C-10.08778164 115.04625599 -7.79371153 114.49992966 -4.8125 114.125 C-4.06291016 114.00898438 -3.31332031 113.89296875 -2.54101562 113.7734375 C-0.69751907 113.49162911 1.1509313 113.24257058 3 113 C-1.455 109.535 -1.455 109.535 -6 106 C-5.34 104.35 -4.68 102.7 -4 101 C2.93 100.01 2.93 100.01 10 99 C7.36 97.02 4.72 95.04 2 93 C2.33 91.35 2.66 89.7 3 88 C8.61 86.68 14.22 85.36 20 84 C16.7 82.68 13.4 81.36 10 80 C10 78.68 10 77.36 10 76 C11.95585325 74.99515796 13.91476237 73.99626195 15.875 73 C16.96554688 72.443125 18.05609375 71.88625 19.1796875 71.3125 C22 70 22 70 24 70 C24 69.34 24 68.68 24 68 C23.21625 67.690625 22.4325 67.38125 21.625 67.0625 C19 66 19 66 17 65 C16.88071749 49.69775785 16.88071749 49.69775785 19.625 45.53515625 C21.5625 43.9375 21.5625 43.9375 25 42 C24.11248047 42.04833984 24.11248047 42.04833984 23.20703125 42.09765625 C20.56402158 42.05885187 18.50942753 41.85462974 16 41 C13.47726 38.31359231 12.09114624 35.5055975 11 32 C11.11881659 28.73254389 11.56058956 26.87882088 13 24 C12.39671875 24.11859375 11.7934375 24.2371875 11.171875 24.359375 C10.37265625 24.48828125 9.5734375 24.6171875 8.75 24.75 C7.96109375 24.88921875 7.1721875 25.0284375 6.359375 25.171875 C4 25 4 25 1.71875 23.40625 C-0.48938069 20.31486703 -0.41342002 18.5086605 -0.25 14.75 C-0.21390625 13.67234375 -0.1778125 12.5946875 -0.140625 11.484375 C-0.09421875 10.66453125 -0.0478125 9.8446875 0 9 C-1.32 10.65 -2.64 12.3 -4 14 C-5.75 13.875 -5.75 13.875 -8 13 C-10.375 10.25 -10.375 10.25 -12 7 C-10.60713721 0.1904486 -6.28652651 -0.51528906 0 0 Z " fill="#2B2C29" transform="translate(169,28)"/>
<path d="M0 0 C2.5625 1.5 2.5625 1.5 4 3 C3.46884894 7.51478398 1.63379708 10.34666857 -1 14 C-4.16115776 12.63016497 -4.9927092 12.0109362 -7 9 C-6.94199219 9.73605469 -6.88398437 10.47210938 -6.82421875 11.23046875 C-6.45937644 19.12148671 -6.45937644 19.12148671 -9 23.25 C-13.19351889 25.69621935 -15.32807879 25.02940637 -20 24 C-19.649375 24.5775 -19.29875 25.155 -18.9375 25.75 C-17.55682176 29.06362778 -18.6353885 31.06891055 -19.91015625 34.32421875 C-22.97454217 40.60880683 -22.97454217 40.60880683 -26.109375 41.8046875 C-28.3125 42.0625 -28.3125 42.0625 -32 42 C-31.02804688 42.63292969 -30.05609375 43.26585937 -29.0546875 43.91796875 C-26.2661166 46.24177783 -25.52977496 47.82160773 -25.1953125 51.42578125 C-25.1425766 53.05400231 -25.11985693 54.68343326 -25.125 56.3125 C-25.104375 57.14845703 -25.08375 57.98441406 -25.0625 58.84570312 C-25.01561995 60.8967055 -25.00426071 62.94846635 -25 65 C-29.75 68 -29.75 68 -32 68 C-32 68.66 -32 69.32 -32 70 C-31.360625 70.0825 -30.72125 70.165 -30.0625 70.25 C-27.33085018 70.91897547 -24.86067531 71.71738839 -22.25 72.75 C-21.47140625 73.05421875 -20.6928125 73.3584375 -19.890625 73.671875 C-18 75 -18 75 -17 80 C-20.3 81.32 -23.6 82.64 -27 84 C-21.72 85.32 -16.44 86.64 -11 88 C-10.67 89.98 -10.34 91.96 -10 94 C-12.31 95.65 -14.62 97.3 -17 99 C-16.08476563 99.10957031 -15.16953125 99.21914062 -14.2265625 99.33203125 C-12.44378906 99.56986328 -12.44378906 99.56986328 -10.625 99.8125 C-8.84996094 100.03873047 -8.84996094 100.03873047 -7.0390625 100.26953125 C-4 101 -4 101 -2 104 C-2.2005216 106.65305501 -2.65332551 107.68408559 -4.62890625 109.484375 C-5.26699219 109.90203125 -5.90507813 110.3196875 -6.5625 110.75 C-7.20316406 111.17796875 -7.84382813 111.6059375 -8.50390625 112.046875 C-8.99761719 112.36140625 -9.49132813 112.6759375 -10 113 C-9.02417969 113.17015625 -8.04835937 113.3403125 -7.04296875 113.515625 C-5.77066406 113.75796875 -4.49835937 114.0003125 -3.1875 114.25 C-1.92292969 114.48203125 -0.65835938 114.7140625 0.64453125 114.953125 C4.43898761 116.13696005 5.12968508 116.60080697 7 120 C7.33996104 122.59546469 7.51495447 124.94838216 7.5390625 127.546875 C7.55141937 128.27690735 7.56377625 129.0069397 7.57650757 129.75909424 C7.59604193 131.30220558 7.60730032 132.84544096 7.61083984 134.38867188 C7.62488023 136.73002807 7.69216162 139.06597321 7.76171875 141.40625 C7.94000568 153.95080036 7.94000568 153.95080036 3.4609375 159.078125 C1.50927734 160.85644531 1.50927734 160.85644531 0 162 C2.31 162.33 4.62 162.66 7 163 C7 172.57 7 182.14 7 192 C4.36 192 1.72 192 -1 192 C-3 190 -3 190 -3.3125 186.4375 C-3.19245081 180.96525789 -1.43457454 175.86914908 1 171 C-0.093125 171.226875 -1.18625 171.45375 -2.3125 171.6875 C-6 172 -6 172 -7.9375 171 C-9.60791865 167.85568254 -9.42880369 165.49168717 -9 162 C-7 159.5625 -7 159.5625 -5 158 C-6.2375 157.443125 -6.2375 157.443125 -7.5 156.875 C-10 155 -10 155 -10.8125 152.3125 C-9.54595327 147.14888639 -5.87355898 144.45353451 -2 141 C-1.34 140.34 -0.68 139.68 0 139 C-0.54527344 139.2165625 -1.09054688 139.433125 -1.65234375 139.65625 C-7.06207119 141.65368783 -12.21275016 142.94211044 -18 142 C-18.66 141.34 -19.32 140.68 -20 140 C-20 133.59544121 -17.28016043 129.63151689 -13 125 C-12.01 124.34 -11.02 123.68 -10 123 C-10.94101562 123.3609375 -11.88203125 123.721875 -12.8515625 124.09375 C-14.10918415 124.56301181 -15.36700754 125.03173319 -16.625 125.5 C-18.46964844 126.19609375 -18.46964844 126.19609375 -20.3515625 126.90625 C-23.84471915 127.953449 -26.38816746 128.38130783 -30 128 C-32 126 -32 126 -32.1875 122.875 C-31.20666491 117.28190469 -26.3597407 114.14037572 -22 111 C-19.37003398 109.45576008 -16.80266044 108.2229791 -14 107 C-15.8253125 107.495 -15.8253125 107.495 -17.6875 108 C-23.699731 109.34030627 -29.87057745 109.59799244 -36 109 C-36.66 108.34 -37.32 107.68 -38 107 C-37.91141864 103.63390826 -37.29381333 102.30271677 -34.9375 99.875 C-31.38317308 97.60628069 -27.99051978 96.35271857 -24 95 C-25.32064453 94.63648437 -25.32064453 94.63648437 -26.66796875 94.265625 C-27.82941406 93.93046875 -28.99085937 93.5953125 -30.1875 93.25 C-31.33605469 92.92515625 -32.48460937 92.6003125 -33.66796875 92.265625 C-37.14559127 90.94469921 -39.37400711 89.62599289 -42 87 C-42.3125 83.25 -42.3125 83.25 -42 80 C-39.69 78.68 -37.38 77.36 -35 76 C-35.45890625 75.63648437 -35.9178125 75.27296875 -36.390625 74.8984375 C-41.55438706 70.66762405 -45.73611722 66.70391265 -46.9375 59.875 C-47 56 -47 56 -45.9375 53.5 C-43.1885333 51.37176772 -41.40814351 51.65918565 -38 52 C-36.32546201 52.291224 -34.65449105 52.61070799 -33 53 C-33.7425 52.38125 -34.485 51.7625 -35.25 51.125 C-39.44908899 46.93787422 -41.49839424 41.15027167 -42.41796875 35.375 C-42 33 -42 33 -39.95703125 31.19921875 C-36.33903015 29.73194486 -33.58020473 29.70335875 -29.6875 29.8125 C-27.80611328 29.85310547 -27.80611328 29.85310547 -25.88671875 29.89453125 C-24.93410156 29.92933594 -23.98148438 29.96414062 -23 30 C-23.5053125 29.48050781 -24.010625 28.96101563 -24.53125 28.42578125 C-25.1809375 27.72839844 -25.830625 27.03101562 -26.5 26.3125 C-27.1496875 25.62800781 -27.799375 24.94351563 -28.46875 24.23828125 C-30.28777755 21.57934557 -30.38737548 20.15818618 -30 17 C-29 16 -29 16 -26.4375 15.6875 C-21.98923964 16.09188731 -18.83790938 17.81804137 -15 20 C-15.30035156 19.50371094 -15.60070312 19.00742187 -15.91015625 18.49609375 C-17.94210276 14.86614185 -18.98406499 12.47805038 -19.125 8.25 C-17.66807766 4.04111325 -15.89044952 3.02303375 -12 1 C-7.96733389 -0.34422204 -4.21994677 -0.45703395 0 0 Z " fill="#2B2C29" transform="translate(60,28)"/>
<path d="M0 0 C-0.4839624 0.79962158 -0.9679248 1.59924316 -1.46655273 2.4230957 C-7.57577217 12.77856438 -12.35713413 23.51485406 -17.07543945 34.55834961 C-27.61793117 59.14902295 -27.61793117 59.14902295 -36 65 C-39.2837716 65.28554536 -41.03980235 64.77047185 -43.62109375 62.69921875 C-54.25547249 51.62276422 -60.09657565 35.85244292 -66.21923828 22.02441406 C-69.17172476 15.46925123 -72.34667715 9.64314987 -76.69287109 3.90380859 C-78 2 -78 2 -78 0 C-54.87703643 -7.0255612 -22.12389666 -11.83533669 0 0 Z " fill="#636053" transform="translate(150,16)"/>
<path d="M0 0 C16.17240006 0 32.36213404 9.10239587 43.9296875 19.7578125 C47.62209169 23.75675591 50.32352458 28.28326052 53 33 C53.5775 33.969375 54.155 34.93875 54.75 35.9375 C58.63034179 45.44433739 59.52201877 54.81276153 59.4375 65 C59.43137695 66.26730957 59.42525391 67.53461914 59.41894531 68.84033203 C59.24124154 79.63241891 57.700979 89.58506386 55 100 C54.72285156 101.20140625 54.44570312 102.4028125 54.16015625 103.640625 C47.98431819 129.02701925 37.84909358 154.20050647 25.8515625 177.37109375 C23.4049129 182.10518382 21.15755482 186.93535579 18.875 191.75 C12.76923382 204.59357245 6.39943477 217.30081013 0 230 C-0.33 230 -0.66 230 -1 230 C-1 219.77 -1 209.54 -1 199 C2.3 199 5.6 199 9 199 C10.45003806 197.77025539 10.45003806 197.77025539 10.25 194.0625 C10.21557434 188.70930995 8.75944536 184.01651385 7 179 C8.11375 179.04125 9.2275 179.0825 10.375 179.125 C14.04366025 179.41121859 14.04366025 179.41121859 16 177 C16.48602588 172.70677141 16.46241608 170.67917361 14 167.0625 C13.34 166.381875 12.68 165.70125 12 165 C12.804375 164.566875 13.60875 164.13375 14.4375 163.6875 C17.27846354 162.19525998 17.27846354 162.19525998 18 159 C16.7424021 157.02858097 16.7424021 157.02858097 14.875 155.125 C13.91013672 154.07699219 13.91013672 154.07699219 12.92578125 153.0078125 C10.64944582 150.63451349 8.36089008 148.28934796 6 146 C6.60585937 146.2165625 7.21171875 146.433125 7.8359375 146.65625 C13.95934414 148.69110513 19.53867513 149.67876544 26 149 C26.33 148.67 26.66 148.34 27 148 C27 141.83936601 24.7928601 139.07902826 20.59375 134.69921875 C19 133 19 133 18 131 C21.16827366 131.49504276 23.92709818 132.34663388 26.875 133.5625 C30.67728265 135.04156631 33.89821855 135.3348393 38 135 C39.36364533 133.8672967 39.36364533 133.8672967 39.0625 130.875 C38.3354895 126.44023592 35.80623934 124.3749574 32.41015625 121.64453125 C28.49113874 118.97045285 24.32800866 116.92454484 20 115 C23 114 23 114 25.8125 114.9375 C31.64734902 116.81930196 37.94753306 116.15110181 44 116 C44.33 114.35 44.66 112.7 45 111 C40.14310063 107.80832327 35.40747098 105.14045726 30 103 C30 102.67 30 102.34 30 102 C30.78503906 101.82984375 31.57007813 101.6596875 32.37890625 101.484375 C38.59243468 100.05107028 43.66722086 98.51478625 49 95 C49 92.36 49 89.72 49 87 C46.69 86.34 44.38 85.68 42 85 C43.051875 84.01 43.051875 84.01 44.125 83 C49.59990449 77.43124001 53.51812842 72.88738092 54.1875 64.8828125 C54.17627535 62.75390487 54.17627535 62.75390487 52 61 C47.52474708 60.74181233 43.39145699 61.14313034 39 62 C39.7425 61.34 40.485 60.68 41.25 60 C46.64177273 54.56227466 48.4652745 48.48615693 49 41 C45.25764681 38.55010899 41.55774581 38.76913857 37.25 38.875 C36.20392578 38.88853516 36.20392578 38.88853516 35.13671875 38.90234375 C33.42433042 38.92580112 31.71211996 38.96166896 30 39 C30.97819024 37.68677212 31.9575811 36.37443848 32.9375 35.0625 C33.48277344 34.33160156 34.02804688 33.60070313 34.58984375 32.84765625 C36 31 36 31 37 30 C37.04063832 28.33382885 37.042721 26.66611905 37 25 C32.08869497 24.6491925 29.28720178 25.6615263 25 28 C24.34 28 23.68 28 23 28 C24.875 23.25 24.875 23.25 26 21 C26.37995866 17.50438029 26.47137184 15.67877545 24.4375 12.75 C19.51832316 9.21828329 13.9519834 8.32619056 8 9 C5.55901182 10.85420839 5.55901182 10.85420839 4 13 C-0.06540996 11.64486335 -0.97300269 9.69203082 -3 6 C-2.8284131 2.91143577 -2.21356952 2.21356952 0 0 Z " fill="#666354" transform="translate(154,20)"/>
<path d="M0 0 C0.66 0.66 1.32 1.32 2 2 C1.71713004 5.96017943 -0.77750666 8.84549333 -3 12 C-3.495 11.01 -3.495 11.01 -4 10 C-8.23743495 7.40226814 -12.16669694 7.37609323 -17 8 C-20.07947833 8.86287396 -22.56687185 9.89950203 -25 12 C-26.49826144 16.25821672 -26.35708365 18.17715506 -24.5625 22.3125 C-24.046875 23.199375 -23.53125 24.08625 -23 25 C-23 25.66 -23 26.32 -23 27 C-28.75 25.125 -28.75 25.125 -31 24 C-32.99960012 23.960008 -35.00047242 23.95653201 -37 24 C-37.3077917 27.13837611 -37.27813784 28.59343628 -35.46875 31.23828125 C-34.49421875 32.26501953 -34.49421875 32.26501953 -33.5 33.3125 C-32.8503125 34.00988281 -32.200625 34.70726562 -31.53125 35.42578125 C-31.0259375 35.94527344 -30.520625 36.46476562 -30 37 C-34.14926391 38.26239397 -38.04999323 37.98729419 -42.34375 37.83984375 C-45.09833151 38.00592881 -46.65800538 38.59148908 -49 40 C-48.66704987 46.99195275 -47.38477289 52.39723464 -43 58 C-39.89885818 60.09903303 -39.89885818 60.09903303 -37 61 C-40.82408206 62.27469402 -42.23738839 61.25420387 -46 60 C-49.16848027 59.58190799 -49.16848027 59.58190799 -52 60 C-54.22486949 63.33730424 -54.27355685 64.91589371 -53.671875 68.8125 C-51.7906365 74.93746254 -46.56171896 79.70661745 -42 84 C-44.31 84.99 -46.62 85.98 -49 87 C-49.50125283 90.33142278 -49.50125283 90.33142278 -49 94 C-43.46807917 98.87335882 -37.14928692 100.14208557 -30 101 C-32.11720555 103.11720555 -33.63798755 103.80541345 -36.375 104.9375 C-39.58825468 106.31904428 -42.33654962 107.68395619 -45 110 C-44.67 111.65 -44.34 113.3 -44 115 C-35.36236818 115.44443238 -35.36236818 115.44443238 -26.9375 113.9375 C-23.86398944 112.95659237 -22.95362642 113.09168048 -20 114 C-21.30324219 114.63615234 -21.30324219 114.63615234 -22.6328125 115.28515625 C-32.23214737 119.98566582 -32.23214737 119.98566582 -39 128 C-39.58963678 130.75775342 -39.58963678 130.75775342 -39 133 C-38.0078024 134.22550712 -38.0078024 134.22550712 -36.06640625 134.01953125 C-30.16567489 133.53163927 -25.41507793 132.21261487 -20.03125 129.7421875 C-19.3609375 129.49726563 -18.690625 129.25234375 -18 129 C-17.34 129.33 -16.68 129.66 -16 130 C-16.70125 130.309375 -17.4025 130.61875 -18.125 130.9375 C-22.1580164 133.83075089 -24.84113364 137.53389158 -27 142 C-27.30854229 144.65233529 -27.30854229 144.65233529 -27 147 C-25.7775907 148.44244751 -25.7775907 148.44244751 -22.125 148.25 C-16.47496455 148.21360686 -11.3560775 146.68190845 -6 145 C-6.70125 145.70125 -7.4025 146.4025 -8.125 147.125 C-8.57488281 147.58261719 -9.02476563 148.04023438 -9.48828125 148.51171875 C-10.51781136 149.52528715 -11.57990756 150.50657031 -12.66796875 151.45703125 C-16.29609395 154.68426968 -16.29609395 154.68426968 -17.375 159.375 C-17.189375 160.674375 -17.189375 160.674375 -17 162 C-15.35 162.66 -13.7 163.32 -12 164 C-12.66 164.680625 -13.32 165.36125 -14 166.0625 C-16.46241608 169.67917361 -16.48602588 171.70677141 -16 176 C-14.04366025 178.41121859 -14.04366025 178.41121859 -10.375 178.125 C-9.26125 178.08375 -8.1475 178.0425 -7 178 C-7.2165625 178.70125 -7.433125 179.4025 -7.65625 180.125 C-9.36623259 185.95160734 -10.44986661 190.92680078 -10 197 C-8.28373595 198.92091092 -8.28373595 198.92091092 -1 199 C-1 209.23 -1 219.46 -1 230 C-3.678027 226.42929733 -5.63241707 222.95530741 -7.5546875 218.97265625 C-7.89254776 218.28033905 -8.23040802 217.58802185 -8.57850647 216.87472534 C-9.68272762 214.60655369 -10.77958082 212.33493454 -11.875 210.0625 C-12.25238312 209.28190216 -12.62976624 208.50130432 -13.01858521 207.697052 C-24.37450954 184.1877123 -34.95318356 160.50926946 -44 136 C-44.59078608 134.43476 -45.18189916 132.86964336 -45.7734375 131.3046875 C-49.70314899 120.74449416 -52.56676801 109.99608119 -55 99 C-55.16661133 98.27264648 -55.33322266 97.54529297 -55.50488281 96.79589844 C-60.6239092 73.82916929 -60.88283435 48.49459332 -48.76953125 27.76171875 C-39.32478766 13.02124697 -18.21592488 -1.42869999 0 0 Z " fill="#666354" transform="translate(68,21)"/>
<path d="M0 0 C7.99173503 1.62261034 16.36465405 5.63754693 21.2578125 12.296875 C21.64710938 12.92078125 22.03640625 13.5446875 22.4375 14.1875 C22.84742188 14.83203125 23.25734375 15.4765625 23.6796875 16.140625 C27.86404183 23.93218134 27.68384667 33.50127039 25.5 41.9375 C22.076461 50.51234535 14.97805685 56.53471974 6.89453125 60.54296875 C2.7917311 61.61921998 -0.54358044 60.67503686 -4.31982422 58.86816406 C-5.70451904 58.04396973 -5.70451904 58.04396973 -7.1171875 57.203125 C-8.65826172 56.29433594 -8.65826172 56.29433594 -10.23046875 55.3671875 C-11.81794922 54.41199219 -11.81794922 54.41199219 -13.4375 53.4375 C-14.48808594 52.81617188 -15.53867188 52.19484375 -16.62109375 51.5546875 C-22.31731144 48.17545448 -27.96216415 44.72313372 -33.5625 41.1875 C-33.10780516 30.50217121 -25.20177281 23.45222322 -18.24609375 16.0546875 C-16.00464743 13.65989623 -13.8289925 11.23356898 -11.6875 8.75 C-10.86958984 7.82574219 -10.86958984 7.82574219 -10.03515625 6.8828125 C-8.68894467 5.3330623 -7.40337615 3.73116491 -6.125 2.125 C-3.5625 0.1875 -3.5625 0.1875 0 0 Z " fill="#FEFEFC" transform="translate(152.5625,52.8125)"/>
<path d="M0 0 C2.37968269 1.83789578 4.28273602 4.04851093 6.25 6.3125 C6.81847656 6.94607422 7.38695312 7.57964844 7.97265625 8.23242188 C12.1581568 12.93284292 16.19986285 17.74735131 20.12890625 22.6640625 C21.68956893 24.61244722 23.29357035 26.49758469 24.9375 28.375 C27.51744882 31.65857123 28.69246748 34.31680863 29.4375 38.39453125 C29 41 29 41 26.38671875 43.0703125 C25.16471389 43.77476636 23.93046865 44.45823164 22.6875 45.125 C21.31611583 45.89531652 19.94503706 46.66617693 18.57421875 47.4375 C17.8373584 47.84484375 17.10049805 48.2521875 16.34130859 48.671875 C13.86209118 50.07822982 11.44139425 51.55969574 9.01953125 53.0625 C7.3463715 54.08336174 5.67319467 55.10419549 4 56.125 C3.21197998 56.62273926 2.42395996 57.12047852 1.61206055 57.63330078 C-2.16956157 59.89368219 -4.28576586 61.00590887 -8.77734375 60.96875 C-17.28548113 58.41115234 -23.91302634 52.44307505 -28.25390625 44.7890625 C-31.70365334 37.36068723 -32.40211746 29.40935257 -30.33984375 21.453125 C-26.88063662 12.76766987 -20.3587978 6.07223483 -12 2 C-7.94993915 0.55845292 -4.27244762 -0.69652712 0 0 Z " fill="#FEFEFC" transform="translate(75,53)"/>
<path d="M0 0 C8.92856792 -0.69724175 16.09152167 1.22564268 23.875 5.625 C30.99114146 13.57833458 32.41930706 23.17318045 33.453125 33.41796875 C33.57457886 34.59649414 33.57457886 34.59649414 33.69848633 35.79882812 C33.85367327 37.34974646 33.99741527 38.90186844 34.12768555 40.45507812 C34.63565275 45.7533689 35.79382997 50.13579378 38 55 C43.00343273 58.33562182 48.1625084 57.67084077 54 57 C63.35076735 54.76261957 74.4128539 50.93911846 82 45 C83.01628003 43.0328735 83.01628003 43.0328735 83 41 C82.360625 40.2575 81.72125 39.515 81.0625 38.75 C78.20250843 34.9366779 78.68296933 32.67620234 79 28 C84.93434294 27.50547142 89.11799382 28.48733702 94 32 C99.7110645 37.58243692 102.72556625 44.5861706 103.12890625 52.54296875 C102.63085083 62.27768835 97.60309096 69.23345071 90.71484375 75.80078125 C85.5666 79.97122907 79.86979955 82.98933962 74 86 C72.57107422 86.74443359 72.57107422 86.74443359 71.11328125 87.50390625 C57.38088352 94.21975039 41.84155317 96.48047594 27 92.375 C16.30554961 88.59040411 8.46874448 80.76320005 2.4375 71.25 C0.92070361 67.82072122 0.73715392 66.47282671 2 63 C5.18272124 65.90189289 7.52909785 68.71530066 9.8125 72.375 C15.48747178 81.02394433 22.90879002 86.44356014 33 89 C52.86400622 91.99214865 71.92458892 83.46711841 87.74609375 72.01171875 C90.03613887 69.96774434 91.59401479 68.01299279 93.25 65.4375 C93.75015625 64.67308594 94.2503125 63.90867187 94.765625 63.12109375 C98.01480446 57.53785183 97.74644981 51.2542348 97 45 C94.87899118 39.56051243 91.81031444 36.09474298 86.625 33.4375 C84.830625 32.7259375 84.830625 32.7259375 83 32 C83.474375 32.7425 83.94875 33.485 84.4375 34.25 C85.87971662 36.78830125 87 39.03768738 87 42 C87.66 42 88.32 42 89 42 C88.75547233 45.30112354 87.85102186 46.1362337 85.3515625 48.421875 C73.98093302 57.57207416 58.28054233 62.862405 43.78515625 62.31640625 C38.66978203 61.73527678 36.10965814 60.26377732 32.75 56.4375 C29.46253931 49.97998793 28.98918405 43.47478628 28.625 36.3125 C28.09370604 27.94003997 27.197399 17.68617336 21.546875 11.171875 C14.97183089 5.56493554 7.32030446 5.06349756 -1 4 C-0.67 2.68 -0.34 1.36 0 0 Z " fill="#F3EAB8" transform="translate(176,216)"/>
<path d="M0 0 C1.40406096 3.76717076 0.56321676 6.06705686 -0.7734375 9.77734375 C-1.18166748 10.92058105 -1.58989746 12.06381836 -2.01049805 13.24169922 C-2.46078369 14.46131348 -2.91106934 15.68092773 -3.375 16.9375 C-3.83580488 18.20324717 -4.29649726 19.46903529 -4.75708008 20.73486328 C-10.07741045 35.24718948 -16.02104743 49.43724843 -23.078125 63.1953125 C-25.53003957 67.99719636 -27.81438546 72.87905233 -30.125 77.75 C-36.23110246 90.5934242 -42.60055858 103.30079693 -49 116 C-49.33 116 -49.66 116 -50 116 C-50 106.43 -50 96.86 -50 87 C-46.7 87 -43.4 87 -40 87 C-36.88405183 84.45452346 -36.88405183 84.45452346 -36.63671875 81.984375 C-36.75071553 76.96851671 -37.38097296 72.75589194 -39 68 C-37.865625 67.525625 -36.73125 67.05125 -35.5625 66.5625 C-32.24259834 65.36377917 -32.24259834 65.36377917 -31 64 C-30.58546287 57.6850015 -30.58546287 57.6850015 -33 52 C-32.505 51.62875 -32.01 51.2575 -31.5 50.875 C-29.74989231 49.01949802 -29.74989231 49.01949802 -29.625 46.125 C-30.03731896 42.68900864 -31.02198139 40.80219303 -33 38 C-32.22914063 37.95101562 -31.45828125 37.90203125 -30.6640625 37.8515625 C-29.66117188 37.77679688 -28.65828125 37.70203125 -27.625 37.625 C-26.62726563 37.55539063 -25.62953125 37.48578125 -24.6015625 37.4140625 C-21.84491121 37.23636036 -21.84491121 37.23636036 -20 35 C-20.3341687 29.90392738 -21.06274123 26.84314693 -23 22 C-18.38 22 -13.76 22 -9 22 C-7.54852097 19.09704195 -7.62760975 17.22738221 -8 14 C-10.40432457 10.685931 -13.10685569 7.87617573 -16 5 C-15.26394531 4.97421875 -14.52789062 4.9484375 -13.76953125 4.921875 C-6.08058844 4.50939957 -6.08058844 4.50939957 0 0 Z " fill="#666354" transform="translate(203,134)"/>
<path d="M0 0 C4.96417375 1.82890612 9.02601409 3.53902114 12 8 C12.33333333 14.33333333 12.33333333 14.33333333 11 17 C11.99 16.67 12.98 16.34 14 16 C17.5625 15.8125 17.5625 15.8125 21 16 C23 18 23 18 23.375 20.75 C22.91474381 24.73888701 21.40615735 26.84191848 19 30 C20.175625 29.938125 21.35125 29.87625 22.5625 29.8125 C27.15987879 29.84522156 30.08263765 30.52166872 34 33 C35.73721917 37.08246505 35.36505345 38.93802632 33.92578125 43.125 C32.69143 46.12422596 31.39032392 49.07021707 30 52 C31.093125 52.0825 32.18625 52.165 33.3125 52.25 C37 53 37 53 38.9375 54.625 C40.45521284 58.01753459 40.43799353 60.30834022 40 64 C37.5224487 69.43155478 34.34637059 72.94997286 30 77 C31.2065625 78.051875 31.2065625 78.051875 32.4375 79.125 C35.28786573 82.32297131 36.08868542 83.74309969 36 88 C33.15933479 93.68133041 27.66545616 95.06466288 22 97 C22.56589844 97.35191406 23.13179687 97.70382813 23.71484375 98.06640625 C29.63438314 102.05091167 29.63438314 102.05091167 30.75390625 104.95703125 C31 106.875 31 106.875 31 110 C27.92307254 112.6815279 25.80265337 113.42087807 21.75 113.6875 C20.85796875 113.75324219 19.9659375 113.81898438 19.046875 113.88671875 C18.03367187 113.94279297 18.03367187 113.94279297 17 114 C17.94875 114.763125 18.8975 115.52625 19.875 116.3125 C22.16609895 118.15534046 23.31224944 119.46837417 25 122 C25.33957563 126.07490752 25.31332486 127.53001271 23 131 C19.9609375 131.29296875 19.9609375 131.29296875 16.375 131.1875 C15.18648437 131.16042969 13.99796875 131.13335937 12.7734375 131.10546875 C11.85820312 131.07066406 10.94296875 131.03585938 10 131 C10.495 132.051875 10.99 133.10375 11.5 134.1875 C12.80529844 137.26427489 13.563032 139.62180801 13 143 C11.29163002 145.27597174 10.33696541 145.9304843 7.51953125 146.51171875 C6.17955078 146.59873047 6.17955078 146.59873047 4.8125 146.6875 C3.91144531 146.75324219 3.01039063 146.81898438 2.08203125 146.88671875 C1.05142578 146.94279297 1.05142578 146.94279297 0 147 C0.48726562 147.598125 0.97453125 148.19625 1.4765625 148.8125 C3.51688972 151.74220063 3.43806055 153.4955156 3 157 C1.5 159.375 1.5 159.375 0 161 C0.66 161.99 1.32 162.98 2 164 C2.5730659 169.15759312 2.5730659 169.15759312 2 172 C-0.59260176 174.7327424 -2.43935006 175.81311669 -6 177 C-5.67 177.804375 -5.34 178.60875 -5 179.4375 C-3.53095048 184.67098892 -2.69606389 189.67559215 -5.4375 194.5625 C-9.2277801 196.68875469 -12.74983302 196.32693592 -17 196 C-17 195.01 -17 194.02 -17 193 C-16.36191406 193.01160156 -15.72382813 193.02320313 -15.06640625 193.03515625 C-14.24011719 193.04417969 -13.41382813 193.05320313 -12.5625 193.0625 C-11.32693359 193.07990234 -11.32693359 193.07990234 -10.06640625 193.09765625 C-8.00836062 193.23267348 -8.00836062 193.23267348 -7 192 C-6.55865162 185.04876301 -7.70358908 179.54750493 -10 173 C-8.88625 173.04125 -7.7725 173.0825 -6.625 173.125 C-2.95633975 173.41121859 -2.95633975 173.41121859 -1 171 C-0.51397412 166.70677141 -0.53758392 164.67917361 -3 161.0625 C-3.66 160.381875 -4.32 159.70125 -5 159 C-4.195625 158.566875 -3.39125 158.13375 -2.5625 157.6875 C0.27846354 156.19525998 0.27846354 156.19525998 1 153 C-0.2575979 151.02858097 -0.2575979 151.02858097 -2.125 149.125 C-3.08986328 148.07699219 -3.08986328 148.07699219 -4.07421875 147.0078125 C-6.35055418 144.63451349 -8.63910992 142.28934796 -11 140 C-10.39414063 140.2165625 -9.78828125 140.433125 -9.1640625 140.65625 C-3.04065586 142.69110513 2.53867513 143.67876544 9 143 C9.33 142.67 9.66 142.34 10 142 C10 135.83936601 7.7928601 133.07902826 3.59375 128.69921875 C2 127 2 127 1 125 C4.16827366 125.49504276 6.92709818 126.34663388 9.875 127.5625 C13.67728265 129.04156631 16.89821855 129.3348393 21 129 C22.36364533 127.8672967 22.36364533 127.8672967 22.0625 124.875 C21.3354895 120.44023592 18.80623934 118.3749574 15.41015625 115.64453125 C11.49113874 112.97045285 7.32800866 110.92454484 3 109 C6 108 6 108 8.8125 108.9375 C14.64734902 110.81930196 20.94753306 110.15110181 27 110 C27.33 108.35 27.66 106.7 28 105 C23.14310063 101.80832327 18.40747098 99.14045726 13 97 C13 96.67 13 96.34 13 96 C13.78503906 95.82984375 14.57007813 95.6596875 15.37890625 95.484375 C21.59243468 94.05107028 26.66722086 92.51478625 32 89 C32 86.36 32 83.72 32 81 C29.69 80.34 27.38 79.68 25 79 C26.051875 78.01 26.051875 78.01 27.125 77 C32.59990449 71.43124001 36.51812842 66.88738092 37.1875 58.8828125 C37.17627535 56.75390487 37.17627535 56.75390487 35 55 C30.52474708 54.74181233 26.39145699 55.14313034 22 56 C22.7425 55.34 23.485 54.68 24.25 54 C29.64177273 48.56227466 31.4652745 42.48615693 32 35 C28.25764681 32.55010899 24.55774581 32.76913857 20.25 32.875 C19.20392578 32.88853516 19.20392578 32.88853516 18.13671875 32.90234375 C16.42433042 32.92580112 14.71211996 32.96166896 13 33 C13.97819024 31.68677212 14.9575811 30.37443848 15.9375 29.0625 C16.48277344 28.33160156 17.02804688 27.60070312 17.58984375 26.84765625 C19 25 19 25 20 24 C20.04063832 22.33382885 20.042721 20.66611905 20 19 C15.08869497 18.6491925 12.28720178 19.6615263 8 22 C7.34 22 6.68 22 6 22 C7.875 17.25 7.875 17.25 9 15 C9.37995866 11.50438029 9.47137184 9.67877545 7.4375 6.75 C2.51832316 3.21828329 -3.0480166 2.32619056 -9 3 C-11.44098818 4.85420839 -11.44098818 4.85420839 -13 7 C-13.99 6.67 -14.98 6.34 -16 6 C-10.633643 0.49242308 -7.65675731 -1.05092747 0 0 Z " fill="#ACA94F" transform="translate(171,26)"/>
<path d="M0 0 C0.86625 0.66 1.7325 1.32 2.625 2 C2.295 2.99 1.965 3.98 1.625 5 C1.625 4.34 1.625 3.68 1.625 3 C-2.75729361 0.53249234 -6.43853549 0.36277664 -11.375 1 C-14.45447833 1.86287396 -16.94187185 2.89950203 -19.375 5 C-20.87326144 9.25821672 -20.73208365 11.17715506 -18.9375 15.3125 C-18.421875 16.199375 -17.90625 17.08625 -17.375 18 C-17.375 18.66 -17.375 19.32 -17.375 20 C-23.125 18.125 -23.125 18.125 -25.375 17 C-27.37460012 16.960008 -29.37547242 16.95653201 -31.375 17 C-31.6827917 20.13837611 -31.65313784 21.59343628 -29.84375 24.23828125 C-29.1940625 24.92277344 -28.544375 25.60726562 -27.875 26.3125 C-26.90046875 27.35857422 -26.90046875 27.35857422 -25.90625 28.42578125 C-25.4009375 28.94527344 -24.895625 29.46476562 -24.375 30 C-28.52426391 31.26239397 -32.42499323 30.98729419 -36.71875 30.83984375 C-39.47333151 31.00592881 -41.03300538 31.59148908 -43.375 33 C-43.04204987 39.99195275 -41.75977289 45.39723464 -37.375 51 C-34.27385818 53.09903303 -34.27385818 53.09903303 -31.375 54 C-35.19908206 55.27469402 -36.61238839 54.25420387 -40.375 53 C-43.54348027 52.58190799 -43.54348027 52.58190799 -46.375 53 C-48.59986949 56.33730424 -48.64855685 57.91589371 -48.046875 61.8125 C-46.1656365 67.93746254 -40.93671896 72.70661745 -36.375 77 C-38.685 77.99 -40.995 78.98 -43.375 80 C-43.87625283 83.33142278 -43.87625283 83.33142278 -43.375 87 C-37.84307917 91.87335882 -31.52428692 93.14208557 -24.375 94 C-26.49220555 96.11720555 -28.01298755 96.80541345 -30.75 97.9375 C-33.96325468 99.31904428 -36.71154962 100.68395619 -39.375 103 C-39.045 104.65 -38.715 106.3 -38.375 108 C-29.73736818 108.44443238 -29.73736818 108.44443238 -21.3125 106.9375 C-18.23898944 105.95659237 -17.32862642 106.09168048 -14.375 107 C-15.67824219 107.63615234 -15.67824219 107.63615234 -17.0078125 108.28515625 C-26.60714737 112.98566582 -26.60714737 112.98566582 -33.375 121 C-33.96463678 123.75775342 -33.96463678 123.75775342 -33.375 126 C-32.3828024 127.22550712 -32.3828024 127.22550712 -30.44140625 127.01953125 C-24.54067489 126.53163927 -19.79007793 125.21261487 -14.40625 122.7421875 C-13.7359375 122.49726563 -13.065625 122.25234375 -12.375 122 C-11.385 122.495 -11.385 122.495 -10.375 123 C-11.07625 123.309375 -11.7775 123.61875 -12.5 123.9375 C-16.5330164 126.83075089 -19.21613364 130.53389158 -21.375 135 C-21.68354229 137.65233529 -21.68354229 137.65233529 -21.375 140 C-20.1525907 141.44244751 -20.1525907 141.44244751 -16.5 141.25 C-10.84996455 141.21360686 -5.7310775 139.68190845 -0.375 138 C-1.07625 138.70125 -1.7775 139.4025 -2.5 140.125 C-2.94988281 140.58261719 -3.39976563 141.04023438 -3.86328125 141.51171875 C-4.89281136 142.52528715 -5.95490756 143.50657031 -7.04296875 144.45703125 C-10.67109395 147.68426968 -10.67109395 147.68426968 -11.75 152.375 C-11.564375 153.674375 -11.564375 153.674375 -11.375 155 C-9.725 155.66 -8.075 156.32 -6.375 157 C-7.035 157.680625 -7.695 158.36125 -8.375 159.0625 C-10.83741608 162.67917361 -10.86102588 164.70677141 -10.375 169 C-8.41866025 171.41121859 -8.41866025 171.41121859 -4.75 171.125 C-3.63625 171.08375 -2.5225 171.0425 -1.375 171 C-1.5915625 171.70125 -1.808125 172.4025 -2.03125 173.125 C-3.74123259 178.95160734 -4.82486661 183.92680078 -4.375 190 C-2.87756881 191.49743119 -1.38675761 191.33202693 0.6875 191.5625 C1.986875 191.706875 3.28625 191.85125 4.625 192 C4.625 192.66 4.625 193.32 4.625 194 C3.18844146 194.08131463 1.7505517 194.13933559 0.3125 194.1875 C-0.48800781 194.22230469 -1.28851563 194.25710937 -2.11328125 194.29296875 C-4.375 194 -4.375 194 -6.1484375 192.75390625 C-8.42438094 189.4994521 -7.75907083 185.80922709 -7.375 182 C-6.8581374 179.57472162 -6.17636922 177.35402207 -5.375 175 C-6.138125 174.731875 -6.90125 174.46375 -7.6875 174.1875 C-11.90244887 172.32508073 -11.90244887 172.32508073 -13.375 170 C-13.73802306 165.42590939 -13.99904613 161.93606919 -11.375 158 C-11.87 157.62875 -12.365 157.2575 -12.875 156.875 C-14.375 155 -14.375 155 -14.75 152.125 C-14.33768104 148.68900864 -13.35301861 146.80219303 -11.375 144 C-12.06207031 144.03480469 -12.74914063 144.06960937 -13.45703125 144.10546875 C-14.35808594 144.13253906 -15.25914063 144.15960938 -16.1875 144.1875 C-17.08082031 144.22230469 -17.97414062 144.25710937 -18.89453125 144.29296875 C-21.375 144 -21.375 144 -23.2109375 142.734375 C-24.92047715 140.18727566 -24.31681403 137.9573531 -23.89453125 135.03515625 C-23.33016169 132.82435518 -22.46217904 130.99987255 -21.375 129 C-22.29023437 129.02320313 -23.20546875 129.04640625 -24.1484375 129.0703125 C-25.33695313 129.08835938 -26.52546875 129.10640625 -27.75 129.125 C-28.93335937 129.14820313 -30.11671875 129.17140625 -31.3359375 129.1953125 C-34.375 129 -34.375 129 -36.375 127 C-36.92473442 123.49544307 -37.064301 121.07201107 -35.1015625 118.01953125 C-31.21205357 113.41852679 -31.21205357 113.41852679 -28.375 112 C-29.05046875 111.96261719 -29.7259375 111.92523438 -30.421875 111.88671875 C-31.31390625 111.82097656 -32.2059375 111.75523437 -33.125 111.6875 C-34.00671875 111.62949219 -34.8884375 111.57148438 -35.796875 111.51171875 C-38.75063942 110.92544127 -40.20281724 110.06357362 -42.375 108 C-43.125 105.1875 -43.125 105.1875 -42.375 102 C-39.92491612 99.65111524 -37.24242627 97.80494243 -34.375 96 C-37.40930927 93.97712715 -40.50744613 92.09625947 -43.6328125 90.21875 C-45.375 89 -45.375 89 -46.375 87 C-46.75 83.6875 -46.75 83.6875 -46.375 80 C-43.875 77.0625 -43.875 77.0625 -41.375 75 C-42.096875 74.34 -42.81875 73.68 -43.5625 73 C-47.81555232 68.69834137 -50.97802243 64.34216767 -52 58.3125 C-51.1944539 54.04310569 -49.85272302 52.55033022 -46.375 50 C-43.69921875 49.87109375 -43.69921875 49.87109375 -41.375 50 C-41.74753906 49.21496094 -42.12007812 48.42992187 -42.50390625 47.62109375 C-47.38556079 36.78036228 -47.38556079 36.78036228 -45.375 31 C-41.74304504 28.57869669 -39.99150652 28.78977215 -35.6875 28.875 C-34.50800781 28.89304687 -33.32851563 28.91109375 -32.11328125 28.9296875 C-30.75783203 28.96449219 -30.75783203 28.96449219 -29.375 29 C-29.7359375 28.56429687 -30.096875 28.12859375 -30.46875 27.6796875 C-32.8845804 24.57937182 -34.28797541 22.6589005 -34.8125 18.6875 C-34.375 16 -34.375 16 -32.375 14 C-28.681493 13.79853598 -25.89559568 13.82646811 -22.375 15 C-22.50519531 14.40832031 -22.63539062 13.81664062 -22.76953125 13.20703125 C-23.88975635 6.78929307 -23.88975635 6.78929307 -21.5 3.125 C-14.96346722 -1.31984229 -7.21114201 -4.27326934 0 0 Z " fill="#AEAB4F" transform="translate(62.375,28)"/>
<path d="M0 0 C3.66182182 2.64897749 4.84097547 4.01051403 5.5625 8.5 C4.91877781 12.50538252 3.84054174 14.15945826 1 17 C-2.10048928 18.55024464 -4.57894218 18.28992015 -8 18 C-10.75329021 16.20437595 -12.52627461 14.94745078 -14 12 C-14.40417552 9.03604618 -14.56382171 6.91095074 -12.953125 4.30859375 C-8.66744425 -0.92245776 -6.57621564 -1.56045795 0 0 Z " fill="#494848" transform="translate(79,78)"/>
<path d="M0 0 C3.66182182 2.64897749 4.84097547 4.01051403 5.5625 8.5 C4.91877781 12.50538252 3.84054174 14.15945826 1 17 C-2.13871188 18.56935594 -4.53855822 18.35201103 -8 18 C-11.77323546 15.2931137 -12.83964191 13.75244948 -13.8125 9.1875 C-13.874375 8.135625 -13.93625 7.08375 -14 6 C-13.34 5.67 -12.68 5.34 -12 5 C-11.67 5.66 -11.34 6.32 -11 7 C-10.01 7 -9.02 7 -8 7 C-7.34 5.35 -6.68 3.7 -6 2 C-7.65 2.66 -9.3 3.32 -11 4 C-8.42826312 -1.69456022 -5.96617422 -1.41570236 0 0 Z " fill="#424242" transform="translate(153,78)"/>
<path d="M0 0 C2.97 0 5.94 0 9 0 C9.66 8.25 10.32 16.5 11 25 C10.01 25 9.02 25 8 25 C7.34 21.37 6.68 17.74 6 14 C5.01 14.495 5.01 14.495 4 15 C3.31068656 17.34907875 3.31068656 17.34907875 2.875 20.0625 C2.70742187 20.98160156 2.53984375 21.90070313 2.3671875 22.84765625 C2.24601562 23.55792969 2.12484375 24.26820313 2 25 C1.01 25 0.02 25 -1 25 C-1.13605482 16.60995285 -0.75475351 8.35619957 0 0 Z " fill="#D281A9" transform="translate(106,165)"/>
<path d="M0 0 C3.16284266 3.08636632 6.09593288 6.20153479 8.8125 9.6875 C9.41707031 10.45449219 10.02164063 11.22148437 10.64453125 12.01171875 C12 14 12 14 12 16 C7.05 16.495 7.05 16.495 2 17 C2.5775 17.63808594 3.155 18.27617187 3.75 18.93359375 C4.4925 19.75988281 5.235 20.58617187 6 21.4375 C6.7425 22.26121094 7.485 23.08492187 8.25 23.93359375 C10 26 10 26 10 27 C6.7 27 3.4 27 0 27 C0 36.24 0 45.48 0 55 C-0.33 55 -0.66 55 -1 55 C-1.12958011 36.63152162 -0.87443175 18.35143875 0 0 Z " fill="#888648" transform="translate(153,164)"/>
<path d="M0 0 C0.515625 0.66 1.03125 1.32 1.5625 2 C2.366875 2.99 3.17125 3.98 4 5 C4.53238281 5.66257813 5.06476563 6.32515625 5.61328125 7.0078125 C9.05743589 11.14690744 11.8576226 13.99321857 17 16 C17 16.33 17 16.66 17 17 C10.4 17 3.8 17 -3 17 C-3.42857143 5.28571429 -3.42857143 5.28571429 0 0 Z " fill="#686554" transform="translate(156,144)"/>
<path d="M0 0 C2 2 2 2 2.1953125 5.0390625 C2.13020833 8.359375 2.06510417 11.6796875 2 15 C-3.94 15 -9.88 15 -16 15 C-14.68 14.01 -13.36 13.02 -12 12 C-7.54193188 8.32557667 -3.41758011 4.69917266 0 0 Z " fill="#A8A54D" transform="translate(65,146)"/>
<path d="M0 0 C8.75 5.625 8.75 5.625 11 9 C9.45998293 9.34087334 7.91787594 9.67230953 6.375 10 C5.51648438 10.185625 4.65796875 10.37125 3.7734375 10.5625 C1 11 1 11 -5 11 C-3.35 7.37 -1.7 3.74 0 0 Z " fill="#B5B155" transform="translate(162,133)"/>
<path d="M0 0 C2 2 2 2 2.22705078 5.43994141 C2.22673369 6.91051979 2.21540987 8.38112142 2.1953125 9.8515625 C2.1924826 10.62559418 2.18965271 11.39962585 2.18673706 12.19711304 C2.17552754 14.67323157 2.15042203 17.1489905 2.125 19.625 C2.11497118 21.30207812 2.10584516 22.97916189 2.09765625 24.65625 C2.07558574 28.77097223 2.04105102 32.88542511 2 37 C1.67 37 1.34 37 1 37 C1 27.76 1 18.52 1 9 C-1.64 9 -4.28 9 -7 9 C-5.03681826 5.46627288 -2.95929119 2.75520215 0 0 Z " fill="#B5AF7C" transform="translate(66,182)"/>
<path d="M0 0 C3.96 1.65 7.92 3.3 12 5 C8.89069252 6.55465374 6.78638601 7.41595096 3.5 8.125 C2.7471875 8.29257813 1.994375 8.46015625 1.21875 8.6328125 C-1 9 -1 9 -5 9 C-3.81323934 4.89198233 -3.10551666 3.10551666 0 0 Z " fill="#A29F53" transform="translate(178,107)"/>
<path d="M0 0 C3.02126426 3.59674316 3.99902381 6.33105555 6 11 C0.72 10.34 -4.56 9.68 -10 9 C-6.85132448 5.85132448 -4.67466905 4.18493836 -1 2 C-0.67 1.34 -0.34 0.68 0 0 Z " fill="#AEAB53" transform="translate(58,133)"/>
<path d="M0 0 C4.50758938 4.50758938 4.14368833 11.2415423 4.1875 17.25 C4.16701175 21.00344672 4.11350294 24.4011585 3 28 C2.34 28 1.68 28 1 28 C0.38673965 18.6587308 -0.1820896 9.36749815 0 0 Z " fill="#A49067" transform="translate(174,257)"/>
<path d="M0 0 C0.515625 0.66 1.03125 1.32 1.5625 2 C2.366875 2.99 3.17125 3.98 4 5 C4.53238281 5.66257813 5.06476563 6.32515625 5.61328125 7.0078125 C9.05743589 11.14690744 11.8576226 13.99321857 17 16 C17 16.33 17 16.66 17 17 C10.4 17 3.8 17 -3 17 C-3 16.34 -3 15.68 -3 15 C2.445 14.505 2.445 14.505 8 14 C7.33871094 13.32453125 6.67742187 12.6490625 5.99609375 11.953125 C5.15175781 11.06109375 4.30742187 10.1690625 3.4375 9.25 C2.59058594 8.36828125 1.74367187 7.4865625 0.87109375 6.578125 C-1 4 -1 4 -0.77734375 1.671875 C-0.52082031 1.12015625 -0.26429688 0.5684375 0 0 Z " fill="#A9A74F" transform="translate(156,144)"/>
<path d="M0 0 C2.87760072 3.40080085 3.46951823 5.40855469 5 10 C-0.28 9.01 -5.56 8.02 -11 7 C-8.13888288 4.13888288 -6.7184603 3.2084996 -3 2 C-2.01 2 -1.02 2 0 2 C0 1.34 0 0.68 0 0 Z " fill="#AAA755" transform="translate(43,106)"/>
<path d="M0 0 C1.29608947 0.93137592 2.58671632 1.8703566 3.875 2.8125 C4.95394531 3.59560547 4.95394531 3.59560547 6.0546875 4.39453125 C8 6 8 6 10 9 C5.38 9.33 0.76 9.66 -4 10 C-3.06588007 6.2635203 -1.77257035 3.39100415 0 0 Z " fill="#AAA753" transform="translate(170,119)"/>
<path d="M0 0 C0.33 0 0.66 0 1 0 C1 4.29 1 8.58 1 13 C-1.97 13 -4.94 13 -8 13 C-6.44233928 9.88467855 -4.85577442 7.13448144 -2.9375 4.25 C-2.41027344 3.45078125 -1.88304688 2.6515625 -1.33984375 1.828125 C-0.89769531 1.22484375 -0.45554687 0.6215625 0 0 Z " fill="#B9B64F" transform="translate(66,166)"/>
<path d="M0 0 C5 6.59090909 5 6.59090909 5 10 C0.71 9.67 -3.58 9.34 -8 9 C-3.375 4.125 -3.375 4.125 0 3 C0 2.01 0 1.02 0 0 Z " fill="#A6A352" transform="translate(50,119)"/>
<path d="M0 0 C0.33 0.66 0.66 1.32 1 2 C2.64551962 2.71727778 4.31422289 3.38325228 6 4 C6.66 4.33 7.32 4.66 8 5 C8 5.66 8 6.32 8 7 C6.21289414 7.86366822 4.4201535 8.71568594 2.625 9.5625 C1.62726563 10.03816406 0.62953125 10.51382813 -0.3984375 11.00390625 C-1.25695312 11.33261719 -2.11546875 11.66132812 -3 12 C-3.66 11.67 -4.32 11.34 -5 11 C-4.72285156 10.45730469 -4.44570312 9.91460937 -4.16015625 9.35546875 C-3.79792969 8.64003906 -3.43570313 7.92460938 -3.0625 7.1875 C-2.52302734 6.12595703 -2.52302734 6.12595703 -1.97265625 5.04296875 C-0.89269484 2.88189715 -0.89269484 2.88189715 0 0 Z " fill="#ADAA55" transform="translate(185,91)"/>
<path d="M0 0 C0.66 0.33 1.32 0.66 2 1 C-0.22050464 2.51439017 -2.44990229 4.01124868 -4.6875 5.5 C-5.31333984 5.92925781 -5.93917969 6.35851562 -6.58398438 6.80078125 C-10.16388718 9.16239252 -12.54851601 10.6128238 -17 10 C-15.95241266 6.94833254 -15.18559295 6.09907192 -12.28515625 4.55078125 C-10.68994141 3.93783203 -10.68994141 3.93783203 -9.0625 3.3125 C-8.00160156 2.89613281 -6.94070312 2.47976562 -5.84765625 2.05078125 C-3.9097665 1.33570259 -1.95961188 0.65320396 0 0 Z " fill="#6B685E" transform="translate(144,141)"/>
<path d="M0 0 C0.66 0.33 1.32 0.66 2 1 C1.21753906 1.66386719 0.43507813 2.32773438 -0.37109375 3.01171875 C-1.39376187 3.903035 -2.41586806 4.79499626 -3.4375 5.6875 C-3.95376953 6.12255859 -4.47003906 6.55761719 -5.00195312 7.00585938 C-8.18283484 9.81251971 -9.69917701 11.71905751 -10 16 C-11.125 14.375 -11.125 14.375 -12 12 C-11.125 8.75 -11.125 8.75 -10 6 C-12.31 5.67 -14.62 5.34 -17 5 C-17 4.67 -17 4.34 -17 4 C-15.78763672 3.81824219 -15.78763672 3.81824219 -14.55078125 3.6328125 C-13.48214844 3.46523437 -12.41351563 3.29765625 -11.3125 3.125 C-10.25675781 2.96257812 -9.20101562 2.80015625 -8.11328125 2.6328125 C-5.00136449 2.10111833 -5.00136449 2.10111833 -2.23046875 0.8671875 C-1.49441406 0.58101562 -0.75835937 0.29484375 0 0 Z " fill="#A19E4D" transform="translate(60,166)"/>
<path d="M0 0 C0.66 0 1.32 0 2 0 C2 3.3 2 6.6 2 10 C-1.3 10 -4.6 10 -8 10 C-2.25 2.25 -2.25 2.25 0 0 Z " fill="#676453" transform="translate(65,149)"/>
<path d="M0 0 C14.8253012 4.13116101 14.8253012 4.13116101 17.375 8.1875 C17.58125 8.785625 17.7875 9.38375 18 10 C13.24082493 9.48530403 10.17417819 8.18574515 6.1875 5.5625 C5.23230469 4.94503906 4.27710937 4.32757813 3.29296875 3.69140625 C1 2 1 2 0 0 Z " fill="#69665E" transform="translate(77,142)"/>
<path d="M0 0 C3.73639216 1.24546405 4.18756513 2.63404953 6 6 C2.7 6 -0.6 6 -4 6 C-4 15.24 -4 24.48 -4 34 C-4.33 34 -4.66 34 -5 34 C-5 24.43 -5 14.86 -5 5 C-3.02 4.34 -1.04 3.68 1 3 C0.67 2.01 0.34 1.02 0 0 Z " fill="#AFA78A" transform="translate(157,185)"/>
<path d="M0 0 C5 7.5 5 7.5 5 11 C1 9.66666667 -3 8.33333333 -7 7 C-7 6.34 -7 5.68 -7 5 C-6.030625 4.54625 -5.06125 4.0925 -4.0625 3.625 C-0.92920418 2.34213779 -0.92920418 2.34213779 0 0 Z " fill="#8D8A56" transform="translate(35,91)"/>
<path d="M0 0 C4.87521572 1.39291878 7.19424816 3.83145441 10 8 C10.57269578 12.17249782 10.36086122 13.45870816 8 17 C5.7578125 17.36328125 5.7578125 17.36328125 3.125 17.3125 C2.26132813 17.30863281 1.39765625 17.30476563 0.5078125 17.30078125 C-2.0852226 16.9897786 -3.75999753 16.30753633 -6 15 C-5.34 14.67 -4.68 14.34 -4 14 C-3.01 14.33 -2.02 14.66 -1 15 C2.58343976 15.16677282 2.58343976 15.16677282 6 15 C6.33 14.67 6.66 14.34 7 14 C6.86999067 7.49953338 4.37572212 4.40248495 0 0 Z " fill="#AFAC50" transform="translate(186,140)"/>
<path d="M0 0 C2.92869654 2.82410024 5.58427923 5.72152181 8 9 C8 9.66 8 10.32 8 11 C5.36 11 2.72 11 0 11 C0 7.37 0 3.74 0 0 Z " fill="#6B6853" transform="translate(153,167)"/>
<path d="M0 0 C4.17383395 3.92831431 7.89394426 8.16479983 11 13 C11 13.66 11 14.32 11 15 C7.37 15 3.74 15 0 15 C0 14.67 0 14.34 0 14 C2.64 14 5.28 14 8 14 C7.13375 12.86111328 7.13375 12.86111328 6.25 11.69921875 C5.5075 10.70535156 4.765 9.71148437 4 8.6875 C3.2575 7.70136719 2.515 6.71523437 1.75 5.69921875 C0 3 0 3 0 0 Z " fill="#B0AE50" transform="translate(153,164)"/>
<path d="M0 0 C0.33 0 0.66 0 1 0 C0.67 3.96 0.34 7.92 0 12 C-1.98 10.35 -3.96 8.7 -6 7 C-5.02433888 5.83040013 -4.044375 4.66438823 -3.0625 3.5 C-2.51722656 2.8503125 -1.97195312 2.200625 -1.41015625 1.53125 C-0.71212891 0.77328125 -0.71212891 0.77328125 0 0 Z " fill="#999652" transform="translate(169,36)"/>
<path d="M0 0 C0.66 0.33 1.32 0.66 2 1 C1.67 1.556875 1.34 2.11375 1 2.6875 C-0.15249005 5.35263324 -0.30274405 7.12393149 0 10 C2.76223278 12.76223278 5.20706617 12.57856291 9 13 C9 13.33 9 13.66 9 14 C7.56344146 14.08131463 6.1255517 14.13933559 4.6875 14.1875 C3.48673828 14.23970703 3.48673828 14.23970703 2.26171875 14.29296875 C0 14 0 14 -1.8046875 12.73828125 C-3.31057959 10.54834014 -3.22992006 9.59291521 -2.8125 7 C-2.71582031 6.319375 -2.61914062 5.63875 -2.51953125 4.9375 C-2 3 -2 3 0 0 Z " fill="#B3B150" transform="translate(41,158)"/>
<path d="M0 0 C0.86625 0.66 1.7325 1.32 2.625 2 C2.295 2.99 1.965 3.98 1.625 5 C1.625 4.34 1.625 3.68 1.625 3 C-3.92641971 -0.18482809 -10.30661477 0.4339651 -16.375 2 C-16.375 1.34 -16.375 0.68 -16.375 0 C-5.74188312 -3.4025974 -5.74188312 -3.4025974 0 0 Z " fill="#B1AE51" transform="translate(62.375,28)"/>
<path d="M0 0 C2.97 0 5.94 0 9 0 C6.42215154 2.64752004 4.08351902 4.94432065 1 7 C0.67 4.69 0.34 2.38 0 0 Z " fill="#A5A254" transform="translate(186,69)"/>
<path d="M0 0 C0.20625 0.598125 0.4125 1.19625 0.625 1.8125 C2.50926082 4.81018767 4.81132084 5.61361776 8 7 C7.49339844 7.68835938 7.49339844 7.68835938 6.9765625 8.390625 C3.63691049 12.98192426 3.63691049 12.98192426 1 18 C0.82057837 14.05272412 0.90649311 11.4019487 3 8 C2.505 7.608125 2.01 7.21625 1.5 6.8125 C-0.45593143 4.44908285 -0.24207973 2.98564997 0 0 Z " fill="#B2AF4F" transform="translate(48,178)"/>
<path d="M0 0 C3.64553172 1.2808625 5.16671013 2.16671013 8 5 C4.37 5.33 0.74 5.66 -3 6 C-2.01 4.02 -1.02 2.04 0 0 Z " fill="#6D6957" transform="translate(161,136)"/>
<path d="M0 0 C0.66 0.99 1.32 1.98 2 3 C-1.49359465 6.59634744 -5.11098131 9.83451967 -9 13 C-9 8.86218946 -7.28490393 7.79080004 -4.5 4.8125 C-3.6646875 3.91144531 -2.829375 3.01039063 -1.96875 2.08203125 C-0.99421875 1.05142578 -0.99421875 1.05142578 0 0 Z " fill="#AFAC53" transform="translate(65,146)"/>
<path d="M0 0 C0.33 0.99 0.66 1.98 1 3 C-1.0625 5.5625 -1.0625 5.5625 -4 8 C-7.8125 7.8125 -7.8125 7.8125 -11 7 C-8.64264116 4.27042661 -6.41866474 3.11106604 -3 2 C-2.01 2 -1.02 2 0 2 C0 1.34 0 0.68 0 0 Z " fill="#A9A652" transform="translate(43,106)"/>
<path d="M0 0 C-0.763125 0.4125 -1.52625 0.825 -2.3125 1.25 C-4.9366642 2.95875809 -6.30321976 4.41017753 -8 7 C-8.99 6.67 -9.98 6.34 -11 6 C-10.74609375 4.11328125 -10.74609375 4.11328125 -10 2 C-8.22265625 0.91796875 -8.22265625 0.91796875 -6.0625 0.1875 C-5.35222656 -0.06644531 -4.64195313 -0.32039062 -3.91015625 -0.58203125 C-2 -1 -2 -1 0 0 Z " fill="#A19F4D" transform="translate(52,151)"/>
<path d="M0 0 C5.94 2.475 5.94 2.475 12 5 C8 7 8 7 5.9375 6.8125 C3.71070505 5.87868276 2.58608146 4.8023653 1 3 C0.34 2.34 -0.32 1.68 -1 1 C-0.67 0.67 -0.34 0.34 0 0 Z " fill="#AAA84F" transform="translate(178,107)"/>
<path d="M0 0 C2.5 2.3125 2.5 2.3125 5 5 C5 5.99 5 6.98 5 8 C3.68 8.99 2.36 9.98 1 11 C0.67 7.37 0.34 3.74 0 0 Z " fill="#A9A652" transform="translate(52,36)"/>
<path d="M0 0 C0 2.31 0 4.62 0 7 C-1.175625 6.9690625 -1.175625 6.9690625 -2.375 6.9375 C-4.98114961 6.81315937 -4.98114961 6.81315937 -7 8 C-5.84316054 5.30070793 -3.38550714 0 0 0 Z " fill="#908E4F" transform="translate(67,182)"/>
<path d="M0 0 C0.33 0 0.66 0 1 0 C1 2.64 1 5.28 1 8 C-0.98 8 -2.96 8 -5 8 C-3.6299034 5.0490227 -2.06764583 2.51713405 0 0 Z " fill="#6C6954" transform="translate(66,170)"/>
<path d="M0 0 C3.73639216 1.24546405 4.18756513 2.63404953 6 6 C2.7 6 -0.6 6 -4 6 C-4 5.34 -4 4.68 -4 4 C-2.35 3.67 -0.7 3.34 1 3 C0.67 2.01 0.34 1.02 0 0 Z " fill="#B2AF4F" transform="translate(157,185)"/>
<path d="M0 0 C0.99 0.99 1.98 1.98 3 3 C2.67 3.99 2.34 4.98 2 6 C-0.64 5.67 -3.28 5.34 -6 5 C-2.25 1.125 -2.25 1.125 0 0 Z " fill="#6D6957" transform="translate(59,136)"/>
<path d="M0 0 C2.64 0 5.28 0 8 0 C7.67 1.98 7.34 3.96 7 6 C5.83054208 5.19152271 4.66449539 4.37810888 3.5 3.5625 C2.8503125 3.11003906 2.200625 2.65757813 1.53125 2.19140625 C1.0259375 1.79824219 0.520625 1.40507813 0 1 C0 0.67 0 0.34 0 0 Z " fill="#A9A652" transform="translate(27,69)"/>
<path d="M0 0 C2.97 0 5.94 0 9 0 C9 0.99 9 1.98 9 3 C6.03 3 3.06 3 0 3 C0 2.01 0 1.02 0 0 Z " fill="#9C8760" transform="translate(106,300)"/>
<path d="M0 0 C2.97 0 5.94 0 9 0 C9 0.99 9 1.98 9 3 C6.03 3 3.06 3 0 3 C0 2.01 0 1.02 0 0 Z " fill="#9A8560" transform="translate(106,273)"/>
<path d="M0 0 C2.97 0 5.94 0 9 0 C9 0.99 9 1.98 9 3 C6.03 3 3.06 3 0 3 C0 2.01 0 1.02 0 0 Z " fill="#9B8660" transform="translate(105,242)"/>
<path d="M0 0 C-1.24460783 0.67667998 -2.49596896 1.34094719 -3.75 2 C-4.44609375 2.37125 -5.1421875 2.7425 -5.859375 3.125 C-8 4 -8 4 -12 4 C-11.67 3.01 -11.34 2.02 -11 1 C-6.90275533 -0.54613006 -4.18142349 -1.29227216 0 0 Z " fill="#A09E4C" transform="translate(48,135)"/>
<path d="M0 0 C0.625 1.8125 0.625 1.8125 1 4 C0.01 5.485 0.01 5.485 -1 7 C-3.2421875 7.36328125 -3.2421875 7.36328125 -5.875 7.3125 C-6.73867187 7.30863281 -7.60234375 7.30476562 -8.4921875 7.30078125 C-11.0852226 6.9897786 -12.75999753 6.30753633 -15 5 C-14.34 4.67 -13.68 4.34 -13 4 C-12.01 4.33 -11.02 4.66 -10 5 C-6.5 5.5 -6.5 5.5 -3 5 C-0.99135641 2.6273026 -0.99135641 2.6273026 0 0 Z " fill="#B9B650" transform="translate(195,150)"/>
<path d="M0 0 C-0.33 1.65 -0.66 3.3 -1 5 C-2.32 5.33 -3.64 5.66 -5 6 C-5.66 4.68 -6.32 3.36 -7 2 C-2.25 0 -2.25 0 0 0 Z " fill="#BCBBBB" transform="translate(147,80)"/>
<path d="M0 0 C-0.66 2.31 -1.32 4.62 -2 7 C-2.33 6.34 -2.66 5.68 -3 5 C-3.99 4.67 -4.98 4.34 -6 4 C-6 3.34 -6 2.68 -6 2 C-6.66 1.67 -7.32 1.34 -8 1 C-5.23735711 0.40267181 -2.83967231 0 0 0 Z " fill="#AAA658" transform="translate(182,52)"/>
<path d="M0 0 C4.455 0.99 4.455 0.99 9 2 C9 2.99 9 3.98 9 5 C4.545 4.01 4.545 4.01 0 3 C0 2.01 0 1.02 0 0 Z " fill="#A38D61" transform="translate(89,296)"/>
<path d="M0 0 C-1 3 -1 3 -3.375 4.1875 C-6 5 -6 5 -9 5 C-9 4.01 -9 3.02 -9 2 C-2.25 0 -2.25 0 0 0 Z " fill="#9F8A61" transform="translate(132,239)"/>
<path d="M0 0 C0.33 0.66 0.66 1.32 1 2 C-4.94 2.495 -4.94 2.495 -11 3 C-8.89427904 -1.21144191 -4.11694326 -0.07767817 0 0 Z " fill="#A7A450" transform="translate(168,141)"/>
<path d="M0 0 C0 0.66 0 1.32 0 2 C-4.455 3.485 -4.455 3.485 -9 5 C-9 4.01 -9 3.02 -9 2 C-3.375 0 -3.375 0 0 0 Z " fill="#A18C61" transform="translate(131,296)"/>
<path d="M0 0 C-2.93828597 2.50298434 -5.17902761 3.46930939 -9 4 C-9 3.01 -9 2.02 -9 1 C-3.375 -1.125 -3.375 -1.125 0 0 Z " fill="#A08A61" transform="translate(133,270)"/>
<path d="M0 0 C3.12290635 0.48578543 5.99580359 0.9986012 9 2 C9 2.66 9 3.32 9 4 C6.36 3.67 3.72 3.34 1 3 C0.67 2.01 0.34 1.02 0 0 Z " fill="#A08A61" transform="translate(89,269)"/>
<path d="M0 0 C3.375 0.75 3.375 0.75 7 2 C7.66 3.32 8.32 4.64 9 6 C6.03 5.01 3.06 4.02 0 3 C0 2.01 0 1.02 0 0 Z " fill="#ADA953" transform="translate(31,96)"/>
<path d="M0 0 C0 0.66 0 1.32 0 2 C-1.96875 3.5078125 -1.96875 3.5078125 -4.5 5.125 C-5.3353125 5.66382813 -6.170625 6.20265625 -7.03125 6.7578125 C-7.6809375 7.16773438 -8.330625 7.57765625 -9 8 C-8.39958856 4.47165622 -8.12314151 4.09432115 -5.0625 1.75 C-2 0 -2 0 0 0 Z " fill="#B2AF50" transform="translate(30,124)"/>
<path d="M0 0 C3.875 1.75 3.875 1.75 5 4 C2.69 4.33 0.38 4.66 -2 5 C-1.34 3.35 -0.68 1.7 0 0 Z " fill="#6D6A56" transform="translate(169,122)"/>
<path d="M0 0 C2.02054804 1.64169528 4.02043058 3.30911778 6 5 C6 5.33 6 5.66 6 6 C4.02 6 2.04 6 0 6 C0 4.02 0 2.04 0 0 Z " fill="#6B6854" transform="translate(153,183)"/>
<path d="M0 0 C4.75 0.75 4.75 0.75 7 3 C4.36 3.33 1.72 3.66 -1 4 C-0.67 2.68 -0.34 1.36 0 0 Z " fill="#6A6657" transform="translate(176,109)"/>
<path d="M0 0 C0.33 0 0.66 0 1 0 C0.125 6.75 0.125 6.75 -1 9 C0.65 9 2.3 9 4 9 C4 9.33 4 9.66 4 10 C2.02 10 0.04 10 -2 10 C-2.6875 8.375 -2.6875 8.375 -3 6 C-1.5625 2.75 -1.5625 2.75 0 0 Z " fill="#A8A551" transform="translate(202,69)"/>
<path d="M0 0 C1.77706209 2.66559313 2.87548273 5.0280615 4 8 C2.02 7.34 0.04 6.68 -2 6 C-2 5.01 -2 4.02 -2 3 C-1.34 3 -0.68 3 0 3 C0 2.01 0 1.02 0 0 Z " fill="#A29F4E" transform="translate(41,40)"/>
<path d="M0 0 C4.455 0.99 4.455 0.99 9 2 C9 2.66 9 3.32 9 4 C4.545 3.01 4.545 3.01 0 2 C0 1.34 0 0.68 0 0 Z " fill="#978360" transform="translate(87,238)"/>
<path d="M0 0 C2 1.375 2 1.375 4 3 C4 3.66 4 4.32 4 5 C0.37 5 -3.26 5 -7 5 C-7 4.67 -7 4.34 -7 4 C-4.36 4 -1.72 4 1 4 C0.67 2.68 0.34 1.36 0 0 Z " fill="#B9B74F" transform="translate(160,174)"/>
<path d="M0 0 C0.99 0.33 1.98 0.66 3 1 C3 1.99 3 2.98 3 4 C0.36 3.67 -2.28 3.34 -5 3 C-2 1 -2 1 0 0 Z " fill="#6E6A58" transform="translate(43,109)"/>
<path d="M0 0 C2.31 0.33 4.62 0.66 7 1 C6.01 1.495 6.01 1.495 5 2 C5 2.66 5 3.32 5 4 C4.01 4.33 3.02 4.66 2 5 C1.34 3.35 0.68 1.7 0 0 Z " fill="#AFAC56" transform="translate(40,52)"/>
<path d="M0 0 C0.99 0.33 1.98 0.66 3 1 C2 2.5625 2 2.5625 0 4 C-2.76614782 3.96726452 -5.26030547 3.49404328 -8 3 C-8 2.67 -8 2.34 -8 2 C-6.865625 1.855625 -5.73125 1.71125 -4.5625 1.5625 C-1.19222799 1.38828522 -1.19222799 1.38828522 0 0 Z " fill="#9A984D" transform="translate(181,168)"/>
<path d="M0 0 C0.33 1.32 0.66 2.64 1 4 C-0.4375 6.25 -0.4375 6.25 -2 8 C-2.99 7.67 -3.98 7.34 -5 7 C-3.35 4.69 -1.7 2.38 0 0 Z " fill="#A8A54F" transform="translate(66,166)"/>
<path d="M0 0 C0.33 0 0.66 0 1 0 C0.38461538 6.52307692 0.38461538 6.52307692 -1.5625 8.9375 C-2.036875 9.288125 -2.51125 9.63875 -3 10 C-3.66 9.67 -4.32 9.34 -5 9 C-4.360625 8.071875 -3.72125 7.14375 -3.0625 6.1875 C-0.91377907 3.15780057 -0.91377907 3.15780057 0 0 Z " fill="#B6B350" transform="translate(193,45)"/>
<path d="M0 0 C1.5 1.375 1.5 1.375 3 3 C3 3.66 3 4.32 3 5 C0.03 4.505 0.03 4.505 -3 4 C-2.01 2.68 -1.02 1.36 0 0 Z " fill="#6F6C57" transform="translate(51,122)"/>
<path d="M0 0 C1.32 0.66 2.64 1.32 4 2 C1.625 3.5625 1.625 3.5625 -1 5 C-1.66 4.67 -2.32 4.34 -3 4 C-2.01 2.68 -1.02 1.36 0 0 Z " fill="#6A6655" transform="translate(185,95)"/>
<path d="M0 0 C4 4.625 4 4.625 4 8 C2.35 6.35 0.7 4.7 -1 3 C-0.67 2.01 -0.34 1.02 0 0 Z " fill="#E5CF74" transform="translate(95,72)"/>
<path d="M0 0 C1.2380014 3.57644848 0.74926071 6.33694766 0 10 C-0.66 9.67 -1.32 9.34 -2 9 C-2.125 5.625 -2.125 5.625 -2 2 C-1.34 1.34 -0.68 0.68 0 0 Z " fill="#B4B151" transform="translate(169,38)"/>
</svg>
