<?xml version="1.0" encoding="UTF-8"?>
<svg version="1.1" xmlns="http://www.w3.org/2000/svg" width="128" height="128">
<path d="M0 0 C9.44823722 7.0794484 15.58678401 15.65261368 21 26 C21.639375 25.649375 22.27875 25.29875 22.9375 24.9375 C27.16984789 23.6418833 30.72671703 23.92198488 35 25 C38.57496571 27.2058299 40.43217591 29.14548052 42 33 C42.6842501 38.26713446 42.63405953 42.68491358 40.3125 47.5 C37.43084152 50.61530646 35.28063136 52.80888564 30.90234375 53.17578125 C28.93405107 53.1861955 26.96578064 53.09995495 25 53 C24.67 55.97 24.34 58.94 24 62 C24.845625 61.87625 25.69125 61.7525 26.5625 61.625 C31.29740813 62.14153543 33.96778706 64.39729339 37 68 C40.62993997 75.39432217 40.21499643 83.80945707 39.375 91.8125 C38.83757666 97.37914428 39.53992665 100.0798533 42 105 C42.40039137 108.87044991 42.26516973 111.30761237 40.875 114.9375 C39 117 39 117 35.9375 117.375 C33 117 33 117 31 116 C30.814375 117.175625 30.814375 117.175625 30.625 118.375 C30 121 30 121 28 123 C26.08984375 122.94140625 26.08984375 122.94140625 23.9375 122.5625 C21.9884375 122.2840625 21.9884375 122.2840625 20 122 C19.67 122.33 19.34 122.66 19 123 C15.63370749 123.14636054 13.21580438 123.07193479 10 122 C9.67 122.33 9.34 122.66 9 123 C6.8203125 123.23828125 6.8203125 123.23828125 4.125 123.3125 C3.24070312 123.34988281 2.35640625 123.38726562 1.4453125 123.42578125 C-1 123 -1 123 -2.8203125 121.10546875 C-4 119 -4 119 -4 117 C-4.65266846 117.0714624 -5.30533691 117.1429248 -5.9777832 117.21655273 C-13.0707945 117.93482442 -20.06210625 118.12191637 -27.1875 118.0625 C-28.75854492 118.05573242 -28.75854492 118.05573242 -30.36132812 118.04882812 C-32.90761536 118.03720124 -35.4537746 118.02086281 -38 118 C-38.28875 118.639375 -38.5775 119.27875 -38.875 119.9375 C-40 122 -40 122 -42 123 C-43.4246028 123.09504525 -44.85348167 123.1307286 -46.28125 123.1328125 C-47.54388672 123.13474609 -47.54388672 123.13474609 -48.83203125 123.13671875 C-49.71246094 123.13285156 -50.59289063 123.12898437 -51.5 123.125 C-52.38042969 123.12886719 -53.26085937 123.13273438 -54.16796875 123.13671875 C-55.00972656 123.13542969 -55.85148437 123.13414062 -56.71875 123.1328125 C-57.49154297 123.13168457 -58.26433594 123.13055664 -59.06054688 123.12939453 C-61 123 -61 123 -63 122 C-63.99 122.495 -63.99 122.495 -65 123 C-67.9375 123.375 -67.9375 123.375 -71 123 C-72.88599343 120.61107499 -74 119.08148442 -74 116 C-75.093125 116.226875 -76.18625 116.45375 -77.3125 116.6875 C-81 117 -81 117 -82.7109375 115.859375 C-84.46067623 113.33550944 -84.36626921 111.61080076 -84.3125 108.5625 C-84.30863281 107.61503906 -84.30476563 106.66757813 -84.30078125 105.69140625 C-84 103 -84 103 -82.98461914 101.14868164 C-81.78975848 98.54120118 -81.82856287 96.78560333 -81.9453125 93.9296875 C-81.96980469 92.95 -81.99429688 91.9703125 -82.01953125 90.9609375 C-82.08905339 88.9267711 -82.16698215 86.89287211 -82.25390625 84.859375 C-82.41985406 77.38196209 -81.54954553 70.14548426 -76.50512695 64.25415039 C-73.58060886 61.81728917 -69.66268358 62.26541185 -66 62 C-66.33 59.03 -66.66 56.06 -67 53 C-68.8253125 53.0928125 -68.8253125 53.0928125 -70.6875 53.1875 C-74.63410938 53.17357898 -76.85643663 52.53231493 -80 50 C-83.35447578 46.27280469 -84.86801731 43.74877068 -85.25 38.6875 C-84.89855049 33.5036198 -83.36917129 30.48998052 -79.875 26.6875 C-75.98008195 24.40135245 -72.50253187 23.76302464 -68 24 C-64.4375 25.4375 -64.4375 25.4375 -62 27 C-61.88914062 26.27425781 -61.77828125 25.54851563 -61.6640625 24.80078125 C-59.39455339 15.22879283 -51.50059845 6.26205403 -43.625 0.6875 C-30.63903654 -7.26884155 -13.17975552 -8.26136279 0 0 Z " fill="#6E6E6E" transform="translate(85,5)"/>
<path d="M0 0 C9.44823722 7.0794484 15.58678401 15.65261368 21 26 C21.639375 25.649375 22.27875 25.29875 22.9375 24.9375 C27.16984789 23.6418833 30.72671703 23.92198488 35 25 C38.57496571 27.2058299 40.43217591 29.14548052 42 33 C42.6842501 38.26713446 42.63405953 42.68491358 40.3125 47.5 C37.43084152 50.61530646 35.28063136 52.80888564 30.90234375 53.17578125 C28.93405107 53.1861955 26.96578064 53.09995495 25 53 C24.67 55.97 24.34 58.94 24 62 C24.845625 61.87625 25.69125 61.7525 26.5625 61.625 C31.29740813 62.14153543 33.96778706 64.39729339 37 68 C40.62993997 75.39432217 40.21499643 83.80945707 39.375 91.8125 C38.83757666 97.37914428 39.53992665 100.0798533 42 105 C42.40039137 108.87044991 42.26516973 111.30761237 40.875 114.9375 C39 117 39 117 35.9375 117.375 C33 117 33 117 31 116 C30.814375 117.175625 30.814375 117.175625 30.625 118.375 C30 121 30 121 28 123 C26.08984375 122.94140625 26.08984375 122.94140625 23.9375 122.5625 C21.9884375 122.2840625 21.9884375 122.2840625 20 122 C19.67 122.33 19.34 122.66 19 123 C15.63370749 123.14636054 13.21580438 123.07193479 10 122 C9.67 122.33 9.34 122.66 9 123 C6.8203125 123.23828125 6.8203125 123.23828125 4.125 123.3125 C3.24070312 123.34988281 2.35640625 123.38726562 1.4453125 123.42578125 C-1 123 -1 123 -2.8203125 121.10546875 C-4 119 -4 119 -4 117 C-4.65266846 117.0714624 -5.30533691 117.1429248 -5.9777832 117.21655273 C-13.0707945 117.93482442 -20.06210625 118.12191637 -27.1875 118.0625 C-28.75854492 118.05573242 -28.75854492 118.05573242 -30.36132812 118.04882812 C-32.90761536 118.03720124 -35.4537746 118.02086281 -38 118 C-38.28875 118.639375 -38.5775 119.27875 -38.875 119.9375 C-40 122 -40 122 -42 123 C-43.4246028 123.09504525 -44.85348167 123.1307286 -46.28125 123.1328125 C-47.54388672 123.13474609 -47.54388672 123.13474609 -48.83203125 123.13671875 C-49.71246094 123.13285156 -50.59289063 123.12898437 -51.5 123.125 C-52.38042969 123.12886719 -53.26085937 123.13273438 -54.16796875 123.13671875 C-55.00972656 123.13542969 -55.85148437 123.13414062 -56.71875 123.1328125 C-57.49154297 123.13168457 -58.26433594 123.13055664 -59.06054688 123.12939453 C-61 123 -61 123 -63 122 C-63.99 122.495 -63.99 122.495 -65 123 C-67.9375 123.375 -67.9375 123.375 -71 123 C-72.88599343 120.61107499 -74 119.08148442 -74 116 C-75.093125 116.226875 -76.18625 116.45375 -77.3125 116.6875 C-81 117 -81 117 -82.7109375 115.859375 C-84.46067623 113.33550944 -84.36626921 111.61080076 -84.3125 108.5625 C-84.30863281 107.61503906 -84.30476563 106.66757813 -84.30078125 105.69140625 C-84 103 -84 103 -82.98461914 101.14868164 C-81.78975848 98.54120118 -81.82856287 96.78560333 -81.9453125 93.9296875 C-81.96980469 92.95 -81.99429688 91.9703125 -82.01953125 90.9609375 C-82.08905339 88.9267711 -82.16698215 86.89287211 -82.25390625 84.859375 C-82.41985406 77.38196209 -81.54954553 70.14548426 -76.50512695 64.25415039 C-73.58060886 61.81728917 -69.66268358 62.26541185 -66 62 C-66.33 59.03 -66.66 56.06 -67 53 C-68.8253125 53.0928125 -68.8253125 53.0928125 -70.6875 53.1875 C-74.63410938 53.17357898 -76.85643663 52.53231493 -80 50 C-83.35447578 46.27280469 -84.86801731 43.74877068 -85.25 38.6875 C-84.89855049 33.5036198 -83.36917129 30.48998052 -79.875 26.6875 C-75.98008195 24.40135245 -72.50253187 23.76302464 -68 24 C-64.4375 25.4375 -64.4375 25.4375 -62 27 C-61.88914062 26.27425781 -61.77828125 25.54851563 -61.6640625 24.80078125 C-59.39455339 15.22879283 -51.50059845 6.26205403 -43.625 0.6875 C-30.63903654 -7.26884155 -13.17975552 -8.26136279 0 0 Z M-52.3671875 14.63671875 C-60.65718327 26.63539683 -62.31091003 38.82685578 -62.1953125 53.00390625 C-62.1924826 54.32293442 -62.18965271 55.64196259 -62.18673706 57.0009613 C-62.17916474 60.47795436 -62.15957277 63.95477565 -62.1373291 67.43170166 C-62.11673129 70.99155353 -62.10770579 74.55143362 -62.09765625 78.11132812 C-62.0763196 85.07428852 -62.04226277 92.03713598 -62 99 C-61.03215576 98.97752197 -60.06431152 98.95504395 -59.06713867 98.93188477 C-57.16798706 98.9056604 -57.16798706 98.9056604 -55.23046875 98.87890625 C-53.97387451 98.85642822 -52.71728027 98.8339502 -51.42260742 98.81079102 C-48.27353472 98.98487842 -46.78307011 99.08408168 -44.3125 100.9375 C-41.43625272 104.74658424 -40.14165735 108.40332698 -39 113 C-33.00915795 114.31277582 -27.03603996 114.14700315 -20.9375 114.125 C-19.86177734 114.12886719 -18.78605469 114.13273437 -17.67773438 114.13671875 C-16.63810547 114.13542969 -15.59847656 114.13414063 -14.52734375 114.1328125 C-13.58624756 114.13168457 -12.64515137 114.13055664 -11.67553711 114.12939453 C-8.99186342 113.9996065 -6.58800549 113.727309 -4 113 C-2.74280967 110.8364129 -2.74280967 110.8364129 -2.0625 108.1875 C-0.83843972 104.85824656 -0.04147869 103.04584487 2.375 100.375 C6.33207587 98.87404019 9.01980413 98.86068956 13.2265625 98.9140625 C14.49322754 98.92646973 15.75989258 98.93887695 17.06494141 98.95166016 C18.03351074 98.9676123 19.00208008 98.98356445 20 99 C20.07005612 91.66232337 20.12308954 84.32472093 20.15543652 76.9867754 C20.17097531 73.57805736 20.19199233 70.16957106 20.22631836 66.76098633 C20.26568584 62.8263646 20.27980648 58.89183087 20.29296875 54.95703125 C20.30845261 53.75544876 20.32393646 52.55386627 20.33988953 51.31587219 C20.34301648 35.30497007 16.13618046 20.58190613 4.94140625 8.7109375 C-3.28759346 1.45882105 -13.1858527 -2.71199656 -24.171875 -2.34375 C-35.84035678 -0.9254815 -44.97703902 5.78572696 -52.3671875 14.63671875 Z " fill="#060606" transform="translate(85,5)"/>
<path d="M0 0 C2.40823788 1.09034392 3.95504966 2.27793655 6 4 C8.49361571 2.79618552 10.68143083 1.54571278 13 0 C18.79442714 -0.88511676 24.0587996 -0.30597345 29.17578125 2.58984375 C33.34031495 5.80910856 36.34330687 10.0299206 38 15 C38.76576649 21.36464934 37.9665746 26.81684022 34 32 C31.25 33.5 31.25 33.5 29 34 C29 34.66 29 35.32 29 36 C29.86625 36.226875 30.7325 36.45375 31.625 36.6875 C36.23735922 38.48119525 39.38576698 40.89447867 42.4375 44.875 C43.33097555 48.25035209 42.88387194 50.64128664 42 54 C34.9012681 62.72129919 24.62100921 66.08436066 13.77490234 67.23632812 C0.50282325 68.14117753 -12.11826125 66.38141465 -23.23046875 58.5625 C-26.35525717 55.80330492 -27.85767913 53.83811182 -28.5625 49.6875 C-27.80584284 44.72719192 -25.64349203 42.31772097 -22 39 C-17.74193548 36 -17.74193548 36 -15 36 C-15 35.34 -15 34.68 -15 34 C-15.7425 33.835 -16.485 33.67 -17.25 33.5 C-21.3320934 31.2734036 -22.63342803 28.36139989 -24 24 C-24.91768286 18.62985587 -24.5962651 14.36444818 -21.8125 9.625 C-16.17572031 1.72713919 -9.53689678 -1.28958038 0 0 Z " fill="#9A9999" transform="translate(56,20)"/>
<path d="M0 0 C3.8737493 1.54643747 7.28424131 3.80498978 10 7 C10.3403125 6.1028125 10.3403125 6.1028125 10.6875 5.1875 C12.44176201 2.26372999 13.86849164 1.36152537 17 0 C22.62132473 -0.53536426 26.18250633 -0.21166245 31 3 C35.2775596 7.23016282 37.82713567 10.85648228 38.3125 16.875 C38.15818704 22.06377312 36.3245369 25.42711243 33 29.375 C28.41775153 31.85705126 24.09737923 31.75599898 19 31 C15.5 29.1875 15.5 29.1875 13 27 C12.38125 26.46375 11.7625 25.9275 11.125 25.375 C10 24 10 24 10 22 C9.34 22 8.68 22 8 22 C7.773125 22.5775 7.54625 23.155 7.3125 23.75 C5.21406312 27.34732037 2.26244628 29.28347644 -1.3125 31.3125 C-5.71872745 32.43967446 -9.81772767 32.24221656 -13.77734375 29.98828125 C-17.08281641 27.42633789 -19.03446516 25.05524631 -20 21 C-20.50716858 15.52257932 -19.70353029 11.79658599 -17 7 C-11.83258445 1.67708352 -7.65094115 -1.02196687 0 0 Z " fill="#101010" transform="translate(54,22)"/>
<path d="M0 0 C5.44072623 3.0903325 9.11122436 6.93920553 10.8125 13 C10.8125 16.59383127 10.18260433 19.13313075 8.8125 22.4375 C5.24307256 23.25209795 1.94349737 23.56592788 -1.71484375 23.5703125 C-2.75447266 23.57160156 -3.79410156 23.57289062 -4.86523438 23.57421875 C-5.94095703 23.57035156 -7.01667969 23.56648438 -8.125 23.5625 C-9.19685547 23.56636719 -10.26871094 23.57023437 -11.37304688 23.57421875 C-16.4155722 23.56797414 -21.23583835 23.52255977 -26.1875 22.4375 C-28.58856197 14.66427779 -28.58856197 14.66427779 -27.125 10.1875 C-20.48566122 0.76392237 -11.3767303 -5.11952864 0 0 Z " fill="#7C7C7C" transform="translate(72.1875,95.5625)"/>
<path d="M0 0 C2.70839364 -0.19817514 4.4743474 -0.69185882 6.8125 -2.0625 C11.80493902 -4.20211672 16.65752885 -3.39167829 21.5625 -1.5 C27.56979461 1.41010811 32.57105115 6.73946986 35 13 C35.86925619 20.73233706 35.64373562 26.66763325 31 33 C30.505 33.99 30.505 33.99 30 35 C30.55429688 35.47050781 31.10859375 35.94101562 31.6796875 36.42578125 C32.76636719 37.35970703 32.76636719 37.35970703 33.875 38.3125 C34.95394531 39.23482422 34.95394531 39.23482422 36.0546875 40.17578125 C39.14182604 43.07074852 39.9678684 44.60156821 40.3125 48.875 C40.19308951 52.717208 39.4707665 54.95272131 37 58 C26.45500746 67.82601577 16.23810716 69.35869053 2.1875 69.375 C1.08857422 69.39949219 -0.01035156 69.42398438 -1.14257812 69.44921875 C-12.46430225 69.48924842 -23.3482649 66.62958918 -32 59 C-34.8891892 55.68278277 -36 52.91684212 -36 48.4375 C-34.43317047 43.05152348 -31.8718329 38.92309974 -27 36 C-26.34 36 -25.68 36 -25 36 C-25.34933594 35.52949219 -25.69867188 35.05898438 -26.05859375 34.57421875 C-26.51363281 33.95160156 -26.96867187 33.32898437 -27.4375 32.6875 C-28.11619141 31.76517578 -28.11619141 31.76517578 -28.80859375 30.82421875 C-32.22299397 25.59626825 -31.61581882 18.97415041 -31 13 C-28.85043106 7.02361999 -24.18241663 2.51663986 -19 -1 C-12.18703524 -4.18904734 -6.34806595 -3.94609505 0 0 Z M-25.375 7.5625 C-29.07385027 13.11077541 -29.8048665 17.36233549 -29 24 C-27.66424774 28.36105061 -26.31719611 31.28152939 -22.25 33.5 C-21.5075 33.665 -20.765 33.83 -20 34 C-20 34.66 -20 35.32 -20 36 C-20.680625 36.20625 -21.36125 36.4125 -22.0625 36.625 C-26.32860149 38.62189857 -30.84788222 41.69576443 -33 46 C-33.49595978 50.29831807 -33.36646977 52.40891973 -31.0625 56.125 C-23.11584584 64.44900925 -11.59945804 66.99082798 -0.49755859 67.40454102 C12.16211212 67.58516409 25.20441361 65.74768645 35 57 C37.69539084 53.90822815 38 52.67021389 38 48.5625 C36.44423499 43.02008716 33.74153576 40.0244328 28.8125 37.125 C26.19536697 35.87620311 26.19536697 35.87620311 24 36 C24 35.34 24 34.68 24 34 C25.11375 33.7525 25.11375 33.7525 26.25 33.5 C30.31368778 31.28344303 31.6113679 28.32926479 33 24 C33.97306725 18.34834676 33.07613021 13.76755252 30.26953125 8.7890625 C27.22408382 4.49732428 23.14486206 1.28621551 18 0 C12.91684928 -0.54702781 9.26882251 -0.81204641 4.875 2 C4.25625 2.66 3.6375 3.32 3 4 C-1 2 -1 2 -2.84375 0.95703125 C-11.57704107 -2.91915772 -19.37969 1.09387605 -25.375 7.5625 Z " fill="#0E0E0E" transform="translate(61,20)"/>
<path d="M0 0 C3.6578218 2.03993908 5.66946174 3.50419262 8 7 C8.64076313 13.4076313 7.78707251 16.77998114 4 22 C0.38818092 25.19903976 -3.16128024 25.59744666 -7.84375 25.40234375 C-10 25 -10 25 -13 23.0625 C-15.62913722 19.03663363 -16.41083233 15.79030496 -16 11 C-14.66476165 6.78822965 -12.47132346 4.39960032 -9.125 1.5625 C-5.60204552 -0.19897724 -3.87541728 -0.64590288 0 0 Z " fill="#F5F5F5" transform="translate(53,25)"/>
<path d="M0 0 C4.23154605 1.85580091 7.28574529 4.04766039 10.0625 7.75 C11.32217763 12.11688244 11.42097105 15.65725703 10 20 C7.55488004 22.92221654 5.81776758 24.59524857 2.03515625 25.4375 C-3.00886295 25.7473054 -6.16513384 24.38895149 -10 21 C-12.66158157 17.09634703 -13.59059742 13.62229203 -13.4296875 8.96484375 C-12.6460249 5.3813684 -10.59116889 3.52947439 -8 1 C-5.06699268 -0.46650366 -3.27962656 -0.36440295 0 0 Z " fill="#F6F6F6" transform="translate(78,25)"/>
<path d="M0 0 C3.55423623 2.52897578 4.63748421 3.91245262 6 8 C6.2295082 14.54098361 6.2295082 14.54098361 5 17 C-1.41317365 17.1257485 -1.41317365 17.1257485 -4.625 16.4375 C-7.02321008 15.84408534 -7.02321008 15.84408534 -9.5 16.5 C-12.33661916 17.06732383 -14.19425119 16.57553822 -17 16 C-18.34164079 16.2981424 -19.67851173 16.62243192 -21 17 C-22 16 -22 16 -22.3125 12.8125 C-21.94340168 8.3095005 -20.88644648 6.43253095 -18 3 C-12.43160571 -1.08154555 -6.65996171 -0.93068696 0 0 Z " fill="#858585" transform="translate(37,107)"/>
<path d="M0 0 C5.93796644 0.04562653 9.23814427 0.60301541 13.875 4.3125 C15.77351296 7.30948367 16.103425 9.54604991 16 13.0625 C15.98195313 13.86171875 15.96390625 14.6609375 15.9453125 15.484375 C15.92210938 16.08765625 15.89890625 16.6909375 15.875 17.3125 C14.658125 17.126875 13.44125 16.94125 12.1875 16.75 C8.79856006 16.31444962 6.22022154 16.58920886 2.875 17.3125 C1.20400023 17.00161632 -0.46371537 16.67169668 -2.125 16.3125 C-2.785 16.6425 -3.445 16.9725 -4.125 17.3125 C-7.1875 17.4375 -7.1875 17.4375 -10.125 17.3125 C-11.67530118 15.76219882 -11.36905099 14.27573999 -11.4375 12.125 C-11.38656226 4.14050997 -7.80571256 0.16891633 0 0 Z " fill="#858585" transform="translate(96.125,106.6875)"/>
<path d="M0 0 C7.80404829 5.78935333 15.45188326 13.05030587 17 23 C15.26225648 20.74093342 13.68647678 18.49187617 12.1875 16.0625 C8.43550852 10.80971192 4.35812506 7.39878751 -2 6 C-7.6594198 5.36359938 -10.91289792 6.340833 -16 9 C-18.39216557 8.78892657 -19.70906606 8.17663846 -21.75 6.9375 C-28.32378107 4.19842455 -34.73475574 6.56351612 -41 9 C-38.7995834 3.48072301 -33.91139216 0.95875977 -29 -2 C-19.68063468 -5.9693593 -8.6658753 -5.14968948 0 0 Z " fill="#ABABAB" transform="translate(80,12)"/>
<path d="M0 0 C7 0 7 0 9.3125 2.1875 C12.46577496 7.44295827 13.27466789 11.33302752 13.25 17.5 C13.25515625 18.7890625 13.2603125 20.078125 13.265625 21.40625 C13.01830367 24.7523621 12.4505069 27.00689053 11 30 C9.54176788 30.0270043 8.08339325 30.04639787 6.625 30.0625 C5.81289062 30.07410156 5.00078125 30.08570312 4.1640625 30.09765625 C2 30 2 30 0 29 C0 19.43 0 9.86 0 0 Z " fill="#606060" transform="translate(108,71)"/>
<path d="M0 0 C0 9.57 0 19.14 0 29 C-3.8726592 29.9681648 -7.03611362 30.07622858 -11 30 C-14.107674 10.18857823 -14.107674 10.18857823 -9 3 C-8.3503125 2.071875 -8.3503125 2.071875 -7.6875 1.125 C-6 0 -6 0 0 0 Z " fill="#636363" transform="translate(19,71)"/>
<path d="M0 0 C2.40823788 1.09034392 3.95504966 2.27793655 6 4 C8.49361571 2.79618552 10.68143083 1.54571278 13 0 C18.79442714 -0.88511676 24.0587996 -0.30597345 29.17578125 2.58984375 C33.34031495 5.80910856 36.34330687 10.0299206 38 15 C38.77398394 21.43294846 37.81640081 26.67746107 34 32 C31 34 31 34 28 34 C28 33.34 28 32.68 28 32 C28.78375 31.401875 29.5675 30.80375 30.375 30.1875 C34.39143126 26.84047395 34.85013605 24.30595728 35.4375 19.1875 C35.31569106 14.24018324 33.0432596 10.77364191 30 7 C26.07313132 3.41961974 22.37685351 2.65807792 17.0703125 2.70703125 C13.70863236 3.1827407 11.56212317 4.87531249 9 7 C8.67 7.66 8.34 8.32 8 9 C4.63061102 7.87687034 3.46825907 6.46825907 1 4 C-2.72799895 2.75733368 -6.12782994 2.47097487 -10 3 C-14.78747751 5.48580563 -18.70374644 8.75936609 -20.75 13.875 C-21.44634076 19.79389644 -21.25803035 23.88023802 -18 29 C-16.69855198 30.04115841 -15.37202131 31.05377841 -14 32 C-14 32.66 -14 33.32 -14 34 C-16.25 33.875 -16.25 33.875 -19 33 C-23.19755877 27.63645268 -24.41580925 23.30597663 -24.34765625 16.63671875 C-23.61509586 11.08078323 -20.44244959 7.3369045 -16.4375 3.625 C-10.94442066 -0.03705289 -6.58844789 -0.89089075 0 0 Z " fill="#B3B2B1" transform="translate(56,20)"/>
<path d="M0 0 C1.13953125 -0.02578125 2.2790625 -0.0515625 3.453125 -0.078125 C7.01446986 0.27632164 8.8675917 1.19113693 11.75 3.25 C10.26264437 6.22471127 8.11195284 6.48347249 5.0625 7.6875 C1.6915165 9.03909244 -1.5219818 10.39084772 -4.75 12.0625 C-7.25 13.25 -7.25 13.25 -11.25 13.25 C-11.75477602 7.94985182 -10.45817314 5.43034682 -7.25 1.25 C-5.39709648 -0.60290352 -2.48375369 0.03341373 0 0 Z " fill="#9E9E9E" transform="translate(96.25,106.75)"/>
<path d="M0 0 C3.3125 1.9375 3.3125 1.9375 5 5 C5 7.97 5 10.94 5 14 C-1.93 11.03 -8.86 8.06 -16 5 C-15.67 3.68 -15.34 2.36 -15 1 C-10.55650168 -1.22174916 -4.82534794 -0.50761705 0 0 Z " fill="#9E9E9E" transform="translate(37,107)"/>
<path d="M0 0 C4.21994352 6.32991529 4.28081716 13.1406355 4.125 20.5 C4.11597656 21.32242188 4.10695313 22.14484375 4.09765625 22.9921875 C4.07436865 24.99492083 4.03850959 26.99750154 4 29 C0.19364503 25.79239749 -3.54563567 22.59253891 -7 19 C-6.38125 18.29875 -5.7625 17.5975 -5.125 16.875 C-1.25903939 11.6445827 -0.6517802 6.30054191 0 0 Z " fill="#898989" transform="translate(97,35)"/>
<path d="M0 0 C-2.241734 5.04390151 -5.80189617 9.43797251 -10 13 C-12.75 13.75 -12.75 13.75 -15 14 C-15.05447047 12.58376784 -15.09300508 11.16691809 -15.125 9.75 C-15.14820313 8.96109375 -15.17140625 8.1721875 -15.1953125 7.359375 C-14.9772762 4.72549648 -14.48939597 3.18055357 -13 1 C-8.65682543 -0.00227105 -4.44397402 -0.10838961 0 0 Z " fill="#8F8F8F" transform="translate(20,104)"/>
<path d="M0 0 C1.93835966 0.06010418 3.87584491 0.14891717 5.8125 0.25 C6.89144531 0.29640625 7.97039062 0.3428125 9.08203125 0.390625 C12 1 12 1 13.875 2.78125 C15.66616777 6.31383088 15.19580366 9.08392674 15 13 C12.67454648 13.83051911 11.34445404 14.09394201 8.9375 13.4375 C6.2451193 11.43992722 5.43888893 8.99768527 4 6 C2.68557638 4.64802142 1.3565164 3.30973998 0 2 C0 1.34 0 0.68 0 0 Z " fill="#949494" transform="translate(108,104)"/>
<path d="M0 0 C1.03159626 3.09478879 0.97482862 4.52631393 0.5625 7.6875 C0.46066406 8.49574219 0.35882813 9.30398437 0.25390625 10.13671875 C0.17011719 10.75160156 0.08632813 11.36648437 0 12 C-7.38533178 12.48428405 -7.38533178 12.48428405 -10.0625 10.375 C-11.32868536 7.16733041 -10.99549067 5.2708979 -10 2 C-6.3558226 -0.4294516 -4.28758728 -0.16179575 0 0 Z " fill="#C8AB83" transform="translate(20,38)"/>
<path d="M0 0 C3.625 0.25 3.625 0.25 5.5625 1.375 C7.12922245 4.13980433 7.01476435 6.13188517 6.625 9.25 C5.5625 11.125 5.5625 11.125 3.625 12.25 C-0.0625 12.4375 -0.0625 12.4375 -3.375 12.25 C-3.56901633 10.43818595 -3.75504375 8.62551468 -3.9375 6.8125 C-4.04191406 5.80316406 -4.14632812 4.79382812 -4.25390625 3.75390625 C-4.29386719 2.92761719 -4.33382812 2.10132813 -4.375 1.25 C-3.375 0.25 -3.375 0.25 0 0 Z " fill="#CFB188" transform="translate(111.375,37.75)"/>
<path d="M0 0 C0.70125 0.06703125 1.4025 0.1340625 2.125 0.203125 C4 0.75 4 0.75 6 3.75 C5.38511719 3.71519531 4.77023438 3.68039063 4.13671875 3.64453125 C2.92435547 3.60392578 2.92435547 3.60392578 1.6875 3.5625 C0.88699219 3.52769531 0.08648437 3.49289063 -0.73828125 3.45703125 C-3.04972677 3.57585877 -3.04972677 3.57585877 -4.76953125 5.01171875 C-6.91683857 8.04521639 -6.52802996 11.187657 -6 14.75 C-5.08333333 16.83333333 -5.08333333 16.83333333 -3 17.75 C0.61023099 18.48041853 0.61023099 18.48041853 4 18.75 C3.67 19.41 3.34 20.07 3 20.75 C-4.08914729 21.35077519 -4.08914729 21.35077519 -7.9375 18.8125 C-10.60907413 14.8456172 -11.59670198 11.53202012 -11 6.75 C-8.46841155 1.97472924 -5.41010244 -0.59670247 0 0 Z " fill="#797979" transform="translate(15,33.25)"/>
<path d="M0 0 C4.5109618 0.63153465 6.79142285 2.67960285 9.5 6.25 C10.61922978 10.16730422 10.05944628 13.59680193 8.21875 17.22265625 C6.54517789 19.61428125 4.98877393 21.25051446 2.0859375 21.87890625 C-0.0625 21.9375 -0.0625 21.9375 -3.875 21.4375 C-4.535 20.7775 -5.195 20.1175 -5.875 19.4375 C-3.9878125 19.31375 -3.9878125 19.31375 -2.0625 19.1875 C0.80697513 18.81675366 1.86790589 18.65442316 4.125 16.75 C5.44291752 13.70231573 5.60474051 11.72714918 5.125 8.4375 C2.81675187 5.02129277 1.4566667 4.50383334 -2.625 3.6875 C-3.6975 3.605 -4.77 3.5225 -5.875 3.4375 C-4.02648667 0.97281556 -3.1018945 0.47202742 0 0 Z " fill="#7B7B7B" transform="translate(113.875,32.5625)"/>
<path d="M0 0 C5.67446893 -0.28853232 8.13553033 -0.02385952 13 3 C15.70839364 2.80182486 17.4743474 2.30814118 19.8125 0.9375 C24.11412324 -0.90605282 28.20983079 -0.63835491 32.51953125 0.8984375 C34.71563796 1.87371638 36.86707578 2.89403929 39 4 C38.67 4.99 38.34 5.98 38 7 C37.05125 6.505 36.1025 6.01 35.125 5.5 C30.49679205 3.53395231 25.95501905 3.20485336 21 4 C17.91308423 5.79517723 17.91308423 5.79517723 16 8 C12.88626628 6.50079488 9.87771795 4.91847864 7 3 C7 2.34 7 1.68 7 1 C4.69 1 2.38 1 0 1 C0 0.67 0 0.34 0 0 Z " fill="#191919" transform="translate(48,17)"/>
<path d="M0 0 C0.87140625 0.2165625 1.7428125 0.433125 2.640625 0.65625 C13.2014435 3.12501277 22.89966067 4.85768408 33.16015625 0.55859375 C35 0 35 0 38 1 C29.45512372 6.2583854 22.05741055 8.75498439 12 7 C7.7447806 5.37272928 3.87664392 3.38562703 0 1 C0 0.67 0 0.34 0 0 Z " fill="#171717" transform="translate(44,75)"/>
<path d="M0 0 C0.66 0.66 1.32 1.32 2 2 C1.51789062 2.36351562 1.03578125 2.72703125 0.5390625 3.1015625 C-3.56494653 6.36801867 -6.01550906 8.63999375 -7 14 C-7.46873487 19.2498306 -6.8394801 22.53795984 -4 27 C-2.69855198 28.04115841 -1.37202131 29.05377841 0 30 C0 30.66 0 31.32 0 32 C-2.25 31.875 -2.25 31.875 -5 31 C-9.19755877 25.63645268 -10.41580925 21.30597663 -10.34765625 14.63671875 C-9.59950728 8.96255522 -6.35116572 5.20103619 -2.1875 1.5 C-1.1046875 0.7575 -1.1046875 0.7575 0 0 Z " fill="#ACABAA" transform="translate(42,22)"/>
<path d="M0 0 C0.66 0.33 1.32 0.66 2 1 C0.61448717 5.15653848 -1.55314301 5.85580673 -5.30078125 7.859375 C-9.71865385 9.72626183 -14.26365291 10.40684999 -19 11 C-19 10.34 -19 9.68 -19 9 C-19.66 8.67 -20.32 8.34 -21 8 C-19.98679687 7.75765625 -18.97359375 7.5153125 -17.9296875 7.265625 C-16.57797167 6.92769604 -15.22641757 6.58911976 -13.875 6.25 C-13.20984375 6.09273438 -12.5446875 5.93546875 -11.859375 5.7734375 C-7.1889648 4.58294078 -3.87457314 2.87273647 0 0 Z " fill="#191919" transform="translate(93,78)"/>
<path d="M0 0 C3.85025879 0.60355408 6.86101159 1.76772603 10.3125 3.5625 C11.19550781 4.01753906 12.07851563 4.47257812 12.98828125 4.94140625 C13.65214844 5.29074219 14.31601562 5.64007813 15 6 C14.67 6.66 14.34 7.32 14 8 C13.39671875 7.91621094 12.7934375 7.83242187 12.171875 7.74609375 C10.97304688 7.59333984 10.97304688 7.59333984 9.75 7.4375 C8.96109375 7.33308594 8.1721875 7.22867188 7.359375 7.12109375 C4.9934363 6.99966312 3.26905791 7.40261528 1 8 C0 7 0 7 -0.0625 3.4375 C-0.041875 2.303125 -0.02125 1.16875 0 0 Z " fill="#737373" transform="translate(15,116)"/>
<path d="M0 0 C0 2.97 0 5.94 0 9 C-1.216875 8.814375 -2.43375 8.62875 -3.6875 8.4375 C-7.06896965 7.99461725 -9.65819801 8.31198194 -13 9 C-13.66 8.34 -14.32 7.68 -15 7 C-12.68868934 5.83092416 -10.37604377 4.66464108 -8.0625 3.5 C-7.40314453 3.16613281 -6.74378906 2.83226563 -6.06445312 2.48828125 C-1.11328125 0 -1.11328125 0 0 0 Z " fill="#757575" transform="translate(112,115)"/>
<path d="M0 0 C4.05914857 1.50338836 6.92255507 4.24905777 9 8 C9.82986184 11.92647592 9.39626643 15.15085765 7.6875 18.8125 C6.22444433 20.70905365 4.77442053 22.3945719 3 24 C2.34 23.67 1.68 23.34 1 23 C1.37253906 22.50371094 1.74507813 22.00742188 2.12890625 21.49609375 C4.60617306 17.9388196 5.97269548 15.7918311 6.125 11.375 C4.74619832 7.23859497 2.9110949 5.20966873 0 2 C0 1.34 0 0.68 0 0 Z " fill="#0C0C0C" transform="translate(92,57)"/>
<path d="M0 0 C2 2 2 2 2.1953125 3.9453125 C2.13020833 5.96354167 2.06510417 7.98177083 2 10 C-0.44507934 10.87324262 -1.67700322 11.10151327 -4.1875 10.3125 C-6 9 -6 9 -6.75 6.875 C-6.8325 6.25625 -6.915 5.6375 -7 5 C-4.69 4.34 -2.38 3.68 0 3 C0 2.01 0 1.02 0 0 Z " fill="#777777" transform="translate(121,107)"/>
<path d="M0 0 C4.32368367 3.26678322 7.175964 5.73056266 9 11 C9.22276118 14.01965152 9.1812428 16.97928674 9 20 C8.34 20.33 7.68 20.66 7 21 C6.87044922 19.93072266 6.87044922 19.93072266 6.73828125 18.83984375 C5.7504695 12.10641135 4.19977222 8.30497544 0 3 C0 2.01 0 1.02 0 0 Z " fill="#0C0C0C" transform="translate(87,22)"/>
<path d="M0 0 C3.96 1.98 3.96 1.98 8 4 C7 7 7 7 5.125 8.1875 C3 9 3 9 0 9 C0 6.03 0 3.06 0 0 Z " fill="#787878" transform="translate(5,109)"/>
<path d="M0 0 C2.3125 1.75 2.3125 1.75 3.3125 3.75 C3.72516864 7.46401778 3.51998588 9.35992655 1.75 12.6875 C-0.6875 14.75 -0.6875 14.75 -4.4375 14.5625 C-5.51 14.294375 -6.5825 14.02625 -7.6875 13.75 C-7.6875 13.42 -7.6875 13.09 -7.6875 12.75 C-6.553125 12.440625 -5.41875 12.13125 -4.25 11.8125 C-0.89974901 11.12075469 -0.89974901 11.12075469 0.3125 9.75 C0.56255386 6.79182893 0.56255386 6.79182893 0.3125 3.75 C-2.04703094 1.39046906 -3.46645617 1.25858587 -6.6875 0.75 C-3.88080644 -1.22508065 -3.21066414 -1.49333216 0 0 Z " fill="#26211B" transform="translate(116.6875,37.25)"/>
<path d="M0 0 C2.125 0.375 2.125 0.375 4 1 C4.625 3.375 4.625 3.375 5 6 C4.34 6.66 3.68 7.32 3 8 C0.875 7.625 0.875 7.625 -1 7 C-1.625 4.625 -1.625 4.625 -2 2 C-1.34 1.34 -0.68 0.68 0 0 Z " fill="#191919" transform="translate(54,55)"/>
<path d="M0 0 C2.125 0.375 2.125 0.375 4 1 C4.625 3.375 4.625 3.375 5 6 C4.34 6.66 3.68 7.32 3 8 C0.875 7.625 0.875 7.625 -1 7 C-1.625 4.625 -1.625 4.625 -2 2 C-1.34 1.34 -0.68 0.68 0 0 Z " fill="#161616" transform="translate(70,55)"/>
<path d="M0 0 C5.61654319 -0.28558694 8.21819592 -0.10171075 13 3 C15.70953551 3.25196129 15.70953551 3.25196129 18 3 C17.67 4.32 17.34 5.64 17 7 C12.26886581 7 10.67452438 5.8394052 7 3 C7 2.34 7 1.68 7 1 C4.69 1 2.38 1 0 1 C0 0.67 0 0.34 0 0 Z " fill="#1A1A1A" transform="translate(48,17)"/>
<path d="M0 0 C1.36125 0.37125 1.36125 0.37125 2.75 0.75 C2.75 1.08 2.75 1.41 2.75 1.75 C0.44 2.41 -1.87 3.07 -4.25 3.75 C-4.93493373 6.60778033 -4.93493373 6.60778033 -5.25 9.75 C-3.54107501 13.06460705 -3.54107501 13.06460705 -0.125 13.4375 C0.82375 13.540625 1.7725 13.64375 2.75 13.75 C1.0625 14.875 1.0625 14.875 -1.25 15.75 C-3.9375 15 -3.9375 15 -6.25 13.75 C-7.85185044 10.54629912 -7.73679139 7.2261019 -7.25 3.75 C-5.01894648 0.23180023 -4.19057825 -0.32235217 0 0 Z " fill="#211E19" transform="translate(15.25,36.25)"/>
<path d="M0 0 C-6.24161903 3.58125682 -10.75420281 5.67090715 -18 5 C-17 3 -17 3 -13.9453125 1.89453125 C-12.68460937 1.53746094 -11.42390625 1.18039063 -10.125 0.8125 C-8.86945313 0.44769531 -7.61390625 0.08289063 -6.3203125 -0.29296875 C-3 -1 -3 -1 0 0 Z " fill="#111111" transform="translate(82,76)"/>
<path d="M0 0 C0.98484375 0.01804687 1.9696875 0.03609375 2.984375 0.0546875 C4.10585938 0.08949219 4.10585938 0.08949219 5.25 0.125 C5.25 0.785 5.25 1.445 5.25 2.125 C4.68152344 2.16238281 4.11304688 2.19976563 3.52734375 2.23828125 C-1.83435193 2.69478622 -5.9169508 3.75989082 -10.75 6.125 C-10.5 4.25 -10.5 4.25 -9.75 2.125 C-6.51286374 -0.03309084 -3.82462761 -0.09106256 0 0 Z " fill="#131313" transform="translate(49.75,17.875)"/>
<path d="M0 0 C1.2065625 0.0309375 1.2065625 0.0309375 2.4375 0.0625 C2.81968767 1.71864657 3.15145102 3.38707024 3.4375 5.0625 C2.4375 6.0625 2.4375 6.0625 -0.125 6.125 C-1.3315625 6.0940625 -1.3315625 6.0940625 -2.5625 6.0625 C-2.94468767 4.40635343 -3.27645102 2.73792976 -3.5625 1.0625 C-2.5625 0.0625 -2.5625 0.0625 0 0 Z " fill="#131313" transform="translate(73.5625,36.9375)"/>
<path d="M0 0 C1.2065625 0.0309375 1.2065625 0.0309375 2.4375 0.0625 C2.81968767 1.71864657 3.15145102 3.38707024 3.4375 5.0625 C2.4375 6.0625 2.4375 6.0625 -0.125 6.125 C-1.3315625 6.0940625 -1.3315625 6.0940625 -2.5625 6.0625 C-2.94468767 4.40635343 -3.27645102 2.73792976 -3.5625 1.0625 C-2.5625 0.0625 -2.5625 0.0625 0 0 Z " fill="#131313" transform="translate(52.5625,36.9375)"/>
<path d="M0 0 C3.44621303 0.06892426 6.05814016 0.20817093 8.765625 2.484375 C11.46920274 5.55542933 13.2263047 7.92460501 14 12 C13.01 12.495 13.01 12.495 12 13 C11.68546875 12.45730469 11.3709375 11.91460937 11.046875 11.35546875 C7.83467487 5.93632695 7.83467487 5.93632695 3 2 C2.01 1.34 1.02 0.68 0 0 Z " fill="#A4A3A2" transform="translate(79,22)"/>
<path d="M0 0 C0.66 0.66 1.32 1.32 2 2 C1.51789062 2.36351562 1.03578125 2.72703125 0.5390625 3.1015625 C-3.57776088 6.37821784 -5.85437362 8.65374355 -7 14 C-7.66 12.68 -8.32 11.36 -9 10 C-6.43571997 5.82117329 -3.98069267 2.87494471 0 0 Z " fill="#A2A1A0" transform="translate(42,22)"/>
<path d="M0 0 C4.95 0.99 4.95 0.99 10 2 C10 2.99 10 3.98 10 5 C6.53058454 4.54177532 3.32604951 4.10868317 0 3 C0 2.01 0 1.02 0 0 Z " fill="#1C1C1C" transform="translate(44,84)"/>
<path d="M0 0 C3.48670834 1.1094072 6.77484237 2.26337666 10 4 C10 4.66 10 5.32 10 6 C6.28111761 5.49287967 3.26545761 4.88391785 0 3 C0 2.01 0 1.02 0 0 Z " fill="#0E0E0E" transform="translate(34,80)"/>
<path d="M0 0 C3.32851213 2.98418329 5.3205729 5.84562769 7 10 C6.67 10.99 6.34 11.98 6 13 C5.66226563 12.38511719 5.32453125 11.77023438 4.9765625 11.13671875 C4.53054687 10.32847656 4.08453125 9.52023438 3.625 8.6875 C3.18414062 7.88699219 2.74328125 7.08648437 2.2890625 6.26171875 C1.26486665 4.46472057 0.14732862 2.72099292 -1 1 C-0.67 0.67 -0.34 0.34 0 0 Z " fill="#8E8E8E" transform="translate(90,22)"/>
<path d="M0 0 C8.57142857 -0.28571429 8.57142857 -0.28571429 12 2 C11.67 2.99 11.34 3.98 11 5 C9.68 4.34 8.36 3.68 7 3 C7 2.34 7 1.68 7 1 C4.69 1 2.38 1 0 1 C0 0.67 0 0.34 0 0 Z " fill="#292929" transform="translate(48,17)"/>
<path d="M0 0 C2.31 0.33 4.62 0.66 7 1 C6.01 2.485 6.01 2.485 5 4 C3.0625 3.6875 3.0625 3.6875 1 3 C0.67 2.01 0.34 1.02 0 0 Z " fill="#9B9B9B" transform="translate(108,104)"/>
<path d="M0 0 C-0.3125 1.875 -0.3125 1.875 -1 4 C-4 6 -4 6 -7 6 C-7 5.34 -7 4.68 -7 4 C-2.52941176 0 -2.52941176 0 0 0 Z " fill="#B4B3B2" transform="translate(91,48)"/>
<path d="M0 0 C3.36720387 1.39332574 4.9859524 2.9789286 7 6 C3.75728494 5.4409112 2.06942576 4.5867822 0 2 C0 1.34 0 0.68 0 0 Z " fill="#060606" transform="translate(92,57)"/>
</svg>
