<?xml version="1.0" encoding="UTF-8"?>
<svg version="1.1" xmlns="http://www.w3.org/2000/svg" width="256" height="256">
<path d="M0 0 C3.125 0.375 3.125 0.375 5.30078125 1.87890625 C7.85399816 5.37249427 7.59888594 8.53808817 7.4375 12.6875 C7.42783203 13.42162109 7.41816406 14.15574219 7.40820312 14.91210938 C7.33560062 18.4696319 7.06023347 21.76870203 6.48046875 25.29296875 C6.36316406 26.31003906 6.24585938 27.32710937 6.125 28.375 C7.115 29.365 7.115 29.365 8.125 30.375 C9.24398163 34.12838411 9.04655188 36.89756524 8.1875 40.6875 C7.99285156 41.57050781 7.79820312 42.45351563 7.59765625 43.36328125 C7.36369141 44.35908203 7.36369141 44.35908203 7.125 45.375 C14.63205859 40.32653294 21.84969225 35.1398447 28.78515625 29.3203125 C34.66580161 24.43122837 34.66580161 24.43122837 38.1875 24 C41.125 24.375 41.125 24.375 42.9375 25.4375 C45.41220911 29.47518329 45.28591163 33.57547036 44.375 38.1015625 C43.97787269 39.40714555 43.56031467 40.7066484 43.125 42 C42.8978833 42.69367676 42.6707666 43.38735352 42.43676758 44.10205078 C38.92293047 54.36964975 33.7377062 63.17931759 26.7265625 71.44921875 C25.07339433 73.28815521 25.07339433 73.28815521 24.125 75.375 C24.74375 75.6225 25.3625 75.87 26 76.125 C28.59061326 77.64889015 29.24944207 78.50953767 30.125 81.375 C28.7114418 97.52664043 12.79035009 112.83991297 1.25 122.875 C-0.875 124.375 -0.875 124.375 -2.875 124.375 C-2.936875 125.261875 -2.99875 126.14875 -3.0625 127.0625 C-4.30724287 132.13722094 -7.34184046 134.34100868 -11.5625 137.1875 C-13.875 138.375 -13.875 138.375 -15.875 138.375 C-15.875 139.035 -15.875 139.695 -15.875 140.375 C-7.73577494 143.11080235 0.4407585 145.72248845 8.62304688 148.32617188 C11.79211432 149.33707907 14.95878489 150.35519781 18.125 151.375 C19.75598633 151.89392822 19.75598633 151.89392822 21.41992188 152.42333984 C22.47373047 152.76445801 23.52753906 153.10557617 24.61328125 153.45703125 C25.55598877 153.75971924 26.49869629 154.06240723 27.4699707 154.37426758 C35.9451899 157.5687433 42.08197427 163.28894853 46.125 171.375 C46.90938001 180.96684699 46.99662212 189.25396772 41.125 197.375 C38.9770607 199.89131939 38.52561399 200.31657713 35.125 200.8125 C32.125 200.375 32.125 200.375 30.49609375 198.6640625 C28.5678324 195.44479997 28.32825203 192.38836322 27.84765625 188.71484375 C26.92762587 185.73593459 25.766466 184.94915778 23.125 183.375 C10.35932471 178.48601797 -5.25319494 180.25229723 -18.6875 180.3125 C-20.65169156 180.31752683 -22.61588438 180.32208763 -24.58007812 180.32617188 C-29.34508351 180.33707965 -34.1100276 180.35427857 -38.875 180.375 C-38.12543103 182.42750846 -37.36557848 184.47626281 -36.6015625 186.5234375 C-36.17955566 187.66474121 -35.75754883 188.80604492 -35.32275391 189.98193359 C-33.91450373 193.28241606 -32.27837445 196.0490214 -30.25 199 C-26.19185377 205.07401496 -24.41939505 211.08287484 -23.50390625 218.30078125 C-22.66834858 224.86400821 -22.66834858 224.86400821 -18.4375 229.6875 C-17.81875 230.13867188 -17.2 230.58984375 -16.5625 231.0546875 C-13.93926675 233.10712463 -12.95307998 235.26759299 -11.875 238.375 C-11.31148894 243.63443659 -12.14680156 246.86297951 -14.875 251.375 C-16.875 253.375 -16.875 253.375 -19.8125 253.5625 C-22.875 253.375 -22.875 253.375 -25.875 252.375 C-26.32875 253.035 -26.7825 253.695 -27.25 254.375 C-30.72511229 257.0227046 -33.13454854 256.92956003 -37.41015625 256.78515625 C-40.85723987 256.2115528 -43.07680684 254.39230205 -45.875 252.375 C-48.26579482 252.7141564 -48.26579482 252.7141564 -50.875 253.375 C-52.74607522 253.53485377 -54.62275147 253.63837091 -56.5 253.6875 C-57.44101563 253.72488281 -58.38203125 253.76226562 -59.3515625 253.80078125 C-61.875 253.375 -61.875 253.375 -63.65625 251.58984375 C-65.82882766 247.64160166 -66.35275579 243.65287137 -65.4375 239.2890625 C-63.81327306 234.47175304 -61.41328616 231.00401145 -57.875 227.375 C-57.215 227.375 -56.555 227.375 -55.875 227.375 C-57.30340404 212.57929252 -60.92898785 204.55327046 -71.70996094 194.546875 C-74.88688766 191.5657981 -77.24060783 188.91577797 -79.32421875 185.0703125 C-81.09278949 182.0652625 -82.24638821 180.83589822 -85.64453125 179.9375 C-86.98683207 179.7148745 -88.33545519 179.52767109 -89.6875 179.375 C-90.38037109 179.26800781 -91.07324219 179.16101563 -91.78710938 179.05078125 C-93.47860866 178.79413998 -95.17648098 178.58010418 -96.875 178.375 C-96.441875 178.93703125 -96.00875 179.4990625 -95.5625 180.078125 C-91.27958347 186.54215643 -90.29574421 191.98050716 -90.3125 199.5625 C-90.31056641 200.40522461 -90.30863281 201.24794922 -90.30664062 202.11621094 C-90.44359452 207.40553637 -90.9053633 214.4053633 -94.875 218.375 C-94.98097167 220.10292703 -95.05963119 221.83256106 -95.125 223.5625 C-95.59540613 229.22207376 -96.63324028 231.61525843 -100.875 235.375 C-104.79144676 237.35673549 -107.83501557 237.5418018 -112.1875 237.375 C-117.5609176 237.27796311 -121.73545306 237.93232016 -126.875 239.375 C-130.125 239.8125 -130.125 239.8125 -132.875 239.375 C-135.25 237.0625 -135.25 237.0625 -136.875 234.375 C-136.875 233.385 -136.875 232.395 -136.875 231.375 C-138.2053125 231.5296875 -138.2053125 231.5296875 -139.5625 231.6875 C-143.88184858 231.28001428 -145.13142975 229.6027297 -147.875 226.375 C-146.8973629 220.38697279 -144.72834876 217.65585761 -140.0078125 213.8828125 C-133.56306598 209.32663639 -127.54918033 208.84871483 -119.875 208.375 C-119.545 204.415 -119.215 200.455 -118.875 196.375 C-119.9371875 195.86710938 -120.999375 195.35921875 -122.09375 194.8359375 C-145.41226332 183.53918049 -145.41226332 183.53918049 -149.6875 172 C-151.996169 164.07137105 -150.72353579 157.97247913 -148.43359375 150.20703125 C-147.67800084 146.37622802 -148.09081437 143.80797231 -149.9609375 140.390625 C-150.38632813 139.80796875 -150.81171875 139.2253125 -151.25 138.625 C-151.67023438 138.03203125 -152.09046875 137.4390625 -152.5234375 136.828125 C-153.92016831 135.09367268 -153.92016831 135.09367268 -156.875 134.375 C-156.936875 135.6125 -156.99875 136.85 -157.0625 138.125 C-157.48618714 141.39261454 -157.80521674 142.2908496 -160 144.9375 C-162.875 146.375 -162.875 146.375 -166.3125 146.5625 C-171.67934858 144.77355047 -174.1385291 141.21380397 -177.01953125 136.50390625 C-179.03519898 131.48774683 -178.6710886 125.20182957 -177.22265625 120.05859375 C-175.43979237 116.14853605 -173.38844721 113.93071345 -170.0625 111.25 C-167.4143069 108.79378679 -166.90685771 107.77298367 -166.61328125 104.10546875 C-166.87172099 100.48345509 -167.3141483 96.96211398 -167.875 93.375 C-168.63585964 87.96543018 -169.045042 82.67755037 -169.078125 77.2109375 C-169.08382507 76.45640289 -169.08952515 75.70186829 -169.09539795 74.92446899 C-169.10478099 73.33621594 -169.11135501 71.747944 -169.11523438 70.15966797 C-169.12489197 67.77665646 -169.15595921 65.39452699 -169.1875 63.01171875 C-169.30943318 45.4470615 -166.47485481 27.5845252 -153.875 14.375 C-143.65083797 4.6155726 -131.81268831 2.198001 -118.125 2.125 C-117.17367187 2.104375 -116.22234375 2.08375 -115.2421875 2.0625 C-107.0987 2.01787815 -99.57039644 3.20392489 -93.21875 8.7109375 C-91.875 10.375 -91.875 10.375 -90.84375 12.8515625 C-89.47659202 16.0569937 -88.46066509 17.99875242 -85.875 20.375 C-81.16404546 21.76932446 -76.28417447 21.8224554 -71.40625 21.99609375 C-67.2801013 22.20018099 -64.39136228 23.07959684 -60.875 25.375 C-56.89105626 31.35091562 -57.9883414 40.42736593 -58.875 47.375 C-60.40844021 53.04804724 -62.94615887 58.08910591 -67.875 61.375 C-70.53618504 61.83608233 -73.13352402 62.20739922 -75.8125 62.5 C-76.52857422 62.58636719 -77.24464844 62.67273437 -77.98242188 62.76171875 C-81.31253425 63.15059193 -84.51738758 63.375 -87.875 63.375 C-84.92395256 64.84339559 -81.92240486 66.12045459 -78.875 67.375 C-78.11703125 67.76042969 -77.3590625 68.14585938 -76.578125 68.54296875 C-73.60679323 69.68463817 -72.03728235 69.94524764 -68.875 69.375 C-63.89687706 66.40629043 -59.79682573 62.16145924 -55.6796875 58.12939453 C-54.09992424 56.59365606 -52.4935302 55.11189194 -50.84375 53.65234375 C-37.31565199 41.62943247 -24.62177508 28.95715109 -13.875 14.375 C-12.59141886 12.6595327 -11.30464804 10.94649317 -10.01757812 9.23364258 C-8.88969616 7.72804811 -7.77068579 6.21581912 -6.65234375 4.703125 C-3.40048003 0.44354087 -3.40048003 0.44354087 0 0 Z " fill="#050705" transform="translate(192.875,-0.375)"/>
<path d="M0 0 C1.86447929 2.7567906 3.46196603 5.52144451 5.04882812 8.4375 C6.85483852 11.72960521 6.85483852 11.72960521 9.81640625 13.87109375 C10.53699219 13.91363281 11.25757812 13.95617187 12 14 C13.06992188 14.08121094 14.13984375 14.16242187 15.2421875 14.24609375 C17.65873287 14.37341711 20.07540125 14.49842749 22.4921875 14.62109375 C30.48439451 15.48439451 30.48439451 15.48439451 33 18 C33.1264848 20.24731125 33.17582553 22.49916239 33.1875 24.75 C33.20167969 25.98234375 33.21585937 27.2146875 33.23046875 28.484375 C32.8689197 33.99952999 30.49047449 38.13225441 28 43 C27.34 43 26.68 43 26 43 C25.34 42.34 24.68 41.68 24 41 C23.67 41.99 23.34 42.98 23 44 C22.01 44 21.02 44 20 44 C20 43.01 20 42.02 20 41 C19.01 41 18.02 41 17 41 C16.67 41.99 16.34 42.98 16 44 C15.01 44 14.02 44 13 44 C13 42.68 13 41.36 13 40 C12.01 40 11.02 40 10 40 C9.67 41.32 9.34 42.64 9 44 C8.34 44 7.68 44 7 44 C6.67 42.35 6.34 40.7 6 39 C5.34 39 4.68 39 4 39 C4 40.65 4 42.3 4 44 C3.01 44 2.02 44 1 44 C0.67 43.67 0.34 43.34 0 43 C-0.66 44.65 -1.32 46.3 -2 48 C-3.32 47.34 -4.64 46.68 -6 46 C-6.66 47.32 -7.32 48.64 -8 50 C-8.99 49.67 -9.98 49.34 -11 49 C-11 48.34 -11 47.68 -11 47 C-13.97 47 -16.94 47 -20 47 C-18.51895734 49.82343452 -17.00255258 52.51181478 -15 55 C-12.41344667 55.66743877 -12.41344667 55.66743877 -10 55 C-8.33333333 55 -6.66666667 55 -5 55 C-5 55.66 -5 56.32 -5 57 C-4.34 57 -3.68 57 -3 57 C-2.67 56.01 -2.34 55.02 -2 54 C-1.01 54.99 -0.02 55.98 1 57 C1.495 56.01 1.495 56.01 2 55 C2.99 55 3.98 55 5 55 C5 55.99 5 56.98 5 58 C5.61875 57.79375 6.2375 57.5875 6.875 57.375 C7.57625 57.25125 8.2775 57.1275 9 57 C9.66 57.66 10.32 58.32 11 59 C11.99 59 12.98 59 14 59 C14.33 59.99 14.66 60.98 15 62 C15.99 61.67 16.98 61.34 18 61 C18.33 61.66 18.66 62.32 19 63 C19.33 62.34 19.66 61.68 20 61 C21.485 61.495 21.485 61.495 23 62 C23 62.66 23 63.32 23 64 C24.485 64.495 24.485 64.495 26 65 C26.50477602 70.30014818 25.20817314 72.81965318 22 77 C21 78 21 78 19.19921875 78.125 C11.51239152 77.74245183 5.04419214 75.33138525 -2.07788086 72.65698242 C-8.89443981 70.18303122 -15.52798117 68.82551297 -22.73242188 68.06298828 C-29.78229006 67.23350116 -34.16694294 64.20483068 -39 59 C-37.47149038 63.12697597 -34.72232945 65.79504479 -31 68 C-25.93310573 69.64838393 -20.69315842 70.55419521 -15.47265625 71.58398438 C-7.99209882 73.18567188 -2.29590403 75.66230062 4 80 C7.57141265 82.38094176 10.54568627 82.50134869 14.6875 82.875 C24.71575048 84.00004994 30.41054124 86.45451171 37.07421875 94.30859375 C39.18238935 97.25490114 40.75705594 100.26032279 42.375 103.5 C53.38133619 124.65280236 82.49922202 134.48085106 103.9375 141.25 C105.98785492 141.881594 108.03862433 142.5118443 110.08984375 143.140625 C114.071205 144.3776323 118.03387814 145.65247408 121.97265625 147.01953125 C122.8325415 147.31706299 123.69242676 147.61459473 124.57836914 147.92114258 C130.53264006 150.5738216 135.12171668 155.19188201 138 161 C139.15787364 168.56268818 138.20345041 174.6347751 134 181 C133.01 181.33 132.02 181.66 131 182 C130.98582031 181.41992188 130.97164062 180.83984375 130.95703125 180.2421875 C130.59739277 174.35189239 129.57303393 171.08654095 125 167 C119.09685205 163.95898439 112.8849075 162.89885858 106.29174805 162.79467773 C105.17096359 162.77473251 104.05017914 162.75478729 102.89543152 162.73423767 C101.0967437 162.70916893 101.0967437 162.70916893 99.26171875 162.68359375 C98.02581497 162.66281265 96.78991119 162.64203156 95.51655579 162.62062073 C92.24347874 162.56640069 88.9703726 162.51612422 85.69720459 162.46777344 C82.3521174 162.4173843 79.00712276 162.36171184 75.66210938 162.30664062 C69.10814229 162.19964057 62.55410987 162.09784108 56 162 C56.02320313 160.81921875 56.04640625 159.6384375 56.0703125 158.421875 C56.08907497 156.86458967 56.10727466 155.30729748 56.125 153.75 C56.14175781 152.97269531 56.15851563 152.19539062 56.17578125 151.39453125 C56.25968301 145.91693064 56.25968301 145.91693064 54 141 C54.165 141.66 54.33 142.32 54.5 143 C55.25611316 147.53667899 55.81531968 152.06361575 54 156.375 C51.29280661 163.48138264 53.04441812 170.78485907 55.51953125 177.71875 C57.5755466 182.27561781 60.19127572 186.40175684 62.84350586 190.63012695 C66.19801038 196.07372319 67.86323227 200.83218348 68.07421875 207.26171875 C68.41206693 214.12353177 71.20010362 217.26284737 76 222 C78.5 224.5625 78.5 224.5625 80 227 C79.75 230.8125 79.75 230.8125 79 234 C77.3125 234.6875 77.3125 234.6875 75 235 C72.375 233.5625 72.375 233.5625 70 232 C69.34 232 68.68 232 68 232 C67.71125 232.78375 67.4225 233.5675 67.125 234.375 C66 237 66 237 64 239 C59.92919603 238.90953769 58.29442208 238.25516581 55.1875 235.5625 C53 233 53 233 52 231 C51.401875 231.474375 50.80375 231.94875 50.1875 232.4375 C47.04338495 234.68329646 44.57440587 235.12417059 40.8125 235.0625 C39.554375 235.041875 38.29625 235.02125 37 235 C36.37845734 230.73799318 36.14516805 227.36638492 38.48828125 223.62109375 C40.2415166 221.591987 41.93635741 219.71347699 44 218 C44.66 218 45.32 218 46 218 C45.57997934 201.07316723 42.0170368 190.67564551 29.5625 178.75 C16.46487606 166.06666153 14.80118685 153.18334962 14 136 C13.79130308 146.73990588 13.79130308 146.73990588 14.5625 157.4375 C14.7790625 159.2009375 14.7790625 159.2009375 15 161 C14.67 161.33 14.34 161.66 14 162 C-6.38108627 161.18475655 -28.14935908 148.37907902 -42 134 C-53.14576348 121.60456001 -60.07980553 106.08343353 -64 90 C-64.16371094 89.33323242 -64.32742187 88.66646484 -64.49609375 87.97949219 C-67.06692398 76.83037514 -67.30675643 65.57717686 -67.375 54.1875 C-67.38294586 53.49020782 -67.39089172 52.79291565 -67.39907837 52.07449341 C-67.54602327 35.2884464 -65.05225211 18.23894307 -53.1875 5.4375 C-40.42051415 -6.07250462 -14.59600974 -10.67503197 0 0 Z " fill="#C4FDB8" transform="translate(96,12)"/>
<path d="M0 0 C0.71472044 17.64466088 -11.32150681 32.97603225 -22.58447266 45.46875 C-26.25906136 49.44374488 -30.10469238 53.24190479 -34 57 C-34.99 57.99 -34.99 57.99 -36 59 C-34.81921875 58.4946875 -33.6384375 57.989375 -32.421875 57.46875 C-30.86474055 56.81212704 -29.30744014 56.15589756 -27.75 55.5 C-26.97269531 55.16613281 -26.19539063 54.83226562 -25.39453125 54.48828125 C-24.64042969 54.17246094 -23.88632813 53.85664062 -23.109375 53.53125 C-22.41811523 53.23798828 -21.72685547 52.94472656 -21.01464844 52.64257812 C-19 52 -19 52 -15 52 C-17.57534858 68.33005122 -32.65163565 81.98019659 -45.08203125 91.71484375 C-47 93 -47 93 -49 93 C-49 93.66 -49 94.32 -49 95 C-48.34 95 -47.68 95 -47 95 C-47 95.99 -47 96.98 -47 98 C-49.1953125 99.7890625 -49.1953125 99.7890625 -52.125 101.625 C-53.07632813 102.23601562 -54.02765625 102.84703125 -55.0078125 103.4765625 C-58.18592753 105.09466284 -60.44009831 105.84053141 -64 106 C-78.32390992 100.81411728 -88.14924318 89.77249473 -95.2890625 76.8671875 C-98.1560899 72.06262561 -101.01038356 68.6846104 -105.75 65.6875 C-106.54921875 65.17574219 -107.3484375 64.66398437 -108.171875 64.13671875 C-108.77515625 63.76160156 -109.3784375 63.38648438 -110 63 C-105.82103518 58.09164707 -101.35799898 56.11679433 -95.4375 53.75 C-93.53718093 52.96102972 -91.63745464 52.17063038 -89.73828125 51.37890625 C-88.77744629 50.98203613 -87.81661133 50.58516602 -86.82666016 50.17626953 C-58.12891072 38.23415891 -29.97154716 24.03853137 -6.35400391 3.57373047 C-2.20034247 0 -2.20034247 0 0 0 Z " fill="#B8E4FD" transform="translate(232,29)"/>
<path d="M0 0 C4.37213267 1.45737756 7.33027899 3.71165423 10.875 6.625 C18.27053506 12.53711264 26.51034705 17.39098412 35.3125 20.9296875 C37.68949294 22.43731728 38.05124697 23.98666147 38.9375 26.625 C40.18145469 30.12393232 41.40960324 32.63878256 43.75 35.5 C46.56382308 39.75122496 46.51242787 44.05287379 46.5625 49 C46.58425293 50.13985352 46.58425293 50.13985352 46.60644531 51.30273438 C46.51645986 56.38142569 45.35967788 59.78397986 42.90649414 64.20507812 C41.71391834 66.56646171 41.50106635 68.6225909 41.4375 71.25 C41.33200929 75.14695103 40.70446731 77.12371948 38 80 C34.52674819 81.1577506 31.63932552 81.06866652 28 81 C27.67 80.01 27.34 79.02 27 78 C26.030625 78.639375 25.06125 79.27875 24.0625 79.9375 C19.8446362 82.38351528 15.80480758 82.78209489 11 83 C10.95745644 81.00045254 10.95919217 78.99958364 11 77 C11.495 76.505 11.495 76.505 12 76 C8.04 75.67 4.08 75.34 0 75 C2.39029134 69.02427164 4.47453189 67.74763715 10 65 C14.96182644 63.22791913 19.79023833 62.54839597 25 62 C27.67430716 56.09423835 29.94247502 49.43324647 28 43 C23.40856901 39.08134938 18.45468306 36.6747003 13 34.1875 C6.71510373 31.19314797 1.70627406 28.12281906 -2 22 C-3.14888581 18.55334258 -3.2039347 15.75648095 -3.25 12.125 C-3.28867187 10.30355469 -3.28867187 10.30355469 -3.328125 8.4453125 C-2.98031164 4.79327217 -2.12478034 2.94114331 0 0 Z " fill="#C4FCB8" transform="translate(51,150)"/>
<path d="M0 0 C0.99 0.33 1.98 0.66 3 1 C3.79836516 11.06827169 1.38834491 20.30801108 -1 30 C-0.54625 29.505 -0.0925 29.01 0.375 28.5 C2 27 2 27 4 27 C4.305423 31.47953734 3.8875967 35.64548231 3.0625 40.0625 C2.80146484 41.53396484 2.80146484 41.53396484 2.53515625 43.03515625 C-1.73256175 51.27739026 -13.51183625 54.90047381 -21.5 58.6875 C-22.77199931 59.29567993 -24.04397157 59.90391644 -25.31591797 60.51220703 C-33.86560173 64.58482911 -42.46915607 68.53285217 -51.125 72.375 C-52.70571289 73.08015747 -52.70571289 73.08015747 -54.31835938 73.79956055 C-55.28837891 74.22406494 -56.25839844 74.64856934 -57.2578125 75.0859375 C-58.52842529 75.6435376 -58.52842529 75.6435376 -59.82470703 76.21240234 C-62 77 -62 77 -65 77 C-65.71487624 70.09697631 -65.71487624 70.09697631 -63.91015625 67.32763672 C-62.34700903 65.74842267 -60.72509557 64.33791612 -59 62.9375 C-58.10196655 62.16128296 -58.10196655 62.16128296 -57.18579102 61.36938477 C-55.47270543 59.89332115 -53.7387237 58.44566847 -52 57 C-50.6423272 55.81651017 -49.28743948 54.62980324 -47.9375 53.4375 C-47.3290625 52.91027344 -46.720625 52.38304687 -46.09375 51.83984375 C-28.438416 36.32554839 -13.16740856 19.50394306 0 0 Z " fill="#B8E3FC" transform="translate(192,5)"/>
<path d="M0 0 C2.47265625 0.07421875 2.47265625 0.07421875 5 1 C6.43359375 3.14453125 6.43359375 3.14453125 7.4375 5.8125 C7.78683594 6.68519531 8.13617188 7.55789062 8.49609375 8.45703125 C9.09450342 11.4769126 8.6793906 12.48091411 7 15 C6.2884375 15.8353125 6.2884375 15.8353125 5.5625 16.6875 C3.21865645 20.15638845 2.20064856 24.01486863 1 28 C-2.27459098 27.44024086 -3.75442044 26.66077275 -5.75 24 C-8.07206014 20.45542221 -8.7908865 17.56933319 -8.56640625 13.34765625 C-7.29690831 8.08580615 -3.7690295 3.7690295 0 0 Z " fill="#C2FBB7" transform="translate(28,112)"/>
<path d="M0 0 C0 0.66 0 1.32 0 2 C-0.88751953 2.14695312 -0.88751953 2.14695312 -1.79296875 2.296875 C-6.84834148 3.25351976 -10.24766735 4.24766735 -14 8 C-15.49297212 10.98594424 -15.11755228 13.70853624 -15 17 C-14.67 17.66 -14.34 18.32 -14 19 C-11.97536745 19.65213292 -11.97536745 19.65213292 -10 20 C-9.690625 19.195625 -9.38125 18.39125 -9.0625 17.5625 C-8 15 -8 15 -7 14 C-5.48071962 13.92820036 -3.95832518 13.91607993 -2.4375 13.9375 C-1.61121094 13.94652344 -0.78492187 13.95554687 0.06640625 13.96484375 C0.70449219 13.97644531 1.34257813 13.98804687 2 14 C-0.66666667 16.66666667 -3.33333333 19.33333333 -6 22 C-6.45375 22.598125 -6.9075 23.19625 -7.375 23.8125 C-10.15149756 25.84147898 -12.702216 25.353334 -16 25 C-19.34384253 22.92451154 -20.07651351 19.69394598 -21 16 C-21.62198455 12.2680927 -21.69535599 10.04970178 -19.57421875 6.84765625 C-13.94464868 0.18137734 -8.93137202 -2.97712401 0 0 Z " fill="#080A07" transform="translate(82,104)"/>
<path d="M0 0 C3 0.25 3 0.25 5 2.25 C5.25 5.25 5.25 5.25 5 8.25 C3 10.25 3 10.25 0 10.5 C-3 10.25 -3 10.25 -5 8.25 C-5.25 5.25 -5.25 5.25 -5 2.25 C-3 0.25 -3 0.25 0 0 Z " fill="#030402" transform="translate(82,29.75)"/>
<path d="M0 0 C2.91470652 1.45735326 3.35465472 3.73675246 4.3984375 6.68359375 C5.9675509 12.72569924 5.03261898 18.93336349 4 25 C2.4375 23.75 2.4375 23.75 1 22 C1.3125 20.3125 1.3125 20.3125 2 18 C2.32477815 11.72095573 1.40318481 6.11387665 0 0 Z " fill="#242F22" transform="translate(148,148)"/>
<path d="M0 0 C0.40089844 0.39832031 0.80179688 0.79664062 1.21484375 1.20703125 C5.77247261 5.45461733 9.99260603 7.44706823 16 9 C15.01 9.495 15.01 9.495 14 10 C14 10.66 14 11.32 14 12 C8.18366895 10.69132551 3.88893096 7.43180204 0 3 C0 2.01 0 1.02 0 0 Z " fill="#1A2219" transform="translate(56,70)"/>
<path d="M0 0 C1.74627478 2.61941217 2.38722388 4.03824877 3 7 C2.01 7.33 1.02 7.66 0 8 C-1.125 2.25 -1.125 2.25 0 0 Z " fill="#171E16" transform="translate(35,113)"/>
</svg>
