<svg xmlns="http://www.w3.org/2000/svg" fill="none" viewBox="0 0 2056 2056" id="Jwt-Icon--Streamline-Svg-Logos" height="2056" width="2056">
  <desc>
    Jwt Icon Streamline Icon: https://streamlinehq.com
  </desc>
  <path fill="#ffffff" d="M1180.0005083333333 562.9585000000001 1177.987341666667 21.416666666666668h-301.975l2.0131666666666668 541.5418333333334 150.9875 207.3561666666667 150.9875 -207.3561666666667Z" stroke-width="21.4167"></path>
  <path fill="#ffffff" d="M878.0319333333333 1491.030475v543.5550000000001h301.975v-543.5550000000001l-150.9875 -207.3561666666667 -150.9875 207.3561666666667Z" stroke-width="21.4167"></path>
  <path fill="#00f2e6" d="m1179.9876583333335 1491.0283333333334 318.0803333333334 438.87033333333335 243.5931666666667 -177.15866666666668 -318.0803333333334 -438.87033333333335 -243.5931666666667 -78.51350000000001V1491.0283333333334Z" stroke-width="21.4167"></path>
  <path fill="#00f2e6" d="M878.0233666666667 562.9563583333334 557.9298666666667 124.08709583333334l-243.5931666666667 177.15759583333335 318.0803333333334 438.87033333333335 245.60633333333334 78.51350000000001v-255.6721666666667Z" stroke-width="21.4167"></path>
  <path fill="#00b9f1" d="m632.4148916666667 740.115025 -515.3704525 -167.09283333333335 -92.60566666666666 285.8696666666667 515.3704525 169.106 243.5931666666667 -80.52666666666667 -150.9875 -207.3561666666667Z" stroke-width="21.4167"></path>
  <path fill="#00b9f1" d="m1272.5976083333335 1106.5135 150.9875 207.3561666666667 515.3706666666667 167.09283333333335 92.60566666666666 -285.8696666666667L1516.190775 1028l-243.5931666666667 78.51350000000001Z" stroke-width="21.4167"></path>
  <path fill="#d63aff" d="m1516.190775 1027.9978583333334 515.3706666666667 -169.106 -92.60566666666666 -285.8696666666667 -515.3706666666667 167.09283333333335 -150.9875 207.3561666666667 243.5931666666667 80.52666666666667Z" stroke-width="21.4167"></path>
  <path fill="#d63aff" d="M539.8092250000001 1028 24.438772500000002 1195.0928333333334l92.60566666666666 285.8696666666667 515.3704525 -167.09283333333335 150.9875 -207.3561666666667L539.8092250000001 1028Z" stroke-width="21.4167"></path>
  <path fill="#fb015b" d="M632.4170333333334 1313.8696666666667 314.3367 1752.7400000000002l243.5931666666667 177.15866666666668 320.0935 -438.87033333333335V1235.3561666666667l-245.60633333333334 78.51350000000001Z" stroke-width="21.4167"></path>
  <path fill="#fb015b" d="m1423.580825 740.115025 318.0803333333334 -438.87033333333335 -243.5931666666667 -177.15759583333335 -318.0803333333334 438.8692625v255.6721666666667l243.5931666666667 -78.51350000000001Z" stroke-width="21.4167"></path>
</svg>