<?xml version="1.0" encoding="UTF-8"?>
<svg version="1.1" xmlns="http://www.w3.org/2000/svg" width="400" height="400">
<path d="M0 0 C132 0 264 0 400 0 C400 132 400 264 400 400 C268 400 136 400 0 400 C0 268 0 136 0 0 Z " fill="#000000" transform="translate(0,0)"/>
<path d="M0 0 C0.98790024 -0.01268417 1.97580048 -0.02536835 2.99363708 -0.03843689 C4.59212242 -0.03403343 4.59212242 -0.03403343 6.22290039 -0.02954102 C7.3189711 -0.03478287 8.41504181 -0.04002472 9.54432678 -0.04542542 C11.86352694 -0.05185208 14.18275967 -0.05050034 16.50195312 -0.04199219 C20.05340581 -0.03348833 23.60324758 -0.0622268 27.15454102 -0.09399414 C29.40649366 -0.09560633 31.65844915 -0.09502828 33.91040039 -0.09204102 C34.97403305 -0.10327499 36.03766571 -0.11450897 37.13352966 -0.12608337 C44.44417306 -0.05688341 44.44417306 -0.05688341 47.60180664 2.0559082 C48.10711914 2.8307959 48.61243164 3.60568359 49.13305664 4.40405273 C49.74028564 5.33290283 50.34751465 6.26175293 50.97314453 7.21875 C51.59439209 8.29181396 52.21563965 9.36487793 52.85571289 10.47045898 C53.1977626 11.05735001 53.53981232 11.64424103 53.89222717 12.24891663 C54.99919181 14.15146466 56.09736282 16.05893106 57.19555664 17.96655273 C57.95978914 19.28313231 58.7246041 20.59937395 59.48999023 21.9152832 C61.71237933 25.7402547 63.92435313 29.57116592 66.13305664 33.40405273 C66.71200684 34.40839355 67.29095703 35.41273438 67.88745117 36.44750977 C68.40291504 37.34195801 68.91837891 38.23640625 69.44946289 39.15795898 C70.38559659 40.78169392 71.32179016 42.40539435 72.25805664 44.02905273 C72.69472656 44.78774658 73.13139648 45.54644043 73.58129883 46.328125 C76.41576554 51.23126863 79.39381142 56.01862962 82.48242188 60.76660156 C84.0460318 63.26500092 85.45904312 65.79151614 86.84399414 68.39233398 C90.04534048 74.30776838 93.45578039 80.08524132 96.90829468 85.85684204 C101.63386374 93.75985544 106.35240705 101.6642284 110.82055664 109.71655273 C114.32428358 116.02681487 117.95954858 122.25364683 121.63305664 128.46655273 C122.18590332 129.4048291 122.73875 130.34310547 123.30834961 131.30981445 C125.80879861 135.53991961 128.33055549 139.74809352 130.96508789 143.89624023 C131.38790039 144.57033936 131.81071289 145.24443848 132.24633789 145.93896484 C133.01550057 147.15925897 133.79706268 148.37187552 134.59399414 149.57421875 C137.12641435 153.61297161 137.7475016 156.6779948 137.13305664 161.40405273 C133.90880175 163.55355599 132.98922653 163.66489158 129.26611328 163.71044922 C128.27821304 163.72643661 127.29031281 163.74242401 126.2724762 163.75889587 C125.20681931 163.76425858 124.14116241 163.76962128 123.04321289 163.77514648 C121.94714218 163.78417496 120.85107147 163.79320343 119.7217865 163.80250549 C117.40260556 163.81701952 115.08338357 163.82589758 112.76416016 163.82958984 C109.21259821 163.84149561 105.66276788 163.89068051 102.11157227 163.94116211 C99.85962764 163.95062495 97.60767232 163.95786065 95.35571289 163.96264648 C94.29208023 163.9821788 93.22844757 164.00171112 92.13258362 164.02183533 C84.7766506 163.97672433 84.7766506 163.97672433 81.60961914 161.15869141 C81.12235352 160.24966064 80.63508789 159.34062988 80.13305664 158.40405273 C79.64699951 157.64979004 79.16094238 156.89552734 78.66015625 156.1184082 C78.20648682 155.34384277 77.75281738 154.56927734 77.28540039 153.77124023 C76.76848633 152.89274414 76.25157227 152.01424805 75.71899414 151.10913086 C75.17500977 150.17520508 74.63102539 149.2412793 74.07055664 148.27905273 C73.49692383 147.30129883 72.92329102 146.32354492 72.33227539 145.31616211 C68.29108127 138.41841595 64.28439543 131.50063845 60.29003906 124.57568359 C56.8620912 118.6396913 53.37988884 112.73717804 49.88305664 106.84155273 C45.07338452 98.72954592 40.334857 90.57902716 35.63305664 82.40405273 C30.47489136 73.43674023 25.26314456 64.50446475 19.9855957 55.60693359 C15.31829818 47.73427137 10.70425455 39.83118348 6.11279297 31.9140625 C3.54084285 27.48817869 0.9541831 23.07894435 -1.74975586 18.73217773 C-2.17611328 18.04309326 -2.6024707 17.35400879 -3.04174805 16.64404297 C-3.81125134 15.40823571 -4.58979254 14.17798368 -5.37963867 12.95507812 C-7.42668383 9.66348885 -8.56880468 7.29077534 -7.86694336 3.40405273 C-5.53059083 0.30970241 -3.79010822 0.02355086 0 0 Z " fill="#FCFCFC" transform="translate(196.866943359375,117.595947265625)"/>
<path d="M0 0 C0.98467255 -0.01591187 1.96934509 -0.03182373 2.9838562 -0.04821777 C4.57763596 -0.0485199 4.57763596 -0.0485199 6.20361328 -0.04882812 C7.84416183 -0.06024841 7.84416183 -0.06024841 9.51785278 -0.07189941 C11.83284216 -0.08271105 14.14788036 -0.08554923 16.46289062 -0.08105469 C20.00359675 -0.0800837 23.54212719 -0.12166833 27.08251953 -0.16601562 C29.33121293 -0.17122348 31.57991386 -0.1739108 33.82861328 -0.17382812 C35.41632034 -0.19842102 35.41632034 -0.19842102 37.03610229 -0.22351074 C44.38312474 -0.15452111 44.38312474 -0.15452111 48.19042969 2.70141602 C51.53665745 7.34617369 51.53665745 7.34617369 52.80517578 9.50976562 C53.49208496 10.66810913 53.49208496 10.66810913 54.19287109 11.84985352 C54.91361816 13.09109985 54.91361816 13.09109985 55.64892578 14.35742188 C56.1680957 15.23712646 56.68726563 16.11683105 57.22216797 17.02319336 C58.32008025 18.88500656 59.41474486 20.74873828 60.50634766 22.61425781 C62.08264594 25.30671023 63.66835673 27.99332189 65.25830078 30.67773438 C67.39938731 34.29312149 69.537424 37.91027609 71.67236328 41.52929688 C80.76384324 56.93734725 89.88140638 72.32938778 99.08642578 87.66992188 C99.70501465 88.7044751 100.32360352 89.73902832 100.9609375 90.80493164 C103.63902894 95.27745276 106.33131854 99.73509419 109.12158203 104.13867188 C109.77235718 105.17846191 109.77235718 105.17846191 110.4362793 106.23925781 C111.54821528 108.00957989 112.67593051 109.76996547 113.80517578 111.52929688 C115.14892578 114.41992188 115.14892578 114.41992188 115.03955078 117.01757812 C111.69492135 126.03927594 104.5718816 134.13051232 98.92504883 141.83422852 C96.52454826 145.10915495 94.13738061 148.36667581 91.96533203 151.79882812 C91.09714844 153.15814453 91.09714844 153.15814453 90.21142578 154.54492188 C89.74865234 155.310625 89.28587891 156.07632813 88.80908203 156.86523438 C87.14892578 158.41992188 87.14892578 158.41992188 84.17236328 158.92382812 C81.14892578 158.41992188 81.14892578 158.41992188 79.27783203 156.68945312 C78.76091797 155.87863281 78.24400391 155.0678125 77.71142578 154.23242188 C77.12232422 153.31460938 76.53322266 152.39679688 75.92626953 151.45117188 C73.49967024 147.31262012 71.23188065 143.10394831 69.00048828 138.85742188 C67.14793585 135.41808403 65.17956263 132.06787068 63.14892578 128.73242188 C58.95820228 121.83515104 54.92042611 114.85452664 50.89892578 107.85742188 C43.3524812 94.7377812 35.75006525 81.64782439 27.90283203 68.70507812 C22.06245188 59.06679482 16.47248779 49.29073967 10.9074707 39.49169922 C7.07395144 32.74722931 3.16888833 26.05498397 -0.85107422 19.41992188 C-4.16357422 13.85742188 -4.16357422 13.85742188 -5.65185547 11.35351562 C-6.70715971 9.48776063 -6.70715971 9.48776063 -7.85107422 8.41992188 C-8.31186753 4.04238545 -8.31186753 4.04238545 -6.63864136 1.78210449 C-4.30773019 0.00587656 -2.91465305 0.02831964 0 0 Z " fill="#FCFCFC" transform="translate(95.85107421875,117.580078125)"/>
<path d="M0 0 C3.75 0.75 3.75 0.75 5.18920898 2.38330078 C5.64110596 3.10501465 6.09300293 3.82672852 6.55859375 4.5703125 C7.07437988 5.38822266 7.59016602 6.20613281 8.12158203 7.04882812 C10.98403432 11.79697986 13.79458819 16.57110377 16.5625 21.375 C17.79618827 23.50300244 19.03056281 25.63060717 20.265625 27.7578125 C20.86052734 28.78293945 21.45542969 29.80806641 22.06835938 30.86425781 C24.28952108 34.67583321 26.54113563 38.46817585 28.8125 42.25 C29.16723389 42.84425781 29.52196777 43.43851562 29.88745117 44.05078125 C31.79311252 47.22673069 33.79890389 50.3089398 35.875 53.375 C37.75 56.75 37.75 56.75 37.6875 59.625 C36.75 61.75 36.75 61.75 34.75 63.75 C31.98839603 63.962112 29.32961948 64.05397075 26.56640625 64.05078125 C25.7550975 64.05506638 24.94378876 64.0593515 24.1078949 64.06376648 C22.39054295 64.069514 20.67316665 64.07000694 18.95581055 64.06567383 C16.3262378 64.0625165 13.69779269 64.08595748 11.06835938 64.11132812 C9.40104309 64.11360132 7.73372377 64.11430452 6.06640625 64.11328125 C5.27883438 64.122491 4.49126251 64.13170074 3.67982483 64.14118958 C-1.74948304 64.09512137 -1.74948304 64.09512137 -3.95831299 62.57206726 C-5.74617142 60.05009538 -5.62425768 58.30230822 -5.62231445 55.22460938 C-5.62854324 54.09333618 -5.63477203 52.96206299 -5.64118958 51.79650879 C-5.63197983 50.57459839 -5.62277008 49.35268799 -5.61328125 48.09375 C-5.61377975 46.8399353 -5.61427826 45.58612061 -5.61479187 44.29431152 C-5.61244935 41.6410462 -5.60428403 38.98857639 -5.58618164 36.33544922 C-5.56349426 32.93569932 -5.56295075 29.53639381 -5.56969929 26.13658905 C-5.57384529 22.89310923 -5.56186632 19.64970825 -5.55078125 16.40625 C-5.55169266 15.1843396 -5.55260406 13.9624292 -5.55354309 12.70349121 C-5.54401108 11.57221802 -5.53447906 10.44094482 -5.5246582 9.27539062 C-5.52005081 8.2785022 -5.51544342 7.28161377 -5.51069641 6.2545166 C-5.07969404 2.11386659 -4.03275849 0.93063657 0 0 Z " fill="#F8F8F8" transform="translate(93.25,215.25)"/>
<path d="M0 0 C1.50121651 0.00033989 1.50121651 0.00033989 3.03276062 0.00068665 C4.65006828 0.02391243 4.65006828 0.02391243 6.30004883 0.04760742 C7.40560623 0.05185226 8.51116364 0.05609711 9.65022278 0.06047058 C13.18608819 0.0772818 16.72138653 0.11493932 20.25708008 0.15307617 C22.65225415 0.16811981 25.04743714 0.18180877 27.44262695 0.1940918 C33.31847193 0.22719332 39.1939855 0.27741724 45.06958008 0.34057617 C45.06958008 0.67057617 45.06958008 1.00057617 45.06958008 1.34057617 C28.89958008 1.34057617 12.72958008 1.34057617 -3.93041992 1.34057617 C-4.26041992 2.33057617 -4.59041992 3.32057617 -4.93041992 4.34057617 C-5.59041992 4.34057617 -6.25041992 4.34057617 -6.93041992 4.34057617 C-7.26041992 5.66057617 -7.59041992 6.98057617 -7.93041992 8.34057617 C-8.29534343 3.8398529 -8.29534343 3.8398529 -6.72685242 1.69389343 C-4.35901525 -0.08988354 -2.94783376 -0.02227582 0 0 Z " fill="#C7C7C7" transform="translate(95.930419921875,117.659423828125)"/>
</svg>
