<?xml version="1.0" encoding="UTF-8"?>
<svg version="1.1" xmlns="http://www.w3.org/2000/svg" width="2048" height="1626">
<path d="M0 0 C4.63243863 0.79435705 8.03088791 2.5675675 12 5 C13.6039968 5.95861762 15.2081752 6.91693143 16.8125 7.875 C19.39295478 9.42718265 21.97133945 10.98263663 24.546875 12.54296875 C28.49713012 14.92907006 32.45617256 17.27553956 36.5 19.5 C42.24729299 22.66151618 47.8541693 26.05594732 53.43359375 29.50390625 C57.86756066 32.22104117 62.33065374 34.70712409 67 37 C72.53006355 39.71552993 77.76356922 42.76123356 83 46 C89.73209206 50.1153371 96.55820754 54.03180054 103.46728516 57.84106445 C106.84080452 59.71620582 109.90999519 61.68249639 113 64 C114.77564848 64.90706501 116.56941424 65.77909544 118.375 66.625 C123.90107707 69.32708915 128.99602054 72.43325572 134.10302734 75.84033203 C137.63030611 78.18188423 141.20011649 80.14102734 145 82 C146.67739862 82.98189187 148.34467377 83.98133771 150 85 C152.64215512 86.60416561 155.23373945 88.11686973 158 89.5 C162.48661496 91.74330748 166.7158541 94.39528999 171 97 C173.50089843 98.50286909 176.00382328 100.00228682 178.5078125 101.5 C180.15400336 102.4908108 181.79478513 103.4906712 183.4296875 104.5 C187.78246265 107.17007294 192.14764689 109.59677828 196.75 111.8125 C202.04706617 114.39991309 206.8706376 117.42997197 211.77490234 120.67407227 C216.44848984 123.73137203 221.27846072 126.24076167 226.3125 128.6640625 C231.14231627 131.06493047 235.56213438 134.01146739 240 137.0625 C243.5378113 139.34733646 247.20366658 141.18855157 251 143 C251 143.66 251 144.32 251 145 C251.69996094 145.08894531 252.39992187 145.17789063 253.12109375 145.26953125 C256.63072772 146.16003539 259.02913841 147.7141235 262.0625 149.6875 C267.32516252 153.0537893 272.67522261 155.93073584 278.34375 158.578125 C281 160 281 160 283.34375 161.921875 C286.09171453 164.07175313 288.76703673 165.47027486 291.89453125 166.97314453 C295.34102287 168.65402855 298.6637413 170.54955533 302 172.4375 C302.70133057 172.83291992 303.40266113 173.22833984 304.12524414 173.63574219 C308.2238252 175.95816013 312.25634462 178.35157872 316.22265625 180.89453125 C318.9708173 182.60382702 321.81593404 184.13063704 324.65234375 185.6875 C329.65976601 188.48699065 334.55388161 191.4883538 339.43359375 194.50390625 C344.87939064 197.84109059 350.4399578 200.74407543 356.171875 203.55859375 C361.03052373 206.034894 365.51174695 208.97682603 370 212.0625 C373.5378113 214.34733646 377.20366658 216.18855157 381 218 C381 218.66 381 219.32 381 220 C381.73089844 220.11085937 382.46179688 220.22171875 383.21484375 220.3359375 C386.14313073 221.03412654 388.02882199 222.02162339 390.5625 223.625 C394.40860345 226.01302841 398.27359863 228.34924783 402.1875 230.625 C403.19941406 231.21410156 404.21132813 231.80320313 405.25390625 232.41015625 C407.37267837 233.63681379 409.49537507 234.85487739 411.625 236.0625 C414.46354279 237.69203382 417.26397405 239.36591963 420.0625 241.0625 C422.68342211 242.64293574 425.26102934 244.13051467 428 245.5 C433.42019243 248.21009621 438.52973833 251.48342426 443.69140625 254.65234375 C444.55636719 255.17957031 445.42132813 255.70679688 446.3125 256.25 C447.09238281 256.72953125 447.87226563 257.2090625 448.67578125 257.703125 C451.05748944 259.03207814 453.4488253 260.04274507 456 261 C456 261.66 456 262.32 456 263 C456.84304688 263.24234375 457.68609375 263.4846875 458.5546875 263.734375 C462.39430571 265.14484699 465.6830446 267.08385675 469.125 269.25 C474.74698086 272.71862983 480.4196222 275.81755489 486.4140625 278.61328125 C489.23982801 280.12860868 491.52823826 281.96711053 494 284 C495.99065541 285.01847486 497.99248185 286.01517978 500 287 C501.67361209 287.9883321 503.33973644 288.98940479 505 290 C507.64215512 291.60416561 510.23373945 293.11686973 513 294.5 C518.40665127 297.20332563 523.49585085 300.47541508 528.65625 303.6171875 C533.03425532 306.26772686 537.39907883 308.75066076 542 311 C545.35573453 312.81992925 548.59455955 314.72356333 551.75 316.875 C554.44317684 318.63592332 557.10678741 320.16970285 559.9375 321.6875 C565.33734209 324.5837116 570.57177704 327.71182318 575.78491211 330.9284668 C579.10417818 332.95452381 582.3347192 334.68997568 586 336 C586 336.66 586 337.32 586 338 C586.9075 338.28875 587.815 338.5775 588.75 338.875 C591.32202908 339.76531776 593.61346766 340.71494413 596 342 C596 342.66 596 343.32 596 344 C596.804375 344.226875 597.60875 344.45375 598.4375 344.6875 C606.49390574 347.65564948 613.64346755 352.58698696 620.88671875 357.1328125 C623.86479044 358.9189082 626.88989323 360.45951874 630 362 C631.67739862 362.98189187 633.34467377 363.98133771 635 365 C637.64215512 366.60416561 640.23373945 368.11686973 643 369.5 C648.42019243 372.21009621 653.52973833 375.48342426 658.69140625 378.65234375 C659.98884766 379.44318359 659.98884766 379.44318359 661.3125 380.25 C662.09238281 380.72953125 662.87226562 381.2090625 663.67578125 381.703125 C666.05748944 383.03207814 668.4488253 384.04274507 671 385 C671 385.66 671 386.32 671 387 C671.70125 387.268125 672.4025 387.53625 673.125 387.8125 C680.67548978 390.93118056 687.51482996 395.22721916 694.4453125 399.51171875 C698.91584618 402.25010031 703.41785574 404.75032235 708.125 407.0625 C712.13374914 409.03384939 715.93804635 411.10191535 719.6875 413.5234375 C722.86248667 415.55070939 726.08456178 417.49593121 729.3125 419.4375 C729.96186523 419.82808594 730.61123047 420.21867187 731.28027344 420.62109375 C736.0278345 423.45871646 740.84984734 426.12830906 745.7265625 428.73828125 C748 430 748 430 750.9375 432 C756.52252495 435.64736324 762.66267576 438.88755859 769 441 C771.33545278 439.9330233 771.33545278 439.9330233 773.75 438.3125 C774.636875 437.755625 775.52375 437.19875 776.4375 436.625 C777.283125 436.08875 778.12875 435.5525 779 435 C783.24521261 432.47940501 787.58485609 430.20757196 792 428 C797.03147476 425.1574634 802.01952121 422.24324897 807 419.3125 C807.73186523 418.88332275 808.46373047 418.45414551 809.21777344 418.01196289 C812.92133505 415.83506331 816.60834616 413.6367169 820.265625 411.3828125 C820.93722656 410.97119873 821.60882812 410.55958496 822.30078125 410.13549805 C823.56771486 409.35683532 824.83097608 408.57215424 826.08984375 407.78051758 C829.37259996 405.76798516 832.16199944 404.46892864 836 404 C836 403.34 836 402.68 836 402 C837.28913487 401.32845067 838.58140204 400.66291141 839.875 400 C840.59429688 399.62875 841.31359375 399.2575 842.0546875 398.875 C844 398 844 398 846 398 C846 397.34 846 396.68 846 396 C846.78697266 395.63261719 846.78697266 395.63261719 847.58984375 395.2578125 C858.21393186 390.13138063 868.26072399 383.90447998 878.3125 377.75 C882.80597632 375.03248025 887.47648678 372.74703774 892.1875 370.43359375 C895.24452475 368.8753603 898.11591817 367.15442546 900.9921875 365.2890625 C904.1748561 363.24571496 907.44483525 361.34938051 910.703125 359.4296875 C913.0210823 358.03396279 913.0210823 358.03396279 915.15234375 356.37890625 C917.32660788 354.75625247 919.47745754 353.99728423 922 353 C925.37373286 351.15978208 928.57623205 349.28893269 931.75 347.125 C935.32778557 344.78567867 939.01818673 342.80431368 942.78515625 340.7890625 C945.18638213 339.45277884 947.53068482 338.08434891 949.87109375 336.6484375 C950.86604858 336.03875122 950.86604858 336.03875122 951.88110352 335.41674805 C953.18631767 334.61207641 954.48776798 333.80125956 955.78491211 332.98364258 C959.16890432 330.90004124 962.02959471 329.46044624 966 329 C966 328.34 966 327.68 966 327 C966.67804687 326.63648438 967.35609375 326.27296875 968.0546875 325.8984375 C972.76181937 323.35580394 977.42758453 320.7787348 982 318 C985.35024065 315.96461047 988.73278243 314.0398818 992.1875 312.1875 C997.42629379 309.36317163 1002.52266545 306.33241081 1007.61010742 303.24682617 C1013.63198174 299.59604965 1019.69808293 296.15095853 1026 293 C1035.89189955 287.70260446 1035.89189955 287.70260446 1045.05078125 281.31640625 C1047 280 1047 280 1051 280 C1051 279.34 1051 278.68 1051 278 C1051.67804688 277.63648438 1052.35609375 277.27296875 1053.0546875 276.8984375 C1060.31489655 272.97671793 1067.40812142 268.83942251 1074.42578125 264.5 C1079.87160759 261.16475707 1085.42674551 258.2554135 1091.1640625 255.453125 C1094.34968621 253.82082194 1097.32036457 251.98685822 1100.28125 249.98046875 C1102.16392289 248.90648944 1103.88450307 248.43145003 1106 248 C1106 247.34 1106 246.68 1106 246 C1106.82177734 245.61521484 1106.82177734 245.61521484 1107.66015625 245.22265625 C1115.11000981 241.62492209 1122.10819947 237.3995592 1129.16894531 233.10791016 C1137.32165959 228.1749745 1145.61967918 223.53195597 1154 219 C1164.89458377 213.19784179 1164.89458377 213.19784179 1175.1484375 206.37890625 C1177.32475112 204.75814948 1179.47698228 203.99747212 1182 203 C1188.59613413 199.37859303 1194.99890029 195.41346334 1201.44140625 191.52734375 C1209.11631608 186.90761472 1216.83242031 182.35635107 1224.625 177.9375 C1226.50357939 176.85905628 1228.37618782 175.76926266 1230.22265625 174.63671875 C1234.76816305 171.84890396 1239.33584787 169.28678144 1244.125 166.9375 C1249.98952367 164.05786851 1255.41303098 160.82263727 1260.75 157.0625 C1263.73581361 155.16765675 1266.70447439 153.61995118 1269.875 152.0625 C1275.84249663 149.1304503 1281.34358236 145.82997659 1286.8125 142.0625 C1291.39302117 139.09863336 1296.1984425 136.5849389 1301 134 C1303.27852418 132.74365224 1305.5518169 131.47831615 1307.82421875 130.2109375 C1309.28269946 129.39921574 1310.7436769 128.59196489 1312.20703125 127.7890625 C1318.79493285 124.16629349 1325.2227839 120.29868985 1331.64453125 116.390625 C1343.84637995 109 1343.84637995 109 1347 109 C1347 108.34 1347 107.68 1347 107 C1347.67804688 106.63648437 1348.35609375 106.27296875 1349.0546875 105.8984375 C1353.74806208 103.36323517 1358.39240908 100.79356808 1362.9375 98 C1366.58460895 95.77926434 1370.29146377 93.81819343 1374.125 91.9375 C1379.98952367 89.05786851 1385.41303098 85.82263727 1390.75 82.0625 C1393.73581361 80.16765675 1396.70447439 78.61995118 1399.875 77.0625 C1405.92759457 74.08863856 1411.47778527 70.69863441 1417.0625 66.9375 C1422.19049276 63.5552069 1427.50835603 60.74582198 1433 58 C1438.21770475 55.05170587 1443.39339948 52.03253897 1448.5625 49 C1449.29146484 48.57460938 1450.02042969 48.14921875 1450.77148438 47.7109375 C1454.02628361 45.8008303 1457.20427517 43.87965442 1460.27734375 41.6875 C1463 40 1463 40 1467 40 C1467 39.34 1467 38.68 1467 38 C1468.28913487 37.32845067 1469.58140204 36.66291141 1470.875 36 C1471.95394531 35.443125 1471.95394531 35.443125 1473.0546875 34.875 C1475 34 1475 34 1477 34 C1477 33.34 1477 32.68 1477 32 C1478.28913487 31.32845067 1479.58140204 30.66291141 1480.875 30 C1481.95394531 29.443125 1481.95394531 29.443125 1483.0546875 28.875 C1485 28 1485 28 1487 28 C1487 27.34 1487 26.68 1487 26 C1487.52464844 25.75507813 1488.04929687 25.51015625 1488.58984375 25.2578125 C1500.10942215 19.69928049 1510.9687738 12.84832966 1521.91015625 6.24609375 C1523.9461926 5.03208329 1525.99904152 3.85416365 1528.0625 2.6875 C1530.80513357 1.2818361 1530.80513357 1.2818361 1532 0 C1533.65 0 1535.3 0 1537 0 C1537 293.04 1537 586.08 1537 888 C1532.545 890.475 1532.545 890.475 1528 893 C1526.38912492 893.94701371 1524.78345327 894.90305008 1523.1875 895.875 C1513.91061275 901.47559757 1504.53147519 906.84551644 1495 912 C1484.10541623 917.80215821 1484.10541623 917.80215821 1473.8515625 924.62109375 C1471.67524888 926.24185052 1469.52301772 927.00252788 1467 928 C1460.40386587 931.62140697 1454.00109971 935.58653666 1447.55859375 939.47265625 C1439.88368392 944.09238528 1432.16757969 948.64364893 1424.375 953.0625 C1422.49642061 954.14094372 1420.62381218 955.23073734 1418.77734375 956.36328125 C1413.26213731 959.74582466 1407.64853964 962.70781483 1401.8359375 965.546875 C1398.65031379 967.17917806 1395.67963543 969.01314178 1392.71875 971.01953125 C1390.83607711 972.09351056 1389.11549693 972.56854997 1387 973 C1387 973.66 1387 974.32 1387 975 C1386.45214844 975.25652344 1385.90429688 975.51304687 1385.33984375 975.77734375 C1377.89558641 979.37237534 1370.90364513 983.59435851 1363.84863281 987.88330078 C1358.0792915 991.36837304 1352.23710485 994.73609632 1346.375 998.0625 C1343.53645721 999.69203382 1340.73602595 1001.36591963 1337.9375 1003.0625 C1334.35932398 1005.22016704 1330.73744947 1007.13127526 1327 1009 C1324.47588301 1010.54637962 1321.9636772 1012.10837562 1319.46484375 1013.6953125 C1316.9406134 1015.03143443 1314.81204162 1015.58897074 1312 1016 C1312 1016.66 1312 1017.32 1312 1018 C1310.71086513 1018.67154933 1309.41859796 1019.33708859 1308.125 1020 C1307.40570312 1020.37125 1306.68640625 1020.7425 1305.9453125 1021.125 C1304 1022 1304 1022 1302 1022 C1302 1022.66 1302 1023.32 1302 1024 C1301.32195312 1024.36351562 1300.64390625 1024.72703125 1299.9453125 1025.1015625 C1295.25193792 1027.63676483 1290.60759092 1030.20643192 1286.0625 1033 C1282.41539105 1035.22073566 1278.70853623 1037.18180657 1274.875 1039.0625 C1269.01047633 1041.94213149 1263.58696902 1045.17736273 1258.25 1048.9375 C1255.26418639 1050.83234325 1252.29552561 1052.38004882 1249.125 1053.9375 C1243.07240543 1056.91136144 1237.52221473 1060.30136559 1231.9375 1064.0625 C1226.80950724 1067.4447931 1221.49164397 1070.25417802 1216 1073 C1210.78229525 1075.94829413 1205.60660052 1078.96746103 1200.4375 1082 C1199.70853516 1082.42539063 1198.97957031 1082.85078125 1198.22851562 1083.2890625 C1194.97371639 1085.1991697 1191.79572483 1087.12034558 1188.72265625 1089.3125 C1186 1091 1186 1091 1182 1091 C1182 1091.66 1182 1092.32 1182 1093 C1180.71086513 1093.67154933 1179.41859796 1094.33708859 1178.125 1095 C1177.40570312 1095.37125 1176.68640625 1095.7425 1175.9453125 1096.125 C1174 1097 1174 1097 1172 1097 C1172 1097.66 1172 1098.32 1172 1099 C1170.71086513 1099.67154933 1169.41859796 1100.33708859 1168.125 1101 C1167.40570312 1101.37125 1166.68640625 1101.7425 1165.9453125 1102.125 C1164 1103 1164 1103 1162 1103 C1162 1103.66 1162 1104.32 1162 1105 C1161.47535156 1105.24492188 1160.95070313 1105.48984375 1160.41015625 1105.7421875 C1149.78606814 1110.86861937 1139.73927601 1117.09552002 1129.6875 1123.25 C1125.19402368 1125.96751975 1120.52351322 1128.25296226 1115.8125 1130.56640625 C1112.74956707 1132.12765123 1109.87341156 1133.85506334 1106.98828125 1135.71875 C1100.16799639 1140.11374693 1093.10506524 1144.08956297 1086 1148 C1082.66957233 1149.8494793 1079.40061959 1151.72685028 1076.25 1153.875 C1072.67221443 1156.21432133 1068.98181327 1158.19568632 1065.21484375 1160.2109375 C1062.81361787 1161.54722116 1060.46931518 1162.91565109 1058.12890625 1164.3515625 C1057.46560303 1164.75802002 1056.8022998 1165.16447754 1056.11889648 1165.58325195 C1054.81368233 1166.38792359 1053.51223202 1167.19874044 1052.21508789 1168.01635742 C1048.83109568 1170.09995876 1045.97040529 1171.53955376 1042 1172 C1042 1172.66 1042 1173.32 1042 1174 C1040.25318707 1174.98484108 1038.5024149 1175.96266187 1036.75 1176.9375 C1035.77546875 1177.48277344 1034.8009375 1178.02804687 1033.796875 1178.58984375 C1031.46389591 1179.76610835 1029.54649238 1180.52101691 1027 1181 C1029.04765174 1183.18387397 1031.04149085 1184.76414545 1033.625 1186.26953125 C1034.32665283 1186.68074219 1035.02830566 1187.09195312 1035.7512207 1187.515625 C1036.86436646 1188.15757812 1036.86436646 1188.15757812 1038 1188.8125 C1038.75949951 1189.25464844 1039.51899902 1189.69679688 1040.30151367 1190.15234375 C1047.43335612 1194.287709 1054.60750947 1198.34604587 1062 1202 C1062 1202.66 1062 1203.32 1062 1204 C1062.804375 1204.226875 1063.60875 1204.45375 1064.4375 1204.6875 C1071.23905966 1207.19333777 1077.23459372 1211.12797155 1083.375 1214.9375 C1089.14283284 1218.51382526 1095.01845943 1221.79886973 1101 1225 C1103.27875092 1226.25594522 1105.55181352 1227.52168196 1107.82421875 1228.7890625 C1109.28269946 1229.60078426 1110.7436769 1230.40803511 1112.20703125 1231.2109375 C1118.75809566 1234.81344928 1125.14650408 1238.66418863 1131.5390625 1242.5390625 C1135.49234828 1244.9257211 1139.45363862 1247.27414567 1143.5 1249.5 C1149.25684744 1252.66677197 1154.85839234 1256.08620419 1160.46875 1259.50390625 C1166.55067277 1263.18962843 1172.73505179 1266.636103 1179 1270 C1180.19542159 1270.6443289 1181.39072933 1271.28886905 1182.5859375 1271.93359375 C1185.72260972 1273.62490766 1188.86091048 1275.31317606 1192 1277 C1192 1277.66 1192 1278.32 1192 1279 C1192.9075 1279.28875 1193.815 1279.5775 1194.75 1279.875 C1197.32202908 1280.76531776 1199.61346766 1281.71494413 1202 1283 C1202 1283.66 1202 1284.32 1202 1285 C1202.73992187 1285.11601563 1203.47984375 1285.23203125 1204.2421875 1285.3515625 C1207.03373217 1286.00793136 1208.72396114 1286.8422335 1211.125 1288.375 C1216.19134359 1291.52434872 1221.33054729 1294.52439302 1226.5 1297.5 C1231.6301509 1300.45865056 1236.74965959 1303.42695574 1241.8125 1306.5 C1244.18844996 1307.93947399 1246.51151279 1309.25575639 1249 1310.5 C1253.4865215 1312.74326075 1257.71641764 1315.39452207 1262 1318 C1264.5551183 1319.54221 1267.11204093 1321.08029227 1269.6796875 1322.6015625 C1271.14126481 1323.4824458 1272.58706354 1324.39061426 1274.0078125 1325.3359375 C1275.98204219 1326.6658497 1275.98204219 1326.6658497 1279 1328 C1282.51898601 1326.9294994 1285.46341187 1325.20069507 1288.5625 1323.25 C1292.33518833 1320.93915811 1296.15101072 1318.88179058 1300.125 1316.9375 C1304.25267703 1314.91051575 1308.16849296 1312.7655025 1312.02734375 1310.26953125 C1314.21951202 1308.85872989 1316.44768454 1307.52132269 1318.6875 1306.1875 C1323.80616258 1303.13370749 1328.86628065 1299.98866467 1333.921875 1296.83203125 C1336.89217376 1295.06417577 1339.90932162 1293.54533919 1343 1292 C1346.10510488 1290.2665219 1349.17753522 1288.47805342 1352.25 1286.6875 C1353.09755859 1286.19548096 1353.94511719 1285.70346191 1354.81835938 1285.1965332 C1359.06591042 1282.72627701 1363.29848167 1280.23551757 1367.5 1277.6875 C1381.87248668 1269.01357821 1381.87248668 1269.01357821 1387 1268 C1387 1267.34 1387 1266.68 1387 1266 C1387.54785156 1265.74347656 1388.09570312 1265.48695312 1388.66015625 1265.22265625 C1396.11000981 1261.62492209 1403.10819947 1257.3995592 1410.16894531 1253.10791016 C1418.32165959 1248.1749745 1426.61967918 1243.53195597 1435 1239 C1442.33601317 1235.00076874 1449.58196481 1230.8439448 1456.609375 1226.3203125 C1459 1225 1459 1225 1462 1225 C1462 1224.34 1462 1223.68 1462 1223 C1463.28913487 1222.32845067 1464.58140204 1221.66291141 1465.875 1221 C1466.59429688 1220.62875 1467.31359375 1220.2575 1468.0546875 1219.875 C1470 1219 1470 1219 1472 1219 C1472 1218.34 1472 1217.68 1472 1217 C1472.90878906 1216.52691406 1473.81757812 1216.05382813 1474.75390625 1215.56640625 C1482.18658174 1211.66634842 1489.46429838 1207.59494635 1496.6328125 1203.22802734 C1501.25374299 1200.42054341 1505.95893963 1197.81330577 1510.7265625 1195.26171875 C1513.15967218 1193.95647132 1513.15967218 1193.95647132 1515.9375 1192 C1518.85252241 1190.09631189 1521.75232913 1188.59459695 1524.875 1187.0625 C1529.08062812 1184.99594136 1533.0783503 1182.82205944 1537.01171875 1180.28125 C1543.11097285 1176.35088586 1549.40282854 1172.75415316 1555.7578125 1169.2578125 C1557.99125559 1168.0049054 1560.18449792 1166.70142859 1562.375 1165.375 C1568.20592282 1161.8472003 1574.11145779 1158.45058054 1580.01757812 1155.05078125 C1585.07108897 1152.13668365 1590.07425684 1149.16292829 1594.9921875 1146.0234375 C1597.30433355 1144.84487278 1599.44620703 1144.4004205 1602 1144 C1602 1143.34 1602 1142.68 1602 1142 C1602.67804688 1141.63648438 1603.35609375 1141.27296875 1604.0546875 1140.8984375 C1608.76181937 1138.35580394 1613.42758453 1135.7787348 1618 1133 C1622.31377338 1130.3804373 1626.71245682 1127.96041362 1631.15234375 1125.5625 C1636.1624403 1122.81347583 1641.07562587 1119.89892461 1646 1117 C1651.83381853 1113.56569552 1657.66803788 1110.15476224 1663.625 1106.9375 C1669.75178214 1103.62620445 1675.74629011 1100.09585818 1681.6015625 1096.32421875 C1684 1095 1684 1095 1687 1095 C1687 1094.34 1687 1093.68 1687 1093 C1687.6084375 1092.67128906 1688.216875 1092.34257813 1688.84375 1092.00390625 C1699.78094155 1086.06887142 1710.67913587 1080.05998494 1721.3125 1073.59375 C1725.53620198 1071.0889965 1729.83117835 1068.71245934 1734.1171875 1066.31640625 C1738.55996549 1063.82677406 1742.9395913 1061.25523192 1747.2890625 1058.60546875 C1751.63150581 1056.03379123 1756.04925335 1053.59469801 1760.46875 1051.15820312 C1763.13128545 1049.67814665 1765.67837919 1048.24151231 1768.1171875 1046.41015625 C1770.51655129 1044.61312238 1773.04830495 1043.41985384 1775.75 1042.125 C1779.50836648 1040.28716798 1783.10856384 1038.39200647 1786.625 1036.125 C1790 1034 1790 1034 1792 1034 C1791.99316503 1033.06132258 1791.99316503 1033.06132258 1791.98619199 1032.10368198 C1791.71768711 995.0191054 1791.51177853 957.93467252 1791.38721605 920.84932303 C1791.37220747 916.39702426 1791.35667561 911.94472747 1791.34082031 907.49243164 C1791.33767259 906.60605523 1791.33452486 905.71967881 1791.33128175 904.80644251 C1791.27905757 890.45194335 1791.18443915 876.09802056 1791.07416645 861.7438634 C1790.96196917 847.01641395 1790.89529949 832.28926645 1790.87093806 817.56140715 C1790.85446722 808.47225108 1790.80244248 799.38472395 1790.7050024 790.29606933 C1790.641595 784.06455896 1790.62239206 777.83389124 1790.63798347 771.60208165 C1790.64567562 768.00524899 1790.63385166 764.41126259 1790.5695343 760.81493568 C1790.5002895 756.91458739 1790.52412959 753.01794606 1790.5569458 749.11705017 C1790.5219917 747.98182842 1790.48703761 746.84660666 1790.45102429 745.67698425 C1790.52624005 742.37620408 1790.70258051 740.04183562 1792 737 C1795.67863062 733.88551673 1799.60708816 731.93016022 1804 730 C1805.20967224 729.38669186 1806.41740201 728.76949525 1807.62109375 728.14453125 C1809.5166145 727.24803669 1811.41245391 726.35221564 1813.30859375 725.45703125 C1816.16876976 723.90863408 1818.4939391 722.06307033 1821 720 C1822.99065541 718.98152514 1824.99248185 717.98482022 1827 717 C1828.67361209 716.0116679 1830.33973644 715.01059521 1832 714 C1835.59868041 711.81508689 1839.23417282 709.88291359 1843 708 C1846.35999433 706.04391939 1849.67799769 704.01973809 1853 702 C1855.50089843 700.49713091 1858.00382328 698.99771318 1860.5078125 697.5 C1862.15400336 696.5091892 1863.79478513 695.5093288 1865.4296875 694.5 C1869.90421613 691.75524123 1874.41187187 689.25261696 1879.125 686.9375 C1883.13374914 684.96615061 1886.93804635 682.89808465 1890.6875 680.4765625 C1899.16613048 675.06284237 1907.85884312 670.00763895 1916.7265625 665.26171875 C1919.15967218 663.95647132 1919.15967218 663.95647132 1921.9375 662 C1924.85252241 660.09631189 1927.75232913 658.59459695 1930.875 657.0625 C1935.1139874 654.98220778 1939.1217568 652.774909 1943.08203125 650.2109375 C1945.1402023 648.91148124 1947.24054903 647.73216423 1949.375 646.5625 C1957.96232658 641.94551144 1957.96232658 641.94551144 1965.98046875 636.4453125 C1968.23088679 634.83476187 1970.42480745 633.99684873 1973 633 C1974.58193946 632.11730437 1976.14433508 631.19885513 1977.6875 630.25 C1978.55761719 629.71890625 1979.42773438 629.1878125 1980.32421875 628.640625 C1981.20722656 628.09921875 1982.09023437 627.5578125 1983 627 C1984.66552637 625.99810196 1986.3321757 624.99806808 1988 624 C1990.5511718 622.47170369 1993.09950757 620.93950058 1995.640625 619.39453125 C2000.02541295 616.73608946 2004.41267389 614.29366306 2009 612 C2013.18789334 609.56194321 2017.32359638 607.03637093 2021.4453125 604.48828125 C2026.92275666 601.13312655 2032.51570679 598.21223477 2038.28515625 595.390625 C2041.38435376 593.80312239 2044.1558513 591.99859098 2047 590 C2047.33 590 2047.66 590 2048 590 C2048.17114057 646.54536935 2048.33035231 703.09076413 2048.4234314 759.63632202 C2048.42481197 760.47287778 2048.42619254 761.30943354 2048.42761494 762.17133947 C2048.45754227 780.35084863 2048.48524434 798.53036055 2048.51065329 816.70987657 C2048.52312694 825.62478161 2048.53609243 834.53968589 2048.54931641 843.45458984 C2048.550624 844.34174185 2048.55193159 845.22889385 2048.5532788 846.14292925 C2048.5959115 874.91117036 2048.67103872 903.67921538 2048.76297221 932.44733763 C2048.85725473 962.00412989 2048.91884428 991.56081359 2048.9391499 1021.11775369 C2048.94203156 1025.29004423 2048.94528793 1029.4623344 2048.94877243 1033.63462448 C2048.94944666 1034.45581133 2048.95012089 1035.27699818 2048.95081555 1036.12306947 C2048.96264439 1049.35542696 2049.00905584 1062.58744928 2049.06832034 1075.81966995 C2049.12712996 1089.11446505 2049.14969583 1102.40892705 2049.13501377 1115.70384772 C2049.12739312 1123.60817565 2049.1478122 1131.51128684 2049.20797543 1139.41539561 C2049.24978731 1145.30995896 2049.23967111 1151.2036753 2049.20898895 1157.0983334 C2049.20474511 1159.48876703 2049.21759285 1161.87930164 2049.24883182 1164.2695349 C2049.46953952 1182.19241068 2049.46953952 1182.19241068 2045.80537868 1186.69946742 C2043.18924239 1188.31274565 2040.95697346 1189.2139226 2038 1190 C2036.948125 1190.53625 2035.89625 1191.0725 2034.8125 1191.625 C2033.884375 1192.07875 2032.95625 1192.5325 2032 1193 C2028.64426547 1194.81992925 2025.40544045 1196.72356333 2022.25 1198.875 C2018.67221443 1201.21432133 2014.98181327 1203.19568632 2011.21484375 1205.2109375 C2008.81361787 1206.54722116 2006.46931518 1207.91565109 2004.12890625 1209.3515625 C2003.46560303 1209.75802002 2002.8022998 1210.16447754 2002.11889648 1210.58325195 C2000.81368233 1211.38792359 1999.51223202 1212.19874044 1998.21508789 1213.01635742 C1994.83109568 1215.09995876 1991.97040529 1216.53955376 1988 1217 C1988 1217.66 1988 1218.32 1988 1219 C1986.71086513 1219.67154933 1985.41859796 1220.33708859 1984.125 1221 C1983.40570312 1221.37125 1982.68640625 1221.7425 1981.9453125 1222.125 C1980 1223 1980 1223 1978 1223 C1978 1223.66 1978 1224.32 1978 1225 C1977.47535156 1225.24492188 1976.95070313 1225.48984375 1976.41015625 1225.7421875 C1964.88245204 1231.30464045 1954.02740987 1238.16888897 1943.0703125 1244.76171875 C1938.13926577 1247.71104293 1933.14029359 1250.4298532 1928 1253 C1918.10810045 1258.29739554 1918.10810045 1258.29739554 1908.94921875 1264.68359375 C1907 1266 1907 1266 1903 1266 C1903 1266.66 1903 1267.32 1903 1268 C1902.32195312 1268.36351562 1901.64390625 1268.72703125 1900.9453125 1269.1015625 C1893.68510345 1273.02328207 1886.59187858 1277.16057749 1879.57421875 1281.5 C1874.12839241 1284.83524293 1868.57325449 1287.7445865 1862.8359375 1290.546875 C1859.65031379 1292.17917806 1856.67963543 1294.01314178 1853.71875 1296.01953125 C1851.83607711 1297.09351056 1850.11549693 1297.56854997 1848 1298 C1848 1298.66 1848 1299.32 1848 1300 C1847.45214844 1300.25652344 1846.90429688 1300.51304688 1846.33984375 1300.77734375 C1838.89558641 1304.37237534 1831.90364513 1308.59435851 1824.84863281 1312.88330078 C1819.0792915 1316.36837304 1813.23710485 1319.73609632 1807.375 1323.0625 C1804.53645721 1324.69203382 1801.73602595 1326.36591963 1798.9375 1328.0625 C1795.35932398 1330.22016704 1791.73744947 1332.13127526 1788 1334 C1785.47588301 1335.54637962 1782.9636772 1337.10837562 1780.46484375 1338.6953125 C1777.9406134 1340.03143443 1775.81204162 1340.58897074 1773 1341 C1773 1341.66 1773 1342.32 1773 1343 C1771.71086513 1343.67154933 1770.41859796 1344.33708859 1769.125 1345 C1768.40570312 1345.37125 1767.68640625 1345.7425 1766.9453125 1346.125 C1765 1347 1765 1347 1763 1347 C1763 1347.66 1763 1348.32 1763 1349 C1762.32195312 1349.36351562 1761.64390625 1349.72703125 1760.9453125 1350.1015625 C1756.25193792 1352.63676483 1751.60759092 1355.20643192 1747.0625 1358 C1743.41539105 1360.22073566 1739.70853623 1362.18180657 1735.875 1364.0625 C1730.01047633 1366.94213149 1724.58696902 1370.17736273 1719.25 1373.9375 C1716.26418639 1375.83234325 1713.29552561 1377.38004882 1710.125 1378.9375 C1704.07240543 1381.91136144 1698.52221473 1385.30136559 1692.9375 1389.0625 C1687.80950724 1392.4447931 1682.49164397 1395.25417802 1677 1398 C1671.96854182 1400.84252723 1666.98011078 1403.75615066 1662 1406.6875 C1661.26740967 1407.11812744 1660.53481934 1407.54875488 1659.7800293 1407.99243164 C1656.0992225 1410.1598726 1652.42652319 1412.33946283 1648.76953125 1414.546875 C1648.10244141 1414.94946533 1647.43535156 1415.35205566 1646.74804688 1415.7668457 C1645.49674805 1416.52365421 1644.24666031 1417.28247035 1642.99804688 1418.04370117 C1639.40947899 1420.21559572 1635.75719504 1422.13929388 1632 1424 C1630.40538935 1424.9181871 1628.82152889 1425.85534398 1627.25 1426.8125 C1626.38761719 1427.33457031 1625.52523438 1427.85664062 1624.63671875 1428.39453125 C1622.9307839 1429.43325603 1621.22504176 1430.47229738 1619.51953125 1431.51171875 C1613.44118503 1435.19351511 1607.25371104 1438.62628747 1601 1442 C1594.96768755 1445.26008543 1594.96768755 1445.26008543 1589.1875 1448.9375 C1586.22556599 1450.85404554 1583.28854228 1452.38542419 1580.125 1453.9375 C1575.92567546 1456.0009612 1571.93097411 1458.16662767 1568.0078125 1460.7109375 C1564.8251439 1462.75428504 1561.55516475 1464.65061949 1558.296875 1466.5703125 C1555.9789177 1467.96603721 1555.9789177 1467.96603721 1553.84765625 1469.62109375 C1551.67339212 1471.24374753 1549.52254246 1472.00271577 1547 1473 C1543.62626714 1474.84021792 1540.42376795 1476.71106731 1537.25 1478.875 C1533.67221443 1481.21432133 1529.98181327 1483.19568632 1526.21484375 1485.2109375 C1523.81361787 1486.54722116 1521.46931518 1487.91565109 1519.12890625 1489.3515625 C1518.46560303 1489.75802002 1517.8022998 1490.16447754 1517.11889648 1490.58325195 C1515.81368233 1491.38792359 1514.51223202 1492.19874044 1513.21508789 1493.01635742 C1509.83109568 1495.09995876 1506.97040529 1496.53955376 1503 1497 C1503 1497.66 1503 1498.32 1503 1499 C1502.32195312 1499.36351562 1501.64390625 1499.72703125 1500.9453125 1500.1015625 C1496.23818063 1502.64419606 1491.57241547 1505.2212652 1487 1508 C1483.64975935 1510.03538953 1480.26721757 1511.9601182 1476.8125 1513.8125 C1472.30477714 1516.23826612 1467.93097582 1518.83587697 1463.5625 1521.5 C1458.04173331 1524.86589357 1452.45259693 1527.87715017 1446.5859375 1530.61328125 C1443.76017199 1532.12860868 1441.47176174 1533.96711053 1439 1536 C1437.00934459 1537.01847486 1435.00751815 1538.01517978 1433 1539 C1431.32638791 1539.9883321 1429.66026356 1540.98940479 1428 1542 C1424.40131959 1544.18491311 1420.76582718 1546.11708641 1417 1548 C1413.64002773 1549.95606777 1410.32075721 1551.97824487 1407 1554 C1401.74321259 1557.20045586 1396.53302136 1560.29496733 1391 1563 C1387.64426547 1564.81992925 1384.40544045 1566.72356333 1381.25 1568.875 C1377.67221443 1571.21432133 1373.98181327 1573.19568632 1370.21484375 1575.2109375 C1367.81361787 1576.54722116 1365.46931518 1577.91565109 1363.12890625 1579.3515625 C1362.46560303 1579.75802002 1361.8022998 1580.16447754 1361.11889648 1580.58325195 C1359.81368233 1581.38792359 1358.51223202 1582.19874044 1357.21508789 1583.01635742 C1353.83109568 1585.09995876 1350.97040529 1586.53955376 1347 1587 C1347 1587.66 1347 1588.32 1347 1589 C1345.71086513 1589.67154933 1344.41859796 1590.33708859 1343.125 1591 C1342.40570312 1591.37125 1341.68640625 1591.7425 1340.9453125 1592.125 C1339 1593 1339 1593 1337 1593 C1337 1593.66 1337 1594.32 1337 1595 C1336.47535156 1595.24492188 1335.95070313 1595.48984375 1335.41015625 1595.7421875 C1323.88245204 1601.30464045 1313.02740987 1608.16888897 1302.0703125 1614.76171875 C1297.13933533 1617.71100132 1292.1403257 1620.42983715 1287 1623 C1286.154375 1623.556875 1285.30875 1624.11375 1284.4375 1624.6875 C1281.55886139 1626.23753618 1280.22069934 1626.5498755 1277 1626 C1275.59672524 1625.1313061 1274.19982961 1624.24702578 1272.8671875 1623.2734375 C1270.50181361 1621.66023271 1268.02533707 1620.34821518 1265.5 1619 C1261.50863973 1616.85329542 1257.74669035 1614.5545616 1254 1612 C1250.73145335 1610.02837667 1247.41432337 1608.20716168 1244 1606.5 C1239.57829629 1604.28914814 1235.3360965 1601.91097489 1231.25 1599.125 C1226.65737144 1596.12212748 1221.828915 1593.59966693 1217 1591 C1214.72147582 1589.74365224 1212.4481831 1588.47831615 1210.17578125 1587.2109375 C1208.71730054 1586.39921574 1207.2563231 1585.59196489 1205.79296875 1584.7890625 C1199.32502475 1581.23225967 1193.00828958 1577.44457866 1186.70703125 1573.6015625 C1180.83971357 1570.04382548 1174.88076936 1566.67062268 1168.89306641 1563.3215332 C1164.35848896 1560.77974653 1159.87751805 1558.16657925 1155.43359375 1555.46875 C1149.46816242 1551.86842547 1143.43598524 1548.37443516 1137.375 1544.9375 C1134.56205435 1543.32266083 1131.77845995 1541.67291658 1129 1540 C1121.71338766 1535.5968967 1121.71338766 1535.5968967 1114.1875 1531.625 C1109.6515936 1529.31257713 1105.34869912 1526.6439576 1101 1524 C1099.3340185 1522.99885894 1097.66736023 1521.99884316 1096 1521 C1093.4488282 1519.47170369 1090.90049243 1517.93950058 1088.359375 1516.39453125 C1087.49828125 1515.87246094 1086.6371875 1515.35039063 1085.75 1514.8125 C1084.98171875 1514.34457031 1084.2134375 1513.87664062 1083.421875 1513.39453125 C1081.73937771 1512.42573845 1080.02174798 1511.51649613 1078.28125 1510.65625 C1074.00487315 1508.49769787 1069.88773436 1506.09886512 1065.75 1503.6875 C1064.90244141 1503.19548096 1064.05488281 1502.70346191 1063.18164062 1502.1965332 C1058.93408958 1499.72627701 1054.70151833 1497.23551757 1050.5 1494.6875 C1044.15776033 1490.84877599 1037.64959589 1487.27840542 1031 1484 C1031 1483.34 1031 1482.68 1031 1482 C1030.195625 1481.773125 1029.39125 1481.54625 1028.5625 1481.3125 C1020.50609426 1478.34435052 1013.35653245 1473.41301304 1006.11328125 1468.8671875 C1003.13520956 1467.0810918 1000.11010677 1465.54048126 997 1464 C995.32260138 1463.01810813 993.65532623 1462.01866229 992 1461 C989.35784488 1459.39583439 986.76626055 1457.88313027 984 1456.5 C979.51338504 1454.25669252 975.2841459 1451.60471001 971 1449 C969.3340185 1447.99885894 967.66736023 1446.99884316 966 1446 C963.4488282 1444.47170369 960.90049243 1442.93950058 958.359375 1441.39453125 C954.94554933 1439.32477168 951.57212045 1437.28606022 948 1435.5 C942.66448037 1432.83224018 937.62621584 1429.62355516 932.5546875 1426.48828125 C927.11528835 1423.15643065 921.56362144 1420.25416423 915.8359375 1417.44921875 C912.66833482 1415.8305127 909.68839949 1414.03184177 906.71875 1412.078125 C904.86753287 1410.91690698 902.96715809 1409.9490675 901 1409 C901 1408.34 901 1407.68 901 1407 C900.0925 1406.71125 899.185 1406.4225 898.25 1406.125 C895.67797092 1405.23468224 893.38653234 1404.28505587 891 1403 C891 1402.34 891 1401.68 891 1401 C890.26910156 1400.88914062 889.53820312 1400.77828125 888.78515625 1400.6640625 C885.85686927 1399.96587346 883.97117801 1398.97837661 881.4375 1397.375 C877.59139655 1394.98697159 873.72640137 1392.65075217 869.8125 1390.375 C868.80058594 1389.78589844 867.78867187 1389.19679688 866.74609375 1388.58984375 C864.62732163 1387.36318621 862.50462493 1386.14512261 860.375 1384.9375 C857.53645721 1383.30796618 854.73602595 1381.63408037 851.9375 1379.9375 C849.31657789 1378.35706426 846.73897066 1376.86948533 844 1375.5 C838.57980757 1372.78990379 833.47026167 1369.51657574 828.30859375 1366.34765625 C827.44363281 1365.82042969 826.57867188 1365.29320312 825.6875 1364.75 C824.51767578 1364.03070312 824.51767578 1364.03070312 823.32421875 1363.296875 C820.94251056 1361.96792186 818.5511747 1360.95725493 816 1360 C816 1359.34 816 1358.68 816 1358 C815.195625 1357.773125 814.39125 1357.54625 813.5625 1357.3125 C805.74845111 1354.43363988 798.76832503 1349.67323734 791.66601562 1345.37768555 C787.06787257 1342.60782425 782.41032848 1339.98690476 777.66015625 1337.484375 C776.78230469 1336.99453125 775.90445313 1336.5046875 775 1336 C774.34832377 1335.72870036 773.69664755 1335.45740071 773.02522355 1335.17787987 C770.60746672 1334.00826101 768.88768313 1332.92204338 767 1331 C765.78706106 1327.07301381 765.93295845 1323.23390932 766.00431824 1319.15037537 C765.99395501 1317.93611045 765.98359178 1316.72184554 765.97291452 1315.47078472 C765.95232358 1312.1022277 765.96764115 1308.73729313 765.99817979 1305.36904013 C766.02244126 1301.73635601 766.0006059 1298.10391096 765.98457336 1294.47122192 C765.96054993 1287.35620476 765.97939939 1280.24191421 766.01294955 1273.12696033 C766.05056638 1264.84423365 766.04722831 1256.56167625 766.04251031 1248.27888406 C766.03562919 1233.50258545 766.06813214 1218.72663054 766.12182617 1203.95043945 C766.17393198 1189.60659447 766.19517034 1175.26312564 766.18334961 1160.91918945 C766.17053321 1145.30466284 766.17315186 1129.6902969 766.20419484 1114.07578999 C766.20665217 1112.83774085 766.20665217 1112.83774085 766.20915914 1111.57468062 C766.21244998 1109.9169031 766.21577174 1108.25912565 766.21912482 1106.60134826 C766.22990756 1100.8253111 766.23017328 1095.04932734 766.22682762 1089.273283 C766.22326902 1082.23672106 766.23814379 1075.20047487 766.27638754 1068.16401153 C766.29551586 1064.57254975 766.30667655 1060.9815363 766.29630661 1057.390028 C766.28538229 1053.50058676 766.31309012 1049.61198067 766.34489441 1045.72264099 C766.33578716 1044.58209131 766.32667991 1043.44154163 766.31729668 1042.26642984 C766.4265395 1034.63975065 766.4265395 1034.63975065 769.36394215 1031.36279392 C770.23384124 1030.91307193 771.10374033 1030.46334993 772 1030 C772.93457031 1029.49597656 773.86914062 1028.99195313 774.83203125 1028.47265625 C776.30736328 1027.77462891 776.30736328 1027.77462891 777.8125 1027.0625 C782.17700394 1024.94735295 786.26769805 1022.7001783 790.28125 1019.98046875 C792.16392289 1018.90648944 793.88450307 1018.43145003 796 1018 C796 1017.34 796 1016.68 796 1016 C796.52464844 1015.75507812 797.04929687 1015.51015625 797.58984375 1015.2578125 C808.21393186 1010.13138063 818.26072399 1003.90447998 828.3125 997.75 C832.81025956 995.02361835 837.48522013 992.7386276 842.23828125 990.4921875 C845.12789153 988.93089878 847.47095454 987.08475369 850 985 C851.99065541 983.98152514 853.99248185 982.98482022 856 982 C858.52614334 980.45669699 861.03622938 978.89168371 863.53515625 977.3046875 C866.0593866 975.96856557 868.18795838 975.41102926 871 975 C871 974.34 871 973.68 871 973 C871.57363281 972.69449219 872.14726563 972.38898437 872.73828125 972.07421875 C884.93003583 965.50658161 896.89550205 958.51400488 908.734375 951.33203125 C912.285604 949.24415351 915.92392625 947.31972032 919.55078125 945.3671875 C922.13073518 943.97441275 922.13073518 943.97441275 924.9375 942 C927.85252241 940.09631189 930.75232913 938.59459695 933.875 937.0625 C939.82639537 934.13836144 945.3335922 930.87860549 950.75 927.0625 C954.70585645 924.55205264 958.84018646 922.57033698 963.04296875 920.5078125 C966.18584645 918.9052355 969.12405073 917.12600118 972.08203125 915.2109375 C974.1402023 913.91148124 976.24054903 912.73216423 978.375 911.5625 C987.03945123 906.94274141 987.03945123 906.94274141 995.04296875 901.3203125 C997 900 997 900 1001 900 C1001 899.34 1001 898.68 1001 898 C1002.28913487 897.32845067 1003.58140204 896.66291141 1004.875 896 C1005.59429688 895.62875 1006.31359375 895.2575 1007.0546875 894.875 C1009 894 1009 894 1011 894 C1011 893.34 1011 892.68 1011 892 C1011.67804687 891.63648438 1012.35609375 891.27296875 1013.0546875 890.8984375 C1017.74806208 888.36323517 1022.39240908 885.79356808 1026.9375 883 C1031.56136671 880.17840722 1036.34305186 877.80582062 1041.23828125 875.4921875 C1044.05859455 874.07555388 1044.05859455 874.07555388 1046.48046875 872.0078125 C1049.1910622 869.84774268 1051.87949553 868.49415682 1055 867 C1056.90503456 865.91178524 1058.80078407 864.80717453 1060.6875 863.6875 C1064.63215134 861.36654322 1068.59621417 859.10904413 1072.625 856.9375 C1077.03017896 854.55769068 1081.32253709 852.03205555 1085.6015625 849.43359375 C1087.87736789 848.07329965 1090.17614521 846.77608167 1092.5 845.5 C1095.49780056 843.85069104 1098.44823906 842.14726008 1101.375 840.375 C1107.20715099 836.84645724 1113.11561079 833.4523935 1119.01977539 830.04638672 C1123.30822849 827.56921895 1127.5786337 825.06987332 1131.8125 822.5 C1135.13580648 820.48656819 1138.52362056 818.73818972 1142 817 C1146.19657591 814.5568885 1150.33407723 812.01529466 1154.48046875 809.48828125 C1160.55881497 805.80648489 1166.74628896 802.37371253 1173 799 C1179.03231245 795.73991457 1179.03231245 795.73991457 1184.8125 792.0625 C1187.77443401 790.14595446 1190.71145772 788.61457581 1193.875 787.0625 C1199.82639537 784.13836144 1205.3335922 780.87860549 1210.75 777.0625 C1213.73581361 775.16765675 1216.70447439 773.61995118 1219.875 772.0625 C1225.92759457 769.08863856 1231.47778527 765.69863441 1237.0625 761.9375 C1239.66742374 760.21935881 1242.31359623 758.64955003 1245.03515625 757.125 C1247.2825831 755.83820292 1249.48097613 754.48068827 1251.6875 753.125 C1256.38435357 750.28687082 1261.22783618 747.86407872 1266.15625 745.45703125 C1268.74709131 744.12958097 1271.1782488 742.6985447 1273.625 741.125 C1277 739 1277 739 1279 739 C1279 642.31 1279 545.62 1279 446 C1267.40091581 452.04250327 1267.40091581 452.04250327 1256.25 458.875 C1253.55682316 460.63592332 1250.89321259 462.16970285 1248.0625 463.6875 C1243.45631959 466.16293029 1238.96942265 468.78922376 1234.5 471.5 C1229.36129161 474.61434924 1224.17269405 477.56819962 1218.875 480.40625 C1215.36338671 482.35290519 1211.93339073 484.41936522 1208.5 486.5 C1203.36014327 489.61475318 1198.17167079 492.57087447 1192.87109375 495.40625 C1189.37670606 497.34599174 1185.9742935 499.4195019 1182.5625 501.5 C1177.04172011 504.86586771 1171.45259867 507.87714936 1165.5859375 510.61328125 C1162.91701996 511.94219782 1162.91701996 511.94219782 1160.5390625 513.98046875 C1157.81875254 516.14416144 1155.12633316 517.49443422 1152 519 C1148.88461997 520.83004085 1145.79489847 522.69819376 1142.70703125 524.57421875 C1140 526 1140 526 1137 526 C1137 526.66 1137 527.32 1137 528 C1136.42636719 528.30550781 1135.85273437 528.61101563 1135.26171875 528.92578125 C1123.83922144 535.07902335 1112.59370769 541.58527565 1101.5 548.3125 C1087.12751332 556.98642179 1087.12751332 556.98642179 1082 558 C1082 558.66 1082 559.32 1082 560 C1081.45214844 560.25652344 1080.90429688 560.51304687 1080.33984375 560.77734375 C1072.88999019 564.37507791 1065.89180053 568.6004408 1058.83105469 572.89208984 C1050.67834041 577.8250255 1042.38032082 582.46804403 1034 587 C1026.66398683 590.99923126 1019.41803519 595.1560552 1012.390625 599.6796875 C1010 601 1010 601 1007 601 C1007 601.66 1007 602.32 1007 603 C1006.43796875 603.29390625 1005.8759375 603.5878125 1005.296875 603.890625 C998.74983005 607.38506003 992.40463027 611.14868118 986.0625 615 C979.63473751 618.90212259 973.2479012 622.57681123 966.41015625 625.71875 C963.64764148 627.18731539 961.42440333 629.03066267 959 631 C957.11328125 632.0546875 957.11328125 632.0546875 955.3125 632.875 C952.15798443 634.38727713 949.17494467 636.05408134 946.1875 637.875 C942.67256763 640.01733244 939.12387352 642.04750397 935.5 644 C931.05181132 646.39951586 926.71776322 648.94347186 922.3984375 651.56640625 C920.12263211 652.92670035 917.82385479 654.22391833 915.5 655.5 C912.50219944 657.14930896 909.55176094 658.85273992 906.625 660.625 C900.79284901 664.15354276 894.88438921 667.5476065 888.98022461 670.95361328 C884.69177151 673.43078105 880.4213663 675.93012668 876.1875 678.5 C872.86419352 680.51343181 869.47637944 682.26181028 866 684 C861.80342409 686.4431115 857.66592277 688.98470534 853.51953125 691.51171875 C847.44122763 695.1934893 841.25426927 698.62732739 835 702 C828.7781628 705.36315524 822.71862163 708.96017162 816.66918945 712.62109375 C811.94264668 715.46856644 807.13885642 718.1343547 802.2734375 720.73828125 C799.84032782 722.04352868 799.84032782 722.04352868 797.0625 724 C794.14747759 725.90368811 791.24767087 727.40540305 788.125 728.9375 C782.36303409 731.76844107 776.707216 734.67952915 771.8125 738.875 C770 740 770 740 767.6796875 739.73828125 C764.83042581 738.95328058 762.80843671 737.8843213 760.3125 736.3125 C759.43980469 735.77238281 758.56710937 735.23226562 757.66796875 734.67578125 C756.78753906 734.12277344 755.90710938 733.56976562 755 733 C748.75582163 729.12602012 742.43608218 725.68142328 735.8359375 722.44921875 C732.66833482 720.8305127 729.68839949 719.03184177 726.71875 717.078125 C724.86753287 715.91690698 722.96715809 714.9490675 721 714 C721 713.34 721 712.68 721 712 C720.0925 711.71125 719.185 711.4225 718.25 711.125 C715.67797092 710.23468224 713.38653234 709.28505587 711 708 C711 707.34 711 706.68 711 706 C710.26910156 705.88914062 709.53820312 705.77828125 708.78515625 705.6640625 C705.85686927 704.96587346 703.97117801 703.97837661 701.4375 702.375 C697.59139655 699.98697159 693.72640137 697.65075217 689.8125 695.375 C688.80058594 694.78589844 687.78867187 694.19679688 686.74609375 693.58984375 C684.62732163 692.36318621 682.50462493 691.14512261 680.375 689.9375 C677.53645721 688.30796618 674.73602595 686.63408037 671.9375 684.9375 C669.31657789 683.35706426 666.73897066 681.86948533 664 680.5 C658.59334873 677.79667437 653.50414915 674.52458492 648.34375 671.3828125 C644.9342975 669.31865602 641.56620553 667.28310276 638 665.5 C632.66448037 662.83224018 627.62621584 659.62355516 622.5546875 656.48828125 C618.20598094 653.8245237 613.84632656 651.40032034 609.25 649.1875 C603.95293383 646.60008691 599.1293624 643.57002803 594.22509766 640.32592773 C589.55151016 637.26862797 584.72153928 634.75923833 579.6875 632.3359375 C574.94057367 629.97627354 570.5777964 627.11162928 566.25 624.0625 C562.37093027 621.60078267 558.33630435 619.64231101 554.1953125 617.66015625 C551.0441964 616.02296268 548.08748589 614.21992156 545.09277344 612.31811523 C541.62788428 610.13578479 538.09467623 608.07101552 534.5625 606 C533.81677734 605.56212158 533.07105469 605.12424316 532.30273438 604.6730957 C527.24110326 601.70850499 522.15138996 598.80612495 517 596 C510.5721631 592.48136299 504.26718154 588.79711772 498 585 C489.51664481 579.88002961 480.99466007 574.8253543 472.375 569.9375 C469.6414468 568.36823798 466.94448011 566.75942602 464.25 565.125 C459.85032807 562.47323399 455.37202814 560.00491095 450.8515625 557.56640625 C447.86923337 555.92816792 444.93330578 554.22435934 442 552.5 C436.39905597 549.20834572 430.7222284 546.07513455 425 543 C425 542.34 425 541.68 425 541 C424.26394531 540.8865625 423.52789062 540.773125 422.76953125 540.65625 C419.91412973 539.97965274 418.14650778 539.07236732 415.6875 537.5 C411.12707481 534.6651411 406.49881141 531.993837 401.8125 529.375 C400.48564307 528.63287331 399.1588193 527.89068733 397.83203125 527.1484375 C396.87550659 526.61355713 396.87550659 526.61355713 395.8996582 526.06787109 C394.02178017 525.01224347 392.15051469 523.94579483 390.28125 522.875 C387.76118816 521.43496466 385.23307094 520.01888544 382.6875 518.625 C376.9353651 515.43695235 371.32104478 512.02544128 365.70703125 508.6015625 C359.16444568 504.63436656 352.50945403 500.88218409 345.83203125 497.1484375 C339.37911313 493.5362589 332.99051884 489.82586171 326.625 486.0625 C321.47149921 483.02159727 316.30548995 480.02291863 311.0546875 477.15234375 C307.74132761 475.29409058 304.50409623 473.31087355 301.26171875 471.33203125 C299.21057464 470.12401719 297.14278294 469.03461602 295 468 C295 467.34 295 466.68 295 466 C293.90751953 465.83564453 293.90751953 465.83564453 292.79296875 465.66796875 C289.8272706 464.95868989 287.8838374 463.93180504 285.3125 462.3125 C284.44238281 461.77238281 283.57226562 461.23226563 282.67578125 460.67578125 C281.79277344 460.12277344 280.90976562 459.56976563 280 459 C278.33561451 457.99620782 276.66898129 456.99613214 275 456 C272.41215765 454.45056517 269.82861274 452.89541233 267.25390625 451.32421875 C266.36574219 450.78410156 265.47757812 450.24398438 264.5625 449.6875 C263.75941406 449.19636719 262.95632813 448.70523437 262.12890625 448.19921875 C259.92713772 446.87010992 259.92713772 446.87010992 257 446 C257 640.7 257 835.4 257 1036 C252 1034 252 1034 250 1033 C250 1032.34 250 1031.68 250 1031 C249.30003906 1030.91105469 248.60007813 1030.82210938 247.87890625 1030.73046875 C244.36927228 1029.83996461 241.97086159 1028.2858765 238.9375 1026.3125 C233.67483748 1022.9462107 228.32477739 1020.06926416 222.65625 1017.421875 C220 1016 220 1016 217.65625 1014.078125 C214.90828547 1011.92824687 212.23296327 1010.52972514 209.10546875 1009.02685547 C205.65897713 1007.34597145 202.3362587 1005.45044467 199 1003.5625 C198.29866943 1003.16708008 197.59733887 1002.77166016 196.87475586 1002.36425781 C192.7761748 1000.04183987 188.74365538 997.64842128 184.77734375 995.10546875 C182.0291827 993.39617298 179.18406596 991.86936296 176.34765625 990.3125 C171.34023399 987.51300935 166.44611839 984.5116462 161.56640625 981.49609375 C156.12060936 978.15890941 150.5600422 975.25592457 144.828125 972.44140625 C139.96947627 969.965106 135.48825305 967.02317397 131 963.9375 C127.4621887 961.65266354 123.79633342 959.81144843 120 958 C120 957.34 120 956.68 120 956 C118.90365234 955.83371094 118.90365234 955.83371094 117.78515625 955.6640625 C114.85686927 954.96587346 112.97117801 953.97837661 110.4375 952.375 C106.59139655 949.98697159 102.72640137 947.65075217 98.8125 945.375 C97.80058594 944.78589844 96.78867188 944.19679688 95.74609375 943.58984375 C93.62732163 942.36318621 91.50462493 941.14512261 89.375 939.9375 C86.6414468 938.36823798 83.94448011 936.75942602 81.25 935.125 C77.81457319 933.0534118 74.34755505 931.08371824 70.8125 929.1875 C65.49929167 926.33003988 60.34704577 923.23789562 55.21411133 920.07104492 C51.89523177 918.04502846 48.66493497 916.30990071 45 915 C45 914.34 45 913.68 45 913 C44.15695313 912.75765625 43.31390625 912.5153125 42.4453125 912.265625 C38.60569429 910.85515301 35.3169554 908.91614325 31.875 906.75 C26.25301914 903.28137017 20.5803778 900.18244511 14.5859375 897.38671875 C11.75957529 895.87107134 9.4772341 894.02757115 7 892 C5.01549844 890.96958573 3.01800895 889.96314063 1 889 C-0 888 -0 888 -0.12467116 885.53928429 C-0.12443719 883.87738872 -0.12443719 883.87738872 -0.1241985 882.18191952 C-0.12644579 880.90679775 -0.12869308 879.63167598 -0.13100848 878.31791416 C-0.12844216 876.8815183 -0.12578522 875.44512261 -0.12304783 874.00872707 C-0.12378656 872.49314127 -0.12496417 870.97755563 -0.12654433 869.46197048 C-0.12963411 865.25854438 -0.12642115 861.0551422 -0.12226619 856.85171787 C-0.11884956 852.29340258 -0.12119942 847.73508985 -0.12284368 843.17677408 C-0.12492359 835.17498953 -0.12326317 827.17321238 -0.11920547 819.17142868 C-0.11318845 807.27293241 -0.11286799 795.37444085 -0.11374746 783.47594334 C-0.11506366 763.46405763 -0.11171125 743.45217521 -0.10573006 723.44029045 C-0.09982008 703.61602703 -0.09596554 683.79176498 -0.09487724 663.96750069 C-0.0948085 662.73649349 -0.09473976 661.50548629 -0.09466894 660.23717584 C-0.09433062 653.98592491 -0.09402923 647.73467399 -0.09374207 641.48342306 C-0.0916397 597.16562424 -0.08489769 552.84782709 -0.07543945 508.5300293 C-0.07314784 497.78277589 -0.07087249 487.03552247 -0.06866455 476.28826904 C-0.06845913 475.28847962 -0.06845913 475.28847962 -0.06824955 474.26849243 C-0.06190799 443.29578042 -0.05818069 412.32306825 -0.05512976 381.35035576 C-0.05493169 379.34011369 -0.0547325 377.32987161 -0.05453308 375.31962954 C-0.05321332 361.99789003 -0.05193878 348.67615052 -0.05069422 335.354411 C-0.04815777 308.21467262 -0.04533651 281.07493426 -0.04234314 253.93519592 C-0.04220585 252.68725905 -0.04206856 251.43932218 -0.04192711 250.15356903 C-0.03272103 166.76904528 -0.0168752 83.38452251 0 0 Z " fill="#0081CB" transform="translate(0,0)"/>
<path d="M0 0 C4.63243863 0.79435705 8.03088791 2.5675675 12 5 C13.6039968 5.95861762 15.2081752 6.91693143 16.8125 7.875 C19.39295478 9.42718265 21.97133945 10.98263663 24.546875 12.54296875 C28.49713012 14.92907006 32.45617256 17.27553956 36.5 19.5 C42.24729299 22.66151618 47.8541693 26.05594732 53.43359375 29.50390625 C57.86756066 32.22104117 62.33065374 34.70712409 67 37 C72.53006355 39.71552993 77.76356922 42.76123356 83 46 C89.73209206 50.1153371 96.55820754 54.03180054 103.46728516 57.84106445 C106.84080452 59.71620582 109.90999519 61.68249639 113 64 C114.77564848 64.90706501 116.56941424 65.77909544 118.375 66.625 C123.90107707 69.32708915 128.99602054 72.43325572 134.10302734 75.84033203 C137.63030611 78.18188423 141.20011649 80.14102734 145 82 C146.67739862 82.98189187 148.34467377 83.98133771 150 85 C152.64215512 86.60416561 155.23373945 88.11686973 158 89.5 C162.48661496 91.74330748 166.7158541 94.39528999 171 97 C173.50089843 98.50286909 176.00382328 100.00228682 178.5078125 101.5 C180.15400336 102.4908108 181.79478513 103.4906712 183.4296875 104.5 C187.78246265 107.17007294 192.14764689 109.59677828 196.75 111.8125 C202.04706617 114.39991309 206.8706376 117.42997197 211.77490234 120.67407227 C216.44848984 123.73137203 221.27846072 126.24076167 226.3125 128.6640625 C231.14231627 131.06493047 235.56213438 134.01146739 240 137.0625 C243.5378113 139.34733646 247.20366658 141.18855157 251 143 C251 143.66 251 144.32 251 145 C251.69996094 145.08894531 252.39992187 145.17789063 253.12109375 145.26953125 C256.63072772 146.16003539 259.02913841 147.7141235 262.0625 149.6875 C267.32516252 153.0537893 272.67522261 155.93073584 278.34375 158.578125 C281 160 281 160 283.34375 161.921875 C286.09171453 164.07175313 288.76703673 165.47027486 291.89453125 166.97314453 C295.34102287 168.65402855 298.6637413 170.54955533 302 172.4375 C302.70133057 172.83291992 303.40266113 173.22833984 304.12524414 173.63574219 C308.2238252 175.95816013 312.25634462 178.35157872 316.22265625 180.89453125 C318.9708173 182.60382702 321.81593404 184.13063704 324.65234375 185.6875 C329.65976601 188.48699065 334.55388161 191.4883538 339.43359375 194.50390625 C344.87939064 197.84109059 350.4399578 200.74407543 356.171875 203.55859375 C361.03052373 206.034894 365.51174695 208.97682603 370 212.0625 C373.5378113 214.34733646 377.20366658 216.18855157 381 218 C381 218.66 381 219.32 381 220 C381.73089844 220.11085937 382.46179688 220.22171875 383.21484375 220.3359375 C386.14313073 221.03412654 388.02882199 222.02162339 390.5625 223.625 C394.40860345 226.01302841 398.27359863 228.34924783 402.1875 230.625 C403.19941406 231.21410156 404.21132813 231.80320313 405.25390625 232.41015625 C407.37267837 233.63681379 409.49537507 234.85487739 411.625 236.0625 C414.46354279 237.69203382 417.26397405 239.36591963 420.0625 241.0625 C422.68342211 242.64293574 425.26102934 244.13051467 428 245.5 C433.42019243 248.21009621 438.52973833 251.48342426 443.69140625 254.65234375 C444.55636719 255.17957031 445.42132813 255.70679688 446.3125 256.25 C447.09238281 256.72953125 447.87226563 257.2090625 448.67578125 257.703125 C451.05748944 259.03207814 453.4488253 260.04274507 456 261 C456 261.66 456 262.32 456 263 C456.84304688 263.24234375 457.68609375 263.4846875 458.5546875 263.734375 C462.39430571 265.14484699 465.6830446 267.08385675 469.125 269.25 C474.74698086 272.71862983 480.4196222 275.81755489 486.4140625 278.61328125 C489.23982801 280.12860868 491.52823826 281.96711053 494 284 C495.99065541 285.01847486 497.99248185 286.01517978 500 287 C501.67361209 287.9883321 503.33973644 288.98940479 505 290 C507.64215512 291.60416561 510.23373945 293.11686973 513 294.5 C518.40665127 297.20332563 523.49585085 300.47541508 528.65625 303.6171875 C533.03425532 306.26772686 537.39907883 308.75066076 542 311 C545.35573453 312.81992925 548.59455955 314.72356333 551.75 316.875 C554.44317684 318.63592332 557.10678741 320.16970285 559.9375 321.6875 C565.33734209 324.5837116 570.57177704 327.71182318 575.78491211 330.9284668 C579.10417818 332.95452381 582.3347192 334.68997568 586 336 C586 336.66 586 337.32 586 338 C586.9075 338.28875 587.815 338.5775 588.75 338.875 C591.32202908 339.76531776 593.61346766 340.71494413 596 342 C596 342.66 596 343.32 596 344 C596.804375 344.226875 597.60875 344.45375 598.4375 344.6875 C606.49390574 347.65564948 613.64346755 352.58698696 620.88671875 357.1328125 C623.86479044 358.9189082 626.88989323 360.45951874 630 362 C631.67739862 362.98189187 633.34467377 363.98133771 635 365 C637.64215512 366.60416561 640.23373945 368.11686973 643 369.5 C648.42019243 372.21009621 653.52973833 375.48342426 658.69140625 378.65234375 C659.98884766 379.44318359 659.98884766 379.44318359 661.3125 380.25 C662.09238281 380.72953125 662.87226562 381.2090625 663.67578125 381.703125 C666.05748944 383.03207814 668.4488253 384.04274507 671 385 C671 385.66 671 386.32 671 387 C671.70125 387.268125 672.4025 387.53625 673.125 387.8125 C680.67548978 390.93118056 687.51482996 395.22721916 694.4453125 399.51171875 C698.91584618 402.25010031 703.41785574 404.75032235 708.125 407.0625 C712.13374914 409.03384939 715.93804635 411.10191535 719.6875 413.5234375 C722.86248667 415.55070939 726.08456178 417.49593121 729.3125 419.4375 C729.96186523 419.82808594 730.61123047 420.21867187 731.28027344 420.62109375 C736.0278345 423.45871646 740.84984734 426.12830906 745.7265625 428.73828125 C748 430 748 430 750.9375 432 C754.91239936 434.59585265 759.11468104 436.57993393 763.390625 438.6328125 C766 440 766 440 768 442 C768.25480902 444.15918171 768.25480902 444.15918171 768.26171303 446.9000721 C768.27291127 448.46312307 768.27291127 448.46312307 768.28433573 450.05775082 C768.282401 451.21142773 768.28046626 452.36510464 768.2784729 453.55374146 C768.2842653 454.77234891 768.2900577 455.99095636 768.29602563 457.24649131 C768.31013664 460.63970214 768.31525957 464.0327161 768.31667423 467.42594218 C768.32035789 471.08104374 768.33550811 474.7360994 768.34928894 478.39117432 C768.37159826 484.72739306 768.38658941 491.06359556 768.39665604 497.39984512 C768.41122131 506.56107182 768.43675201 515.72224192 768.46498732 524.88343547 C768.51049453 539.7456803 768.54709306 554.60793326 768.578125 569.47021484 C768.60829448 583.91033354 768.64263735 598.35043233 768.68261719 612.79052734 C768.68507874 613.68012658 768.68754028 614.56972581 768.69007643 615.4862826 C768.70245072 619.94899476 768.71490731 624.41170668 768.72740483 628.8744185 C768.83103144 665.91625155 768.92021524 702.95810831 769 740 C765.67714415 739.24100078 763.28272858 738.11680715 760.375 736.3125 C759.49328125 735.77238281 758.6115625 735.23226562 757.703125 734.67578125 C756.81109375 734.12277344 755.9190625 733.56976562 755 733 C748.75287073 729.13036101 742.43658165 725.68166788 735.8359375 722.44921875 C732.66833482 720.8305127 729.68839949 719.03184177 726.71875 717.078125 C724.86753287 715.91690698 722.96715809 714.9490675 721 714 C721 713.34 721 712.68 721 712 C720.0925 711.71125 719.185 711.4225 718.25 711.125 C715.67797092 710.23468224 713.38653234 709.28505587 711 708 C711 707.34 711 706.68 711 706 C710.26910156 705.88914062 709.53820312 705.77828125 708.78515625 705.6640625 C705.85686927 704.96587346 703.97117801 703.97837661 701.4375 702.375 C697.59139655 699.98697159 693.72640137 697.65075217 689.8125 695.375 C688.80058594 694.78589844 687.78867187 694.19679688 686.74609375 693.58984375 C684.62732163 692.36318621 682.50462493 691.14512261 680.375 689.9375 C677.53645721 688.30796618 674.73602595 686.63408037 671.9375 684.9375 C669.31657789 683.35706426 666.73897066 681.86948533 664 680.5 C658.59334873 677.79667437 653.50414915 674.52458492 648.34375 671.3828125 C644.9342975 669.31865602 641.56620553 667.28310276 638 665.5 C632.66448037 662.83224018 627.62621584 659.62355516 622.5546875 656.48828125 C618.20598094 653.8245237 613.84632656 651.40032034 609.25 649.1875 C603.95293383 646.60008691 599.1293624 643.57002803 594.22509766 640.32592773 C589.55151016 637.26862797 584.72153928 634.75923833 579.6875 632.3359375 C574.94057367 629.97627354 570.5777964 627.11162928 566.25 624.0625 C562.37093027 621.60078267 558.33630435 619.64231101 554.1953125 617.66015625 C551.0441964 616.02296268 548.08748589 614.21992156 545.09277344 612.31811523 C541.62788428 610.13578479 538.09467623 608.07101552 534.5625 606 C533.81677734 605.56212158 533.07105469 605.12424316 532.30273438 604.6730957 C527.24110326 601.70850499 522.15138996 598.80612495 517 596 C510.5721631 592.48136299 504.26718154 588.79711772 498 585 C489.51664481 579.88002961 480.99466007 574.8253543 472.375 569.9375 C469.6414468 568.36823798 466.94448011 566.75942602 464.25 565.125 C459.85032807 562.47323399 455.37202814 560.00491095 450.8515625 557.56640625 C447.86923337 555.92816792 444.93330578 554.22435934 442 552.5 C436.39905597 549.20834572 430.7222284 546.07513455 425 543 C425 542.34 425 541.68 425 541 C424.26394531 540.8865625 423.52789062 540.773125 422.76953125 540.65625 C419.91412973 539.97965274 418.14650778 539.07236732 415.6875 537.5 C411.12707481 534.6651411 406.49881141 531.993837 401.8125 529.375 C400.48564307 528.63287331 399.1588193 527.89068733 397.83203125 527.1484375 C396.87550659 526.61355713 396.87550659 526.61355713 395.8996582 526.06787109 C394.02178017 525.01224347 392.15051469 523.94579483 390.28125 522.875 C387.76118816 521.43496466 385.23307094 520.01888544 382.6875 518.625 C376.9353651 515.43695235 371.32104478 512.02544128 365.70703125 508.6015625 C359.16444568 504.63436656 352.50945403 500.88218409 345.83203125 497.1484375 C339.37911313 493.5362589 332.99051884 489.82586171 326.625 486.0625 C321.47149921 483.02159727 316.30548995 480.02291863 311.0546875 477.15234375 C307.74132761 475.29409058 304.50409623 473.31087355 301.26171875 471.33203125 C299.21057464 470.12401719 297.14278294 469.03461602 295 468 C295 467.34 295 466.68 295 466 C293.90751953 465.83564453 293.90751953 465.83564453 292.79296875 465.66796875 C289.8272706 464.95868989 287.8838374 463.93180504 285.3125 462.3125 C284.44238281 461.77238281 283.57226562 461.23226563 282.67578125 460.67578125 C281.79277344 460.12277344 280.90976562 459.56976563 280 459 C278.33561451 457.99620782 276.66898129 456.99613214 275 456 C272.41215765 454.45056517 269.82861274 452.89541233 267.25390625 451.32421875 C266.36574219 450.78410156 265.47757812 450.24398438 264.5625 449.6875 C263.75941406 449.19636719 262.95632813 448.70523437 262.12890625 448.19921875 C259.92713772 446.87010992 259.92713772 446.87010992 257 446 C257 640.7 257 835.4 257 1036 C252 1034 252 1034 250 1033 C250 1032.34 250 1031.68 250 1031 C249.30003906 1030.91105469 248.60007813 1030.82210938 247.87890625 1030.73046875 C244.36927228 1029.83996461 241.97086159 1028.2858765 238.9375 1026.3125 C233.67483748 1022.9462107 228.32477739 1020.06926416 222.65625 1017.421875 C220 1016 220 1016 217.65625 1014.078125 C214.90828547 1011.92824687 212.23296327 1010.52972514 209.10546875 1009.02685547 C205.65897713 1007.34597145 202.3362587 1005.45044467 199 1003.5625 C198.29866943 1003.16708008 197.59733887 1002.77166016 196.87475586 1002.36425781 C192.7761748 1000.04183987 188.74365538 997.64842128 184.77734375 995.10546875 C182.0291827 993.39617298 179.18406596 991.86936296 176.34765625 990.3125 C171.34023399 987.51300935 166.44611839 984.5116462 161.56640625 981.49609375 C156.12060936 978.15890941 150.5600422 975.25592457 144.828125 972.44140625 C139.96947627 969.965106 135.48825305 967.02317397 131 963.9375 C127.4621887 961.65266354 123.79633342 959.81144843 120 958 C120 957.34 120 956.68 120 956 C118.90365234 955.83371094 118.90365234 955.83371094 117.78515625 955.6640625 C114.85686927 954.96587346 112.97117801 953.97837661 110.4375 952.375 C106.59139655 949.98697159 102.72640137 947.65075217 98.8125 945.375 C97.80058594 944.78589844 96.78867188 944.19679688 95.74609375 943.58984375 C93.62732163 942.36318621 91.50462493 941.14512261 89.375 939.9375 C86.6414468 938.36823798 83.94448011 936.75942602 81.25 935.125 C77.81457319 933.0534118 74.34755505 931.08371824 70.8125 929.1875 C65.49929167 926.33003988 60.34704577 923.23789562 55.21411133 920.07104492 C51.89523177 918.04502846 48.66493497 916.30990071 45 915 C45 914.34 45 913.68 45 913 C44.15695313 912.75765625 43.31390625 912.5153125 42.4453125 912.265625 C38.60569429 910.85515301 35.3169554 908.91614325 31.875 906.75 C26.25301914 903.28137017 20.5803778 900.18244511 14.5859375 897.38671875 C11.75957529 895.87107134 9.4772341 894.02757115 7 892 C5.01549844 890.96958573 3.01800895 889.96314063 1 889 C-0 888 -0 888 -0.12467116 885.53928429 C-0.12443719 883.87738872 -0.12443719 883.87738872 -0.1241985 882.18191952 C-0.12644579 880.90679775 -0.12869308 879.63167598 -0.13100848 878.31791416 C-0.12844216 876.8815183 -0.12578522 875.44512261 -0.12304783 874.00872707 C-0.12378656 872.49314127 -0.12496417 870.97755563 -0.12654433 869.46197048 C-0.12963411 865.25854438 -0.12642115 861.0551422 -0.12226619 856.85171787 C-0.11884956 852.29340258 -0.12119942 847.73508985 -0.12284368 843.17677408 C-0.12492359 835.17498953 -0.12326317 827.17321238 -0.11920547 819.17142868 C-0.11318845 807.27293241 -0.11286799 795.37444085 -0.11374746 783.47594334 C-0.11506366 763.46405763 -0.11171125 743.45217521 -0.10573006 723.44029045 C-0.09982008 703.61602703 -0.09596554 683.79176498 -0.09487724 663.96750069 C-0.0948085 662.73649349 -0.09473976 661.50548629 -0.09466894 660.23717584 C-0.09433062 653.98592491 -0.09402923 647.73467399 -0.09374207 641.48342306 C-0.0916397 597.16562424 -0.08489769 552.84782709 -0.07543945 508.5300293 C-0.07314784 497.78277589 -0.07087249 487.03552247 -0.06866455 476.28826904 C-0.06845913 475.28847962 -0.06845913 475.28847962 -0.06824955 474.26849243 C-0.06190799 443.29578042 -0.05818069 412.32306825 -0.05512976 381.35035576 C-0.05493169 379.34011369 -0.0547325 377.32987161 -0.05453308 375.31962954 C-0.05321332 361.99789003 -0.05193878 348.67615052 -0.05069422 335.354411 C-0.04815777 308.21467262 -0.04533651 281.07493426 -0.04234314 253.93519592 C-0.04220585 252.68725905 -0.04206856 251.43932218 -0.04192711 250.15356903 C-0.03272103 166.76904528 -0.0168752 83.38452251 0 0 Z " fill="#00AFFE" transform="translate(0,0)"/>
<path d="M0 0 C0.17114057 56.54536935 0.33035231 113.09076413 0.4234314 169.63632202 C0.42481197 170.47287778 0.42619254 171.30943354 0.42761494 172.17133947 C0.45754227 190.35084863 0.48524434 208.53036055 0.51065329 226.70987657 C0.52312694 235.62478161 0.53609243 244.53968589 0.54931641 253.45458984 C0.550624 254.34174185 0.55193159 255.22889385 0.5532788 256.14292925 C0.5959115 284.91117036 0.67103872 313.67921538 0.76297221 342.44733763 C0.85725473 372.00412989 0.91884428 401.56081359 0.9391499 431.11775369 C0.94203156 435.29004423 0.94528793 439.4623344 0.94877243 443.63462448 C0.94944666 444.45581133 0.95012089 445.27699818 0.95081555 446.12306947 C0.96264439 459.35542696 1.00905584 472.58744928 1.06832034 485.81966995 C1.12712996 499.11446505 1.14969583 512.40892705 1.13501377 525.70384772 C1.12739312 533.60817565 1.1478122 541.51128684 1.20797543 549.41539561 C1.24978731 555.30995896 1.23967111 561.2036753 1.20898895 567.0983334 C1.20474511 569.48876703 1.21759285 571.87930164 1.24883182 574.2695349 C1.46953952 592.19241068 1.46953952 592.19241068 -2.19462132 596.69946742 C-4.81075761 598.31274565 -7.04302654 599.2139226 -10 600 C-11.5778125 600.804375 -11.5778125 600.804375 -13.1875 601.625 C-14.115625 602.07875 -15.04375 602.5325 -16 603 C-19.35573453 604.81992925 -22.59455955 606.72356333 -25.75 608.875 C-29.32778557 611.21432133 -33.01818673 613.19568632 -36.78515625 615.2109375 C-39.18638213 616.54722116 -41.53068482 617.91565109 -43.87109375 619.3515625 C-44.86604858 619.96124878 -44.86604858 619.96124878 -45.88110352 620.58325195 C-47.18631767 621.38792359 -48.48776798 622.19874044 -49.78491211 623.01635742 C-53.16890432 625.09995876 -56.02959471 626.53955376 -60 627 C-60 627.66 -60 628.32 -60 629 C-61.28913487 629.67154933 -62.58140204 630.33708859 -63.875 631 C-64.59429688 631.37125 -65.31359375 631.7425 -66.0546875 632.125 C-68 633 -68 633 -70 633 C-70 633.66 -70 634.32 -70 635 C-70.52464844 635.24492188 -71.04929687 635.48984375 -71.58984375 635.7421875 C-83.11754796 641.30464045 -93.97259013 648.16888897 -104.9296875 654.76171875 C-109.86073423 657.71104293 -114.85970641 660.42985321 -120 663 C-129.89189955 668.29739554 -129.89189955 668.29739554 -139.05078125 674.68359375 C-141 676 -141 676 -145 676 C-145 676.66 -145 677.32 -145 678 C-145.67804687 678.36351562 -146.35609375 678.72703125 -147.0546875 679.1015625 C-154.31489655 683.02328207 -161.40812142 687.16057749 -168.42578125 691.5 C-173.87160759 694.83524293 -179.42674551 697.7445865 -185.1640625 700.546875 C-188.34968621 702.17917806 -191.32036457 704.01314178 -194.28125 706.01953125 C-196.16392289 707.09351056 -197.88450307 707.56854997 -200 708 C-200 708.66 -200 709.32 -200 710 C-200.54785156 710.25652344 -201.09570312 710.51304687 -201.66015625 710.77734375 C-209.10441359 714.37237534 -216.09635487 718.59435851 -223.15136719 722.88330078 C-228.9207085 726.36837304 -234.76289515 729.73609632 -240.625 733.0625 C-243.46354279 734.69203382 -246.26397405 736.36591963 -249.0625 738.0625 C-252.64067602 740.22016704 -256.26255053 742.13127526 -260 744 C-262.52411699 745.54637962 -265.0363228 747.10837562 -267.53515625 748.6953125 C-270.0593866 750.03143443 -272.18795838 750.58897074 -275 751 C-275 751.66 -275 752.32 -275 753 C-276.28913487 753.67154933 -277.58140204 754.33708859 -278.875 755 C-279.59429688 755.37125 -280.31359375 755.7425 -281.0546875 756.125 C-283 757 -283 757 -285 757 C-285 757.66 -285 758.32 -285 759 C-286.01707031 759.54527344 -286.01707031 759.54527344 -287.0546875 760.1015625 C-291.74806208 762.63676483 -296.39240908 765.20643192 -300.9375 768 C-304.58460895 770.22073566 -308.29146377 772.18180657 -312.125 774.0625 C-317.98952367 776.94213149 -323.41303098 780.17736273 -328.75 783.9375 C-331.73581361 785.83234325 -334.70447439 787.38004882 -337.875 788.9375 C-343.92759457 791.91136144 -349.47778527 795.30136559 -355.0625 799.0625 C-360.19049276 802.4447931 -365.50835603 805.25417802 -371 808 C-376.03145818 810.84252723 -381.01988922 813.75615066 -386 816.6875 C-386.73259033 817.11812744 -387.46518066 817.54875488 -388.2199707 817.99243164 C-391.9007775 820.1598726 -395.57347681 822.33946283 -399.23046875 824.546875 C-399.89755859 824.94946533 -400.56464844 825.35205566 -401.25195312 825.7668457 C-402.50325195 826.52365421 -403.75333969 827.28247035 -405.00195312 828.04370117 C-408.59052101 830.21559572 -412.24280496 832.13929388 -416 834 C-417.59461065 834.9181871 -419.17847111 835.85534398 -420.75 836.8125 C-421.61238281 837.33457031 -422.47476562 837.85664062 -423.36328125 838.39453125 C-425.0692161 839.43325603 -426.77495824 840.47229738 -428.48046875 841.51171875 C-434.55881497 845.19351511 -440.74628896 848.62628747 -447 852 C-453.03231245 855.26008543 -453.03231245 855.26008543 -458.8125 858.9375 C-461.77443401 860.85404554 -464.71145772 862.38542419 -467.875 863.9375 C-472.07432454 866.0009612 -476.06902589 868.16662767 -479.9921875 870.7109375 C-483.1748561 872.75428504 -486.44483525 874.65061949 -489.703125 876.5703125 C-492.0210823 877.96603721 -492.0210823 877.96603721 -494.15234375 879.62109375 C-496.32660788 881.24374753 -498.47745754 882.00271577 -501 883 C-504.37373286 884.84021792 -507.57623205 886.71106731 -510.75 888.875 C-514.32778557 891.21432133 -518.01818673 893.19568632 -521.78515625 895.2109375 C-524.18638213 896.54722116 -526.53068482 897.91565109 -528.87109375 899.3515625 C-529.53439697 899.75802002 -530.1977002 900.16447754 -530.88110352 900.58325195 C-532.18631767 901.38792359 -533.48776798 902.19874044 -534.78491211 903.01635742 C-538.16890432 905.09995876 -541.02959471 906.53955376 -545 907 C-545 907.66 -545 908.32 -545 909 C-546.01707031 909.54527344 -546.01707031 909.54527344 -547.0546875 910.1015625 C-551.76181937 912.64419606 -556.42758453 915.2212652 -561 918 C-564.35024065 920.03538953 -567.73278243 921.9601182 -571.1875 923.8125 C-575.69522286 926.23826612 -580.06902418 928.83587697 -584.4375 931.5 C-589.95826669 934.86589357 -595.54740307 937.87715017 -601.4140625 940.61328125 C-604.23982801 942.12860868 -606.52823826 943.96711053 -609 946 C-610.99065541 947.01847486 -612.99248185 948.01517978 -615 949 C-616.67361209 949.9883321 -618.33973644 950.98940479 -620 952 C-623.59868041 954.18491311 -627.23417282 956.11708641 -631 958 C-634.35997227 959.95606777 -637.67924279 961.97824487 -641 964 C-646.25678741 967.20045586 -651.46697864 970.29496733 -657 973 C-660.35573453 974.81992925 -663.59455955 976.72356333 -666.75 978.875 C-670.32778557 981.21432133 -674.01818673 983.19568632 -677.78515625 985.2109375 C-680.18638213 986.54722116 -682.53068482 987.91565109 -684.87109375 989.3515625 C-685.53439697 989.75802002 -686.1977002 990.16447754 -686.88110352 990.58325195 C-688.18631767 991.38792359 -689.48776798 992.19874044 -690.78491211 993.01635742 C-694.16890432 995.09995876 -697.02959471 996.53955376 -701 997 C-701 997.66 -701 998.32 -701 999 C-702.28913487 999.67154933 -703.58140204 1000.33708859 -704.875 1001 C-705.59429688 1001.37125 -706.31359375 1001.7425 -707.0546875 1002.125 C-709 1003 -709 1003 -711 1003 C-711 1003.66 -711 1004.32 -711 1005 C-711.52464844 1005.24492188 -712.04929687 1005.48984375 -712.58984375 1005.7421875 C-724.11754796 1011.30464045 -734.97259013 1018.16888897 -745.9296875 1024.76171875 C-750.86066467 1027.71100132 -755.8596743 1030.42983715 -761 1033 C-762.36125 1033.8353125 -762.36125 1033.8353125 -763.75 1034.6875 C-766 1036 -766 1036 -768 1036 C-768.20594358 998.2662071 -768.36455807 960.53249877 -768.45958797 922.7982577 C-768.47084449 918.34467088 -768.48249338 913.89108517 -768.49438477 909.4375 C-768.49674556 908.55086128 -768.49910635 907.66422255 -768.50153869 906.75071599 C-768.54071407 892.38920886 -768.61168233 878.02802555 -768.69437516 863.6667106 C-768.77850206 848.93360015 -768.8285211 834.20065944 -768.84679645 819.46731865 C-768.85915356 810.37386443 -768.89819707 801.2813254 -768.9712482 792.18815286 C-769.01877705 785.95486005 -769.0332115 779.72204119 -769.0215124 773.48858027 C-769.01573999 769.89033558 -769.02466115 766.29369116 -769.07284927 762.69573021 C-769.12470471 758.79549103 -769.10691787 754.89734227 -769.08229065 750.99679565 C-769.10850622 749.85866106 -769.1347218 748.72052646 -769.16173178 747.54790294 C-769.03336793 740.05131305 -769.03336793 740.05131305 -766.0197047 736.98531556 C-763.73715159 735.44021009 -761.4861503 734.18302088 -759 733 C-758.10152344 732.47792969 -757.20304687 731.95585938 -756.27734375 731.41796875 C-755.50519531 731.01191406 -754.73304687 730.60585937 -753.9375 730.1875 C-743.78731975 724.75500916 -733.70147143 719.20378723 -724 713 C-721.79462998 711.61993574 -719.58664444 710.24491074 -717.375 708.875 C-715.77785156 707.88113281 -715.77785156 707.88113281 -714.1484375 706.8671875 C-711.15288373 705.09066802 -708.11388835 703.55694417 -705 702 C-701.89491312 700.26648969 -698.82246479 698.47805343 -695.75 696.6875 C-694.90244141 696.19548096 -694.05488281 695.70346191 -693.18164062 695.1965332 C-688.93408958 692.72627701 -684.70151833 690.23551757 -680.5 687.6875 C-666.12751332 679.01357821 -666.12751332 679.01357821 -661 678 C-661 677.34 -661 676.68 -661 676 C-660.45214844 675.74347656 -659.90429688 675.48695313 -659.33984375 675.22265625 C-651.88999019 671.62492209 -644.89180053 667.3995592 -637.83105469 663.10791016 C-629.67834041 658.1749745 -621.38032082 653.53195597 -613 649 C-605.66398683 645.00076874 -598.41803519 640.8439448 -591.390625 636.3203125 C-589 635 -589 635 -586 635 C-586 634.34 -586 633.68 -586 633 C-584.71086513 632.32845067 -583.41859796 631.66291141 -582.125 631 C-581.40570312 630.62875 -580.68640625 630.2575 -579.9453125 629.875 C-578 629 -578 629 -576 629 C-576 628.34 -576 627.68 -576 627 C-575.09121094 626.52691406 -574.18242188 626.05382813 -573.24609375 625.56640625 C-565.81341826 621.66634842 -558.53570162 617.59494635 -551.3671875 613.22802734 C-546.74625701 610.42054341 -542.04106037 607.81330577 -537.2734375 605.26171875 C-534.84032782 603.95647132 -534.84032782 603.95647132 -532.0625 602 C-529.14747759 600.09631189 -526.24767087 598.59459695 -523.125 597.0625 C-518.91937188 594.99594136 -514.9216497 592.82205944 -510.98828125 590.28125 C-504.88902715 586.35088586 -498.59717146 582.75415316 -492.2421875 579.2578125 C-490.00874441 578.0049054 -487.81550208 576.70142859 -485.625 575.375 C-479.79407718 571.8472003 -473.88854221 568.45058054 -467.98242188 565.05078125 C-462.92891103 562.13668365 -457.92574316 559.16292829 -453.0078125 556.0234375 C-450.69566645 554.84487278 -448.55379297 554.4004205 -446 554 C-446 553.34 -446 552.68 -446 552 C-444.98292969 551.45472656 -444.98292969 551.45472656 -443.9453125 550.8984375 C-439.23818063 548.35580394 -434.57241547 545.7787348 -430 543 C-425.68622662 540.3804373 -421.28754318 537.96041362 -416.84765625 535.5625 C-411.8375597 532.81347583 -406.92437413 529.89892461 -402 527 C-396.16618147 523.56569552 -390.33196212 520.15476224 -384.375 516.9375 C-378.24821786 513.62620445 -372.25370989 510.09585818 -366.3984375 506.32421875 C-364 505 -364 505 -361 505 C-361 504.34 -361 503.68 -361 503 C-360.3915625 502.67128906 -359.783125 502.34257813 -359.15625 502.00390625 C-348.21905845 496.06887142 -337.32086413 490.05998494 -326.6875 483.59375 C-322.46379802 481.0889965 -318.16882165 478.71245934 -313.8828125 476.31640625 C-309.44003451 473.82677406 -305.0604087 471.25523192 -300.7109375 468.60546875 C-296.36849419 466.03379123 -291.95074665 463.59469801 -287.53125 461.15820312 C-284.86871455 459.67814665 -282.32162081 458.24151231 -279.8828125 456.41015625 C-277.48344871 454.61312238 -274.95169505 453.41985384 -272.25 452.125 C-268.49163352 450.28716798 -264.89143616 448.39200647 -261.375 446.125 C-258 444 -258 444 -256 444 C-256.00455664 443.37421505 -256.00911329 442.74843011 -256.01380801 442.10368198 C-256.28231289 405.0191054 -256.48822147 367.93467252 -256.61278395 330.84932303 C-256.62779253 326.39702426 -256.64332439 321.94472747 -256.65917969 317.49243164 C-256.66232741 316.60605523 -256.66547514 315.71967881 -256.66871825 314.80644251 C-256.72094243 300.45194335 -256.81556085 286.09802056 -256.92583355 271.7438634 C-257.03803083 257.01641395 -257.10470051 242.28926645 -257.12906194 227.56140715 C-257.14553278 218.47225108 -257.19755752 209.38472395 -257.2949976 200.29606933 C-257.358405 194.06455896 -257.37760794 187.83389124 -257.36201653 181.60208165 C-257.35432438 178.00524899 -257.36614834 174.41126259 -257.4304657 170.81493568 C-257.4997105 166.91458739 -257.47587041 163.01794606 -257.4430542 159.11705017 C-257.4780083 157.98182842 -257.51296239 156.84660666 -257.54897571 155.67698425 C-257.47375995 152.37620408 -257.29741949 150.04183562 -256 147 C-252.32136938 143.88551673 -248.39291184 141.93016022 -244 140 C-242.79032776 139.38669186 -241.58259799 138.76949525 -240.37890625 138.14453125 C-238.4833855 137.24803669 -236.58754609 136.35221564 -234.69140625 135.45703125 C-231.83123024 133.90863408 -229.5060609 132.06307033 -227 130 C-225.00934459 128.98152514 -223.00751815 127.98482022 -221 127 C-219.32638791 126.0116679 -217.66026356 125.01059521 -216 124 C-212.40131959 121.81508689 -208.76582718 119.88291359 -205 118 C-201.64000567 116.04391939 -198.32200231 114.01973809 -195 112 C-192.49910157 110.49713091 -189.99617672 108.99771318 -187.4921875 107.5 C-185.84599664 106.5091892 -184.20521487 105.5093288 -182.5703125 104.5 C-178.09578387 101.75524123 -173.58812813 99.25261696 -168.875 96.9375 C-164.86625086 94.96615061 -161.06195365 92.89808465 -157.3125 90.4765625 C-148.83386952 85.06284237 -140.14115688 80.00763895 -131.2734375 75.26171875 C-128.84032782 73.95647132 -128.84032782 73.95647132 -126.0625 72 C-123.14747759 70.09631189 -120.24767087 68.59459695 -117.125 67.0625 C-112.8860126 64.98220778 -108.8782432 62.774909 -104.91796875 60.2109375 C-102.8597977 58.91148124 -100.75945097 57.73216423 -98.625 56.5625 C-90.03767342 51.94551144 -90.03767342 51.94551144 -82.01953125 46.4453125 C-79.76911321 44.83476187 -77.57519255 43.99684873 -75 43 C-73.41806054 42.11730437 -71.85566492 41.19885513 -70.3125 40.25 C-69.44238281 39.71890625 -68.57226562 39.1878125 -67.67578125 38.640625 C-66.79277344 38.09921875 -65.90976563 37.5578125 -65 37 C-63.33447363 35.99810196 -61.6678243 34.99806808 -60 34 C-57.4488282 32.47170369 -54.90049243 30.93950058 -52.359375 29.39453125 C-47.97458705 26.73608946 -43.58732611 24.29366306 -39 22 C-34.81210666 19.56194321 -30.67640362 17.03637093 -26.5546875 14.48828125 C-21.07724334 11.13312655 -15.48429321 8.21223477 -9.71484375 5.390625 C-7.24705824 4.12655069 -2.63919467 0 0 0 Z " fill="#0081CB" transform="translate(2048,590)"/>
<path d="M0 0 C1.92691153 0.95647139 3.85302906 1.91454248 5.77880859 2.87329102 C6.85149994 3.40664566 7.92419128 3.94000031 9.02938843 4.48951721 C12.34096095 6.17337024 15.46669678 7.98255029 18.625 9.9375 C25.45760308 14.11110076 32.37326344 18.13153036 39.3125 22.125 C40.42641113 22.76622803 41.54032227 23.40745605 42.68798828 24.06811523 C44.98271468 25.38852337 47.2776385 26.70858846 49.57275391 28.02832031 C55.05155797 31.18025232 60.52561113 34.34040797 66 37.5 C68.16664226 38.7500423 70.33330897 40.00004224 72.5 41.25 C76.83333333 43.75 81.16666667 46.25 85.5 48.75 C86.57338623 49.3692334 87.64677246 49.9884668 88.75268555 50.62646484 C90.91049803 51.87141282 93.06821353 53.1165289 95.22583008 54.36181641 C100.77716592 57.56552651 106.33036541 60.7659363 111.88671875 63.9609375 C132.62364529 75.89231858 132.62364529 75.89231858 142.55859375 81.97265625 C145.39983483 83.64644072 148.25794716 85.24158096 151.15625 86.8125 C157.18709414 90.08238267 163.12767 93.4971247 169.0625 96.9375 C170.77881378 97.930067 172.49512879 98.92263187 174.21151733 99.91506958 C175.97734443 100.93630508 177.74284537 101.95810259 179.50830078 102.97998047 C185.00213976 106.15919985 190.5013764 109.32906583 196 112.5 C202.559477 116.2836283 209.11846593 120.06809512 215.67578125 123.85546875 C221.08306567 126.97839237 226.4925789 130.09742573 231.90332031 133.21435547 C234.95560194 134.97439866 238.0051821 136.73905855 241.0546875 138.50390625 C242.93216026 139.58616549 244.80975783 140.66820826 246.6875 141.75 C247.53030518 142.23944092 248.37311035 142.72888184 249.24145508 143.2331543 C252.64402782 145.18813366 255.95379754 146.98021341 259.56640625 148.52734375 C263.69048923 150.2961484 267.41500261 152.49624006 271.25 154.8125 C279.03679424 159.45597787 286.86837522 163.9807072 295 168 C295 168.66 295 169.32 295 170 C296.2065625 170.3403125 296.2065625 170.3403125 297.4375 170.6875 C304.23905966 173.19333777 310.23459372 177.12797155 316.375 180.9375 C322.14283284 184.51382526 328.01845943 187.79886973 334 191 C336.27875092 192.25594522 338.55181352 193.52168196 340.82421875 194.7890625 C342.28269946 195.60078426 343.7436769 196.40803511 345.20703125 197.2109375 C351.75809566 200.81344928 358.14650408 204.66418863 364.5390625 208.5390625 C368.49234828 210.9257211 372.45363862 213.27414567 376.5 215.5 C382.25684744 218.66677197 387.85839234 222.08620419 393.46875 225.50390625 C399.55067277 229.18962843 405.73505179 232.636103 412 236 C413.19542159 236.6443289 414.39072933 237.28886905 415.5859375 237.93359375 C418.72260972 239.62490766 421.86091048 241.31317606 425 243 C425 243.66 425 244.32 425 245 C425.9075 245.28875 426.815 245.5775 427.75 245.875 C430.32202908 246.76531776 432.61346766 247.71494413 435 249 C435 249.66 435 250.32 435 251 C435.73992187 251.11601563 436.47984375 251.23203125 437.2421875 251.3515625 C440.03373217 252.00793136 441.72396114 252.8422335 444.125 254.375 C449.19134359 257.52434872 454.33054729 260.52439302 459.5 263.5 C464.6301509 266.45865056 469.74965959 269.42695574 474.8125 272.5 C477.18844996 273.93947399 479.51151279 275.25575639 482 276.5 C486.4865215 278.74326075 490.71641764 281.39452207 495 284 C501.99192069 288.22324806 501.99192069 288.22324806 509.0625 292.3125 C512 294 512 294 513 295 C513.09702254 296.58469822 513.12371632 298.17374151 513.12304783 299.7614069 C513.12503888 300.79796643 513.12702993 301.83452597 513.12908131 302.9024964 C513.12616847 304.0551952 513.12325563 305.207894 513.12025452 306.39552307 C513.12110894 307.60919255 513.12196337 308.82286202 513.12284368 310.07330936 C513.12421191 313.45733876 513.1210643 316.84131104 513.11606562 320.22533357 C513.11176454 323.86884016 513.1132073 327.51234486 513.1139679 331.15585327 C513.11449335 337.47354619 513.11134433 343.79122881 513.10573006 350.10891914 C513.09761794 359.24334343 513.09500013 368.37776272 513.09374207 377.51219022 C513.09155109 392.3306394 513.08488978 407.14908309 513.07543945 421.9675293 C513.06626651 436.36596652 513.0591851 450.76440225 513.05493164 465.1628418 C513.05466892 466.04971676 513.05440619 466.93659172 513.05413551 467.85034169 C513.05283051 472.2993402 513.05156679 476.74833873 513.05032361 481.19733727 C513.03994958 518.13156206 513.02233003 555.0657806 513 592 C509.96450615 591.28955686 507.59054675 590.36066226 504.875 588.8125 C504.08738281 588.36390625 503.29976562 587.9153125 502.48828125 587.453125 C497.4103372 584.48766945 492.37870975 581.44760475 487.35546875 578.390625 C482.97388441 575.73671185 478.60522136 573.25144155 474 571 C470.64426547 569.18007075 467.40544045 567.27643667 464.25 565.125 C459.65737144 562.12212748 454.828915 559.59966693 450 557 C447.72147582 555.74365224 445.4481831 554.47831615 443.17578125 553.2109375 C441.71730054 552.39921574 440.2563231 551.59196489 438.79296875 550.7890625 C432.32502475 547.23225967 426.00828958 543.44457866 419.70703125 539.6015625 C413.83971357 536.04382548 407.88076936 532.67062268 401.89306641 529.3215332 C397.35848896 526.77974653 392.87751805 524.16657925 388.43359375 521.46875 C382.46816242 517.86842547 376.43598524 514.37443516 370.375 510.9375 C367.56205435 509.32266083 364.77845995 507.67291658 362 506 C354.71338766 501.5968967 354.71338766 501.5968967 347.1875 497.625 C342.6515936 495.31257713 338.34869912 492.6439576 334 490 C332.3340185 488.99885894 330.66736023 487.99884316 329 487 C326.4488282 485.47170369 323.90049243 483.93950058 321.359375 482.39453125 C320.49828125 481.87246094 319.6371875 481.35039063 318.75 480.8125 C317.98171875 480.34457031 317.2134375 479.87664062 316.421875 479.39453125 C314.73937771 478.42573845 313.02174798 477.51649613 311.28125 476.65625 C307.00487315 474.49769787 302.88773436 472.09886512 298.75 469.6875 C297.47866211 468.94947144 297.47866211 468.94947144 296.18164062 468.1965332 C291.93408958 465.72627701 287.70151833 463.23551757 283.5 460.6875 C277.15776033 456.84877599 270.64959589 453.27840542 264 450 C264 449.34 264 448.68 264 448 C262.7934375 447.6596875 262.7934375 447.6596875 261.5625 447.3125 C253.50609426 444.34435052 246.35653245 439.41301304 239.11328125 434.8671875 C236.13520956 433.0810918 233.11010677 431.54048126 230 430 C228.32260138 429.01810813 226.65532623 428.01866229 225 427 C222.35784488 425.39583439 219.76626055 423.88313027 217 422.5 C212.51338504 420.25669252 208.2841459 417.60471001 204 415 C202.3340185 413.99885894 200.66736023 412.99884316 199 412 C196.4488282 410.47170369 193.90049243 408.93950058 191.359375 407.39453125 C187.94554933 405.32477168 184.57212045 403.28606022 181 401.5 C175.66448037 398.83224018 170.62621584 395.62355516 165.5546875 392.48828125 C160.11528835 389.15643065 154.56362144 386.25416423 148.8359375 383.44921875 C145.66833482 381.8305127 142.68839949 380.03184177 139.71875 378.078125 C137.86753287 376.91690698 135.96715809 375.9490675 134 375 C134 374.34 134 373.68 134 373 C133.0925 372.71125 132.185 372.4225 131.25 372.125 C128.67797092 371.23468224 126.38653234 370.28505587 124 369 C124 368.34 124 367.68 124 367 C123.26910156 366.88914062 122.53820312 366.77828125 121.78515625 366.6640625 C118.85686927 365.96587346 116.97117801 364.97837661 114.4375 363.375 C110.59139655 360.98697159 106.72640137 358.65075217 102.8125 356.375 C101.80058594 355.78589844 100.78867187 355.19679688 99.74609375 354.58984375 C97.62732163 353.36318621 95.50462493 352.14512261 93.375 350.9375 C90.53645721 349.30796618 87.73602595 347.63408037 84.9375 345.9375 C82.31657789 344.35706426 79.73897066 342.86948533 77 341.5 C71.57980757 338.78990379 66.47026167 335.51657574 61.30859375 332.34765625 C60.01115234 331.55681641 60.01115234 331.55681641 58.6875 330.75 C57.90761719 330.27046875 57.12773438 329.7909375 56.32421875 329.296875 C53.94251056 327.96792186 51.5511747 326.95725493 49 326 C49 325.34 49 324.68 49 324 C47.7934375 323.6596875 47.7934375 323.6596875 46.5625 323.3125 C38.74845111 320.43363988 31.76832503 315.67323734 24.66601562 311.37768555 C20.06787257 308.60782425 15.41032848 305.98690476 10.66015625 303.484375 C9.78230469 302.99453125 8.90445313 302.5046875 8 302 C7.02190015 301.59351895 7.02190015 301.59351895 6.0240407 301.17882615 C3.60430138 300.00958985 1.88684681 298.92521772 0 297 C-1.20435961 293.06196021 -1.04558802 289.21468183 -0.96203613 285.12345886 C-0.96887153 283.90637169 -0.97570693 282.68928451 -0.98274946 281.43531591 C-0.9936528 278.05895963 -0.96865558 274.68631164 -0.92852497 271.31040394 C-0.8939796 267.66969537 -0.90566796 264.02910151 -0.91174316 260.38827515 C-0.91593827 254.08129412 -0.89083724 247.77497512 -0.84584045 241.46816063 C-0.78082583 232.3496831 -0.75998926 223.23152571 -0.74993652 214.11284152 C-0.73242703 199.31861716 -0.67918671 184.52474566 -0.60351562 169.73071289 C-0.53008439 155.3596371 -0.47345667 140.98865715 -0.43945312 126.61743164 C-0.43735134 125.73160757 -0.43524955 124.8457835 -0.43308407 123.93311628 C-0.42264378 119.48920089 -0.41253411 115.04528483 -0.40258884 110.60136831 C-0.31965368 73.73399639 -0.17874755 36.86702567 0 0 Z " fill="#00AFFE" transform="translate(767,1034)"/>
<path d="M0 0 C1.32 0 2.64 0 4 0 C4.22882603 37.73376447 4.40506431 75.46742454 4.51065329 113.2017423 C4.52316055 117.65532933 4.53610375 122.108915 4.54931641 126.5625 C4.55325106 127.89245809 4.55325106 127.89245809 4.55726521 129.24928401 C4.60079353 143.61083149 4.67964707 157.97197919 4.77152796 172.3332894 C4.86500226 187.06639511 4.92057893 201.79929127 4.94088495 216.53268135 C4.95461521 225.62622915 4.9979965 234.7186471 5.07916467 243.81184714 C5.1319747 250.04516386 5.14801291 256.27789547 5.13501377 262.51141973 C5.12859973 266.10981167 5.13851119 269.70622815 5.19205475 273.30426979 C5.24967395 277.20464826 5.22991023 281.10244633 5.20254517 285.00320435 C5.24623779 286.71040624 5.24623779 286.71040624 5.29081309 288.45209706 C5.23084877 291.60388125 5.08528494 294.03821467 4 297 C0.97877627 299.78314754 -2.28066309 301.32910903 -6 303 C-7.63717341 303.95867387 -9.26409334 304.93531634 -10.875 305.9375 C-18.20242104 310.32936582 -25.54050419 314.69790319 -33.0625 318.75 C-40.04131353 322.52039853 -46.88403537 326.52761313 -53.7421875 330.51171875 C-54.4856543 330.94274902 -55.22912109 331.3737793 -55.99511719 331.81787109 C-57.6439612 332.79007064 -59.26731182 333.80537838 -60.8828125 334.83203125 C-63 336 -63 336 -66 336 C-66 336.66 -66 337.32 -66 338 C-67.28913487 338.67154933 -68.58140204 339.33708859 -69.875 340 C-70.59429688 340.37125 -71.31359375 340.7425 -72.0546875 341.125 C-74 342 -74 342 -76 342 C-76 342.66 -76 343.32 -76 344 C-77.01707031 344.54527344 -77.01707031 344.54527344 -78.0546875 345.1015625 C-82.76181937 347.64419606 -87.42758453 350.2212652 -92 353 C-96.31377338 355.6195627 -100.71245682 358.03958638 -105.15234375 360.4375 C-110.1624403 363.18652417 -115.07562587 366.10107539 -120 369 C-125.83381853 372.43430448 -131.66803788 375.84523776 -137.625 379.0625 C-142.03017896 381.44230932 -146.32253709 383.96794445 -150.6015625 386.56640625 C-152.87736789 387.92670035 -155.17614521 389.22391833 -157.5 390.5 C-160.56490954 392.18436768 -163.57383453 393.93384937 -166.5625 395.75 C-171.67355284 398.84374181 -176.87843108 401.75628978 -182.09350586 404.66943359 C-185.97639599 406.8440735 -189.82046843 409.06469533 -193.625 411.375 C-202.90625 417 -202.90625 417 -206 417 C-206 417.66 -206 418.32 -206 419 C-207.01707031 419.54527344 -207.01707031 419.54527344 -208.0546875 420.1015625 C-212.76181937 422.64419606 -217.42758453 425.2212652 -222 428 C-226.30038795 430.61143432 -230.6828615 433.0274626 -235.11328125 435.41015625 C-239.32563232 437.73008438 -243.44451193 440.20333486 -247.56640625 442.6796875 C-250 444 -250 444 -252 444 C-252 345.66 -252 247.32 -252 146 C-250.35 145.67 -248.7 145.34 -247 145 C-247 144.34 -247 143.68 -247 143 C-246.32195312 142.63648438 -245.64390625 142.27296875 -244.9453125 141.8984375 C-238.5228631 138.42924738 -232.23222141 134.79868734 -226 131 C-219.10175492 126.79535538 -212.11048691 122.8343959 -205 119 C-198.77523514 115.63526224 -192.71390065 112.0350476 -186.66040039 108.37451172 C-182.03039511 105.58686392 -177.33138983 102.9644408 -172.5703125 100.40625 C-165.04462475 96.32213619 -165.04462475 96.32213619 -158.02734375 91.44921875 C-155.77464535 89.83890834 -153.57714031 88.99489603 -151 88 C-149.54340709 87.17881546 -148.10645067 86.32213887 -146.6875 85.4375 C-142.18172669 82.68284935 -137.61051613 80.07329881 -133 77.5 C-127.68472749 74.5295552 -122.42677855 71.49056326 -117.22265625 68.328125 C-115.00579012 67.00345983 -112.76312973 65.74373738 -110.5 64.5 C-104.74315256 61.33322803 -99.14160766 57.91379581 -93.53125 54.49609375 C-89.34104647 51.95677737 -85.12945634 49.50562892 -80.8125 47.1875 C-76.30477714 44.76173388 -71.93097582 42.16412303 -67.5625 39.5 C-62.04173331 36.13410643 -56.45259693 33.12284983 -50.5859375 30.38671875 C-47.91701996 29.05780218 -47.91701996 29.05780218 -45.5390625 27.01953125 C-42.81982611 24.85669246 -40.12804336 23.49776659 -37 22 C-35.09496544 20.91178524 -33.19921593 19.80717453 -31.3125 18.6875 C-27.28781275 16.31768415 -23.23886855 14.0237745 -19.125 11.8125 C-15.26423796 9.727246 -11.62768309 7.47342029 -8 5 C-6.73490071 4.26092952 -5.46387962 3.53191397 -4.1875 2.8125 C-1.22724111 1.31562661 -1.22724111 1.31562661 0 0 Z " fill="#0080CB" transform="translate(2044,0)"/>
</svg>
