<?xml version="1.0" encoding="UTF-8"?>
<svg version="1.1" xmlns="http://www.w3.org/2000/svg" width="688" height="413">
<path d="M0 0 C227.04 0 454.08 0 688 0 C688 136.29 688 272.58 688 413 C460.96 413 233.92 413 0 413 C0 276.71 0 140.42 0 0 Z " fill="#1C1C1C" transform="translate(0,0)"/>
<path d="M0 0 C9.9 0 19.8 0 30 0 C30 2.64 30 5.28 30 8 C32.64 8 35.28 8 38 8 C38 12.62 38 17.24 38 22 C38.66 22 39.32 22 40 22 C40 24.64 40 27.28 40 30 C42.64 30 45.28 30 48 30 C48 34.62 48 39.24 48 44 C48.66 44 49.32 44 50 44 C50 46.64 50 49.28 50 52 C52.64 52 55.28 52 58 52 C58 56.62 58 61.24 58 66 C58.66 66 59.32 66 60 66 C60 68.64 60 71.28 60 74 C62.64 74 65.28 74 68 74 C68 78.62 68 83.24 68 88 C68.66 88 69.32 88 70 88 C70 58.96 70 29.92 70 0 C76.6 0 83.2 0 90 0 C90 2.64 90 5.28 90 8 C92.64 8 95.28 8 98 8 C98 46.28 98 84.56 98 124 C82.82 124 67.64 124 52 124 C52 119.38 52 114.76 52 110 C51.34 110 50.68 110 50 110 C50 107.36 50 104.72 50 102 C47.36 102 44.72 102 42 102 C42 97.38 42 92.76 42 88 C41.34 88 40.68 88 40 88 C40 85.36 40 82.72 40 80 C37.36 80 34.72 80 32 80 C32 75.38 32 70.76 32 66 C31.34 66 30.68 66 30 66 C30 63.36 30 60.72 30 58 C29.34 58 28.68 58 28 58 C28 79.78 28 101.56 28 124 C19.42 124 10.84 124 2 124 C2 119.38 2 114.76 2 110 C1.34 110 0.68 110 0 110 C0 73.7 0 37.4 0 0 Z " fill="#C7C7C7" transform="translate(53,144)"/>
<path d="M0 0 C23.1 0 46.2 0 70 0 C70 2.64 70 5.28 70 8 C72.64 8 75.28 8 78 8 C78 17.24 78 26.48 78 36 C61.5 36 45 36 28 36 C28 38.64 28 41.28 28 44 C41.86 44 55.72 44 70 44 C70 46.64 70 49.28 70 52 C72.64 52 75.28 52 78 52 C78 75.76 78 99.52 78 124 C52.92 124 27.84 124 2 124 C2 119.38 2 114.76 2 110 C1.34 110 0.68 110 0 110 C0 102.74 0 95.48 0 88 C16.5 88 33 88 50 88 C50 85.36 50 82.72 50 80 C34.16 80 18.32 80 2 80 C2 75.38 2 70.76 2 66 C1.34 66 0.68 66 0 66 C0 44.22 0 22.44 0 0 Z " fill="#CCCCCC" transform="translate(563,144)"/>
<path d="M0 0 C23.1 0 46.2 0 70 0 C70 2.64 70 5.28 70 8 C72.64 8 75.28 8 78 8 C78 17.24 78 26.48 78 36 C61.5 36 45 36 28 36 C28 38.64 28 41.28 28 44 C41.86 44 55.72 44 70 44 C70 46.64 70 49.28 70 52 C72.64 52 75.28 52 78 52 C78 75.76 78 99.52 78 124 C52.92 124 27.84 124 2 124 C2 119.38 2 114.76 2 110 C1.34 110 0.68 110 0 110 C0 102.74 0 95.48 0 88 C16.5 88 33 88 50 88 C50 85.36 50 82.72 50 80 C34.16 80 18.32 80 2 80 C2 75.38 2 70.76 2 66 C1.34 66 0.68 66 0 66 C0 44.22 0 22.44 0 0 Z " fill="#CDCDCD" transform="translate(403,144)"/>
<path d="M0 0 C19.8 0 39.6 0 60 0 C60 2.64 60 5.28 60 8 C62.64 8 65.28 8 68 8 C68 12.62 68 17.24 68 22 C68.66 22 69.32 22 70 22 C70 24.64 70 27.28 70 30 C72.64 30 75.28 30 78 30 C78 39.24 78 48.48 78 58 C74.7 58 71.4 58 68 58 C68 60.64 68 63.28 68 66 C68.66 66 69.32 66 70 66 C70 68.64 70 71.28 70 74 C72.64 74 75.28 74 78 74 C78 90.5 78 107 78 124 C69.42 124 60.84 124 52 124 C52 119.38 52 114.76 52 110 C51.34 110 50.68 110 50 110 C50 100.1 50 90.2 50 80 C42.74 80 35.48 80 28 80 C28 94.52 28 109.04 28 124 C19.42 124 10.84 124 2 124 C2 119.38 2 114.76 2 110 C1.34 110 0.68 110 0 110 C0 73.7 0 37.4 0 0 Z " fill="#CACACA" transform="translate(323,144)"/>
<path d="M0 0 C23.1 0 46.2 0 70 0 C70 2.64 70 5.28 70 8 C72.64 8 75.28 8 78 8 C78 17.24 78 26.48 78 36 C61.5 36 45 36 28 36 C28 38.64 28 41.28 28 44 C35.26 44 42.52 44 50 44 C50 46.64 50 49.28 50 52 C52.64 52 55.28 52 58 52 C58 61.24 58 70.48 58 80 C48.1 80 38.2 80 28 80 C28 82.64 28 85.28 28 88 C41.86 88 55.72 88 70 88 C70 90.64 70 93.28 70 96 C72.64 96 75.28 96 78 96 C78 105.24 78 114.48 78 124 C52.92 124 27.84 124 2 124 C2 119.38 2 114.76 2 110 C1.34 110 0.68 110 0 110 C0 73.7 0 37.4 0 0 Z " fill="#CCCCCC" transform="translate(483,144)"/>
<path d="M0 0 C6.6 0 13.2 0 20 0 C20 2.64 20 5.28 20 8 C22.64 8 25.28 8 28 8 C28 34.4 28 60.8 28 88 C38.56 88 49.12 88 60 88 C60 58.96 60 29.92 60 0 C66.6 0 73.2 0 80 0 C80 2.64 80 5.28 80 8 C82.64 8 85.28 8 88 8 C88 39.02 88 70.04 88 102 C84.7 102 81.4 102 78 102 C78 109.26 78 116.52 78 124 C56.22 124 34.44 124 12 124 C12 119.38 12 114.76 12 110 C11.34 110 10.68 110 10 110 C10 107.36 10 104.72 10 102 C7.36 102 4.72 102 2 102 C2 97.38 2 92.76 2 88 C1.34 88 0.68 88 0 88 C0 58.96 0 29.92 0 0 Z " fill="#C5C5C5" transform="translate(233,144)"/>
<path d="M0 0 C19.8 0 39.6 0 60 0 C60 2.64 60 5.28 60 8 C62.64 8 65.28 8 68 8 C68 17.24 68 26.48 68 36 C51.5 36 35 36 18 36 C18 53.16 18 70.32 18 88 C31.86 88 45.72 88 60 88 C60 90.64 60 93.28 60 96 C62.64 96 65.28 96 68 96 C68 105.24 68 114.48 68 124 C46.22 124 24.44 124 2 124 C2 119.38 2 114.76 2 110 C1.34 110 0.68 110 0 110 C0 107.36 0 104.72 0 102 C-2.64 102 -5.28 102 -8 102 C-8 97.38 -8 92.76 -8 88 C-8.66 88 -9.32 88 -10 88 C-10 66.22 -10 44.44 -10 22 C-6.7 22 -3.4 22 0 22 C0 14.74 0 7.48 0 0 Z " fill="#CBCBCB" transform="translate(163,144)"/>
<path d="M0 0 C0.33 0 0.66 0 1 0 C1 21.78 1 43.56 1 66 C1.66 66 2.32 66 3 66 C3 70.62 3 75.24 3 80 C18.84 80 34.68 80 51 80 C51 82.64 51 85.28 51 88 C34.5 88 18 88 1 88 C1 95.26 1 102.52 1 110 C0.67 110 0.34 110 0 110 C-0.61321066 97.9934657 -1.184693 86.02556648 -1 74 C-3.64 74 -6.28 74 -9 74 C-9 71.36 -9 68.72 -9 66 C-9.66 66 -10.32 66 -11 66 C-11 63.36 -11 60.72 -11 58 C-6.05 57.505 -6.05 57.505 -1 57 C-0.67 38.19 -0.34 19.38 0 0 Z " fill="#262626" transform="translate(402,144)"/>
<path d="M0 0 C0.66 0 1.32 0 2 0 C2 27.06 2 54.12 2 82 C-1.3 82 -4.6 82 -8 82 C-8 89.26 -8 96.52 -8 104 C-25.82 104 -43.64 104 -62 104 C-62 101.36 -62 98.72 -62 96 C-44.84 96 -27.68 96 -10 96 C-10 88.74 -10 81.48 -10 74 C-6.7 74 -3.4 74 0 74 C0 49.58 0 25.16 0 0 Z " fill="#1C1C1C" transform="translate(313,158)"/>
<path d="M0 0 C0.66 0 1.32 0 2 0 C2 19.8 2 39.6 2 60 C-19.12 60 -40.24 60 -62 60 C-62 57.36 -62 54.72 -62 52 C-41.54 52 -21.08 52 0 52 C0 34.84 0 17.68 0 0 Z " fill="#232323" transform="translate(633,202)"/>
<path d="M0 0 C0.66 0 1.32 0 2 0 C2 19.8 2 39.6 2 60 C-19.12 60 -40.24 60 -62 60 C-62 57.36 -62 54.72 -62 52 C-41.54 52 -21.08 52 0 52 C0 34.84 0 17.68 0 0 Z " fill="#232323" transform="translate(473,202)"/>
<path d="M0 0 C0.66 0 1.32 0 2 0 C2 5.28 2 10.56 2 16 C-14.5 16 -31 16 -48 16 C-48 35.14 -48 54.28 -48 74 C-48.66 74 -49.32 74 -50 74 C-50 52.22 -50 30.44 -50 8 C-33.5 8 -17 8 0 8 C0 5.36 0 2.72 0 0 Z " fill="#252525" transform="translate(223,158)"/>
<path d="M0 0 C0.66 0 1.32 0 2 0 C2 5.28 2 10.56 2 16 C-19.12 16 -40.24 16 -62 16 C-62 13.36 -62 10.72 -62 8 C-41.54 8 -21.08 8 0 8 C0 5.36 0 2.72 0 0 Z " fill="#1E1E1E" transform="translate(553,246)"/>
<path d="M0 0 C0.66 0 1.32 0 2 0 C2 34.32 2 68.64 2 104 C-9.22 104 -20.44 104 -32 104 C-32 101.36 -32 98.72 -32 96 C-21.44 96 -10.88 96 0 96 C0 64.32 0 32.64 0 0 Z " fill="#2C2C2C" transform="translate(143,158)"/>
<path d="M0 0 C0.66 0 1.32 0 2 0 C2 5.28 2 10.56 2 16 C-14.5 16 -31 16 -48 16 C-48 20.62 -48 25.24 -48 30 C-48.66 30 -49.32 30 -50 30 C-50 22.74 -50 15.48 -50 8 C-33.5 8 -17 8 0 8 C0 5.36 0 2.72 0 0 Z " fill="#202020" transform="translate(633,158)"/>
<path d="M0 0 C0.66 0 1.32 0 2 0 C2 5.28 2 10.56 2 16 C-14.5 16 -31 16 -48 16 C-48 20.62 -48 25.24 -48 30 C-48.66 30 -49.32 30 -50 30 C-50 22.74 -50 15.48 -50 8 C-33.5 8 -17 8 0 8 C0 5.36 0 2.72 0 0 Z " fill="#202020" transform="translate(553,158)"/>
<path d="M0 0 C0.66 0 1.32 0 2 0 C2 5.28 2 10.56 2 16 C-14.5 16 -31 16 -48 16 C-48 20.62 -48 25.24 -48 30 C-48.66 30 -49.32 30 -50 30 C-50 22.74 -50 15.48 -50 8 C-33.5 8 -17 8 0 8 C0 5.36 0 2.72 0 0 Z " fill="#202020" transform="translate(473,158)"/>
<path d="M0 0 C0.66 0 1.32 0 2 0 C2 5.28 2 10.56 2 16 C-15.82 16 -33.64 16 -52 16 C-52 13.36 -52 10.72 -52 8 C-34.84 8 -17.68 8 0 8 C0 5.36 0 2.72 0 0 Z " fill="#1E1E1E" transform="translate(223,246)"/>
<path d="M0 0 C9.9 0 19.8 0 30 0 C30 2.64 30 5.28 30 8 C20.76 8 11.52 8 2 8 C2 22.52 2 37.04 2 52 C-2.62 52 -7.24 52 -12 52 C-12 49.36 -12 46.72 -12 44 C-8.04 44 -4.08 44 0 44 C0 29.48 0 14.96 0 0 Z " fill="#282828" transform="translate(343,210)"/>
<path d="M0 0 C1.98 0 3.96 0 6 0 C6 29.7 6 59.4 6 90 C2.7 90 -0.6 90 -4 90 C-4 97.26 -4 104.52 -4 112 C-24.46 112 -44.92 112 -66 112 C-66 108.04 -66 104.08 -66 100 C-65.34 100 -64.68 100 -64 100 C-64 103.3 -64 106.6 -64 110 C-44.86 110 -25.72 110 -6 110 C-6 102.74 -6 95.48 -6 88 C-2.7 88 0.6 88 4 88 C4 59.62 4 31.24 4 2 C2.68 2 1.36 2 0 2 C0 1.34 0 0.68 0 0 Z " fill="#212121" transform="translate(313,154)"/>
<path d="M0 0 C13.86 0 27.72 0 42 0 C42 2.64 42 5.28 42 8 C28.14 8 14.28 8 0 8 C0 5.36 0 2.72 0 0 Z " fill="#1D1D1D" transform="translate(571,210)"/>
<path d="M0 0 C13.86 0 27.72 0 42 0 C42 2.64 42 5.28 42 8 C28.14 8 14.28 8 0 8 C0 5.36 0 2.72 0 0 Z " fill="#1D1D1D" transform="translate(411,210)"/>
<path d="M0 0 C1.98 0 3.96 0 6 0 C6 36.96 6 73.92 6 112 C-7.86 112 -21.72 112 -36 112 C-36 108.04 -36 104.08 -36 100 C-35.34 100 -34.68 100 -34 100 C-34 103.3 -34 106.6 -34 110 C-21.46 110 -8.92 110 4 110 C4 74.36 4 38.72 4 2 C2.68 2 1.36 2 0 2 C0 1.34 0 0.68 0 0 Z " fill="#3E3E3E" transform="translate(143,154)"/>
<path d="M0 0 C3.3 0 6.6 0 10 0 C10 2.64 10 5.28 10 8 C7.36 8 4.72 8 2 8 C2 29.78 2 51.56 2 74 C-2.62 74 -7.24 74 -12 74 C-12 71.36 -12 68.72 -12 66 C-8.04 66 -4.08 66 0 66 C0 44.22 0 22.44 0 0 Z " fill="#1C1C1C" transform="translate(73,188)"/>
<path d="M0 0 C1.98 0 3.96 0 6 0 C6 22.44 6 44.88 6 68 C-17.76 68 -41.52 68 -66 68 C-66 64.04 -66 60.08 -66 56 C-65.34 56 -64.68 56 -64 56 C-64 59.3 -64 62.6 -64 66 C-41.56 66 -19.12 66 4 66 C4 44.88 4 23.76 4 2 C2.68 2 1.36 2 0 2 C0 1.34 0 0.68 0 0 Z " fill="#303030" transform="translate(633,198)"/>
<path d="M0 0 C1.98 0 3.96 0 6 0 C6 22.44 6 44.88 6 68 C-17.76 68 -41.52 68 -66 68 C-66 64.04 -66 60.08 -66 56 C-65.34 56 -64.68 56 -64 56 C-64 59.3 -64 62.6 -64 66 C-41.56 66 -19.12 66 4 66 C4 44.88 4 23.76 4 2 C2.68 2 1.36 2 0 2 C0 1.34 0 0.68 0 0 Z " fill="#2E2E2E" transform="translate(473,198)"/>
<path d="M0 0 C0.66 0 1.32 0 2 0 C2 5.28 2 10.56 2 16 C-7.9 16 -17.8 16 -28 16 C-28 20.62 -28 25.24 -28 30 C-28.66 30 -29.32 30 -30 30 C-30 22.74 -30 15.48 -30 8 C-20.1 8 -10.2 8 0 8 C0 5.36 0 2.72 0 0 Z " fill="#232323" transform="translate(533,202)"/>
<path d="M0 0 C0.66 0 1.32 0 2 0 C2 27.06 2 54.12 2 82 C-1.3 82 -4.6 82 -8 82 C-8 89.26 -8 96.52 -8 104 C-8.33 104 -8.66 104 -9 104 C-9.87686585 97.26815587 -10.12387197 90.7214632 -10.0625 83.9375 C-10.05573242 82.49600586 -10.05573242 82.49600586 -10.04882812 81.02539062 C-10.03717726 78.68356617 -10.01924746 76.34177434 -10 74 C-6.7 74 -3.4 74 0 74 C0 49.58 0 25.16 0 0 Z " fill="#363636" transform="translate(313,158)"/>
<path d="M0 0 C9.9 0 19.8 0 30 0 C30 2.64 30 5.28 30 8 C20.76 8 11.52 8 2 8 C2 12.62 2 17.24 2 22 C1.34 22 0.68 22 0 22 C0 14.74 0 7.48 0 0 Z " fill="#222222" transform="translate(343,166)"/>
<path d="M0 0 C1.98 0 3.96 0 6 0 C6 7.92 6 15.84 6 24 C-10.5 24 -27 24 -44 24 C-44 41.82 -44 59.64 -44 78 C-44.66 78 -45.32 78 -46 78 C-46 59.52 -46 41.04 -46 22 C-29.5 22 -13 22 4 22 C4 15.4 4 8.8 4 2 C2.68 2 1.36 2 0 2 C0 1.34 0 0.68 0 0 Z " fill="#282828" transform="translate(223,154)"/>
<path d="M0 0 C0.33 0 0.66 0 1 0 C1 23.76 1 47.52 1 72 C-24.08 72 -49.16 72 -75 72 C-74.67 67.38 -74.34 62.76 -74 58 C-73.67 58 -73.34 58 -73 58 C-73 61.96 -73 65.92 -73 70 C-37.36 69.505 -37.36 69.505 -1 69 C-0.67 46.23 -0.34 23.46 0 0 Z " fill="#B5B5B5" transform="translate(480,196)"/>
<path d="M0 0 C1.98 0 3.96 0 6 0 C6 7.92 6 15.84 6 24 C-17.76 24 -41.52 24 -66 24 C-66 20.04 -66 16.08 -66 12 C-65.34 12 -64.68 12 -64 12 C-64 15.3 -64 18.6 -64 22 C-41.56 22 -19.12 22 4 22 C4 15.4 4 8.8 4 2 C2.68 2 1.36 2 0 2 C0 1.34 0 0.68 0 0 Z " fill="#272727" transform="translate(553,242)"/>
<path d="M0 0 C1.98 0 3.96 0 6 0 C6 0.66 6 1.32 6 2 C4.68 2 3.36 2 2 2 C2 23.78 2 45.56 2 68 C-5.26 68 -12.52 68 -20 68 C-20 64.04 -20 60.08 -20 56 C-19.34 56 -18.68 56 -18 56 C-18 59.3 -18 62.6 -18 66 C-12.06 66 -6.12 66 0 66 C0 44.22 0 22.44 0 0 Z " fill="#3E3E3E" transform="translate(77,198)"/>
<path d="M0 0 C8.58 0 17.16 0 26 0 C26 0.66 26 1.32 26 2 C18.08 2 10.16 2 2 2 C2 16.52 2 31.04 2 46 C-5.26 46 -12.52 46 -20 46 C-20 42.04 -20 38.08 -20 34 C-19.34 34 -18.68 34 -18 34 C-18 37.3 -18 40.6 -18 44 C-12.06 44 -6.12 44 0 44 C0 29.48 0 14.96 0 0 Z " fill="#303030" transform="translate(347,220)"/>
<path d="M0 0 C1.98 0 3.96 0 6 0 C6 7.92 6 15.84 6 24 C-14.46 24 -34.92 24 -56 24 C-56 20.04 -56 16.08 -56 12 C-55.34 12 -54.68 12 -54 12 C-54 15.3 -54 18.6 -54 22 C-34.86 22 -15.72 22 4 22 C4 15.4 4 8.8 4 2 C2.68 2 1.36 2 0 2 C0 1.34 0 0.68 0 0 Z " fill="#282828" transform="translate(223,242)"/>
<path d="M0 0 C1.98 0 3.96 0 6 0 C6 29.7 6 59.4 6 90 C4.35 90 2.7 90 1 90 C1 89.34 1 88.68 1 88 C1.99 88 2.98 88 4 88 C4 59.62 4 31.24 4 2 C2.68 2 1.36 2 0 2 C0 1.34 0 0.68 0 0 Z " fill="#3C3C3C" transform="translate(313,154)"/>
<path d="M0 0 C0.33 0 0.66 0 1 0 C1 9.24 1 18.48 1 28 C-15.5 28 -32 28 -49 28 C-49 45.16 -49 62.32 -49 80 C-49.33 80 -49.66 80 -50 80 C-50.33 62.18 -50.66 44.36 -51 26 C-34.5 26 -18 26 -1 26 C-0.67 17.42 -0.34 8.84 0 0 Z " fill="#B0B0B0" transform="translate(230,152)"/>
<path d="M0 0 C7.26 0 14.52 0 22 0 C22 2.64 22 5.28 22 8 C14.74 8 7.48 8 0 8 C0 5.36 0 2.72 0 0 Z " fill="#1F1F1F" transform="translate(351,180)"/>
<path d="M0 0 C1.98 0 3.96 0 6 0 C6 7.92 6 15.84 6 24 C-10.5 24 -27 24 -44 24 C-44 27.3 -44 30.6 -44 34 C-44.66 34 -45.32 34 -46 34 C-46 30.04 -46 26.08 -46 22 C-29.5 22 -13 22 4 22 C4 15.4 4 8.8 4 2 C2.68 2 1.36 2 0 2 C0 1.34 0 0.68 0 0 Z " fill="#1C1C1C" transform="translate(633,154)"/>
<path d="M0 0 C1.98 0 3.96 0 6 0 C6 7.92 6 15.84 6 24 C-10.5 24 -27 24 -44 24 C-44 27.3 -44 30.6 -44 34 C-44.66 34 -45.32 34 -46 34 C-46 30.04 -46 26.08 -46 22 C-29.5 22 -13 22 4 22 C4 15.4 4 8.8 4 2 C2.68 2 1.36 2 0 2 C0 1.34 0 0.68 0 0 Z " fill="#1C1C1C" transform="translate(553,154)"/>
<path d="M0 0 C1.98 0 3.96 0 6 0 C6 7.92 6 15.84 6 24 C-10.5 24 -27 24 -44 24 C-44 27.3 -44 30.6 -44 34 C-44.66 34 -45.32 34 -46 34 C-46 30.04 -46 26.08 -46 22 C-29.5 22 -13 22 4 22 C4 15.4 4 8.8 4 2 C2.68 2 1.36 2 0 2 C0 1.34 0 0.68 0 0 Z " fill="#1C1C1C" transform="translate(473,154)"/>
<path d="M0 0 C0.66 0 1.32 0 2 0 C2 12.54 2 25.08 2 38 C-2.62 38 -7.24 38 -12 38 C-12 35.36 -12 32.72 -12 30 C-8.04 30 -4.08 30 0 30 C0 20.1 0 10.2 0 0 Z " fill="#2B2B2B" transform="translate(393,224)"/>
<path d="M0 0 C1.98 0 3.96 0 6 0 C6 25.74 6 51.48 6 78 C5.34 78 4.68 78 4 78 C4 52.92 4 27.84 4 2 C2.68 2 1.36 2 0 2 C0 1.34 0 0.68 0 0 Z " fill="#3E3E3E" transform="translate(253,154)"/>
<path d="M0 0 C1.98 0 3.96 0 6 0 C6 15.18 6 30.36 6 46 C-1.26 46 -8.52 46 -16 46 C-16 42.04 -16 38.08 -16 34 C-15.34 34 -14.68 34 -14 34 C-14 37.3 -14 40.6 -14 44 C-8.06 44 -2.12 44 4 44 C4 30.14 4 16.28 4 2 C2.68 2 1.36 2 0 2 C0 1.34 0 0.68 0 0 Z " fill="#353535" transform="translate(393,220)"/>
<path d="M0 0 C3.3 0 6.6 0 10 0 C10 2.64 10 5.28 10 8 C7.36 8 4.72 8 2 8 C2 29.78 2 51.56 2 74 C1.67 74 1.34 74 1 74 C0.67 49.58 0.34 25.16 0 0 Z " fill="#404040" transform="translate(73,188)"/>
<path d="M0 0 C0.33 0 0.66 0 1 0 C1 7.26 1 14.52 1 22 C-18.14 22 -37.28 22 -57 22 C-56.67 18.7 -56.34 15.4 -56 12 C-55.67 12 -55.34 12 -55 12 C-55 14.64 -55 17.28 -55 20 C-28.27 19.505 -28.27 19.505 -1 19 C-0.67 12.73 -0.34 6.46 0 0 Z " fill="#C0C0C0" transform="translate(306,242)"/>
<path d="M0 0 C0.66 0 1.32 0 2 0 C2 5.28 2 10.56 2 16 C-1.3 16 -4.6 16 -8 16 C-8 20.62 -8 25.24 -8 30 C-8.66 30 -9.32 30 -10 30 C-10 22.74 -10 15.48 -10 8 C-6.7 8 -3.4 8 0 8 C0 5.36 0 2.72 0 0 Z " fill="#2B2B2B" transform="translate(393,180)"/>
<path d="M0 0 C0.33 0 0.66 0 1 0 C1 13.2 1 26.4 1 40 C-3.29 40 -7.58 40 -12 40 C-12 37.36 -12 34.72 -12 32 C-8.04 32 -4.08 32 0 32 C0 21.44 0 10.88 0 0 Z " fill="#1C1C1C" transform="translate(343,222)"/>
<path d="M0 0 C1.98 0 3.96 0 6 0 C6 7.92 6 15.84 6 24 C-3.9 24 -13.8 24 -24 24 C-24 27.3 -24 30.6 -24 34 C-24.66 34 -25.32 34 -26 34 C-26 30.04 -26 26.08 -26 22 C-16.1 22 -6.2 22 4 22 C4 15.4 4 8.8 4 2 C2.68 2 1.36 2 0 2 C0 1.34 0 0.68 0 0 Z " fill="#262626" transform="translate(533,198)"/>
<path d="M0 0 C0.33 0 0.66 0 1 0 C1 6.6 1 13.2 1 20 C-15.5 20 -32 20 -49 20 C-49 23.96 -49 27.92 -49 32 C-49.33 32 -49.66 32 -50 32 C-50.33 27.38 -50.66 22.76 -51 18 C-34.5 17.67 -18 17.34 -1 17 C-0.67 11.39 -0.34 5.78 0 0 Z " fill="#BEBEBE" transform="translate(636,156)"/>
<path d="M0 0 C0.33 0 0.66 0 1 0 C1 6.6 1 13.2 1 20 C-15.5 20 -32 20 -49 20 C-49 23.96 -49 27.92 -49 32 C-49.33 32 -49.66 32 -50 32 C-50.33 27.38 -50.66 22.76 -51 18 C-34.5 17.67 -18 17.34 -1 17 C-0.67 11.39 -0.34 5.78 0 0 Z " fill="#BEBEBE" transform="translate(476,156)"/>
<path d="M0 0 C1.98 0 3.96 0 6 0 C6.33 0.66 6.66 1.32 7 2 C5.35 2 3.7 2 2 2 C2 19.82 2 37.64 2 56 C1.34 56 0.68 56 0 56 C0 37.52 0 19.04 0 0 Z " fill="#3C3C3C" transform="translate(177,176)"/>
<path d="M0 0 C0.66 0 1.32 0 2 0 C2 3.3 2 6.6 2 10 C16.52 10 31.04 10 46 10 C46 10.66 46 11.32 46 12 C30.82 12 15.64 12 0 12 C0 8.04 0 4.08 0 0 Z " fill="#242424" transform="translate(567,210)"/>
<path d="M0 0 C0.66 0 1.32 0 2 0 C2 3.3 2 6.6 2 10 C16.52 10 31.04 10 46 10 C46 10.66 46 11.32 46 12 C30.82 12 15.64 12 0 12 C0 8.04 0 4.08 0 0 Z " fill="#242424" transform="translate(407,210)"/>
<path d="M0 0 C0.66 0 1.32 0 2 0 C2 3.3 2 6.6 2 10 C14.54 10 27.08 10 40 10 C40.495 10.99 40.495 10.99 41 12 C27.47 12 13.94 12 0 12 C0 8.04 0 4.08 0 0 Z " fill="#1C1C1C" transform="translate(107,254)"/>
<path d="M0 0 C0.33 0 0.66 0 1 0 C1 14.52 1 29.04 1 44 C-7.58 44 -16.16 44 -25 44 C-25 43.34 -25 42.68 -25 42 C-17.08 42 -9.16 42 -1 42 C-0.67 28.14 -0.34 14.28 0 0 Z " fill="#AFAFAF" transform="translate(350,224)"/>
<path d="M0 0 C1.98 0 3.96 0 6 0 C6 7.92 6 15.84 6 24 C2.7 24 -0.6 24 -4 24 C-4 27.3 -4 30.6 -4 34 C-4.66 34 -5.32 34 -6 34 C-6 30.04 -6 26.08 -6 22 C-2.7 22 0.6 22 4 22 C4 15.4 4 8.8 4 2 C2.68 2 1.36 2 0 2 C0 1.34 0 0.68 0 0 Z " fill="#353535" transform="translate(393,176)"/>
<path d="M0 0 C8.58 0 17.16 0 26 0 C26 0.66 26 1.32 26 2 C18.08 2 10.16 2 2 2 C2 5.3 2 8.6 2 12 C1.34 12 0.68 12 0 12 C0 8.04 0 4.08 0 0 Z " fill="#202020" transform="translate(347,176)"/>
<path d="M0 0 C0.66 0 1.32 0 2 0 C2 3.3 2 6.6 2 10 C11.405 9.505 11.405 9.505 21 9 C21 9.99 21 10.98 21 12 C14.07 12 7.14 12 0 12 C0 8.04 0 4.08 0 0 Z " fill="#272727" transform="translate(57,254)"/>
<path d="M0 0 C1.98 0 3.96 0 6 0 C6 7.92 6 15.84 6 24 C4.35 24 2.7 24 1 24 C1.33 23.34 1.66 22.68 2 22 C2.66 22 3.32 22 4 22 C4 15.4 4 8.8 4 2 C2.68 2 1.36 2 0 2 C0 1.34 0 0.68 0 0 Z " fill="#373737" transform="translate(533,198)"/>
<path d="M0 0 C0.66 0 1.32 0 2 0 C2 3.3 2 6.6 2 10 C8.27 10 14.54 10 21 10 C19 12 19 12 17.02880859 12.22705078 C16.24328613 12.21657715 15.45776367 12.20610352 14.6484375 12.1953125 C13.79765625 12.18886719 12.946875 12.18242187 12.0703125 12.17578125 C10.73613281 12.15064453 10.73613281 12.15064453 9.375 12.125 C8.02921875 12.11146484 8.02921875 12.11146484 6.65625 12.09765625 C4.43738678 12.07405132 2.2186603 12.03817962 0 12 C0 8.04 0 4.08 0 0 Z " fill="#282828" transform="translate(567,254)"/>
<path d="M0 0 C2.31 0 4.62 0 7 0 C7 0.66 7 1.32 7 2 C5.35 2 3.7 2 2 2 C2 9.26 2 16.52 2 24 C1.34 23.67 0.68 23.34 0 23 C0 15.41 0 7.82 0 0 Z " fill="#373737" transform="translate(307,242)"/>
<path d="M0 0 C1.98 0 3.96 0 6 0 C6 7.92 6 15.84 6 24 C3.89790143 20.84685215 3.7565239 20.13896919 3.8046875 16.55078125 C3.81113281 15.70322266 3.81757812 14.85566406 3.82421875 13.98242188 C3.84097656 13.10134766 3.85773437 12.22027344 3.875 11.3125 C3.88402344 10.41982422 3.89304687 9.52714844 3.90234375 8.60742188 C3.92590252 6.40467686 3.95879671 4.20247412 4 2 C2.68 2 1.36 2 0 2 C0 1.34 0 0.68 0 0 Z " fill="#3C3C3C" transform="translate(633,154)"/>
<path d="M0 0 C1.98 0 3.96 0 6 0 C6 7.92 6 15.84 6 24 C3.89790143 20.84685215 3.7565239 20.13896919 3.8046875 16.55078125 C3.81113281 15.70322266 3.81757812 14.85566406 3.82421875 13.98242188 C3.84097656 13.10134766 3.85773437 12.22027344 3.875 11.3125 C3.88402344 10.41982422 3.89304687 9.52714844 3.90234375 8.60742188 C3.92590252 6.40467686 3.95879671 4.20247412 4 2 C2.68 2 1.36 2 0 2 C0 1.34 0 0.68 0 0 Z " fill="#3C3C3C" transform="translate(553,154)"/>
<path d="M0 0 C1.98 0 3.96 0 6 0 C6 7.92 6 15.84 6 24 C3.89790143 20.84685215 3.7565239 20.13896919 3.8046875 16.55078125 C3.81113281 15.70322266 3.81757813 14.85566406 3.82421875 13.98242188 C3.84097656 13.10134766 3.85773438 12.22027344 3.875 11.3125 C3.88402344 10.41982422 3.89304687 9.52714844 3.90234375 8.60742188 C3.92590252 6.40467686 3.95879671 4.20247412 4 2 C2.68 2 1.36 2 0 2 C0 1.34 0 0.68 0 0 Z " fill="#3C3C3C" transform="translate(473,154)"/>
<path d="M0 0 C0.33 0 0.66 0 1 0 C1 7.26 1 14.52 1 22 C-3.29 22 -7.58 22 -12 22 C-12 21.34 -12 20.68 -12 20 C-8.37 20 -4.74 20 -1 20 C-0.67 13.4 -0.34 6.8 0 0 Z " fill="#AFAFAF" transform="translate(310,246)"/>
<path d="M0 0 C0.33 0 0.66 0 1 0 C1 3.96 1 7.92 1 12 C5.62 12 10.24 12 15 12 C14.67 12.66 14.34 13.32 14 14 C9.05 14 4.1 14 -1 14 C-0.67 9.38 -0.34 4.76 0 0 Z " fill="#BBBBBB" transform="translate(566,254)"/>
<path d="M0 0 C2.31 0 4.62 0 7 0 C7 0.66 7 1.32 7 2 C5.35 2 3.7 2 2 2 C2 5.3 2 8.6 2 12 C1.34 12 0.68 12 0 12 C0 8.04 0 4.08 0 0 Z " fill="#313131" transform="translate(587,176)"/>
<path d="M0 0 C2.31 0 4.62 0 7 0 C7 0.66 7 1.32 7 2 C5.35 2 3.7 2 2 2 C2 5.3 2 8.6 2 12 C1.34 12 0.68 12 0 12 C0 8.04 0 4.08 0 0 Z " fill="#313131" transform="translate(507,176)"/>
<path d="M0 0 C2.31 0 4.62 0 7 0 C7 0.66 7 1.32 7 2 C5.35 2 3.7 2 2 2 C2 5.3 2 8.6 2 12 C1.34 12 0.68 12 0 12 C0 8.04 0 4.08 0 0 Z " fill="#313131" transform="translate(427,176)"/>
<path d="M0 0 C2.31 0 4.62 0 7 0 C7 0.66 7 1.32 7 2 C5.35 2 3.7 2 2 2 C2 5.3 2 8.6 2 12 C1.34 12 0.68 12 0 12 C0 8.04 0 4.08 0 0 Z " fill="#313131" transform="translate(347,176)"/>
<path d="M0 0 C0.66 0 1.32 0 2 0 C2 3.3 2 6.6 2 10 C3.32 10 4.64 10 6 10 C6 10.66 6 11.32 6 12 C4.02 12 2.04 12 0 12 C0 8.04 0 4.08 0 0 Z " fill="#363636" transform="translate(237,232)"/>
<path d="M0 0 C0.66 0 1.32 0 2 0 C2 3.3 2 6.6 2 10 C3.32 10 4.64 10 6 10 C6 10.66 6 11.32 6 12 C4.02 12 2.04 12 0 12 C0 8.04 0 4.08 0 0 Z " fill="#363636" transform="translate(157,232)"/>
<path d="M0 0 C0.66 0 1.32 0 2 0 C2 3.3 2 6.6 2 10 C3.32 10 4.64 10 6 10 C6 10.66 6 11.32 6 12 C4.02 12 2.04 12 0 12 C0 8.04 0 4.08 0 0 Z " fill="#363636" transform="translate(97,232)"/>
<path d="M0 0 C1.98 0 3.96 0 6 0 C6 3.96 6 7.92 6 12 C5.34 12 4.68 12 4 12 C4 8.7 4 5.4 4 2 C2.68 2 1.36 2 0 2 C0 1.34 0 0.68 0 0 Z " fill="#363636" transform="translate(113,220)"/>
<path d="M0 0 C0.66 0 1.32 0 2 0 C2 3.3 2 6.6 2 10 C3.32 10 4.64 10 6 10 C6 10.66 6 11.32 6 12 C4.02 12 2.04 12 0 12 C0 8.04 0 4.08 0 0 Z " fill="#363636" transform="translate(87,210)"/>
<path d="M0 0 C1.98 0 3.96 0 6 0 C6 3.96 6 7.92 6 12 C5.34 12 4.68 12 4 12 C4 8.7 4 5.4 4 2 C2.68 2 1.36 2 0 2 C0 1.34 0 0.68 0 0 Z " fill="#363636" transform="translate(103,198)"/>
<path d="M0 0 C1.98 0 3.96 0 6 0 C6 3.96 6 7.92 6 12 C5.34 12 4.68 12 4 12 C4 8.7 4 5.4 4 2 C2.68 2 1.36 2 0 2 C0 1.34 0 0.68 0 0 Z " fill="#373737" transform="translate(93,176)"/>
<path d="M0 0 C1.98 0 3.96 0 6 0 C6 3.96 6 7.92 6 12 C5.34 12 4.68 12 4 12 C4 8.7 4 5.4 4 2 C2.68 2 1.36 2 0 2 C0 1.34 0 0.68 0 0 Z " fill="#363636" transform="translate(383,154)"/>
<path d="M0 0 C1.98 0 3.96 0 6 0 C6 3.96 6 7.92 6 12 C5.34 12 4.68 12 4 12 C4 8.7 4 5.4 4 2 C2.68 2 1.36 2 0 2 C0 1.34 0 0.68 0 0 Z " fill="#363636" transform="translate(83,154)"/>
<path d="M0 0 C0.66 0 1.32 0 2 0 C2 3.3 2 6.6 2 10 C3.32 10.33 4.64 10.66 6 11 C5.67 11.33 5.34 11.66 5 12 C3.35 12 1.7 12 0 12 C0 8.04 0 4.08 0 0 Z " fill="#323232" transform="translate(107,254)"/>
<path d="M0 0 C1.98 0 3.96 0 6 0 C4.02 0.99 4.02 0.99 2 2 C2 4.64 2 7.28 2 10 C1.67 10 1.34 10 1 10 C0.67 6.7 0.34 3.4 0 0 Z " fill="#B0B0B0" transform="translate(349,178)"/>
<path d="M0 0 C1.32 0 2.64 0 4 0 C4 0.66 4 1.32 4 2 C3.34 2 2.68 2 2 2 C2 4.64 2 7.28 2 10 C1.67 10 1.34 10 1 10 C0.67 6.7 0.34 3.4 0 0 Z " fill="#ADADAD" transform="translate(509,222)"/>
</svg>
