<?xml version="1.0" encoding="UTF-8"?>
<svg version="1.1" xmlns="http://www.w3.org/2000/svg" width="280" height="280">
<path d="M0 0 C92.4 0 184.8 0 280 0 C280 92.4 280 184.8 280 280 C187.6 280 95.2 280 0 280 C0 187.6 0 95.2 0 0 Z " fill="#E53935" transform="translate(0,0)"/>
<path d="M0 0 C1.46346905 -0.03685991 2.92701715 -0.07070183 4.390625 -0.1015625 C5.09018311 -0.12331543 5.78974121 -0.14506836 6.51049805 -0.16748047 C11.45537949 -0.19764322 11.45537949 -0.19764322 13.86328125 1.4765625 C15.90799435 4.61325499 16.08370794 7.35992042 16.10702515 10.99325562 C16.11562561 11.99143814 16.12422607 12.98962067 16.13308716 14.01805115 C16.13734711 15.11214798 16.14160706 16.20624481 16.14599609 17.33349609 C16.15826233 19.06311836 16.15826233 19.06311836 16.17077637 20.8276825 C16.19562873 24.65074135 16.21214392 28.47376314 16.2265625 32.296875 C16.23188618 33.60075794 16.23720985 34.90464088 16.24269485 36.24803543 C16.2643149 41.72627756 16.28305202 47.20451679 16.29431725 52.68279076 C16.3105617 60.53018621 16.34376053 68.377087 16.40071809 76.22429597 C16.43941899 81.74455884 16.45894989 87.26468939 16.46423781 92.78508437 C16.46789046 96.08136817 16.48239981 99.37700269 16.51234055 102.67316818 C16.54384592 106.35069456 16.54405028 110.02696477 16.53662109 113.70458984 C16.55302643 114.79463821 16.56943176 115.88468658 16.58633423 117.00776672 C16.52513269 124.39318473 16.52513269 124.39318473 13.54776001 128.32437134 C9.53749522 131.14364583 7.76798474 130.83627461 2.953125 130.1484375 C0.7354126 128.76702881 0.7354126 128.76702881 -1.046875 126.1484375 C-1.63141527 122.66328088 -1.55143922 119.21444896 -1.50097656 115.68847656 C-1.50156067 114.62475327 -1.50214478 113.56102997 -1.50274658 112.46507263 C-1.49995901 108.94773776 -1.46883386 105.43124941 -1.4375 101.9140625 C-1.43004004 99.4759772 -1.42434595 97.03788591 -1.42034912 94.59979248 C-1.40507367 88.18153338 -1.36577477 81.76363612 -1.3215332 75.34552002 C-1.28062207 68.79680273 -1.26234696 62.24802699 -1.2421875 55.69921875 C-1.19928289 42.84880392 -1.13177642 29.99863995 -1.046875 17.1484375 C-3.45479422 17.62189525 -5.86226711 18.09745132 -8.26953125 18.57421875 C-8.94777954 18.70735474 -9.62602783 18.84049072 -10.3248291 18.97766113 C-26.27431693 22.14428185 -39.97025279 29.33384173 -52.046875 40.1484375 C-53.036875 40.9425 -54.026875 41.7365625 -55.046875 42.5546875 C-69.18180396 54.7755115 -76.43662015 72.26033862 -80.046875 90.1484375 C-80.22049561 90.93951904 -80.39411621 91.73060059 -80.57299805 92.5456543 C-84.54484322 114.36113155 -79.22436828 137.92758841 -66.69091797 156.11621094 C-62.23775501 162.22923068 -57.4259841 167.82328248 -52.046875 173.1484375 C-52.04100876 172.23992035 -52.03514252 171.3314032 -52.02909851 170.39535522 C-51.97086478 161.77588848 -51.89861617 153.15667246 -51.81116009 144.53745079 C-51.76669264 140.10766848 -51.7273866 135.67797316 -51.70043945 131.24804688 C-51.67416802 126.96197051 -51.6336034 122.67623328 -51.58368874 118.39036942 C-51.56717936 116.76640715 -51.55556707 115.14238645 -51.54926109 113.51835251 C-51.44151831 88.28900472 -51.44151831 88.28900472 -44.734375 77.7734375 C-44.11820313 76.8040625 -43.50203125 75.8346875 -42.8671875 74.8359375 C-42.26648438 73.9490625 -41.66578125 73.0621875 -41.046875 72.1484375 C-40.54929688 71.3853125 -40.05171875 70.6221875 -39.5390625 69.8359375 C-35.59828889 64.15088705 -30.80078672 58.8703436 -23.796875 57.5234375 C-20.23906442 58.33203081 -19.04429219 59.07548797 -17.046875 62.1484375 C-16.25801831 65.60727069 -16.0384259 66.87097793 -17.046875 70.1484375 C-19.09300664 73.08758422 -21.35021336 75.71725741 -23.71875 78.40234375 C-26.79273164 82.02819793 -29.03136066 85.85838689 -31.046875 90.1484375 C-31.4078125 90.85355469 -31.76875 91.55867188 -32.140625 92.28515625 C-35.01416408 101.36405344 -34.74556001 113.69979894 -30.78295898 122.37719727 C-28.13745714 127.45071454 -25.08725892 131.12898821 -21.046875 135.1484375 C-21.046875 135.8084375 -21.046875 136.4684375 -21.046875 137.1484375 C-20.48742187 137.426875 -19.92796875 137.7053125 -19.3515625 137.9921875 C-17.79008784 138.7755714 -16.23288632 139.56752078 -14.6796875 140.3671875 C-13.85210937 140.79 -13.02453125 141.2128125 -12.171875 141.6484375 C-11.34945312 142.07125 -10.52703125 142.4940625 -9.6796875 142.9296875 C0.37958508 147.58620537 11.48874254 147.80614017 21.890625 144.0859375 C32.80216657 139.25734432 40.23991579 132.16809053 45.2734375 121.296875 C49.26133563 110.72755058 49.24279325 100.57341473 45.28125 90 C41.91959196 82.78232244 37.12981269 76.92759014 31.3359375 71.5234375 C29.08137846 69.28161608 28.93766724 68.00931765 28.578125 64.7734375 C28.953125 61.1484375 28.953125 61.1484375 30.953125 58.6484375 C34.15866999 57.04566501 36.29907735 56.6847515 39.83984375 57.3515625 C50.63044183 61.42047564 56.55207666 73.90448906 61.4375 83.48828125 C64.59796083 91.12063125 65.29564113 98.37952885 65.265625 106.5859375 C65.28173828 107.46314453 65.29785156 108.34035156 65.31445312 109.24414062 C65.32504017 123.61075937 58.50788177 137.12200578 48.71875 147.484375 C35.80619315 159.65417415 20.97477032 164.59423882 3.44140625 164.3515625 C-11.59419803 163.47602899 -22.70768102 157.72353736 -34.046875 148.1484375 C-34.05052063 148.71584656 -34.05416626 149.28325562 -34.05792236 149.86785889 C-34.09972946 155.77299982 -34.16906186 161.6773622 -34.25439453 167.58203125 C-34.2826221 169.78572809 -34.3038277 171.9895265 -34.31787109 174.19335938 C-34.33927547 177.36120682 -34.38591398 180.52783058 -34.4375 183.6953125 C-34.43872864 184.68086121 -34.43995728 185.66640991 -34.44122314 186.68182373 C-34.58689559 193.48319446 -34.58689559 193.48319446 -36.85449219 196.76269531 C-39.50878062 198.44039477 -41.71677263 198.82986647 -44.84765625 198.65625 C-49.25701895 197.63810231 -52.53378532 194.88666661 -56.046875 192.1484375 C-56.87574219 191.52195313 -57.70460937 190.89546875 -58.55859375 190.25 C-79.5629559 173.97403178 -94.98804021 149.37621284 -98.76953125 122.76171875 C-101.17310265 91.4475843 -95.34873999 62.68284678 -75.046875 38.1484375 C-74.39976563 37.34921875 -73.75265625 36.55 -73.0859375 35.7265625 C-57.65298016 17.45898035 -32.84315545 3.15473769 -8.859375 0.2734375 C-5.9076804 0.13736647 -2.95343248 0.10943643 0 0 Z " fill="#FEFBFB" transform="translate(133.046875,33.8515625)"/>
<path d="M0 0 C2.70082582 0.89747068 5.12307721 1.81832956 7.6875 3 C8.38375488 3.31396729 9.08000977 3.62793457 9.79736328 3.95141602 C20.18643145 8.78367931 29.33196262 15.55759653 38 23 C38.66386719 23.5671875 39.32773438 24.134375 40.01171875 24.71875 C58.18103104 41.52444251 70.12619138 68.11820659 71.10498047 92.62890625 C71.93661016 123.00146882 64.90349492 150.1584327 44 173 C43.18015625 173.91265625 42.3603125 174.8253125 41.515625 175.765625 C25.10907985 193.14297163 0.69030071 206.19238242 -23.38671875 207.08886719 C-39.09734273 207.45132863 -39.09734273 207.45132863 -42 206 C-43.66790887 200.99627339 -43.26842299 195.8017869 -43.3125 190.5625 C-43.34150391 189.41716797 -43.37050781 188.27183594 -43.40039062 187.09179688 C-43.40876953 185.99029297 -43.41714844 184.88878906 -43.42578125 183.75390625 C-43.44036377 182.74658447 -43.45494629 181.7392627 -43.4699707 180.70141602 C-42.87085611 177.25767421 -41.75556754 176.09145705 -39 174 C-34.81485821 173.55159195 -31.50925885 173.53052155 -28 176 C-25.71937172 179.42094242 -25.78074993 180.68187222 -25.875 184.6875 C-25.89304688 185.68136719 -25.91109375 186.67523438 -25.9296875 187.69921875 C-25.95289063 188.45847656 -25.97609375 189.21773437 -26 190 C-8.62364408 187.04385646 7.24664391 181.35915483 21 170 C21.77988281 169.37738281 22.55976563 168.75476563 23.36328125 168.11328125 C39.82830005 154.26013169 50.66701643 133.32699132 53 112 C53.61381673 99.68154065 53.66890959 87.85075021 50 76 C49.81824219 75.195625 49.63648438 74.39125 49.44921875 73.5625 C44.74977193 54.12533219 29.55278789 36.57131705 13 26 C8.961597 23.70933699 4.80772316 21.69753341 0.59375 19.75390625 C-3.71656757 17.65028387 -7.59715317 15.40284683 -11 12 C-11.67039106 5.0726257 -11.67039106 5.0726257 -9.4375 1.5 C-6.07156325 -0.57134569 -3.92789205 -0.28857982 0 0 Z " fill="#FEFCFB" transform="translate(175,39)"/>
</svg>
