<?xml version="1.0" encoding="UTF-8"?>
<svg version="1.1" xmlns="http://www.w3.org/2000/svg" width="460" height="460">
<path d="M0 0 C151.8 0 303.6 0 460 0 C460 151.8 460 303.6 460 460 C308.2 460 156.4 460 0 460 C0 308.2 0 156.4 0 0 Z " fill="#0F1113" transform="translate(0,0)"/>
<path d="M0 0 C5.11671948 2.71614404 9.06250198 6.80859968 10.8984375 12.31640625 C11.00284221 14.43932173 11.04653573 16.56538212 11.05906677 18.69082642 C11.06415459 19.34040798 11.06924241 19.98998954 11.07448441 20.65925539 C11.09020405 22.84005487 11.0987327 25.02082122 11.10717773 27.20166016 C11.11671674 28.76383677 11.12660792 30.32601127 11.13682556 31.88818359 C11.16821021 37.02308648 11.18847971 42.15800555 11.20703125 47.29296875 C11.21197723 48.60408859 11.21197723 48.60408859 11.21702313 49.94169569 C11.24780781 58.18802207 11.27451095 66.43435213 11.29144192 74.68071938 C11.31333783 85.22116512 11.35528543 95.76110077 11.42487949 106.30134261 C11.47217173 113.71634149 11.49638256 121.13120303 11.5036388 128.54634798 C11.50858786 132.97287308 11.52359673 137.39882326 11.5633831 141.82518387 C11.60035487 145.99340711 11.60862513 150.16072962 11.59537697 154.3290863 C11.59543075 155.85404953 11.60565751 157.37905374 11.6271286 158.90386581 C11.73261426 166.82222905 11.53044629 173.12588608 6.55874729 179.64801598 C2.49060293 183.7359594 -1.87959331 185.49140628 -7.6015625 185.81640625 C-12.24498179 185.59874597 -16.38924589 184.14799468 -20.1015625 181.31640625 C-20.4315625 180.32640625 -20.7615625 179.33640625 -21.1015625 178.31640625 C-21.7615625 178.31640625 -22.4215625 178.31640625 -23.1015625 178.31640625 C-25.42983884 173.46812466 -26.47776817 169.94891412 -26.48924255 164.48547363 C-26.49462809 163.83514679 -26.50001363 163.18481996 -26.50556237 162.51478624 C-26.51976645 160.35536299 -26.5127575 158.19655932 -26.50561523 156.03710938 C-26.51132273 154.48094697 -26.51828845 152.92478875 -26.52641296 151.36863708 C-26.54431608 147.15584536 -26.54318158 142.94326225 -26.53747058 138.73044395 C-26.53437511 135.20902721 -26.54047505 131.68765033 -26.54650933 128.16623926 C-26.5605431 119.85769983 -26.55900236 111.54926326 -26.54760742 103.24072266 C-26.53612245 94.67743651 -26.55021078 86.11446342 -26.5770039 77.55121851 C-26.59917228 70.18964769 -26.60579586 62.82817506 -26.59992748 55.46657324 C-26.59656001 51.07387637 -26.59895921 46.68138025 -26.61617851 42.28871155 C-26.6316642 38.15829244 -26.62767439 34.02833677 -26.60887337 29.89793587 C-26.6051922 28.38506724 -26.60828224 26.87216414 -26.61875916 25.35932732 C-26.67450373 16.64236256 -26.64847197 10.27464983 -20.50390625 3.57421875 C-14.46977175 -1.0921786 -7.41594671 -2.41225033 0 0 Z " fill="#FEFEFE" transform="translate(199.1015625,178.68359375)"/>
<path d="M0 0 C5.36762904 3.23649461 8.48066116 6.89502848 10.43359375 12.9296875 C11.01623234 17.99944407 10.97113317 23.04497066 10.93530273 28.13891602 C10.93909041 29.67552179 10.94459413 31.21212414 10.95167542 32.74871826 C10.96558782 36.90368713 10.95449066 41.05823996 10.9379642 45.21318555 C10.92407009 49.57010009 10.93057864 53.92699156 10.93409729 58.28392029 C10.93679569 65.59812084 10.92335478 72.91215694 10.90014648 80.22631836 C10.87352911 88.67314202 10.87179418 97.11969097 10.88353485 105.56654221 C10.89432652 113.7058904 10.8881153 121.84513957 10.87397957 129.9844799 C10.86823282 133.44245695 10.86829209 136.90036123 10.87304497 140.35833931 C10.87782921 144.43209642 10.86765346 148.50555398 10.84609032 152.57925415 C10.8405423 154.071151 10.84003887 155.56307674 10.84504318 157.05497551 C10.87146334 166.06333908 10.54370659 172.04236733 5.68359375 179.6796875 C1.75296909 183.61031216 -2.53046971 185.08407871 -8.00390625 185.3671875 C-12.84334661 185.18550203 -16.61754815 183.7055288 -20.56640625 180.9296875 C-24.94589509 176.20444955 -26.81478735 172.92737996 -26.84729004 166.47261047 C-26.85323228 165.81415624 -26.85917453 165.15570201 -26.86529684 164.47729462 C-26.88266772 162.26646873 -26.88568695 160.05585947 -26.88867188 157.8449707 C-26.89792867 156.26146481 -26.90797805 154.67796339 -26.91876221 153.09446716 C-26.94501457 148.78846158 -26.95790146 144.48251837 -26.96678352 140.17644525 C-26.97264569 137.48531457 -26.98085554 134.79420094 -26.98979187 132.10307884 C-27.01714599 123.68076732 -27.03647592 115.25849475 -27.04419565 106.83614188 C-27.05315163 97.11858989 -27.08822028 87.40160131 -27.14619684 77.68422061 C-27.18946549 70.17070979 -27.20960613 62.65735725 -27.21227789 55.14372319 C-27.21437198 50.65745241 -27.22614193 46.1717111 -27.26191711 41.68557167 C-27.29493949 37.46233457 -27.29916194 33.24002306 -27.2816391 29.01670265 C-27.28010137 27.4703676 -27.28874476 25.9239822 -27.3085556 24.37777328 C-27.47846384 10.28511612 -27.47846384 10.28511612 -22.16512299 4.37076092 C-15.75427084 -1.40794171 -8.31524837 -3.46785092 0 0 Z " fill="#FDFDFD" transform="translate(348.56640625,179.0703125)"/>
<path d="M0 0 C3.56348597 2.81327839 5.24401937 5.83349979 7 10 C7.29428469 12.82440092 7.44090651 15.42824441 7.43579102 18.24926758 C7.44586685 19.05498703 7.45594269 19.86070648 7.46632385 20.69084167 C7.49471216 23.3422145 7.50067587 25.9930161 7.50390625 28.64453125 C7.5135543 30.49769826 7.52364729 32.35086299 7.53416443 34.20402527 C7.55210338 38.0850453 7.55768782 41.96586528 7.5559082 45.84692383 C7.55560362 50.80347205 7.59654244 55.75872826 7.64822483 60.71497059 C7.68169564 64.54218863 7.68766249 68.36909799 7.68607903 72.19644737 C7.68960342 74.02279802 7.70278452 75.84915801 7.72607613 77.67536354 C7.92493718 94.87849678 7.92493718 94.87849678 2.59947205 101.45658875 C-2.60407887 106.47775749 -7.53385404 108.33505681 -14.7265625 108.20703125 C-20.67554909 107.66528505 -23.98958468 104.29426928 -27.703125 100.01171875 C-30.92082491 95.02040714 -31.29474797 89.89133381 -31.2746582 84.10205078 C-31.27976913 83.33373932 -31.28488007 82.56542786 -31.29014587 81.77383423 C-31.30398448 79.24757988 -31.30308933 76.72160013 -31.30078125 74.1953125 C-31.30467158 72.42943217 -31.30900694 70.66355276 -31.31376648 68.89767456 C-31.32121655 65.20079512 -31.3209464 61.5040112 -31.31567383 57.80712891 C-31.30988348 53.08403085 -31.32680553 48.36132549 -31.3500185 43.63829231 C-31.36479522 39.99215431 -31.36562215 36.34611 -31.36250877 32.69994736 C-31.36302009 30.95933124 -31.36822211 29.21870961 -31.37832069 27.47812271 C-31.39074336 25.03740643 -31.38385891 22.59744372 -31.37231445 20.15673828 C-31.38378006 19.09193237 -31.38378006 19.09193237 -31.39547729 18.00561523 C-31.33471388 12.15426805 -30.11721786 6.59885984 -26.3515625 1.9765625 C-17.40151645 -5.02958214 -10.03562471 -5.65112848 0 0 Z " fill="#FBFBFB" transform="translate(278,256)"/>
<path d="M0 0 C4.73287997 2.88590242 7.41667962 7.01835112 9.08203125 12.26953125 C9.27354388 14.93069924 9.36575458 17.4860767 9.35668945 20.14575195 C9.36180038 20.92367096 9.36691132 21.70158997 9.37217712 22.50308228 C9.38604314 25.06723795 9.38511827 27.63112385 9.3828125 30.1953125 C9.38670177 31.98504231 9.39103692 33.7747712 9.39579773 35.5644989 C9.40325403 39.3144327 9.40297345 43.06427235 9.39770508 46.81420898 C9.39191873 51.60571498 9.40882407 56.39683338 9.43204975 61.18827534 C9.44682685 64.88502738 9.44765326 68.58168701 9.44454002 72.27846336 C9.44505148 74.04419915 9.45025618 75.80994035 9.46035194 77.57564735 C9.47277305 80.05239173 9.46589065 82.52839329 9.4543457 85.00512695 C9.46581131 86.08631554 9.46581131 86.08631554 9.47750854 87.18934631 C9.41740335 93.06179181 8.23699303 98.6243412 4.43359375 103.29296875 C-1.09420063 107.6201562 -5.42124005 109.83506396 -12.578125 109.64453125 C-18.16169991 108.74966783 -22.06555539 105.53660834 -25.49665833 101.20506287 C-28.43329215 97.01254129 -28.63537868 93.53450124 -28.58081055 88.52368164 C-28.59117844 87.67719559 -28.60154633 86.83070953 -28.61222839 85.95857239 C-28.63919562 83.17760873 -28.62965873 80.39823366 -28.6171875 77.6171875 C-28.62310073 75.673371 -28.63034926 73.72955816 -28.63887024 71.78575134 C-28.65073292 67.71805807 -28.64407244 63.65091257 -28.62475586 59.58325195 C-28.60187908 54.38331009 -28.62864462 49.18500342 -28.66981792 43.98522282 C-28.69545533 39.97270199 -28.69279975 35.96056928 -28.68192482 31.94799614 C-28.68044287 30.03153436 -28.68807312 28.11504213 -28.7051754 26.19865608 C-28.84018482 8.13921419 -28.84018482 8.13921419 -23.58821106 2.56809998 C-15.84765974 -3.44997166 -8.92815339 -4.30437378 0 0 Z " fill="#FCFCFC" transform="translate(126.91796875,254.73046875)"/>
<path d="M0 0 C5.27199217 3.22470188 9.35573016 7.06281294 11.53125 12.93359375 C12.56512877 18.29951001 12.11795351 22.57043029 9.34375 27.30859375 C5.98954143 31.99503727 2.15342323 35.36461518 -3.46875 36.93359375 C-9.80825583 37.5571517 -14.20362852 36.59775752 -19.46875 32.93359375 C-24.10176951 28.65244914 -26.23110349 24.3496666 -26.84375 18.12109375 C-26.69256227 12.40835727 -24.12721846 7.97903819 -20.59375 3.62109375 C-14.39936422 -1.29797731 -7.4894159 -3.23514326 0 0 Z " fill="#A99FC7" transform="translate(273.46875,104.06640625)"/>
<path d="M0 0 C5.55340519 2.8630485 9.53953638 5.93892164 11.57421875 12.04296875 C12.27971827 19.20205404 11.8908459 25.11461392 7.57421875 31.04296875 C3.28121798 35.22589258 -0.78527645 37.11163917 -6.73828125 37.41796875 C-11.78216068 37.3333399 -15.11011335 35.5539028 -19.42578125 33.04296875 C-19.42578125 32.38296875 -19.42578125 31.72296875 -19.42578125 31.04296875 C-20.41578125 30.71296875 -21.40578125 30.38296875 -22.42578125 30.04296875 C-25.32455522 24.1380588 -26.49877534 18.59552491 -25.42578125 12.04296875 C-23.27691919 6.09466942 -19.43256466 2.62822425 -13.81640625 -0.10546875 C-8.9040547 -1.85529332 -4.86859783 -1.92078336 0 0 Z " fill="#CD6C9E" transform="translate(198.42578125,103.95703125)"/>
<path d="M0 0 C5.27526467 3.23350941 8.68983607 6.92177476 10.3515625 12.94140625 C11.26621307 18.43893756 10.5829925 23.22717779 7.79296875 28.078125 C4.24267965 32.6675231 0.11078537 35.43742205 -5.62109375 36.484375 C-11.58922469 36.76354168 -15.95719611 35.95789719 -20.9296875 32.62109375 C-24.46099762 29.17004068 -26.4628786 26.21848807 -27.1796875 21.28515625 C-27.169375 20.01671875 -27.1590625 18.74828125 -27.1484375 17.44140625 C-27.16390625 15.53875 -27.16390625 15.53875 -27.1796875 13.59765625 C-26.40219269 8.24666252 -24.03854444 5.195893 -20.0859375 1.62890625 C-14.38257653 -2.31957442 -6.37246707 -2.54710704 0 0 Z " fill="#F03875" transform="translate(125.6484375,179.05859375)"/>
<path d="M0 0 C5.28364893 3.21766307 9.31063049 7.07961253 11.53515625 12.9296875 C12.63706145 18.54743633 11.59356888 23.19356333 8.8046875 28.140625 C5.74939514 32.446237 1.68192506 35.58172424 -3.46484375 36.9296875 C-9.79005201 37.55183913 -14.21842987 36.60666133 -19.46484375 32.9296875 C-24.19689059 28.33819651 -25.67148353 24.83873127 -25.90234375 18.3046875 C-25.85395194 12.40088641 -25.25022533 8.85506703 -21.2265625 4.484375 C-14.96731324 -1.03930838 -8.11759301 -3.5249136 0 0 Z " fill="#F13875" transform="translate(124.46484375,104.0703125)"/>
<path d="M0 0 C5.24246622 3.40717821 9.81387082 6.5307974 11.53515625 12.75390625 C12.11535894 18.73599602 12.12192112 23.71001815 8.53515625 28.75390625 C3.44033766 33.96771211 0.0874688 36.4578802 -7.21484375 37.06640625 C-11.95714496 36.99562563 -15.58311723 35.41935846 -19.46484375 32.75390625 C-25.04631814 26.87867005 -26.04561752 22.00199582 -25.90234375 14.0234375 C-25.22726281 8.97841301 -23.26720048 6.05360601 -19.46484375 2.75390625 C-13.62455253 -1.54366653 -6.70145437 -3.38789848 0 0 Z " fill="#86D3F0" transform="translate(347.46484375,104.24609375)"/>
<path d="M0 0 C5.31091843 3.19355062 8.69691477 6.91195413 10.37109375 12.92578125 C11.49793621 19.01506455 10.24529375 23.69481133 6.96875 28.90625 C3.50329782 33.28678491 0.02114186 35.45642668 -5.49609375 36.43359375 C-11.96237755 36.81202766 -16.61488257 35.80760256 -21.78125 31.83203125 C-25.81279715 27.67263376 -27.27189862 23.10749455 -28.19140625 17.48828125 C-27.15147248 10.90203403 -24.56061432 4.83827862 -19.06640625 0.80078125 C-13.07601141 -2.35265301 -6.2433284 -2.55113716 0 0 Z " fill="#AAA0C8" transform="translate(274.62890625,179.07421875)"/>
<path d="M0 0 C5.28 0 10.56 0 16 0 C14.35 1.32 12.7 2.64 11 4 C7.36086996 7.37285223 4.64418256 10.80577939 2 15 C1.34 15.99 0.68 16.98 0 18 C0 12.06 0 6.12 0 0 Z " fill="#F9F9F9" transform="translate(0,0)"/>
<path d="M0 0 C5 7.5 5 7.5 5 11 C5.99 11.33 6.98 11.66 8 12 C9.70779973 13.62449243 11.37550757 15.29220027 13 17 C13.66 17.66 14.32 18.32 15 19 C10.05 19 5.1 19 0 19 C0 12.73 0 6.46 0 0 Z " fill="#F7F7F7" transform="translate(0,441)"/>
<path d="M0 0 C3.3 0 6.6 0 10 0 C10 2.97 10 5.94 10 9 C6.54926675 6.07013215 3.20189285 3.20189285 0 0 Z " fill="#F9F9F9" transform="translate(450,0)"/>
<path d="M0 0 C0 2.97 0 5.94 0 9 C-3.3 9 -6.6 9 -10 9 C-8.33333333 7.33333333 -6.66666667 5.66666667 -5 4 C-4.2575 3.236875 -3.515 2.47375 -2.75 1.6875 C-1 0 -1 0 0 0 Z " fill="#F7F7F7" transform="translate(460,451)"/>
</svg>
