<?xml version="1.0" encoding="UTF-8"?>
<svg version="1.1" xmlns="http://www.w3.org/2000/svg" width="400" height="400">
<path d="M0 0 C132 0 264 0 400 0 C400 132 400 264 400 400 C268 400 136 400 0 400 C0 268 0 136 0 0 Z " fill="#FCFBFD" transform="translate(0,0)"/>
<path d="M0 0 C1.15181007 -0.01226624 1.15181007 -0.01226624 2.32688904 -0.02478027 C4.86936674 -0.04960086 7.41178863 -0.06614372 9.9543457 -0.08056641 C10.82421427 -0.08589008 11.69408283 -0.09121376 12.59031105 -0.09669876 C17.19659163 -0.12341875 21.80284524 -0.14279536 26.40917969 -0.15722656 C30.2144379 -0.17055354 34.01915832 -0.1983845 37.82421875 -0.23925781 C42.42484482 -0.28867365 47.02498391 -0.31335875 51.62586403 -0.32045364 C53.37489958 -0.32715099 55.12392491 -0.3423335 56.87280846 -0.36634445 C73.39259591 -0.58016837 73.39259591 -0.58016837 79.04475403 3.81234741 C86.27355578 10.95143125 86.27355578 10.95143125 86.55615234 16.36938477 C86.54829712 17.60265503 86.54829712 17.60265503 86.5402832 18.86083984 C86.53544922 20.19985352 86.53544922 20.19985352 86.53051758 21.56591797 C86.51794922 22.95907227 86.51794922 22.95907227 86.50512695 24.38037109 C86.50061523 25.32074219 86.49610352 26.26111328 86.49145508 27.22998047 C86.4796734 29.55097118 86.46173809 31.87192917 86.44262695 34.19287109 C82.15262695 34.19287109 77.86262695 34.19287109 73.44262695 34.19287109 C73.4168457 33.08427734 73.39106445 31.97568359 73.36450195 30.83349609 C73.3082104 29.36991562 73.25086329 27.90637548 73.19262695 26.44287109 C73.17844727 25.71326172 73.16426758 24.98365234 73.1496582 24.23193359 C73.00066304 20.95403997 72.79105622 18.67638905 70.84877014 15.98106384 C67.56789564 13.54279 65.40197244 13.69169054 61.33496094 13.69116211 C60.62718506 13.68575912 59.91940918 13.68035614 59.19018555 13.67478943 C56.85593564 13.6623047 54.52291968 13.67878824 52.1887207 13.69677734 C50.56494583 13.69662237 48.94117059 13.69513358 47.31739807 13.69236755 C43.91699846 13.69098375 40.51702074 13.70353952 37.11669922 13.72631836 C32.75619244 13.7547259 28.39638543 13.75195947 24.03582668 13.73922825 C20.68408724 13.73227714 17.33250985 13.74005339 13.98079109 13.75248528 C12.37281986 13.75700374 10.76483126 13.75733312 9.15685844 13.75341988 C6.91117483 13.75051256 4.66645972 13.76698927 2.42089844 13.78881836 C1.14278793 13.79422134 -0.13532257 13.79962433 -1.4521637 13.80519104 C-4.46693971 13.98140374 -4.46693971 13.98140374 -6.47024536 15.2752533 C-8.16172579 18.25890739 -7.931339 20.8707401 -7.9296875 24.27880859 C-7.93333817 24.99619202 -7.93698883 25.71357544 -7.94075012 26.45269775 C-7.94885789 28.82466282 -7.93524421 31.1959452 -7.9206543 33.56787109 C-7.92013571 35.21549479 -7.92065334 36.86311911 -7.92216492 38.51074219 C-7.92207518 41.96412389 -7.91164365 45.41727219 -7.89355469 48.87060547 C-7.87086741 53.2994059 -7.87032327 57.72786522 -7.87707233 62.15670776 C-7.88041225 65.55903154 -7.8737818 68.96127742 -7.8639431 72.36358643 C-7.8600912 73.99667961 -7.85894284 75.62978146 -7.86052895 77.26287842 C-7.8608994 79.5443984 -7.84828526 81.82547948 -7.83203125 84.10693359 C-7.82742386 85.4058252 -7.82281647 86.7047168 -7.81806946 88.04296875 C-7.80001217 91.35344238 -7.80001217 91.35344238 -5.55737305 94.19287109 C-2.34424367 94.66195705 -2.34424367 94.66195705 1.50683594 94.59692383 C2.59732239 94.6072187 2.59732239 94.6072187 3.70983887 94.61772156 C6.11966328 94.63606447 8.52884127 94.63214151 10.9387207 94.62646484 C12.61019606 94.63102328 14.28166953 94.63632784 15.95314026 94.64234924 C19.45956018 94.6512952 22.96575254 94.64884073 26.47216797 94.63891602 C30.96957483 94.627428 35.46619637 94.64762715 39.96350002 94.67683315 C43.41645818 94.69516527 46.86922715 94.69490866 50.32222176 94.68919563 C51.98045007 94.68904203 53.6386909 94.69511844 55.29687309 94.70748711 C57.61475973 94.72233865 59.93118312 94.71176481 62.24902344 94.69458008 C63.56869614 94.69441391 64.88836884 94.69424774 66.24803162 94.69407654 C69.4801847 94.49269636 69.4801847 94.49269636 71.36024475 92.40467834 C73.006686 89.04023768 73.01647928 85.61856171 73.13012695 81.94287109 C73.16428711 81.19779297 73.19844727 80.45271484 73.23364258 79.68505859 C73.31576749 77.85484617 73.38088348 76.0238844 73.44262695 74.19287109 C77.73262695 74.19287109 82.02262695 74.19287109 86.44262695 74.19287109 C86.55143789 77.36047833 86.63032324 80.52428231 86.69262695 83.69287109 C86.72614258 84.57974609 86.7596582 85.46662109 86.79418945 86.38037109 C86.89417747 93.17955623 85.67827777 98.51634299 81.10058594 103.71777344 C75.59197324 108.77549023 69.19671537 109.44145186 61.99780273 109.4675293 C61.28947296 109.47264023 60.58114319 109.47775116 59.85134888 109.48301697 C57.53012433 109.49681731 55.20919993 109.49596337 52.88793945 109.49365234 C51.26040539 109.49754475 49.63287234 109.50188054 48.00534058 109.50663757 C44.6011017 109.51407941 41.19696656 109.5138235 37.79272461 109.50854492 C33.44976046 109.50275539 29.1072235 109.51967856 24.76432991 109.5428896 C21.40466873 109.55768691 18.04510899 109.55849047 14.68542099 109.55537987 C13.08518504 109.55589015 11.48494296 109.5610723 9.88473892 109.57119179 C-9.02162192 109.67608565 -9.02162192 109.67608565 -15.8972168 104.39599609 C-16.42444336 103.75146484 -16.95166992 103.10693359 -17.49487305 102.44287109 C-18.04014648 101.80865234 -18.58541992 101.17443359 -19.1472168 100.52099609 C-22.34633099 95.23935604 -22.81209116 89.71406486 -22.84790039 83.65625 C-22.85461761 82.93816666 -22.86133484 82.22008331 -22.86825562 81.48023987 C-22.88712035 79.12656574 -22.89115375 76.77317843 -22.89331055 74.41943359 C-22.89974593 72.76947924 -22.90647484 71.119526 -22.91348267 69.46957397 C-22.92542621 66.01826331 -22.92916646 62.56705252 -22.92797852 59.11572266 C-22.92777536 54.7121241 -22.95508629 50.30917117 -22.98952293 45.90572548 C-23.01185319 42.4997366 -23.01581421 39.09390169 -23.01475906 35.68784714 C-23.01710547 34.06526844 -23.02587438 32.44268487 -23.0414238 30.82017899 C-23.20391838 12.11589034 -23.20391838 12.11589034 -16.5222168 5.03662109 C-15.85319336 4.59318359 -15.18416992 4.14974609 -14.49487305 3.69287109 C-13.82327148 3.22880859 -13.15166992 2.76474609 -12.4597168 2.28662109 C-8.39117954 -0.05257897 -4.54868713 0.02673802 0 0 Z " fill="#1C1A2B" transform="translate(99.557373046875,213.80712890625)"/>
<path d="M0 0 C1.0649041 -0.0076664 1.0649041 -0.0076664 2.15132141 -0.01548767 C4.4773523 -0.02928651 6.80308367 -0.02843441 9.12915039 -0.02612305 C10.75908008 -0.0300151 12.38900876 -0.03435082 14.01893616 -0.03910828 C17.42737116 -0.04654945 20.83570255 -0.04629436 24.24414062 -0.04101562 C28.59617077 -0.03522146 32.94777526 -0.05216077 37.29973507 -0.0753603 C40.66364491 -0.09014317 44.02745327 -0.09096321 47.39138985 -0.08785057 C48.99524339 -0.08836142 50.59910296 -0.09355444 52.20292473 -0.10366249 C61.52572111 -0.15521786 69.09411083 -0.06671195 77.28930664 4.9621582 C81.64388076 9.43769271 83.76466515 14.16183826 83.92993164 20.4309082 C83.90373055 22.21258223 83.85659659 23.99406255 83.78930664 25.7746582 C83.77125977 26.6924707 83.75321289 27.6102832 83.73461914 28.5559082 C83.68795157 30.79595155 83.61622602 33.03544953 83.53930664 35.2746582 C79.24930664 35.2746582 74.95930664 35.2746582 70.53930664 35.2746582 C70.48323242 33.48608398 70.48323242 33.48608398 70.42602539 31.66137695 C70.36036632 30.09493921 70.29391896 28.52853436 70.22680664 26.9621582 C70.20424805 26.17647461 70.18168945 25.39079102 70.15844727 24.58129883 C70.12299805 23.82397461 70.08754883 23.06665039 70.05102539 22.28637695 C70.02484131 21.58988037 69.99865723 20.89338379 69.97167969 20.17578125 C69.38234996 17.5845274 68.69685889 16.85075801 66.53930664 15.2746582 C63.21880944 14.82263554 63.21880944 14.82263554 59.34570312 14.90234375 C58.61695984 14.89869308 57.88821655 14.89504242 57.13739014 14.89128113 C54.72815665 14.88317376 52.31959529 14.89678544 49.91040039 14.91137695 C48.23796082 14.91189548 46.56552063 14.91137806 44.89308167 14.90986633 C41.38842671 14.90995606 37.88400177 14.92038755 34.37939453 14.93847656 C29.88099499 14.96118135 25.3829311 14.96170477 20.88449001 14.95495892 C17.43159487 14.95162225 13.97877664 14.958243 10.52589607 14.96808815 C8.86685653 14.97194435 7.20780845 14.97308663 5.54876518 14.9715023 C3.23351519 14.97113262 0.91870042 14.98372366 -1.39648438 15 C-3.37480003 15.00691109 -3.37480003 15.00691109 -5.39308167 15.01396179 C-8.56758011 14.95175128 -8.56758011 14.95175128 -10.46069336 17.2746582 C-10.77600178 20.49287269 -10.77600178 20.49287269 -10.73535156 24.33886719 C-10.74046249 25.06585815 -10.74557343 25.79284912 -10.75083923 26.54187012 C-10.7647703 28.95158051 -10.76377583 31.36100601 -10.76147461 33.77075195 C-10.76535971 35.44222623 -10.769694 37.11369951 -10.77445984 38.78517151 C-10.78192967 42.29154661 -10.78162535 45.79782103 -10.77636719 49.30419922 C-10.77057252 53.80146989 -10.78749957 58.29832872 -10.81071186 62.79553127 C-10.82543181 66.2484631 -10.82632327 69.70129536 -10.82320213 73.15425301 C-10.82371626 74.81247841 -10.82897104 76.47070927 -10.83901405 78.12890434 C-10.85132737 80.44656124 -10.84461813 82.76341107 -10.83300781 85.08105469 C-10.83363724 86.40072739 -10.83426666 87.72040009 -10.83491516 89.08006287 C-10.68151348 92.17377999 -10.68151348 92.17377999 -9.37356567 94.19900513 C-6.42022536 95.85973782 -3.8517966 95.66446751 -0.48242188 95.67871094 C0.57661346 95.68900581 0.57661346 95.68900581 1.65704346 95.69950867 C3.99170016 95.7178151 6.32568729 95.71393383 8.66040039 95.70825195 C10.28321044 95.71281212 11.90601856 95.71811719 13.52882385 95.72413635 C16.93091677 95.73307511 20.33277505 95.73063597 23.73486328 95.72070312 C28.09426888 95.70921549 32.45286423 95.7294172 36.81216335 95.75862026 C40.16393681 95.77696924 43.51551566 95.7766924 46.86732674 95.77098274 C48.47448933 95.77082935 50.08166496 95.77688857 51.68877983 95.78927422 C53.93691644 95.80415776 56.18355095 95.79352854 58.43164062 95.77636719 C59.71054672 95.77620102 60.98945282 95.77603485 62.30711365 95.77586365 C66.08481398 95.19006819 67.25817947 94.27987003 69.53930664 91.2746582 C70.16601679 89.27060877 70.16601679 89.27060877 70.14868164 87.1652832 C70.1809082 86.41118164 70.21313477 85.65708008 70.24633789 84.88012695 C70.26051758 84.10282227 70.27469727 83.32551758 70.28930664 82.5246582 C70.3337793 81.33549805 70.3337793 81.33549805 70.37915039 80.12231445 C70.44958451 78.17363727 70.49674146 76.22414325 70.53930664 74.2746582 C74.82930664 74.2746582 79.11930664 74.2746582 83.53930664 74.2746582 C83.67523289 77.60938212 83.77385862 80.93848287 83.85180664 84.2746582 C83.89370117 85.20922852 83.9355957 86.14379883 83.97875977 87.10668945 C84.0959401 93.8094046 82.86650879 98.09628113 78.53930664 103.2746582 C73.13796841 108.28077656 69.05916916 109.57442802 61.77661133 109.58105469 C60.60995186 109.59353996 60.60995186 109.59353996 59.41972351 109.60627747 C56.85015847 109.63035819 54.28084753 109.63914814 51.71118164 109.64575195 C49.92002284 109.65472135 48.1288648 109.66384326 46.33770752 109.67311096 C42.5818093 109.68959939 38.82600018 109.69730052 35.07006836 109.70019531 C30.2704763 109.70557204 25.47172871 109.743223 20.67237473 109.78893948 C16.97132354 109.81876978 13.27047398 109.8259202 9.56931305 109.82692146 C7.80075472 109.83111367 6.03219523 109.84350771 4.2637558 109.86443901 C-12.85823637 110.05092538 -12.85823637 110.05092538 -19.46069336 104.2746582 C-21.30053711 102.17700195 -21.30053711 102.17700195 -22.39819336 100.2121582 C-22.7784668 99.56118164 -23.15874023 98.91020508 -23.55053711 98.23950195 C-25.55760185 93.90665404 -25.5964513 89.92196713 -25.62182617 85.17041016 C-25.62927353 84.10857262 -25.62927353 84.10857262 -25.63687134 83.02528381 C-25.65145159 80.6878257 -25.65828925 78.35043554 -25.66381836 76.01293945 C-25.66957472 74.38111877 -25.67533239 72.74929809 -25.68109131 71.11747742 C-25.69159059 67.69533983 -25.69743977 64.27322564 -25.70092773 60.85107422 C-25.70639974 56.4845114 -25.73040444 52.11826239 -25.75889969 47.75179768 C-25.77760763 44.37927881 -25.78273606 41.00683416 -25.78426361 37.63426781 C-25.78727403 36.02564981 -25.79524762 34.41703261 -25.80844879 32.80846596 C-25.95309833 13.82237684 -25.95309833 13.82237684 -20.66381836 6.93481445 C-20.01928711 6.40758789 -19.37475586 5.88036133 -18.71069336 5.3371582 C-18.07647461 4.79188477 -17.44225586 4.24661133 -16.78881836 3.68481445 C-11.52840346 0.49855643 -6.03444103 0.02180753 0 0 Z " fill="#1C1A2B" transform="translate(102.460693359375,76.725341796875)"/>
<path d="M0 0 C3.16760724 -0.10881094 6.33141121 -0.18769629 9.5 -0.25 C10.386875 -0.28351563 11.27375 -0.31703125 12.1875 -0.3515625 C18.96961604 -0.4512995 24.38205297 0.73191528 29.52490234 5.37744141 C34.45310043 10.84390923 35.24960053 16.39165296 35.2746582 23.53076172 C35.27976913 24.2600589 35.28488007 24.98935608 35.29014587 25.74075317 C35.30397693 28.13714952 35.3030899 30.53325613 35.30078125 32.9296875 C35.30467202 34.6058869 35.30900747 36.28208531 35.31376648 37.95828247 C35.32121495 41.46684977 35.32094759 44.97531641 35.31567383 48.48388672 C35.30988394 52.9648564 35.32680512 57.44541211 35.3500185 61.9263134 C35.36480033 65.38716005 35.36562146 68.84790804 35.36250877 72.30878067 C35.36301985 73.96008244 35.36821717 75.61139004 35.37832069 77.26266098 C35.39075336 79.57885844 35.38385321 81.89426303 35.37231445 84.21044922 C35.37294388 85.52471893 35.3735733 86.83898865 35.3742218 88.19308472 C34.77331257 94.30606514 33.10958898 99.81238361 28.25 103.875 C27.61578125 104.42929687 26.9815625 104.98359375 26.328125 105.5546875 C21.07615859 108.81513645 15.52048789 109.25472229 9.46337891 109.29052734 C8.74529556 109.29724457 8.02721222 109.30396179 7.28736877 109.31088257 C4.93369464 109.3297473 2.58030734 109.3337807 0.2265625 109.3359375 C-1.42339186 109.34237289 -3.07334509 109.34910179 -4.72329712 109.35610962 C-8.17460779 109.36805316 -11.62581858 109.37179341 -15.07714844 109.37060547 C-19.48074699 109.37040232 -23.88369993 109.39771325 -28.28714561 109.43214989 C-31.69313449 109.45448014 -35.0989694 109.45844116 -38.50502396 109.45738602 C-40.12760265 109.45973242 -41.75018622 109.46850133 -43.37269211 109.48405075 C-62.07698076 109.64654534 -62.07698076 109.64654534 -69.15625 102.96484375 C-69.82140625 101.96130859 -69.82140625 101.96130859 -70.5 100.9375 C-71.19609375 99.93009766 -71.19609375 99.93009766 -71.90625 98.90234375 C-73.78048949 95.64250578 -74.12109453 93.01184188 -74.09765625 89.33203125 C-74.09443359 88.43935547 -74.09121094 87.54667969 -74.08789062 86.62695312 C-74.07951172 85.69818359 -74.07113281 84.76941406 -74.0625 83.8125 C-74.05798828 82.87212891 -74.05347656 81.93175781 -74.04882812 80.96289062 C-74.03704645 78.64189992 -74.01911114 76.32094193 -74 74 C-69.71 74 -65.42 74 -61 74 C-60.96261719 75.10859375 -60.92523438 76.2171875 -60.88671875 77.359375 C-60.82104552 78.82294974 -60.75459865 80.28648991 -60.6875 81.75 C-60.66494141 82.47960937 -60.64238281 83.20921875 -60.61914062 83.9609375 C-60.4041588 88.26057394 -60.18914894 91.01562258 -57 94 C-53.73382995 94.60422281 -53.73382995 94.60422281 -49.9140625 94.50170898 C-49.19667908 94.50711197 -48.47929565 94.51251495 -47.74017334 94.51808167 C-45.36802963 94.53059264 -42.9970941 94.51406366 -40.625 94.49609375 C-38.97737565 94.49624868 -37.32975094 94.49773674 -35.68212891 94.50050354 C-32.2286773 94.50188859 -28.77564048 94.48931227 -25.32226562 94.46655273 C-20.89335208 94.43816748 -16.46512788 94.44090386 -12.03616333 94.45364285 C-8.63381044 94.46059455 -5.23161718 94.45281662 -1.82928467 94.44038582 C-0.19619356 94.43586635 1.43691465 94.43553884 3.07000732 94.43945122 C5.35171692 94.44235854 7.63247329 94.42588084 9.9140625 94.40405273 C11.2129541 94.39864975 12.5118457 94.39324677 13.85009766 94.38768005 C16.90361879 94.21516919 16.90361879 94.21516919 18.9176178 92.9176178 C20.6006968 89.93576699 20.38989623 87.31732386 20.40405273 83.9140625 C20.41434761 82.83798737 20.41434761 82.83798737 20.42485046 81.74017334 C20.44315598 79.36824773 20.43927627 76.9969811 20.43359375 74.625 C20.43815344 72.9773741 20.44345838 71.32975011 20.44947815 69.68212891 C20.45841635 66.22876255 20.45597779 62.77562737 20.44604492 59.32226562 C20.43454816 54.8932645 20.45477333 50.4650598 20.48396206 46.03616333 C20.50229263 42.63381876 20.50203805 39.23166621 20.49632454 35.82928467 C20.49617097 34.19617596 20.50224468 32.56305453 20.51461601 30.92999268 C20.52946756 28.64812984 20.51889452 26.36775328 20.50170898 24.0859375 C20.50154282 22.7870459 20.50137665 21.4881543 20.50120544 20.14990234 C20.29467995 16.95738242 20.29467995 16.95738242 18.21180725 15.08911133 C14.84896507 13.43322133 11.42764806 13.4262082 7.75 13.3125 C6.63238281 13.26125977 6.63238281 13.26125977 5.4921875 13.20898438 C3.66197508 13.12685946 1.83101331 13.06174347 0 13 C0 8.71 0 4.42 0 0 Z " fill="#1C1B2B" transform="translate(288,214)"/>
<path d="M0 0 C0.71954361 -0.00511093 1.43908722 -0.01022186 2.18043518 -0.01548767 C4.5443671 -0.02931672 6.90800524 -0.02843185 9.27197266 -0.02612305 C10.92575182 -0.03001393 12.57952999 -0.03434941 14.23330688 -0.03910828 C17.69479617 -0.04655632 21.15618344 -0.04628971 24.61767578 -0.04101562 C29.03811351 -0.03522586 33.45813158 -0.0521468 37.87849998 -0.0753603 C41.29302381 -0.09014349 44.70744767 -0.09096307 48.12199783 -0.08785057 C49.75097102 -0.08836158 51.37995013 -0.09355765 53.00889206 -0.10366249 C72.1077188 -0.20759827 72.1077188 -0.20759827 79.37353516 5.9621582 C79.91623047 6.39915039 80.45892578 6.83614258 81.01806641 7.28637695 C85.1172347 12.56859636 85.93823898 18.53148051 85.96508789 25.0324707 C85.97195114 25.76205994 85.97881439 26.49164917 85.98588562 27.24334717 C86.00402475 29.62898826 86.00033545 32.0139637 85.99462891 34.3996582 C85.99919639 36.07300019 86.00450364 37.74634031 86.01051331 39.41967773 C86.01941868 42.9163376 86.01705016 46.41276874 86.00708008 49.90942383 C85.99558402 54.37477913 86.01582436 58.83934436 86.04499722 63.30459595 C86.06340222 66.75688633 86.0630584 70.20898876 86.0573597 73.66131592 C86.05720706 75.30703847 86.06320355 76.95277422 86.07565117 78.59844971 C86.14117821 88.67922575 85.99520419 96.02366856 79.18603516 104.0871582 C72.98035262 109.25856032 67.96231071 109.678474 60.18603516 109.4621582 C59.25919922 109.44862305 58.33236328 109.43508789 57.37744141 109.42114258 C55.10505308 109.38600255 52.83296654 109.33220243 50.56103516 109.2746582 C50.56103516 104.9846582 50.56103516 100.6946582 50.56103516 96.2746582 C51.66962891 96.23727539 52.77822266 96.19989258 53.92041016 96.16137695 C55.3839849 96.09570373 56.84752507 96.02925685 58.31103516 95.9621582 C59.04064453 95.93959961 59.77025391 95.91704102 60.52197266 95.89379883 C64.82125769 95.67883458 67.58183759 95.46948285 70.56103516 92.2746582 C71.16547757 88.9605617 71.16547757 88.9605617 71.06274414 85.08105469 C71.06814713 84.3523114 71.07355011 83.62356812 71.07911682 82.8727417 C71.09162715 80.46333233 71.07510074 78.05511244 71.05712891 75.64575195 C71.05728383 73.97331174 71.05877163 72.30087116 71.0615387 70.62843323 C71.06292366 67.12370938 71.05034748 63.6193943 71.02758789 60.11474609 C70.99918074 55.6162353 71.00194508 51.11840274 71.014678 46.61984158 C71.02162294 43.16691769 71.01385992 39.7141514 71.00142097 36.26124763 C70.99689646 34.60221015 70.99657838 32.9431558 71.00048637 31.28411674 C71.00338765 28.96867887 70.98694595 26.65418584 70.96508789 24.33886719 C70.95698341 22.36055153 70.95698341 22.36055153 70.94871521 20.3422699 C70.82078079 19.32995804 70.69284637 18.31764618 70.56103516 17.2746582 C66.83956635 14.793679 64.92160921 15.01577254 60.47509766 15 C59.75771423 14.99488907 59.04033081 14.98977814 58.3012085 14.98451233 C55.92939925 14.97060969 53.55788031 14.97157336 51.18603516 14.97387695 C49.53841036 14.96999078 47.89078656 14.96565627 46.24316406 14.96089172 C42.78984326 14.95342837 39.3366247 14.95372189 35.88330078 14.95898438 C31.45443779 14.96478345 27.0259924 14.94783825 22.59719849 14.9246397 C19.19488065 14.909921 15.79266386 14.90902803 12.39031982 14.91214943 C10.75721407 14.91163542 9.12410277 14.90638269 7.49102783 14.89633751 C5.20939836 14.88402423 2.92858864 14.89073292 0.64697266 14.90234375 C-0.65191895 14.90171432 -1.95081055 14.9010849 -3.2890625 14.9004364 C-6.4057346 15.0087997 -6.4057346 15.0087997 -8.35481262 16.67910767 C-9.69570276 18.65250027 -9.86138294 19.91097955 -9.95068359 22.28637695 C-9.98613281 23.04370117 -10.02158203 23.80102539 -10.05810547 24.58129883 C-10.09194336 25.75982422 -10.09194336 25.75982422 -10.12646484 26.9621582 C-10.160625 27.75944336 -10.19478516 28.55672852 -10.22998047 29.37817383 C-10.31234588 31.34317725 -10.37733552 33.30889517 -10.43896484 35.2746582 C-14.72896484 35.2746582 -19.01896484 35.2746582 -23.43896484 35.2746582 C-23.54777578 32.10705096 -23.62666113 28.94324699 -23.68896484 25.7746582 C-23.73923828 24.4443457 -23.73923828 24.4443457 -23.79052734 23.0871582 C-23.89026434 16.30504216 -22.70704956 10.89260524 -18.06152344 5.74975586 C-12.62524298 0.84877266 -7.10204937 0.02526958 0 0 Z " fill="#030304" transform="translate(237.43896484375,76.725341796875)"/>
<path d="M0 0 C0.89267578 0.00322266 1.78535156 0.00644531 2.70507812 0.00976562 C4.09823242 0.02233398 4.09823242 0.02233398 5.51953125 0.03515625 C6.45990234 0.03966797 7.40027344 0.04417969 8.36914062 0.04882812 C10.69013133 0.0606098 13.01108932 0.07854511 15.33203125 0.09765625 C15.33203125 4.38765625 15.33203125 8.67765625 15.33203125 13.09765625 C13.66914063 13.13632813 13.66914063 13.13632813 11.97265625 13.17578125 C10.50907578 13.23207281 9.04553563 13.28941992 7.58203125 13.34765625 C6.48761719 13.36892578 6.48761719 13.36892578 5.37109375 13.390625 C2.0786174 13.54028302 -0.30129495 13.87486711 -3.13671875 15.59765625 C-5.38202151 19.26345667 -5.34086314 22.62086698 -5.41796875 26.84765625 C-5.44761719 27.64042969 -5.47726563 28.43320313 -5.5078125 29.25 C-5.57824662 31.19867719 -5.62540357 33.1481712 -5.66796875 35.09765625 C-9.95796875 35.09765625 -14.24796875 35.09765625 -18.66796875 35.09765625 C-18.77648774 31.74261073 -18.85553228 28.39111653 -18.91796875 25.03515625 C-18.95148438 24.09220703 -18.985 23.14925781 -19.01953125 22.17773438 C-19.12172439 14.84537682 -17.93840217 10.62831771 -12.8515625 5.13671875 C-12.27535156 4.67007813 -11.69914063 4.2034375 -11.10546875 3.72265625 C-10.23728516 2.99949219 -10.23728516 2.99949219 -9.3515625 2.26171875 C-6.28681054 0.14270232 -3.6035202 -0.02295236 0 0 Z " fill="#1C1B2A" transform="translate(232.66796875,213.90234375)"/>
<path d="M0 0 C4.29 0 8.58 0 13 0 C13.03867188 1.66289062 13.03867188 1.66289062 13.078125 3.359375 C13.13441656 4.82295547 13.19176367 6.28649562 13.25 7.75 C13.26417969 8.47960937 13.27835938 9.20921875 13.29296875 9.9609375 C13.4434767 13.27211241 13.77182262 15.63212218 15.53125 18.46875 C18.9888002 20.61330645 22.29308179 20.67309876 26.25 20.75 C27.36761719 20.79447266 27.36761719 20.79447266 28.5078125 20.83984375 C30.33796672 20.9102343 32.16898769 20.95741832 34 21 C34 25.29 34 29.58 34 34 C30.81157295 34.10859354 27.62689273 34.18759399 24.4375 34.25 C23.09461914 34.30027344 23.09461914 34.30027344 21.72460938 34.3515625 C14.74027591 34.45389706 10.60168575 33.22256093 5.29296875 28.47265625 C0.21977165 22.00119281 -0.27949905 17.15608582 -0.125 9.1875 C-0.11597656 8.30384766 -0.10695312 7.42019531 -0.09765625 6.50976562 C-0.07419637 4.33972641 -0.03832865 2.16982753 0 0 Z " fill="#040404" transform="translate(214,152)"/>
<path d="M0 0 C4.38253554 2.19126777 7.16669816 4.41674539 9 9 C9.715328 13.76885333 9.48847963 17.05793214 7.25 21.375 C3.22278545 26.07341698 0.42563889 27.63170147 -5.75390625 28.12890625 C-10.44125837 27.859893 -13.05180777 24.84838253 -16.375 21.875 C-18.78436899 17.61227024 -18.75911491 13.78472426 -18 9 C-14.12150199 1.09935592 -8.46918157 -1.34431453 0 0 Z " fill="#1E1C2D" transform="translate(184,118)"/>
<path d="M0 0 C4.32303741 2.05936754 7.21843031 4.5000728 9 9 C9.72798272 13.65570345 9.42814156 17.14371687 7.3125 21.375 C4.40158786 24.67927865 2.33639371 26.69358771 -2.14453125 27.28125 C-6.89170962 27.47019242 -10.26865701 27.198294 -14 24 C-17.66137756 19.84384169 -18.65009994 16.57446077 -18.38671875 11.1796875 C-17.59047431 6.6917643 -15.17789571 4.0096249 -11.8125 1.125 C-7.77961221 -0.48815511 -4.27867968 -0.78991009 0 0 Z " fill="#1E1C2C" transform="translate(184,255)"/>
<path d="M0 0 C4.32303741 2.05936754 7.21843031 4.5000728 9 9 C9.72798272 13.65570345 9.42814156 17.14371687 7.3125 21.375 C4.40542645 24.67492133 2.34201838 26.64869724 -2.109375 27.31640625 C-7.55267135 27.59953072 -10.79364195 26.70560114 -15 23 C-18.16205748 19.31093294 -18.52383784 15.92109268 -18.3515625 11.21484375 C-17.63443905 6.69696599 -15.18268822 4.01373276 -11.8125 1.125 C-7.77961221 -0.48815511 -4.27867968 -0.78991009 0 0 Z " fill="#1E1C2C" transform="translate(273,207)"/>
<path d="M0 0 C4.32303741 2.05936754 7.21843031 4.5000728 9 9 C9.72798272 13.65570345 9.42814156 17.14371687 7.3125 21.375 C4.40542645 24.67492133 2.34201838 26.64869724 -2.109375 27.31640625 C-6.18959937 27.52863269 -8.64273195 27.17201795 -12.375 25.375 C-16.36967893 21.76076668 -18.1206612 18.35559774 -18.4375 13 C-18.25887909 8.75369377 -16.7873166 6.23931389 -14 3 C-9.82471994 -0.57881148 -5.27655208 -0.97413269 0 0 Z " fill="#1E1C2C" transform="translate(225,255)"/>
<path d="M0 0 C4.38253554 2.19126777 7.16669816 4.41674539 9 9 C9.70599788 13.70665253 9.45316426 17.0588127 7.375 21.375 C3.76076668 25.36967893 0.35559774 27.1206612 -5 27.4375 C-9.24630623 27.25887909 -11.76068611 25.7873166 -15 23 C-18.16205748 19.31093294 -18.52383784 15.92109268 -18.3515625 11.21484375 C-17.63443905 6.69696599 -15.18268822 4.01373276 -11.8125 1.125 C-7.79880044 -0.48047982 -4.26304489 -0.67667379 0 0 Z " fill="#040404" transform="translate(273,166)"/>
<path d="M0 0 C4.38253554 2.19126777 7.16669816 4.41674539 9 9 C9.71062194 13.73747957 9.47089401 17.05821199 7.3125 21.375 C4.40542645 24.67492133 2.34201838 26.64869724 -2.109375 27.31640625 C-6.18959937 27.52863269 -8.64273195 27.17201795 -12.375 25.375 C-16.36967893 21.76076668 -18.1206612 18.35559774 -18.4375 13 C-18.25887909 8.75369377 -16.7873166 6.23931389 -14 3 C-9.79832591 -0.60143494 -5.30422602 -0.84194064 0 0 Z " fill="#040404" transform="translate(225,118)"/>
<path d="M0 0 C4.62 0 9.24 0 14 0 C14 1.98 14 3.96 14 6 C9.38 6 4.76 6 0 6 C0 4.02 0 2.04 0 0 Z " fill="#AEADB4" transform="translate(193,265)"/>
<path d="M0 0 C1.98 0 3.96 0 6 0 C6 4.62 6 9.24 6 14 C4.02 14 2.04 14 0 14 C0 9.38 0 4.76 0 0 Z " fill="#AFAEB3" transform="translate(265,193)"/>
<path d="M0 0 C4.62 0 9.24 0 14 0 C14 1.98 14 3.96 14 6 C9.38 6 4.76 6 0 6 C0 4.02 0 2.04 0 0 Z " fill="#AEADB4" transform="translate(193,129)"/>
<path d="M0 0 C0.99 0.33 1.98 0.66 3 1 C2.01 2.485 2.01 2.485 1 4 C0.54227937 6.73872955 0.54227937 6.73872955 0.375 9.6875 C0.30023438 10.68136719 0.22546875 11.67523438 0.1484375 12.69921875 C0.09945313 13.45847656 0.05046875 14.21773437 0 15 C-0.33 15 -0.66 15 -1 15 C-1.02685412 12.68756208 -1.04632841 10.3750373 -1.0625 8.0625 C-1.07410156 6.77472656 -1.08570313 5.48695313 -1.09765625 4.16015625 C-1 1 -1 1 0 0 Z " fill="#DFDFE2" transform="translate(272,192)"/>
<path d="M0 0 C0.33 0.66 0.66 1.32 1 2 C0.0625 4.625 0.0625 4.625 -1 7 C-2.32 6.34 -3.64 5.68 -5 5 C-3.35 3.35 -1.7 1.7 0 0 Z " fill="#252533" transform="translate(86,80)"/>
<path d="M0 0 C0.99 0.66 1.98 1.32 3 2 C2.34 3.32 1.68 4.64 1 6 C-0.32 5.34 -1.64 4.68 -3 4 C-2.67 3.34 -2.34 2.68 -2 2 C-1.34 2.33 -0.68 2.66 0 3 C0 2.01 0 1.02 0 0 Z " fill="#262534" transform="translate(228,306)"/>
<path d="M0 0 C0.66 0.33 1.32 0.66 2 1 C1.01 2.98 0.02 4.96 -1 7 C-1.99 7 -2.98 7 -4 7 C-2.92598892 4.08482708 -2.22189824 2.22189824 0 0 Z " fill="#141414" transform="translate(260,168)"/>
<path d="M0 0 C0.66 0.33 1.32 0.66 2 1 C1.01 2.98 0.02 4.96 -1 7 C-1.99 7 -2.98 7 -4 7 C-2.92598892 4.08482708 -2.22189824 2.22189824 0 0 Z " fill="#141414" transform="translate(212,120)"/>
<path d="M0 0 C1.98 0.495 1.98 0.495 4 1 C4 1.99 4 2.98 4 4 C2.35 4 0.7 4 -1 4 C-0.67 2.68 -0.34 1.36 0 0 Z " fill="#171626" transform="translate(211,259)"/>
<path d="M0 0 C1.98 0 3.96 0 6 0 C6.33 1.65 6.66 3.3 7 5 C6.01 5 5.02 5 4 5 C1.8125 2.5 1.8125 2.5 0 0 Z " fill="#232230" transform="translate(168,227)"/>
</svg>
