<?xml version="1.0" encoding="UTF-8"?>
<svg version="1.1" xmlns="http://www.w3.org/2000/svg" width="1738" height="886">
<path d="M0 0 C62.34996969 -1.17772165 125.27989804 21.71321974 171.2421875 64.03125 C173.36192712 65.9798079 175.52045969 67.86866708 177.703125 69.74609375 C223.74686603 109.96502417 250.42848014 172.36934127 255.30528152 232.4938426 C255.72950839 239.80938857 255.64882865 247.13262154 255.63587952 254.45806885 C255.63631618 256.30396182 255.63719283 258.14985474 255.63846868 259.99574733 C255.64069502 265.04234347 255.63671794 270.08891822 255.63169062 275.13551164 C255.62735949 280.58729439 255.62883443 286.039076 255.6295929 291.49085999 C255.63011644 300.92792291 255.6269873 310.36497891 255.62135506 319.8020401 C255.61321715 333.44633351 255.61062249 347.09062358 255.60936707 360.73491916 C255.60718015 382.87357426 255.60053843 405.01222583 255.59106445 427.15087891 C255.58187373 448.65250632 255.5747932 470.15413274 255.57055664 491.65576172 C255.57042511 492.31903829 255.57029359 492.98231485 255.57015808 493.66569071 C255.56870867 500.98783336 255.56731684 508.30997603 255.56594861 515.6321187 C255.55558721 570.79511293 255.53797868 625.95810316 255.515625 681.12109375 C252.96090562 681.13910695 250.40631501 681.15223839 247.8515625 681.16259766 C246.77442993 681.17094383 246.77442993 681.17094383 245.67553711 681.17945862 C240.13980417 681.19627313 234.92893449 680.69617352 229.515625 679.49609375 C228.67733154 679.31715576 227.83903809 679.13821777 226.9753418 678.95385742 C193.71614652 671.47140633 166.54619188 650.86987367 148.375 622.32958984 C143.83635025 614.92345077 140.55752387 607.12441138 137.703125 598.93359375 C137.42500977 598.15806152 137.14689453 597.3825293 136.86035156 596.58349609 C130.66337773 577.70197352 131.07636219 557.85794608 131.12686229 538.2343415 C131.13374829 534.24590293 131.12308102 530.2575036 131.11457825 526.26907349 C131.10209274 519.37824542 131.10001097 512.4874801 131.10493469 505.59664345 C131.11178663 495.61551991 131.09914867 485.63448971 131.08142751 475.65338292 C131.05286631 459.42965196 131.03528852 443.20593115 131.02685547 426.98217773 C131.02634829 426.01403478 131.02584111 425.04589183 131.02531856 424.04841121 C131.02128663 416.19323037 131.01779186 408.3380493 131.01432133 400.48286819 C131.01126307 393.61154416 131.00799082 386.74022026 131.00439453 379.86889648 C131.00364061 378.41711365 131.00364061 378.41711365 131.00287145 376.93600187 C130.99410958 360.76365972 130.97364129 344.59135241 130.94491243 328.41903371 C130.92780037 318.46939501 130.92111694 308.51985526 130.92821848 298.5702038 C130.93241629 291.75027427 130.92598884 284.93040697 130.91141975 278.11049191 C130.90341124 274.18525341 130.9001665 270.26016954 130.91024208 266.33493233 C130.95496001 247.48553005 130.62165232 229.64198669 124.390625 211.62109375 C123.94275635 210.30927124 123.94275635 210.30927124 123.48583984 208.97094727 C117.03264175 190.78811264 106.68473621 176.12400344 93.515625 162.12109375 C92.97808594 161.51910156 92.44054687 160.91710937 91.88671875 160.296875 C72.81994844 139.79651294 41.7897459 127.15425121 14.109375 125.2109375 C-22.35494472 123.94786618 -55.9143513 134.25018786 -83.234375 158.99609375 C-107.35696893 181.59904024 -122.57467446 213.52651793 -123.6875 246.70703125 C-124.25527008 281.52182433 -113.37198032 313.86830203 -89.1015625 339.23046875 C-87.484375 341.12109375 -87.484375 341.12109375 -87.484375 343.12109375 C-86.91460938 343.36730469 -86.34484375 343.61351562 -85.7578125 343.8671875 C-83.10933277 345.32794694 -81.28290224 347.08053924 -79.109375 349.18359375 C-53.22819776 372.82578351 -19.76048113 380.42768469 14.31542969 379.28515625 C32.46008732 378.35494493 49.40713498 372.18322988 65.35546875 363.7578125 C68.515625 362.12109375 68.515625 362.12109375 71.515625 361.12109375 C71.515625 405.34109375 71.515625 449.56109375 71.515625 495.12109375 C62.42486499 497.71845375 54.00950934 499.93762968 44.765625 501.30859375 C43.72019531 501.47294922 42.67476562 501.63730469 41.59765625 501.80664062 C38.57351592 502.27290945 35.54740066 502.70758787 32.515625 503.12109375 C31.34108765 503.28230713 31.34108765 503.28230713 30.14282227 503.44677734 C-16.69593923 508.99707841 -65.26809484 499.55967718 -107.484375 479.12109375 C-108.17128418 478.79061035 -108.85819336 478.46012695 -109.56591797 478.11962891 C-133.88547187 466.25517311 -155.10367866 449.82611213 -174.484375 431.12109375 C-175.42539062 430.22132813 -176.36640625 429.3215625 -177.3359375 428.39453125 C-183.21031288 422.66565123 -188.41316662 416.56502577 -193.484375 410.12109375 C-194.25265625 409.18136719 -195.0209375 408.24164062 -195.8125 407.2734375 C-203.64232317 397.48615853 -210.11265574 386.8987206 -216.484375 376.12109375 C-216.87898926 375.45883789 -217.27360352 374.79658203 -217.68017578 374.11425781 C-250.58488512 318.20510239 -255.79293693 247.88102701 -239.953125 185.984375 C-229.41816834 146.91526142 -209.56657904 111.21596389 -181.9140625 81.73828125 C-179.96655145 79.64047996 -178.11349465 77.51799602 -176.296875 75.30859375 C-173.67122973 72.20419835 -170.74410741 69.60106344 -167.64453125 66.9765625 C-166.20657488 65.74142819 -164.79688518 64.47259201 -163.41796875 63.171875 C-119.48346849 21.83524084 -59.35843206 2.06290515 0 0 Z " fill="#16D9DF" transform="translate(698.484375,204.87890625)"/>
<path d="M0 0 C2.03722011 1.89976587 4.05023919 3.82387194 6.0625 5.75 C6.61550781 6.27045898 7.16851563 6.79091797 7.73828125 7.32714844 C23.21308717 21.93739128 39.59664479 40.96663309 48.0625 60.75 C48.0625 61.74 48.0625 62.73 48.0625 63.75 C47.48097168 64.07572998 46.89944336 64.40145996 46.30029297 64.73706055 C33.65541792 71.82892795 21.09782103 79.04608664 8.6328125 86.44921875 C2.93925194 89.82945697 -2.77790754 93.16834647 -8.5 96.5 C-19.08961436 102.66689307 -29.66318576 108.86079087 -40.23071289 115.06542969 C-42.49777908 116.39636244 -44.76626017 117.72477068 -47.03564453 119.05175781 C-48.77916258 120.07211046 -50.52047088 121.09627317 -52.25732422 122.12792969 C-56.71668219 124.75 -56.71668219 124.75 -58.9375 124.75 C-59.41058594 123.86699219 -59.88367187 122.98398437 -60.37109375 122.07421875 C-64.82827923 113.91737508 -69.67542663 106.67607789 -75.9375 99.75 C-76.75863281 98.83476562 -77.57976562 97.91953125 -78.42578125 96.9765625 C-100.21914416 73.92402751 -131.91676786 62.8611071 -163.08984375 61.625 C-199.8685213 60.95093489 -231.97826241 73.56726642 -258.5 98.9375 C-283.8482782 124.89962539 -293.4871008 160.02719932 -293.0859375 195.59375 C-292.41355828 225.31070712 -282.69093185 254.31526039 -262.9375 276.75 C-262.22851562 277.59175781 -261.51953125 278.43351562 -260.7890625 279.30078125 C-241.13312682 302.11443945 -211.90034899 316.28077961 -181.9375 318.75 C-165.8664523 319.52944251 -149.60782784 319.78555691 -133.9375 315.75 C-133.25123535 315.58371094 -132.5649707 315.41742187 -131.85791016 315.24609375 C-103.79592601 308.36597051 -78.67034626 291.62080616 -63.5625 266.8125 C-62.93601562 265.75160156 -62.30953125 264.69070313 -61.6640625 263.59765625 C-60.20038443 261.18358087 -58.64798961 258.98875551 -56.9375 256.75 C-42.81587563 264.52412515 -28.75897344 272.37755292 -14.86132812 280.54736328 C-7.76977555 284.70669677 -0.62141438 288.75255323 6.5625 292.75 C18.01318443 299.12259395 29.33711952 305.6986928 40.63769531 312.33300781 C43.76660456 314.16146022 46.91119025 315.96047508 50.0625 317.75 C48.57054828 323.35369961 45.78887993 327.58382905 42.5625 332.3125 C41.75727905 333.50286865 41.75727905 333.50286865 40.93579102 334.71728516 C33.84180224 345.11536663 26.23861923 354.82735639 17.60546875 363.99609375 C15.81845501 365.93133905 14.13111286 367.85590799 12.46875 369.890625 C10.52145271 372.20462113 8.67795331 374.12921816 6.375 376.0625 C4.19051456 377.91588043 2.04021469 379.77104494 -0.04296875 381.73828125 C-32.70112995 412.4852936 -77.09870458 432.19523777 -120.9375 439.75 C-121.8548291 439.91226074 -122.7721582 440.07452148 -123.71728516 440.24169922 C-188.23244213 451.13474454 -258.10487744 437.24935386 -311.8125 399.75 C-319.20294175 394.47512647 -326.14074464 388.7632152 -332.9375 382.75 C-333.79601563 382.00234375 -334.65453125 381.2546875 -335.5390625 380.484375 C-345.91472129 371.32744438 -355.41452432 361.66485872 -363.9375 350.75 C-364.71480469 349.78964844 -365.49210937 348.82929687 -366.29296875 347.83984375 C-409.94152443 292.94952969 -423.32776057 223.27056811 -415.9375 154.75 C-410.29308464 110.21556285 -393.38290525 67.63758634 -364.9375 32.75 C-364.18082031 31.78964844 -363.42414063 30.82929688 -362.64453125 29.83984375 C-349.74909911 13.95119525 -334.66921803 -1.42389152 -317.9375 -13.25 C-317.31746094 -13.69843262 -316.69742187 -14.14686523 -316.05859375 -14.60888672 C-307.02683921 -21.12907731 -297.72891027 -26.96699866 -287.89794922 -32.20458984 C-286.62211797 -32.88492725 -285.35005975 -33.57240403 -284.08251953 -34.26806641 C-197.93063294 -81.45031457 -80.69014063 -66.97682289 0 0 Z " fill="#16D9DF" transform="translate(1687.9375,266.25)"/>
<path d="M0 0 C54.28619922 -0.91699661 108.75963744 16.73211009 148.5390625 54.35546875 C149.48523438 55.27070313 150.43140625 56.1859375 151.40625 57.12890625 C151.90608398 57.60295898 152.40591797 58.07701172 152.92089844 58.56542969 C162.98960229 68.12335592 171.11551911 78.60387249 178.90625 90.06640625 C179.53877686 90.98836792 179.53877686 90.98836792 180.18408203 91.92895508 C182.60524839 95.56765344 184.10552431 98.97684144 185.40625 103.12890625 C184.55732178 103.57580811 183.70839355 104.02270996 182.83374023 104.4831543 C162.23776677 115.31357243 162.23776677 115.31357243 141.90625 126.62890625 C131.33187981 132.68916745 120.58352052 138.39770578 109.79980469 144.07373047 C102.03676619 148.16498762 94.30080271 152.28933424 86.81860352 156.88183594 C84.59058688 158.19915697 82.8526186 159.10715182 80.2421875 159.234375 C77.35663335 157.49690303 76.2540518 154.72944269 74.78125 151.81640625 C65.58532436 134.84483393 51.30307404 121.55532792 32.52734375 115.91015625 C11.02085361 109.86431233 -12.38663202 109.58107729 -32.59375 120.12890625 C-41.12502961 125.38701387 -46.91525725 132.40110759 -49.59375 142.12890625 C-50.52329869 151.85898732 -49.72794101 159.48321419 -43.59375 167.19140625 C-23.38989665 188.55926762 14.56858007 194.95940368 41.98022461 202.13119507 C59.78456845 206.80493812 77.20803964 212.35547143 94.56311035 218.47979736 C96.2743869 219.08246728 97.98816958 219.67800811 99.70214844 220.27294922 C135.95909102 232.93136686 166.07230125 256.88748928 183.3671875 291.64453125 C185.50361138 296.18069176 187.23419312 300.79927792 188.78125 305.56640625 C189.1210791 306.60027466 189.1210791 306.60027466 189.46777344 307.6550293 C193.5549906 321.23350226 194.91317606 335.18590171 194.79736328 349.30615234 C194.78124812 351.62917725 194.79735347 353.95046364 194.81640625 356.2734375 C194.8632525 390.71425389 183.25913794 424.123629 158.77441406 448.73730469 C157.56636311 449.9660503 156.40067059 451.23613268 155.2421875 452.51171875 C144.27479981 464.32600896 129.6104147 472.7731781 115.40625 480.12890625 C114.75785156 480.46873535 114.10945313 480.80856445 113.44140625 481.15869141 C93.66493553 491.39448355 72.30103895 497.46498178 50.40625 501.12890625 C48.97563232 501.37447266 48.97563232 501.37447266 47.51611328 501.625 C19.16182421 506.26679804 -12.17189594 506.27528575 -40.59375 502.12890625 C-41.50850098 502 -42.42325195 501.87109375 -43.36572266 501.73828125 C-90.8587434 494.83833675 -138.94103453 474.42742376 -169.59375 436.12890625 C-170.33753906 435.22269531 -171.08132812 434.31648438 -171.84765625 433.3828125 C-178.98967752 424.51347805 -184.88136942 414.96380672 -190.59375 405.12890625 C-190.98320801 404.46133301 -191.37266602 403.79375977 -191.77392578 403.10595703 C-196.21467435 395.42736704 -196.21467435 395.42736704 -197.59375 392.12890625 C-196.33433292 388.35065501 -195.26816058 388.10062592 -191.8359375 386.23046875 C-190.82982422 385.67552734 -189.82371094 385.12058594 -188.78710938 384.54882812 C-187.69205078 383.95650391 -186.59699219 383.36417969 -185.46875 382.75390625 C-183.16375974 381.48622743 -180.85907862 380.21798636 -178.5546875 378.94921875 C-177.37340222 378.30235438 -176.19208728 377.65554419 -175.01074219 377.00878906 C-170.01333421 374.25942914 -165.05313577 371.44608755 -160.09375 368.62890625 C-151.06687178 363.51673768 -142.01915991 358.44253085 -132.96484375 353.37915039 C-124.72659605 348.76962397 -116.50456134 344.13190424 -108.29101562 339.47851562 C-106.55554472 338.49571781 -104.81925756 337.51435953 -103.08203125 336.53466797 C-101.3888844 335.57811974 -99.69888506 334.61598348 -98.01171875 333.64892578 C-97.20347656 333.1898584 -96.39523438 332.73079102 -95.5625 332.2578125 C-94.84513672 331.84732666 -94.12777344 331.43684082 -93.38867188 331.01391602 C-91.59375 330.12890625 -91.59375 330.12890625 -89.59375 330.12890625 C-89.12066406 331.27746094 -88.64757812 332.42601562 -88.16015625 333.609375 C-78.39961796 356.76594558 -64.38765767 373.45264991 -41.03125 383.78125 C-15.7261301 393.70200723 19.19700389 395.39192103 44.5625 384.8125 C54.3639067 380.16653618 61.09642709 375.29739467 65.40625 365.12890625 C68.64205517 355.21925291 68.10176285 346.46611519 63.40625 337.12890625 C46.04739452 313.76578911 5.7862274 306.62452223 -20.84375 299.37890625 C-73.44139044 285.06423045 -132.88690043 267.6854664 -161.84375 217.25390625 C-180.0704226 184.62094976 -181.6597345 146.10218048 -172.78125 110.25390625 C-161.5584353 71.4803472 -135.4339215 43.48775439 -100.59375 24.12890625 C-69.28678665 7.30676296 -35.18119962 1.26193433 0 0 Z " fill="#16D9DF" transform="translate(197.59375,204.87109375)"/>
<path d="M0 0 C2.55471938 -0.0180132 5.10930999 -0.03114464 7.6640625 -0.04150391 C8.38215088 -0.04706802 9.10023926 -0.05263214 9.84008789 -0.05836487 C15.37589271 -0.0751796 20.5865792 0.425216 26 1.625 C26.83684326 1.80321289 27.67368652 1.98142578 28.53588867 2.16503906 C58.67384714 8.93426793 86.62872646 27.64540726 103.5625 53.625 C105.08863291 56.05702637 106.55818006 58.51715251 108 61 C108.35481445 61.61085449 108.70962891 62.22170898 109.07519531 62.85107422 C113.55672528 70.74858109 116.82230522 78.78617642 119.375 87.5 C119.61371826 88.3051001 119.85243652 89.1102002 120.09838867 89.93969727 C124.42197325 105.73759058 124.28442109 121.78110967 124.24050903 138.01904297 C124.2413824 140.43348613 124.24313579 142.8479291 124.24568737 145.26237106 C124.24921244 150.48818921 124.24659472 155.71396602 124.23841095 160.93977737 C124.22627629 168.71020533 124.2257453 176.48060474 124.22749493 184.25104044 C124.23011507 197.32593837 124.22346913 210.40081599 124.21146011 223.47570801 C124.19960794 236.41312765 124.19192457 249.35053883 124.18975449 262.28796387 C124.18961701 263.09371786 124.18947953 263.89947185 124.18933788 264.72964263 C124.18866117 268.82200542 124.18805842 272.91436822 124.18748413 277.00673103 C124.1832883 305.95924571 124.16982754 334.91174935 124.15087891 363.86425781 C124.13249699 391.98339784 124.11833616 420.10253485 124.10986328 448.22167969 C124.1094687 449.52283387 124.1094687 449.52283387 124.10906615 450.850274 C124.10642901 459.56177881 124.1038774 468.27328365 124.10138843 476.98478851 C124.09631662 494.72960526 124.09067411 512.47442182 124.08468628 530.21923828 C124.08427441 531.44293515 124.08427441 531.44293515 124.08385422 532.69135317 C124.06546677 587.12757341 124.03373628 641.56378737 124 696 C122.26702607 696.01212854 120.53402712 696.02070794 118.80102539 696.02783203 C117.3534359 696.03558151 117.3534359 696.03558151 115.87660217 696.04348755 C83.11596423 695.54822273 54.23256507 679.19961301 31.6015625 656.60546875 C6.65065927 630.21003954 -0.50307431 596.99047926 -0.36076355 561.70884705 C-0.3620738 559.27704107 -0.36470426 556.8452355 -0.36853105 554.41343218 C-0.37381602 549.15275741 -0.3698981 543.89217508 -0.35761642 538.6315155 C-0.33940562 530.80929333 -0.33861875 522.98713489 -0.34124239 515.16489538 C-0.34517154 502.00250347 -0.33520776 488.84015695 -0.31719017 475.67777824 C-0.29940911 462.65466016 -0.28788629 449.631561 -0.28463173 436.60843086 C-0.28442551 435.79720022 -0.28421929 434.98596958 -0.28400682 434.1501562 C-0.28299175 430.02994219 -0.28208763 425.90972817 -0.2812262 421.78951413 C-0.27493322 392.64343602 -0.25474424 363.49738258 -0.22631836 334.35131836 C-0.19874344 306.04500458 -0.17750321 277.73869757 -0.16479492 249.43237305 C-0.16440034 248.55909223 -0.16400576 247.68581141 -0.16359923 246.78606753 C-0.1596435 238.01582876 -0.15581608 229.24558994 -0.15208265 220.47535108 C-0.14447502 202.61105421 -0.13601126 184.74675778 -0.12702942 166.88246155 C-0.12641161 165.65053768 -0.12641161 165.65053768 -0.12578133 164.39372646 C-0.0982023 109.5958073 -0.0506068 54.79790213 0 0 Z " fill="#16D9DF" transform="translate(1060,0)"/>
</svg>
