<?xml version="1.0" encoding="UTF-8"?>
<svg version="1.1" xmlns="http://www.w3.org/2000/svg" width="100" height="100">
<path d="M0 0 C8.64822802 6.87119486 15.44311132 18.01837448 17 29 C18.40895106 46.55709566 15.56638733 59.95954698 4.4140625 73.99609375 C-3.81286908 83.00558711 -15.56118495 88.6401856 -27.6484375 89.3125 C-44.13318085 89.87527929 -57.29779856 86.1831071 -69.75 74.8125 C-80.88341536 62.87619411 -83.80272194 49.59143924 -83.34375 33.85546875 C-82.66010765 21.18611097 -76.33281061 9.26446012 -67.0703125 0.625 C-46.64754218 -15.40494803 -20.73790664 -15.44661826 0 0 Z " fill="#FBB37D" transform="translate(83,11)"/>
<path d="M0 0 C-0.33 1.65 -0.66 3.3 -1 5 C-0.13375 4.9175 0.7325 4.835 1.625 4.75 C6.63009263 5.1207476 9.55198671 7.40718538 12.875 11.0625 C14 13 14 13 14 16 C11.36 16 8.72 16 6 16 C6.54140625 16.67095703 6.54140625 16.67095703 7.09375 17.35546875 C10.93138937 22.35506003 10.93138937 22.35506003 11.3125 25.9375 C11.209375 26.618125 11.10625 27.29875 11 28 C9.62197239 27.76726645 8.24762141 27.51274601 6.875 27.25 C6.10929687 27.11078125 5.34359375 26.9715625 4.5546875 26.828125 C1.2742192 25.76473161 -1.20563775 23.99250178 -4 22 C-3.58427734 23.79244141 -3.58427734 23.79244141 -3.16015625 25.62109375 C-2.79401026 27.22650309 -2.4281396 28.83197525 -2.0625 30.4375 C-1.88009766 31.22060547 -1.69769531 32.00371094 -1.50976562 32.81054688 C-0.28979762 38.20058734 0.47675456 43.49766112 1 49 C2.19238281 49 3.38476562 49 4.61328125 49 C10.07552083 49 15.53776042 49 21 49 C20.34 49.99 19.68 50.98 19 52 C19.73476562 52.103125 20.46953125 52.20625 21.2265625 52.3125 C29.57318325 54.38152148 35.27764687 62.30367289 40 69 C33.05771361 76.86792458 23.3131885 82.31892394 12.80078125 83.18017578 C-2.84236297 84.04751228 -15.29110401 81.81636949 -28 72 C-28.66 71.01 -29.32 70.02 -30 69 C-23.95992108 60.43512925 -18.07909399 54.359698 -8 51 C-8.33 42.09 -8.66 33.18 -9 24 C-9.66 24 -10.32 24 -11 24 C-11.04125 24.78375 -11.0825 25.5675 -11.125 26.375 C-12.3725284 31.54333195 -15.13515646 35.56693935 -18 40 C-20.47055133 36.29417301 -21.16922616 34.25719417 -21.5625 29.875 C-21.64628906 28.96492188 -21.73007812 28.05484375 -21.81640625 27.1171875 C-21.87699219 26.41851562 -21.93757813 25.71984375 -22 25 C-22.40992188 25.5053125 -22.81984375 26.010625 -23.2421875 26.53125 C-23.78101563 27.1809375 -24.31984375 27.830625 -24.875 28.5 C-25.40867187 29.1496875 -25.94234375 29.799375 -26.4921875 30.46875 C-26.98976563 30.9740625 -27.48734375 31.479375 -28 32 C-28.66 32 -29.32 32 -30 32 C-30.32429071 25.92255186 -30.49866785 21.24800177 -27 16 C-24.8125 13.625 -24.8125 13.625 -23 12 C-23.99 11.34 -24.98 10.68 -26 10 C-25.67 9.01 -25.34 8.02 -25 7 C-21.03230578 5.01615289 -16.14470514 5.67369435 -12 7 C-11.4225 6.21625 -10.845 5.4325 -10.25 4.625 C-6.87014391 0.68183456 -5.20138727 0 0 0 Z " fill="#A3C000" transform="translate(45,17)"/>
<path d="M0 0 C0.99 0.99 0.99 0.99 2 2 C1.67 2.66 1.34 3.32 1 4 C0.92907158 6.2072923 0.91584975 8.41667452 0.9375 10.625 C0.94652344 11.81351563 0.95554687 13.00203125 0.96484375 14.2265625 C0.97644531 15.14179688 0.98804687 16.05703125 1 17 C-0.32 17.66 -1.64 18.32 -3 19 C-3 18.34 -3 17.68 -3 17 C-4.485 16.505 -4.485 16.505 -6 16 C-5.01 15.505 -5.01 15.505 -4 15 C-5.32 15 -6.64 15 -8 15 C-8.33 15.66 -8.66 16.32 -9 17 C-12.96 17 -16.92 17 -21 17 C-21.33 17.66 -21.66 18.32 -22 19 C-23.98 18.67 -25.96 18.34 -28 18 C-27.67 16.35 -27.34 14.7 -27 13 C-32.58110327 14.76734937 -35.69901348 15.91097912 -39 21 C-39.515625 20.835 -40.03125 20.67 -40.5625 20.5 C-44.38650845 19.71558801 -48.44291427 19.22145713 -52 21 C-52.22609337 23.12364481 -52.22609337 23.12364481 -50.5 24.625 C-50.005 25.07875 -49.51 25.5325 -49 26 C-49.78375 26.556875 -50.5675 27.11375 -51.375 27.6875 C-56.70077133 32.37925094 -56.50501997 38.29171802 -57 45 C-56.071875 44.236875 -55.14375 43.47375 -54.1875 42.6875 C-53.66542969 42.25824219 -53.14335938 41.82898437 -52.60546875 41.38671875 C-50.99096731 39.99219804 -49.49004008 38.52583683 -48 37 C-47.95101562 37.74765625 -47.90203125 38.4953125 -47.8515625 39.265625 C-47.77679688 40.25046875 -47.70203125 41.2353125 -47.625 42.25 C-47.55539063 43.22453125 -47.48578125 44.1990625 -47.4140625 45.203125 C-47.01534751 47.89633189 -46.36492937 49.66963279 -45 52 C-44.01836578 50.06374902 -43.03977546 48.12595461 -42.0625 46.1875 C-41.51722656 45.10855469 -40.97195312 44.02960937 -40.41015625 42.91796875 C-38.9414793 40.03788473 -38.9414793 40.03788473 -38 37 C-37.34 37 -36.68 37 -36 37 C-34.16578806 45.5685953 -32.99129479 55.38417802 -35 64 C-37.77285129 67.10274035 -40.0338412 68.1640358 -43.87109375 69.6953125 C-49.57675835 72.07445354 -52.66209371 76.99314057 -56 82 C-62.22037178 79.49002542 -65.5297824 73.09009807 -68.3046875 67.2578125 C-73.40036329 54.72319395 -74.43771399 39.40986445 -69.328125 26.671875 C-62.21396853 12.35986609 -52.65763227 2.77679323 -37.5 -2.9375 C-25.71450059 -5.98876198 -10.90746212 -5.51410447 0 0 Z " fill="#F9AF7F" transform="translate(72,4)"/>
<path d="M0 0 C0.99 0.99 0.99 0.99 2 2 C1.67 2.66 1.34 3.32 1 4 C0.92907158 6.2072923 0.91584975 8.41667452 0.9375 10.625 C0.94652344 11.81351563 0.95554687 13.00203125 0.96484375 14.2265625 C0.97644531 15.14179688 0.98804687 16.05703125 1 17 C-0.98 17.99 -0.98 17.99 -3 19 C-3 18.34 -3 17.68 -3 17 C-3.99 16.67 -4.98 16.34 -6 16 C-5.34 15.67 -4.68 15.34 -4 15 C-5.32 15 -6.64 15 -8 15 C-8.33 15.66 -8.66 16.32 -9 17 C-12.96 17 -16.92 17 -21 17 C-21.33 17.66 -21.66 18.32 -22 19 C-23.98 18.67 -25.96 18.34 -28 18 C-27.67 16.35 -27.34 14.7 -27 13 C-32.58110327 14.76734937 -35.69901348 15.91097912 -39 21 C-41.97 20.34 -44.94 19.68 -48 19 C-48 18.34 -48 17.68 -48 17 C-50.29199177 17.14063135 -52.58359186 17.28765943 -54.875 17.4375 C-56.15117188 17.51871094 -57.42734375 17.59992187 -58.7421875 17.68359375 C-61.88300152 17.79206027 -61.88300152 17.79206027 -64 19 C-60.4731455 8.90830741 -51.16995442 3.54887503 -42 -1 C-29.94133144 -6.80297702 -11.78904919 -5.95977764 0 0 Z " fill="#CDE8BB" transform="translate(72,4)"/>
<path d="M0 0 C-0.33 1.65 -0.66 3.3 -1 5 C-0.13375 4.9175 0.7325 4.835 1.625 4.75 C6.63009263 5.1207476 9.55198671 7.40718538 12.875 11.0625 C14 13 14 13 14 16 C11.36 16 8.72 16 6 16 C6.54140625 16.67095703 6.54140625 16.67095703 7.09375 17.35546875 C10.93138937 22.35506003 10.93138937 22.35506003 11.3125 25.9375 C11.209375 26.618125 11.10625 27.29875 11 28 C4.49088175 26.99048397 -0.86313628 25.24454467 -6 21 C-8 18.1875 -8 18.1875 -9 16 C-9.07476562 16.65484375 -9.14953125 17.3096875 -9.2265625 17.984375 C-10.34477688 25.74609833 -12.88314798 32.31011546 -17 39 C-17.99 39.495 -17.99 39.495 -19 40 C-21.4021604 35.1956792 -21.61122229 30.26896105 -22 25 C-22.40992188 25.5053125 -22.81984375 26.010625 -23.2421875 26.53125 C-23.78101563 27.1809375 -24.31984375 27.830625 -24.875 28.5 C-25.40867187 29.1496875 -25.94234375 29.799375 -26.4921875 30.46875 C-26.98976563 30.9740625 -27.48734375 31.479375 -28 32 C-28.66 32 -29.32 32 -30 32 C-30.32429071 25.92255186 -30.49866785 21.24800177 -27 16 C-24.8125 13.625 -24.8125 13.625 -23 12 C-23.99 11.34 -24.98 10.68 -26 10 C-25.67 9.01 -25.34 8.02 -25 7 C-21.03230578 5.01615289 -16.14470514 5.67369435 -12 7 C-11.4225 6.21625 -10.845 5.4325 -10.25 4.625 C-6.87014391 0.68183456 -5.20138727 0 0 0 Z " fill="#338D03" transform="translate(45,17)"/>
<path d="M0 0 C0.87833496 0.00016113 1.75666992 0.00032227 2.66162109 0.00048828 C10.16780706 0.1316429 18.74930582 0.81180582 24.3125 6.375 C23.6525 7.695 22.9925 9.015 22.3125 10.375 C21.6525 10.375 20.9925 10.375 20.3125 10.375 C20.3125 9.385 20.3125 8.395 20.3125 7.375 C18.0025 7.045 15.6925 6.715 13.3125 6.375 C13.3125 7.035 13.3125 7.695 13.3125 8.375 C15.7875 8.87 15.7875 8.87 18.3125 9.375 C18.3125 9.705 18.3125 10.035 18.3125 10.375 C5.40457161 10.53612532 5.40457161 10.53612532 0.5 9.8125 C-2.78497149 9.36162156 -5.59816837 9.67296539 -8.8671875 10.1171875 C-15.11229368 10.68806978 -21.42212349 10.44418821 -27.6875 10.375 C-28.0175 9.715 -28.3475 9.055 -28.6875 8.375 C-26.83735947 7.40891677 -24.98216527 6.4525093 -23.125 5.5 C-22.09246094 4.96632813 -21.05992188 4.43265625 -19.99609375 3.8828125 C-13.27111891 0.818066 -7.28709779 -0.01247079 0 0 Z " fill="#9FE7E3" transform="translate(49.6875,-0.375)"/>
<path d="M0 0 C0.80308594 0.27199219 1.60617188 0.54398438 2.43359375 0.82421875 C3.23925781 1.08847656 4.04492188 1.35273438 4.875 1.625 C6.87109375 2.51171875 6.87109375 2.51171875 7.87109375 4.51171875 C5.56109375 5.17171875 3.25109375 5.83171875 0.87109375 6.51171875 C1.20109375 7.17171875 1.53109375 7.83171875 1.87109375 8.51171875 C1.87109375 9.84505208 1.87109375 11.17838542 1.87109375 12.51171875 C3.52109375 11.19171875 5.17109375 9.87171875 6.87109375 8.51171875 C9.87109375 10.51171875 9.87109375 10.51171875 10.80859375 13.57421875 C10.9272068 21.04684061 6.60639574 27.24174756 2.87109375 33.51171875 C0.40054242 29.80589176 -0.29813241 27.76891292 -0.69140625 23.38671875 C-0.77519531 22.47664063 -0.85898437 21.5665625 -0.9453125 20.62890625 C-1.00589844 19.93023437 -1.06648438 19.2315625 -1.12890625 18.51171875 C-1.53882813 19.01703125 -1.94875 19.52234375 -2.37109375 20.04296875 C-2.90992188 20.69265625 -3.44875 21.34234375 -4.00390625 22.01171875 C-4.53757812 22.66140625 -5.07125 23.31109375 -5.62109375 23.98046875 C-6.11867188 24.48578125 -6.61625 24.99109375 -7.12890625 25.51171875 C-7.78890625 25.51171875 -8.44890625 25.51171875 -9.12890625 25.51171875 C-9.45319696 19.43427061 -9.6275741 14.75972052 -6.12890625 9.51171875 C-3.94140625 7.13671875 -3.94140625 7.13671875 -2.12890625 5.51171875 C-3.11890625 4.85171875 -4.10890625 4.19171875 -5.12890625 3.51171875 C-4.79890625 2.52171875 -4.46890625 1.53171875 -4.12890625 0.51171875 C-2.12890625 -0.48828125 -2.12890625 -0.48828125 0 0 Z " fill="#44960F" transform="translate(24.12890625,23.48828125)"/>
<path d="M0 0 C8.12669635 1.56767757 14.18557855 8.68640428 19 15 C23 20.92330383 23 20.92330383 23 25 C12.31648936 25.62234043 12.31648936 25.62234043 7.5625 23.375 C-0.80029161 15.62411998 -0.80029161 15.62411998 -1.1328125 9.58984375 C-1.13023438 8.71457031 -1.12765625 7.83929687 -1.125 6.9375 C-1.12757812 6.05964844 -1.13015625 5.18179687 -1.1328125 4.27734375 C-1 2 -1 2 0 0 Z " fill="#FEB501" transform="translate(73,6)"/>
<path d="M0 0 C1.20849609 0.00773437 1.20849609 0.00773437 2.44140625 0.015625 C8.31362952 0.09431476 8.31362952 0.09431476 10.625 1.25 C10.05370947 5.49607828 8.58158013 8.30384562 6.25 11.875 C5.64414063 12.81601563 5.03828125 13.75703125 4.4140625 14.7265625 C2.92501321 16.82683727 1.59850929 18.60724646 -0.375 20.25 C-1.035 20.25 -1.695 20.25 -2.375 20.25 C-3.4705696 18.91755049 -4.50174938 17.53183693 -5.5 16.125 C-8.54282741 12.0572202 -11.65795144 9.24750293 -15.87109375 6.44140625 C-16.61552734 5.85166016 -16.61552734 5.85166016 -17.375 5.25 C-17.375 4.59 -17.375 3.93 -17.375 3.25 C-11.33127209 0.62229221 -6.55535474 -0.17279354 0 0 Z " fill="#018999" transform="translate(86.375,65.75)"/>
<path d="M0 0 C1.34183811 0.47670564 2.67960705 0.96676438 4 1.5 C2.85644703 4.93065892 2.21039891 5.2610872 -0.6875 7.1875 C-5.094144 10.33963994 -8.0032575 14.02758884 -11 18.5 C-14.78878256 17.01453018 -16.37665051 14.96285806 -18.625 11.625 C-19.21539063 10.76132813 -19.80578125 9.89765625 -20.4140625 9.0078125 C-24 3.33743842 -24 3.33743842 -24 -0.5 C-17.71854622 -3.64072689 -6.48505239 -1.97533205 0 0 Z " fill="#008999" transform="translate(27,67.5)"/>
<path d="M0 0 C2.31 0.33 4.62 0.66 7 1 C7 1.99 7 2.98 7 4 C7.66 4 8.32 4 9 4 C8.67 5.32 8.34 6.64 8 8 C7.34 8 6.68 8 6 8 C6 7.34 6 6.68 6 6 C3.69 6 1.38 6 -1 6 C-1 6.66 -1 7.32 -1 8 C-16.51 8 -32.02 8 -48 8 C-43 3 -43 3 -40.34033203 2.44824219 C-39.40560059 2.48079102 -38.47086914 2.51333984 -37.5078125 2.546875 C-36.47269531 2.5675 -35.43757813 2.588125 -34.37109375 2.609375 C-33.29988281 2.65578125 -32.22867188 2.7021875 -31.125 2.75 C-29.00272887 2.8117388 -26.88032648 2.86914173 -24.7578125 2.921875 C-23.75838623 2.94886475 -22.75895996 2.97585449 -21.72924805 3.00366211 C-18.38267589 2.99917167 -15.29829837 2.53198361 -12 2 C-9.55859375 2.12109375 -9.55859375 2.12109375 -7.4375 2.4375 C-3.92775216 2.90626769 -0.54805305 3.09097572 3 3 C2.01 2.67 1.02 2.34 0 2 C0 1.34 0 0.68 0 0 Z " fill="#B6E7CF" transform="translate(63,6)"/>
<path d="M0 0 C3.79821737 2.32973775 4.75695984 4.30090882 5.921875 8.55078125 C6.37626953 10.18756836 6.37626953 10.18756836 6.83984375 11.85742188 C7.14019531 12.99759766 7.44054688 14.13777344 7.75 15.3125 C8.06582031 16.44107422 8.38164063 17.56964844 8.70703125 18.73242188 C10.13506867 23.98401403 11.18103863 28.52561568 11 34 C6.545 34.495 6.545 34.495 2 35 C1.93941406 33.54207031 1.87882812 32.08414063 1.81640625 30.58203125 C1.73197369 28.65884525 1.64732706 26.73566864 1.5625 24.8125 C1.50352539 23.37293945 1.50352539 23.37293945 1.44335938 21.90429688 C1.40146484 20.97294922 1.35957031 20.04160156 1.31640625 19.08203125 C1.26141968 17.80162964 1.26141968 17.80162964 1.20532227 16.49536133 C0.99462179 13.93463658 0.52321704 11.51312281 0 9 C-0.06371368 7.39696373 -0.08644214 5.79162328 -0.0625 4.1875 C-0.05347656 3.39730469 -0.04445312 2.60710938 -0.03515625 1.79296875 C-0.02355469 1.20128906 -0.01195312 0.60960937 0 0 Z " fill="#914E07" transform="translate(35,32)"/>
<path d="M0 0 C0.495 0.99 0.495 0.99 1 2 C-12.86 2 -26.72 2 -41 2 C-39.70724369 -0.58551263 -38.89055586 -0.68768816 -36.1875 -1.625 C-25.72475311 -4.58416074 -9.81606126 -5.28370705 0 0 Z " fill="#81DFF3" transform="translate(70,3)"/>
<path d="M0 0 C0 1.98 0 3.96 0 6 C0.61488281 6.15855469 1.22976562 6.31710938 1.86328125 6.48046875 C8.54716981 8.40994854 8.54716981 8.40994854 11.0625 11.6875 C11.5265625 12.8321875 11.5265625 12.8321875 12 14 C10.5629191 14.05422947 9.12524538 14.09289723 7.6875 14.125 C6.88699219 14.14820313 6.08648437 14.17140625 5.26171875 14.1953125 C3 14 3 14 0 12 C-1.9896995 11.60986284 -3.99019869 11.26797351 -6 11 C-6.33 10.01 -6.66 9.02 -7 8 C-8.65 8.66 -10.3 9.32 -12 10 C-12 6.02621451 -10.65246343 4.87350205 -8 2 C-4.94024557 -0.00796384 -3.85514114 0 0 0 Z " fill="#429D12" transform="translate(45,17)"/>
<path d="M0 0 C1.2065625 0.2475 1.2065625 0.2475 2.4375 0.5 C5.47678677 1.09303157 7.00911864 0.77184035 10 0 C11.85546875 2.24609375 11.85546875 2.24609375 13.7109375 4.4921875 C14.75250992 5.71051161 15.86660097 6.86660097 17 8 C17.33 8 17.66 8 18 8 C18 9.65 18 11.3 18 13 C11.3386656 11.96687638 6.48286421 9.91419734 1 6 C1.33 5.01 1.66 4.02 2 3 C1.34 2.01 0.68 1.02 0 0 Z " fill="#56B922" transform="translate(38,32)"/>
<path d="M0 0 C7.92 0 15.84 0 24 0 C21 2 21 2 18 3 C17.67 3.66 17.34 4.32 17 5 C13.04 5 9.08 5 5 5 C4.67 5.66 4.34 6.32 4 7 C1.03 6.505 1.03 6.505 -2 6 C-1.49396008 3.83125748 -1.00016187 2.00032373 0 0 Z " fill="#D7F5C6" transform="translate(46,16)"/>
<path d="M0 0 C1.20849609 0.00773437 1.20849609 0.00773437 2.44140625 0.015625 C8.31362952 0.09431476 8.31362952 0.09431476 10.625 1.25 C10.625 2.24 10.625 3.23 10.625 4.25 C9.43003906 4.31058594 8.23507813 4.37117188 7.00390625 4.43359375 C-4.71028961 5.04215577 -4.71028961 5.04215577 -16.375 6.25 C-16.705 5.26 -17.035 4.27 -17.375 3.25 C-11.33127209 0.62229221 -6.55535474 -0.17279354 0 0 Z " fill="#06C8D9" transform="translate(86.375,65.75)"/>
<path d="M0 0 C6.13518234 0.36811094 8.85952718 1.6623618 13 6 C13.875 8.8125 13.875 8.8125 14 11 C11.36 11 8.72 11 6 11 C7.0209375 12.3921875 7.0209375 12.3921875 8.0625 13.8125 C8.701875 14.864375 9.34125 15.91625 10 17 C9.67 17.99 9.34 18.98 9 20 C8.51080078 19.13375 8.51080078 19.13375 8.01171875 18.25 C7.57472656 17.5075 7.13773438 16.765 6.6875 16 C6.04361328 14.88625 6.04361328 14.88625 5.38671875 13.75 C4.70029297 12.88375 4.70029297 12.88375 4 12 C3.01 12 2.02 12 1 12 C-1 12 -3 12 -5 12 C-5 12.99 -5 13.98 -5 15 C-7.50037734 12.82575883 -8.43628586 11.26954202 -9 8 C-5.94858478 6.98286159 -3.19920361 6.33325038 0 6 C0.99 6.66 1.98 7.32 3 8 C5.05709596 8.24055468 5.05709596 8.24055468 7.1875 8.125 C8.445625 8.08375 9.70375 8.0425 11 8 C7.51279384 3.6409923 4.27239085 3.05447817 -1 2 C-0.67 1.34 -0.34 0.68 0 0 Z " fill="#389408" transform="translate(45,22)"/>
<path d="M0 0 C1.34183811 0.47670564 2.67960705 0.96676438 4 1.5 C3.67 2.49 3.34 3.48 3 4.5 C1.88625 4.34660156 0.7725 4.19320312 -0.375 4.03515625 C-5.24074836 3.42693771 -10.10392803 3.16688586 -15 2.9375 C-15.87011719 2.89431641 -16.74023438 2.85113281 -17.63671875 2.80664062 C-19.75768219 2.70175782 -21.87882433 2.60049925 -24 2.5 C-24 1.51 -24 0.52 -24 -0.5 C-17.71854622 -3.64072689 -6.48505239 -1.97533205 0 0 Z " fill="#03C8DA" transform="translate(27,67.5)"/>
<path d="M0 0 C0.87415558 -0.00622879 1.74831116 -0.01245758 2.6489563 -0.01887512 C3.58448334 -0.00966537 4.52001038 -0.00045563 5.48388672 0.0090332 C6.93322098 0.00828545 6.93322098 0.00828545 8.41183472 0.00752258 C10.45100973 0.0098604 12.49018777 0.01957168 14.52929688 0.03613281 C17.65895204 0.05977953 20.78775836 0.0566848 23.91748047 0.05004883 C25.89795432 0.05562382 27.87842457 0.06273257 29.85888672 0.0715332 C30.79846222 0.0706218 31.73803772 0.06971039 32.70608521 0.06877136 C33.57393646 0.07830338 34.44178772 0.08783539 35.3359375 0.09765625 C36.10108673 0.10226364 36.86623596 0.10687103 37.65457153 0.11161804 C39.53857422 0.37231445 39.53857422 0.37231445 41.53857422 2.37231445 C40.87857422 3.69231445 40.21857422 5.01231445 39.53857422 6.37231445 C38.87857422 6.37231445 38.21857422 6.37231445 37.53857422 6.37231445 C37.53857422 5.38231445 37.53857422 4.39231445 37.53857422 3.37231445 C22.35857422 3.37231445 7.17857422 3.37231445 -8.46142578 3.37231445 C-3.96067137 -0.00325136 -3.96067137 -0.00325136 0 0 Z " fill="#8FE3EB" transform="translate(32.46142578125,3.627685546875)"/>
<path d="M0 0 C4.95 0 9.9 0 15 0 C13.21739173 3.56521654 11.24007711 6.71455357 9 10 C4.50486731 8.50162244 2.37078067 4.87680938 0 1 C0 0.67 0 0.34 0 0 Z " fill="#016977" transform="translate(7,76)"/>
<path d="M0 0 C4.95 0 9.9 0 15 0 C10.64784547 7.95393759 10.64784547 7.95393759 8 10 C7.34 10 6.68 10 6 10 C4.4921875 8.3203125 4.4921875 8.3203125 2.875 6.125 C2.33617188 5.40570313 1.79734375 4.68640625 1.2421875 3.9453125 C0 2 0 2 0 0 Z " fill="#016A77" transform="translate(78,76)"/>
<path d="M0 0 C1.20462891 0.40798828 1.20462891 0.40798828 2.43359375 0.82421875 C3.23925781 1.08847656 4.04492188 1.35273438 4.875 1.625 C6.87109375 2.51171875 6.87109375 2.51171875 7.87109375 4.51171875 C5.56109375 5.17171875 3.25109375 5.83171875 0.87109375 6.51171875 C1.20109375 7.17171875 1.53109375 7.83171875 1.87109375 8.51171875 C1.87109375 11.51171875 1.87109375 11.51171875 -0.12890625 14.51171875 C-0.12890625 13.85171875 -0.12890625 13.19171875 -0.12890625 12.51171875 C-0.78890625 12.51171875 -1.44890625 12.51171875 -2.12890625 12.51171875 C-2.45890625 13.50171875 -2.78890625 14.49171875 -3.12890625 15.51171875 C-3.45890625 14.85171875 -3.78890625 14.19171875 -4.12890625 13.51171875 C-3.79890625 12.85171875 -3.46890625 12.19171875 -3.12890625 11.51171875 C-4.11890625 10.85171875 -5.10890625 10.19171875 -6.12890625 9.51171875 C-4.80890625 8.19171875 -3.48890625 6.87171875 -2.12890625 5.51171875 C-3.11890625 4.85171875 -4.10890625 4.19171875 -5.12890625 3.51171875 C-4.79890625 2.52171875 -4.46890625 1.53171875 -4.12890625 0.51171875 C-2.12890625 -0.48828125 -2.12890625 -0.48828125 0 0 Z " fill="#47A515" transform="translate(24.12890625,23.48828125)"/>
<path d="M0 0 C8.58 0 17.16 0 26 0 C25.34 1.65 24.68 3.3 24 5 C20.06329512 6.31223496 17.87511856 5.24296256 14 4 C14 3.34 14 2.68 14 2 C11.70800823 2.14063135 9.41640814 2.28765943 7.125 2.4375 C5.84882813 2.51871094 4.57265625 2.59992187 3.2578125 2.68359375 C0.11699848 2.79206027 0.11699848 2.79206027 -2 4 C-1.34 2.68 -0.68 1.36 0 0 Z " fill="#E7FABD" transform="translate(10,19)"/>
<path d="M0 0 C2.61376953 -0.34057617 2.61376953 -0.34057617 5.8828125 -0.29296875 C7.04941406 -0.28330078 8.21601563 -0.27363281 9.41796875 -0.26367188 C10.64128906 -0.23853516 11.86460938 -0.21339844 13.125 -0.1875 C14.35605469 -0.17396484 15.58710938 -0.16042969 16.85546875 -0.14648438 C19.90407843 -0.11103543 22.951825 -0.06162079 26 0 C25.67 1.32 25.34 2.64 25 4 C16.09 3.67 7.18 3.34 -2 3 C-1.34 2.01 -0.68 1.02 0 0 Z " fill="#D7F6C6" transform="translate(12,16)"/>
<path d="M0 0 C2.50600794 1.1137813 4.20751624 2.19022322 6.25 4.0625 C9.92705078 6.65314941 12.54995953 6.69830234 17 7 C17 7.66 17 8.32 17 9 C14.42183113 10.6857258 13.12469007 11.00779313 10 10.8125 C6.98484231 9.99589479 5.31734637 9.04996025 3 7 C2.01 7.66 1.02 8.32 0 9 C0.185625 8.2575 0.37125 7.515 0.5625 6.75 C0.99203108 4.05009037 0.85122974 2.55368923 0 0 Z " fill="#DA2E2D" transform="translate(50,56)"/>
<path d="M0 0 C1.31387695 -0.00386719 1.31387695 -0.00386719 2.65429688 -0.0078125 C3.56115234 -0.00007812 4.46800781 0.00765625 5.40234375 0.015625 C6.31306641 0.00789062 7.22378906 0.00015625 8.16210938 -0.0078125 C9.03673828 -0.00523438 9.91136719 -0.00265625 10.8125 0 C11.60922119 0.00225586 12.40594238 0.00451172 13.22680664 0.00683594 C15.33984375 0.265625 15.33984375 0.265625 18.33984375 2.265625 C9.21231992 3.01002782 0.4610787 3.52172727 -8.66015625 2.265625 C-5.64754838 0.53183667 -3.46434973 0.00979519 0 0 Z " fill="#72DBFB" transform="translate(44.66015625,-0.265625)"/>
<path d="M0 0 C6.27 0 12.54 0 19 0 C19 0.66 19 1.32 19 2 C15.04 2 11.08 2 7 2 C6.67 2.66 6.34 3.32 6 4 C3.03 3.505 3.03 3.505 0 3 C0 2.01 0 1.02 0 0 Z " fill="#E6F8BA" transform="translate(44,19)"/>
<path d="M0 0 C1.875 0.25 1.875 0.25 4 1 C5.3125 2.875 5.3125 2.875 6 5 C5.67 5.99 5.34 6.98 5 8 C3.70414084 7.57507874 2.4133956 7.13454118 1.125 6.6875 C0.40570313 6.44386719 -0.31359375 6.20023438 -1.0546875 5.94921875 C-3 5 -3 5 -5 2 C-3.35 2 -1.7 2 0 2 C0 1.34 0 0.68 0 0 Z " fill="#65CB30" transform="translate(48,35)"/>
<path d="M0 0 C6.13518234 0.36811094 8.85952718 1.6623618 13 6 C13.875 8.8125 13.875 8.8125 14 11 C12.02 11 10.04 11 8 11 C8.99 10.01 9.98 9.02 11 8 C7.51279384 3.6409923 4.27239085 3.05447817 -1 2 C-0.67 1.34 -0.34 0.68 0 0 Z " fill="#459813" transform="translate(45,22)"/>
<path d="M0 0 C0.99 0.33 1.98 0.66 3 1 C3 1.33 3 1.66 3 2 C3.66 2 4.32 2 5 2 C4.82374165 4.37948772 4.30280227 5.70225849 2.59765625 7.37890625 C1.09350908 8.62115486 -0.45129851 9.81376056 -2 11 C-1.85892253 9.54119891 -1.71197585 8.08296449 -1.5625 6.625 C-1.48128906 5.81289063 -1.40007813 5.00078125 -1.31640625 4.1640625 C-1 2 -1 2 0 0 Z " fill="#64CA2F" transform="translate(19,34)"/>
<path d="M0 0 C10.18181818 0 10.18181818 0 13 1 C13.33 1.99 13.66 2.98 14 4 C5.96498906 4.63019694 5.96498906 4.63019694 1.9375 2 C1.298125 1.34 0.65875 0.68 0 0 Z " fill="#68CF33" transform="translate(43,27)"/>
<path d="M0 0 C2.6900615 0.9991657 5.06048132 2.03780082 7.5 3.5625 C10.09512087 5.0546945 12.02132364 5.7584857 15 6 C15.66 5.34 16.32 4.68 17 4 C17 5.65 17 7.3 17 9 C10.58048005 8.00438001 5.03236992 6.27820004 0 2 C0 1.34 0 0.68 0 0 Z " fill="#55991A" transform="translate(39,36)"/>
<path d="M0 0 C0.66 0 1.32 0 2 0 C1.34 3.63 0.68 7.26 0 11 C0.66 11 1.32 11 2 11 C1.34 12.32 0.68 13.64 0 15 C-0.66 15 -1.32 15 -2 15 C-2.3690205 4.44191344 -2.3690205 4.44191344 0 0 Z " fill="#5F9A1F" transform="translate(17,34)"/>
<path d="M0 0 C0.33 0.66 0.66 1.32 1 2 C2.32 1.67 3.64 1.34 5 1 C4.45276317 4.37462715 3.9451 6.08235 2 9 C1.34 9 0.68 9 0 9 C0 6.03 0 3.06 0 0 Z " fill="#70D93A" transform="translate(26,43)"/>
<path d="M0 0 C2.64 0.33 5.28 0.66 8 1 C8 1.66 8 2.32 8 3 C5.64561267 4.42944945 4.51967567 5.08661261 1.75 4.625 C1.1725 4.41875 0.595 4.2125 0 4 C0 2.68 0 1.36 0 0 Z " fill="#FB3C73" transform="translate(59,62)"/>
<path d="M0 0 C-1.44472346 3.80881639 -3.32603071 5.29742886 -7 7 C-7.99 6.67 -8.98 6.34 -10 6 C-9.67 5.34 -9.34 4.68 -9 4 C-8.01 4 -7.02 4 -6 4 C-5.67 3.01 -5.34 2.02 -5 1 C-3 0 -3 0 0 0 Z " fill="#5AB526" transform="translate(42,20)"/>
<path d="M0 0 C0.33 0 0.66 0 1 0 C1.1953125 6.0546875 1.1953125 6.0546875 1 8 C0.34 8.66 -0.32 9.32 -1 10 C-1.66 9.67 -2.32 9.34 -3 9 C-2.25 2.25 -2.25 2.25 0 0 Z " fill="#56BA23" transform="translate(32,35)"/>
<path d="M0 0 C3.3 0 6.6 0 10 0 C9.67 1.32 9.34 2.64 9 4 C4.545 3.01 4.545 3.01 0 2 C0 1.34 0 0.68 0 0 Z " fill="#EAF7AD" transform="translate(24,21)"/>
<path d="M0 0 C0.33 1.65 0.66 3.3 1 5 C-0.98 5.99 -0.98 5.99 -3 7 C-3 6.34 -3 5.68 -3 5 C-3.99 4.67 -4.98 4.34 -6 4 C-5.34 3.67 -4.68 3.34 -4 3 C-4.33 2.34 -4.66 1.68 -5 1 C-2 0 -2 0 0 0 Z " fill="#E5F1B0" transform="translate(72,16)"/>
<path d="M0 0 C-0.33 2.97 -0.66 5.94 -1 9 C-1.33 9 -1.66 9 -2 9 C-2.33 7.02 -2.66 5.04 -3 3 C-4.32 4.32 -5.64 5.64 -7 7 C-7 4 -7 4 -5.1875 1.8125 C-3 0 -3 0 0 0 Z " fill="#42960E" transform="translate(26,39)"/>
<path d="M0 0 C0.33 0 0.66 0 1 0 C0.88490339 1.41750563 0.75746342 2.83401169 0.625 4.25 C0.55539063 5.03890625 0.48578125 5.8278125 0.4140625 6.640625 C-0.01507113 9.085877 -0.78600638 10.84836903 -2 13 C-2 10.36 -2 7.72 -2 5 C-2.99 5.495 -2.99 5.495 -4 6 C-2.84826645 3.53199953 -1.95216435 1.95216435 0 0 Z " fill="#3F9D0E" transform="translate(30,32)"/>
<path d="M0 0 C1.1832439 3.54973169 0.90010116 5.39959537 0 9 C-1.5625 10.875 -1.5625 10.875 -3 12 C-3.2954439 6.97745369 -2.98514628 4.10457614 0 0 Z " fill="#57BB24" transform="translate(28,36)"/>
<path d="M0 0 C1.32 1.32 2.64 2.64 4 4 C0.37 4 -3.26 4 -7 4 C-6.67 3.34 -6.34 2.68 -6 2 C-4.34178227 1.62690101 -2.67422986 1.29299023 -1 1 C-0.67 0.67 -0.34 0.34 0 0 Z " fill="#E78C51" transform="translate(53,62)"/>
<path d="M0 0 C2.31 0 4.62 0 7 0 C7.33 1.32 7.66 2.64 8 4 C5.64828869 3.40138258 3.3140622 2.73075648 1 2 C0.67 1.34 0.34 0.68 0 0 Z " fill="#76E03F" transform="translate(46,39)"/>
<path d="M0 0 C0.66 0 1.32 0 2 0 C2 1.32 2 2.64 2 4 C2.66 4 3.32 4 4 4 C3.67 5.65 3.34 7.3 3 9 C0.87491756 5.81237635 0.4979837 3.73487777 0 0 Z " fill="#569618" transform="translate(24,48)"/>
<path d="M0 0 C2.31 0 4.62 0 7 0 C6.34 1.32 5.68 2.64 5 4 C1.125 2.25 1.125 2.25 0 0 Z " fill="#06545E" transform="translate(11,82)"/>
<path d="M0 0 C0.99 0.66 1.98 1.32 3 2 C2.34 3.32 1.68 4.64 1 6 C0.34 6 -0.32 6 -1 6 C-1 5.01 -1 4.02 -1 3 C-1.66 2.67 -2.32 2.34 -3 2 C-2.01 1.34 -1.02 0.68 0 0 Z " fill="#9AE3DE" transform="translate(71,4)"/>
<path d="M0 0 C2.31 0 4.62 0 7 0 C5.625 2 5.625 2 4 4 C3.34 4 2.68 4 2 4 C1.34 2.68 0.68 1.36 0 0 Z " fill="#055261" transform="translate(82,82)"/>
<path d="M0 0 C2.475 0.495 2.475 0.495 5 1 C5 4 5 4 4 6 C2.68 4.02 1.36 2.04 0 0 Z " fill="#4BAC19" transform="translate(44,32)"/>
<path d="M0 0 C0.99 0.33 1.98 0.66 3 1 C2.67 1.66 2.34 2.32 2 3 C2.66 3.66 3.32 4.32 4 5 C2.35 5 0.7 5 -1 5 C-1 1 -1 1 0 0 Z " fill="#399309" transform="translate(42,21)"/>
</svg>
