<?xml version="1.0" encoding="UTF-8"?>
<svg version="1.1" xmlns="http://www.w3.org/2000/svg" width="108" height="108">
<path d="M0 0 C35.64 0 71.28 0 108 0 C108 35.64 108 71.28 108 108 C72.36 108 36.72 108 0 108 C0 72.36 0 36.72 0 0 Z " fill="#FBFBFB" transform="translate(0,0)"/>
<path d="M0 0 C11.22 0 22.44 0 34 0 C34.495 3.465 34.495 3.465 35 7 C31.37 8.98 27.74 10.96 24 13 C24 13.99 24 14.98 24 16 C27.0743722 14.88204647 29.82715412 13.55014339 32.625 11.875 C36 10 36 10 39 10 C40.6875 11.5 40.6875 11.5 42 13 C40.65858219 16.57791406 39.0611528 19.77670323 37.1015625 23.0546875 C36.53953125 23.99957031 35.9775 24.94445312 35.3984375 25.91796875 C34.81320313 26.89378906 34.22796875 27.86960937 33.625 28.875 C31.92017989 31.73285693 30.21653557 34.5913822 28.51660156 37.45214844 C27.58229466 39.02175997 26.64267325 40.58823948 25.69433594 42.14941406 C23.49794862 45.80844772 23.49794862 45.80844772 23 50 C23.66 50 24.32 50 25 50 C25.52207031 49.05382812 26.04414063 48.10765625 26.58203125 47.1328125 C32.44306695 36.5789015 38.64502108 26.262994 45 16 C47.31 16.66 49.62 17.32 52 18 C52 22.95 52 27.9 52 33 C53.32 33 54.64 33 56 33 C56 28.05 56 23.1 56 18 C61 16 61 16 64 16 C64.53367187 16.95777344 65.06734375 17.91554688 65.6171875 18.90234375 C67.61839075 22.48542889 69.63687657 26.05852498 71.66064453 29.62890625 C72.55944279 31.2200708 73.45359593 32.81386751 74.34326172 34.41015625 C75.654148 36.75972292 76.98157203 39.09924125 78.3125 41.4375 C78.72032715 42.17669678 79.1281543 42.91589355 79.54833984 43.67749023 C81.56995489 47.54899442 81.56995489 47.54899442 85.14135742 49.70336914 C85.75470947 49.80125732 86.36806152 49.89914551 87 50 C86.56171875 49.23300781 86.1234375 48.46601562 85.671875 47.67578125 C84.68204034 45.9435706 83.69259269 44.21112801 82.70947266 42.47509766 C80.43203799 38.46360583 78.10143896 34.48984183 75.7265625 30.53515625 C75.17258789 29.59953857 74.61861328 28.6639209 74.04785156 27.69995117 C72.94008792 25.82926625 71.81976405 23.96595768 70.68652344 22.1105957 C70.17895508 21.246521 69.67138672 20.38244629 69.1484375 19.4921875 C68.68614746 18.72245605 68.22385742 17.95272461 67.74755859 17.15966797 C67 15 67 15 67.67822266 12.78173828 C69 11 69 11 72 10 C74.41015625 11.21484375 74.41015625 11.21484375 77.0625 12.9375 C80.28821501 15.25408254 80.28821501 15.25408254 84 16 C84 15.01 84 14.02 84 13 C80.37 11.02 76.74 9.04 73 7 C73.33 4.69 73.66 2.38 74 0 C85.22 0 96.44 0 108 0 C108 17.16 108 34.32 108 52 C72.36 52 36.72 52 0 52 C0 34.84 0 17.68 0 0 Z " fill="#FBFBFB" transform="translate(0,56)"/>
<path d="M0 0 C3.98748016 1.32916005 4.39716076 2.94752968 6.43359375 6.57421875 C7.08263672 7.71697266 7.73167969 8.85972656 8.40039062 10.03710938 C9.07985276 11.2536686 9.75888573 12.47046762 10.4375 13.6875 C11.44370897 15.47500063 12.45252024 17.26098623 13.46339417 19.04585266 C14.38582921 20.67724381 15.30138214 22.31252066 16.21655273 23.94799805 C17.09935913 25.45873901 17.09935913 25.45873901 18 27 C18.60980713 28.11866455 19.21961426 29.2373291 19.84790039 30.38989258 C20.55809326 31.25122803 21.26828613 32.11256348 22 33 C23.98 33 25.96 33 28 33 C28 28.05 28 23.1 28 18 C29.32 18 30.64 18 32 18 C32 22.95 32 27.9 32 33 C33.98 33 35.96 33 38 33 C39.96445464 30.47650342 41.34917224 28.29732556 42.8125 25.5 C43.23192871 24.74275635 43.65135742 23.9855127 44.08349609 23.20532227 C44.96124288 21.61738658 45.8295742 20.02421411 46.68896484 18.42626953 C48.38555925 15.2864641 50.14667428 12.18529883 51.90893555 9.08203125 C53.62090851 6.0629647 55.31068399 3.03179177 57 0 C58.32 0.33 59.64 0.66 61 1 C59.67077497 5.41893111 57.92527001 9.15569624 55.59375 13.1328125 C54.60181641 14.83630859 54.60181641 14.83630859 53.58984375 16.57421875 C52.89347078 17.75795467 52.19685386 18.94154711 51.5 20.125 C50.13343546 22.459786 48.76987605 24.79630705 47.40625 27.1328125 C46.80103516 28.16293457 46.19582031 29.19305664 45.57226562 30.25439453 C44.30052305 32.47520463 43.11044832 34.69575085 42 37 C43.61694804 38.75651531 43.61694804 38.75651531 46 40 C50.99265844 38.97877441 55.50489238 36.35023393 60 34 C60.495 35.98 60.495 35.98 61 38 C59.37829621 39.00533667 57.75252763 40.00411907 56.125 41 C55.22007813 41.556875 54.31515625 42.11375 53.3828125 42.6875 C51 44 51 44 49 44 C49.495 47.465 49.495 47.465 50 51 C61.22 51 72.44 51 84 51 C84 52.32 84 53.64 84 55 C72.78 55 61.56 55 50 55 C49.67 57.31 49.34 59.62 49 62 C50.0209375 62.37125 50.0209375 62.37125 51.0625 62.75 C54.56865083 64.24197908 57.71620368 66.06835511 61 68 C60.505 69.98 60.505 69.98 60 72 C56.88772033 70.86826194 54.21612862 69.52257343 51.4375 67.75 C48.23567207 65.61810006 48.23567207 65.61810006 45.5625 66.75 C45.046875 67.1625 44.53125 67.575 44 68 C45.28649903 72.23969685 46.89976684 75.84938134 49.15234375 79.66015625 C49.76400391 80.70107422 50.37566406 81.74199219 51.00585938 82.81445312 C51.64330078 83.88630859 52.28074219 84.95816406 52.9375 86.0625 C53.57107422 87.13822266 54.20464844 88.21394531 54.85742188 89.32226562 C58.22980655 95.05262852 58.22980655 95.05262852 61.70532227 100.72045898 C63 103 63 103 63 105 C58.43109438 104.49016709 58.43109438 104.49016709 56.53369141 102.33276367 C55.9485376 101.26119019 55.9485376 101.26119019 55.3515625 100.16796875 C54.90659424 99.37447021 54.46162598 98.58097168 54.00317383 97.76342773 C53.54837646 96.91337158 53.0935791 96.06331543 52.625 95.1875 C51.6630648 93.45295616 50.70082507 91.71858117 49.73828125 89.984375 C49.27373535 89.13423828 48.80918945 88.28410156 48.33056641 87.40820312 C46.03917655 83.26099771 43.57873067 79.21694372 41.14453125 75.15234375 C40 73 40 73 40 71 C36.04 71.99 36.04 71.99 32 73 C32 77.95 32 82.9 32 88 C30.68 88 29.36 88 28 88 C28 83.05 28 78.1 28 73 C25.69 72.67 23.38 72.34 21 72 C20.67837891 72.56807373 20.35675781 73.13614746 20.02539062 73.72143555 C13.86136929 84.59530557 7.66964108 95.42665722 1 106 C-0.485 105.505 -0.485 105.505 -2 105 C-1.41019386 100.93796283 -0.0999026 98.06454218 1.984375 94.54296875 C2.59023438 93.51236328 3.19609375 92.48175781 3.8203125 91.41992188 C4.77550781 89.81987305 4.77550781 89.81987305 5.75 88.1875 C6.37132813 87.13240234 6.99265625 86.07730469 7.6328125 84.99023438 C11.0086015 79.27489541 14.45344638 73.61086441 18 68 C17.01 67.67 16.02 67.34 15 67 C15 66.34 15 65.68 15 65 C14.18015625 65.433125 13.3603125 65.86625 12.515625 66.3125 C11.43796875 66.869375 10.3603125 67.42625 9.25 68 C8.18265625 68.556875 7.1153125 69.11375 6.015625 69.6875 C3 71 3 71 -1 71 C-0.77734375 69.171875 -0.77734375 69.171875 0 67 C1.99609375 65.515625 1.99609375 65.515625 4.4375 64.25 C5.24058594 63.82203125 6.04367188 63.3940625 6.87109375 62.953125 C9 62 9 62 11 62 C10.505 58.535 10.505 58.535 10 55 C-1.22 55 -12.44 55 -24 55 C-24 53.68 -24 52.36 -24 51 C-12.78 51 -1.56 51 10 51 C10.33 48.69 10.66 46.38 11 44 C10.13375 43.7525 9.2675 43.505 8.375 43.25 C4.81697746 41.93221387 2.0773845 40.19813178 -1 38 C-0.67 36.68 -0.34 35.36 0 34 C3.11227967 35.13173806 5.78387138 36.47742657 8.5625 38.25 C11.73693065 40.33271464 11.73693065 40.33271464 14.375 39.4375 C16.2804095 37.99383194 16.2804095 37.99383194 17 35 C15.79854292 32.47633639 14.54432427 30.1472074 13.125 27.75 C12.72168457 27.0477832 12.31836914 26.34556641 11.90283203 25.62207031 C9.78537145 21.9572662 7.6019632 18.33947798 5.359375 14.75 C4.94284668 14.07743164 4.52631836 13.40486328 4.09716797 12.71191406 C3.29557489 11.4251378 2.4824214 10.14547615 1.65673828 8.87402344 C-1.05638346 4.5296628 -1.05638346 4.5296628 -0.7421875 1.578125 C-0.49726563 1.05734375 -0.25234375 0.5365625 0 0 Z " fill="#0D0D0D" transform="translate(24,1)"/>
<path d="M0 0 C4.19891562 3.79901889 6.30575299 7.1801768 7.125 12.8125 C6.37807544 18.13433747 4.89233204 22.29828437 0.859375 25.9921875 C-3.03002845 28.70251982 -6.57847053 30.20368423 -11.359375 29.85546875 C-16.6490736 28.59455222 -20.91014431 25.61417986 -23.875 21.0625 C-25.91266047 16.05325136 -26.54653636 12.22090028 -24.4921875 7.23046875 C-22.21244891 3.16166378 -19.62708663 0.01098688 -15.3984375 -2.06640625 C-9.98243311 -3.56155804 -4.94782403 -2.38228564 0 0 Z " fill="#F5F5F5" transform="translate(63.375,40.625)"/>
<path d="M0 0 C3.96924372 1.32308124 4.36977261 2.89592152 6.3984375 6.50390625 C7.36523438 8.20450195 7.36523438 8.20450195 8.3515625 9.93945312 C9.02642498 11.14692126 9.70090157 12.35460515 10.375 13.5625 C11.69230031 15.89884999 13.0143104 18.23249703 14.3359375 20.56640625 C14.96081055 21.67258301 15.58568359 22.77875977 16.22949219 23.91845703 C18.39027444 27.67926696 20.6614088 31.34764424 23 35 C22.34 35 21.68 35 21 35 C20.5978125 35.8971875 20.5978125 35.8971875 20.1875 36.8125 C18.52629909 39.87260694 17.18795481 41.62664277 13.8125 42.6875 C12.9153125 42.8421875 12.9153125 42.8421875 12 43 C11.67 44.32 11.34 45.64 11 47 C11 46.01 11 45.02 11 44 C10.13375 43.7525 9.2675 43.505 8.375 43.25 C4.81697746 41.93221387 2.0773845 40.19813178 -1 38 C-0.67 36.68 -0.34 35.36 0 34 C3.11227967 35.13173806 5.78387138 36.47742657 8.5625 38.25 C11.73693065 40.33271464 11.73693065 40.33271464 14.375 39.4375 C16.2804095 37.99383194 16.2804095 37.99383194 17 35 C15.79854292 32.47633639 14.54432427 30.1472074 13.125 27.75 C12.72168457 27.0477832 12.31836914 26.34556641 11.90283203 25.62207031 C9.78537145 21.9572662 7.6019632 18.33947798 5.359375 14.75 C4.94284668 14.07743164 4.52631836 13.40486328 4.09716797 12.71191406 C3.29557489 11.4251378 2.4824214 10.14547615 1.65673828 8.87402344 C-1.05638346 4.5296628 -1.05638346 4.5296628 -0.7421875 1.578125 C-0.37480469 0.79695312 -0.37480469 0.79695312 0 0 Z " fill="#1A1A1A" transform="translate(24,1)"/>
<path d="M0 0 C1.32 0.33 2.64 0.66 4 1 C2.6682338 5.41134682 0.92844012 9.17928447 -1.37109375 13.16796875 C-2.35625977 14.87823242 -2.35625977 14.87823242 -3.36132812 16.62304688 C-3.70236572 17.20820068 -4.04340332 17.79335449 -4.39477539 18.39624023 C-5.4382721 20.18882637 -6.47062765 21.98749912 -7.50195312 23.78710938 C-13.36027311 33.90289599 -13.36027311 33.90289599 -16 36 C-18.6875 36.1875 -18.6875 36.1875 -21 36 C-21 35.34 -21 34.68 -21 34 C-20.41605469 33.42765625 -19.83210938 32.8553125 -19.23046875 32.265625 C-16.63987503 29.6341988 -15.10321244 26.97853814 -13.3125 23.75 C-12.97798828 23.15171387 -12.64347656 22.55342773 -12.29882812 21.93701172 C-11.57889005 20.64861425 -10.86169547 19.35868067 -10.14697266 18.06738281 C-8.52143189 15.13739575 -6.8734783 12.22018149 -5.22729492 9.30175781 C-3.48050539 6.20361271 -1.74024479 3.1018252 0 0 Z " fill="#161616" transform="translate(81,1)"/>
<path d="M0 0 C3.96881226 4.5104384 6.62145101 9.54838641 9.4375 14.8125 C12.48296813 20.47681728 15.55846863 26.04161869 19.10180664 31.4128418 C20 33 20 33 20 35 C15.43509398 34.4987348 15.43509398 34.4987348 13.51782227 32.30102539 C13.12135498 31.57391357 12.7248877 30.84680176 12.31640625 30.09765625 C11.86612061 29.29408691 11.41583496 28.49051758 10.9519043 27.66259766 C10.49340088 26.80456543 10.03489746 25.9465332 9.5625 25.0625 C8.6026308 23.32102533 7.64170223 21.58013412 6.6796875 19.83984375 C6.22174805 19.00179199 5.76380859 18.16374023 5.29199219 17.30029297 C3.29537144 13.74546291 1.04085093 10.36498982 -1.26953125 7.0078125 C-2 5 -2 5 -1.13671875 2.2421875 C-0.76160156 1.50226563 -0.38648437 0.76234375 0 0 Z " fill="#141414" transform="translate(67,71)"/>
<path d="M0 0 C0.66 0.33 1.32 0.66 2 1 C1.07694553 5.24280159 -0.91836062 8.70223256 -3.0625 12.4375 C-3.46009521 13.13746094 -3.85769043 13.83742188 -4.26733398 14.55859375 C-8.02625513 21.13391392 -11.97026475 27.58756026 -16 34 C-16.99 33.67 -17.98 33.34 -19 33 C-18.05663103 26.4970432 -14.46247618 21.3980624 -11.1875 15.8125 C-10.55779297 14.70712891 -9.92808594 13.60175781 -9.27929688 12.46289062 C-8.66505859 11.40908203 -8.05082031 10.35527344 -7.41796875 9.26953125 C-6.85875732 8.30635986 -6.2995459 7.34318848 -5.72338867 6.35083008 C-3.95195584 3.9344642 -2.76868018 3.03943754 0 2 C0 1.34 0 0.68 0 0 Z " fill="#151515" transform="translate(41,73)"/>
<path d="M0 0 C11.55 0 23.1 0 35 0 C35 1.32 35 2.64 35 4 C23.45 4 11.9 4 0 4 C0 2.68 0 1.36 0 0 Z " fill="#000000" transform="translate(0,52)"/>
<path d="M0 0 C11.22 0 22.44 0 34 0 C34 1.32 34 2.64 34 4 C22.45 4 10.9 4 -1 4 C-0.67 2.68 -0.34 1.36 0 0 Z " fill="#000000" transform="translate(74,52)"/>
<path d="M0 0 C0.66 0.33 1.32 0.66 2 1 C2.37890625 2.9609375 2.37890625 2.9609375 2.5625 5.375 C2.78753088 8.19477465 3.09554568 10.28663703 4 13 C3.34 13.66 2.68 14.32 2 15 C1.73058594 15.63292969 1.46117187 16.26585938 1.18359375 16.91796875 C-0.38899815 19.68427727 -2.21485423 20.7013014 -4.9375 22.3125 C-5.81277344 22.84488281 -6.68804688 23.37726563 -7.58984375 23.92578125 C-10 25 -10 25 -13 24 C-12.77734375 22.171875 -12.77734375 22.171875 -12 20 C-10.00390625 18.515625 -10.00390625 18.515625 -7.5625 17.25 C-6.75941406 16.82203125 -5.95632812 16.3940625 -5.12890625 15.953125 C-3 15 -3 15 -1 15 C-1.0721875 14.32453125 -1.144375 13.6490625 -1.21875 12.953125 C-1.3115625 12.06109375 -1.404375 11.1690625 -1.5 10.25 C-1.5928125 9.36828125 -1.685625 8.4865625 -1.78125 7.578125 C-2 5 -2 5 -2 1 C-1.34 0.67 -0.68 0.34 0 0 Z " fill="#141414" transform="translate(36,48)"/>
<path d="M0 0 C1.6875 1.5 1.6875 1.5 3 3 C1.66749209 6.5875213 0.169283 9.8364623 -2 13 C-2.66 13 -3.32 13 -4 13 C-5 10 -6 7 -7 4 C-7.66 3.67 -8.32 3.34 -9 3 C-3.375 0 -3.375 0 0 0 Z " fill="#F0F0F0" transform="translate(39,66)"/>
<path d="M0 0 C3.875 0.875 3.875 0.875 5 2 C5.52618714 7.70240021 4.83492674 12.60990271 3 18 C2.01 18 1.02 18 0 18 C-0.79953138 14.71303767 -1.09658936 13.28976808 0 10 C0.06802967 8.27204648 0.08495645 6.54164635 0.0625 4.8125 C0.05347656 3.91144531 0.04445313 3.01039062 0.03515625 2.08203125 C0.02355469 1.39496094 0.01195313 0.70789062 0 0 Z " fill="#0D0D0D" transform="translate(69,47)"/>
<path d="M0 0 C0.99 0.33 1.98 0.66 3 1 C2.79375 1.78375 2.5875 2.5675 2.375 3.375 C2.25125 4.24125 2.1275 5.1075 2 6 C2.66 6.66 3.32 7.32 4 8 C4.99 9.485 4.99 9.485 6 11 C4.02 11.66 2.04 12.32 0 13 C-1.65 11.35 -3.3 9.7 -5 8 C-3.35 5.36 -1.7 2.72 0 0 Z " fill="#EBEBEB" transform="translate(70,29)"/>
<path d="M0 0 C0.99 1.32 1.98 2.64 3 4 C2.0649156 6.33771101 1.20436485 7.81834235 -0.6875 9.5 C-3.55294646 10.11955599 -4.25574578 9.54596907 -6.75 8.125 C-7.8225 7.42375 -8.895 6.7225 -10 6 C-9.67 5.34 -9.34 4.68 -9 4 C-7.35 4.33 -5.7 4.66 -4 5 C-4.33 4.01 -4.66 3.02 -5 2 C-3.35 1.34 -1.7 0.68 0 0 Z " fill="#F0F0F0" transform="translate(39,32)"/>
<path d="M0 0 C1.98 0.99 1.98 0.99 4 2 C4 6.62 4 11.24 4 16 C2.68 16 1.36 16 0 16 C0 10.72 0 5.44 0 0 Z " fill="#010101" transform="translate(52,73)"/>
<path d="M0 0 C3 0 3 0 4.6875 1.5 C5.120625 1.995 5.55375 2.49 6 3 C4.92598892 5.91517292 4.22189824 7.77810176 2 10 C0 8 0 8 -0.1953125 6.0546875 C-0.13020833 4.03645833 -0.06510417 2.01822917 0 0 Z " fill="#E6E6E6" transform="translate(36,66)"/>
<path d="M0 0 C0.66 0 1.32 0 2 0 C2.36630156 3.93774177 2.30233203 5.56539771 0 8.875 C-0.66 9.57625 -1.32 10.2775 -2 11 C-2 10.34 -2 9.68 -2 9 C-2.99 9.33 -3.98 9.66 -5 10 C-3.66749209 6.4124787 -2.169283 3.1635377 0 0 Z " fill="#0F0F0F" transform="translate(77,9)"/>
<path d="M0 0 C2.46800047 1.15173355 4.04783565 2.04783565 6 4 C6.66 4 7.32 4 8 4 C8.66 5.98 9.32 7.96 10 10 C7.67578125 9.78515625 7.67578125 9.78515625 5 9 C3.41796875 6.93359375 3.41796875 6.93359375 2.1875 4.4375 C1.76855469 3.61121094 1.34960938 2.78492187 0.91796875 1.93359375 C0.61503906 1.29550781 0.31210938 0.65742187 0 0 Z " fill="#222222" transform="translate(77,96)"/>
<path d="M0 0 C1.8125 0.125 1.8125 0.125 4 1 C5.75 4.0625 5.75 4.0625 7 7 C6.01 7.99 5.02 8.98 4 10 C0 3.375 0 3.375 0 0 Z " fill="#0E0E0E" transform="translate(35,22)"/>
<path d="M0 0 C1.65 0.33 3.3 0.66 5 1 C4.67 2.65 4.34 4.3 4 6 C2.35 5.67 0.7 5.34 -1 5 C-0.67 3.35 -0.34 1.7 0 0 Z " fill="#262626" transform="translate(16,72)"/>
<path d="M0 0 C1.65 0.33 3.3 0.66 5 1 C4.67 2.65 4.34 4.3 4 6 C2.35 5.67 0.7 5.34 -1 5 C-0.67 3.35 -0.34 1.7 0 0 Z " fill="#252525" transform="translate(88,72)"/>
<path d="M0 0 C1.65 0.33 3.3 0.66 5 1 C4.67 2.65 4.34 4.3 4 6 C2.35 5.67 0.7 5.34 -1 5 C-0.67 3.35 -0.34 1.7 0 0 Z " fill="#232323" transform="translate(52,9)"/>
<path d="M0 0 C3 0 3 0 5 1 C3.68 3.31 2.36 5.62 1 8 C-0.32 7.67 -1.64 7.34 -3 7 C-1.125 1.125 -1.125 1.125 0 0 Z " fill="#1B1B1B" transform="translate(29,91)"/>
<path d="M0 0 C2.0625 0.4375 2.0625 0.4375 4 1 C4.33 2.32 4.66 3.64 5 5 C3.35 5.33 1.7 5.66 0 6 C-0.38218767 4.34385343 -0.71395102 2.67542976 -1 1 C-0.67 0.67 -0.34 0.34 0 0 Z " fill="#222222" transform="translate(52,51)"/>
<path d="M0 0 C2.0625 0.4375 2.0625 0.4375 4 1 C4.33 2.32 4.66 3.64 5 5 C3.35 5.33 1.7 5.66 0 6 C-0.38218767 4.34385343 -0.71395102 2.67542976 -1 1 C-0.67 0.67 -0.34 0.34 0 0 Z " fill="#222222" transform="translate(88,30)"/>
<path d="M0 0 C2.0625 0.4375 2.0625 0.4375 4 1 C4.33 2.32 4.66 3.64 5 5 C3.35 5.33 1.7 5.66 0 6 C-0.38218767 4.34385343 -0.71395102 2.67542976 -1 1 C-0.67 0.67 -0.34 0.34 0 0 Z " fill="#212121" transform="translate(16,30)"/>
<path d="M0 0 C2.0625 0.4375 2.0625 0.4375 4 1 C4.33 2.32 4.66 3.64 5 5 C3.35 5.33 1.7 5.66 0 6 C-0.38218767 4.34385343 -0.71395102 2.67542976 -1 1 C-0.67 0.67 -0.34 0.34 0 0 Z " fill="#1E1E1E" transform="translate(52,93)"/>
<path d="M0 0 C2.375 0.1875 2.375 0.1875 5 1 C6.3125 3.5625 6.3125 3.5625 7 6 C4.625 6.1875 4.625 6.1875 2 6 C0 3 0 3 0 0 Z " fill="#141414" transform="translate(70,82)"/>
<path d="M0 0 C2.625 -0.1875 2.625 -0.1875 5 0 C5 0.66 5 1.32 5 2 C4.34 2 3.68 2 3 2 C2.67 3.65 2.34 5.3 2 7 C0.68 5.68 -0.64 4.36 -2 3 C-1.34 2.01 -0.68 1.02 0 0 Z " fill="#EFEFEF" transform="translate(35,89)"/>
<path d="M0 0 C0 0.66 0 1.32 0 2 C-0.9590625 2.1546875 -0.9590625 2.1546875 -1.9375 2.3125 C-2.618125 2.539375 -3.29875 2.76625 -4 3 C-4.33 3.99 -4.66 4.98 -5 6 C-6.32 6 -7.64 6 -9 6 C-9.33 5.01 -9.66 4.02 -10 3 C-7.525 3.495 -7.525 3.495 -5 4 C-5 3.01 -5 2.02 -5 1 C-5.66 0.67 -6.32 0.34 -7 0 C-4.3333581 -1.33332095 -2.83319697 -0.67102033 0 0 Z " fill="#1D1D1D" transform="translate(77,42)"/>
<path d="M0 0 C1.65 0 3.3 0 5 0 C5 0.99 5 1.98 5 3 C2.69 3.33 0.38 3.66 -2 4 C-1.34 2.68 -0.68 1.36 0 0 Z " fill="#070707" transform="translate(58,69)"/>
<path d="M0 0 C2.4375 0.375 2.4375 0.375 5 1 C5.33 1.66 5.66 2.32 6 3 C5.01 4.32 4.02 5.64 3 7 C0.64046906 4.64046906 0.50858587 3.22104383 0 0 Z " fill="#0C0C0C" transform="translate(35,43)"/>
<path d="M0 0 C2.0625 2.25 2.0625 2.25 4 5 C3.75 7.3125 3.75 7.3125 3 9 C-1 4.375 -1 4.375 -1 1 C-0.67 0.67 -0.34 0.34 0 0 Z " fill="#F4F4F4" transform="translate(27,12)"/>
<path d="M0 0 C5.75 1.75 5.75 1.75 8 4 C5.6875 4.625 5.6875 4.625 3 5 C2.01 4.34 1.02 3.68 0 3 C0 2.01 0 1.02 0 0 Z " fill="#E6E6E6" transform="translate(70,66)"/>
<path d="M0 0 C0.99 0.33 1.98 0.66 3 1 C3 2.98 3 4.96 3 7 C2.34 7 1.68 7 1 7 C-1 4 -1 4 -0.625 1.8125 C-0.41875 1.214375 -0.2125 0.61625 0 0 Z " fill="#101010" transform="translate(24,1)"/>
<path d="M0 0 C0.99 0.33 1.98 0.66 3 1 C1.125 5.75 1.125 5.75 0 8 C-0.66 8 -1.32 8 -2 8 C-1.34 5.36 -0.68 2.72 0 0 Z " fill="#F2F2F2" transform="translate(28,86)"/>
<path d="M0 0 C0.99 0 1.98 0 3 0 C3.99 2.31 4.98 4.62 6 7 C4.35 7 2.7 7 1 7 C1.020625 6.21625 1.04125 5.4325 1.0625 4.625 C1.18684063 2.01885039 1.18684063 2.01885039 0 0 Z " fill="#DCDCDC" transform="translate(61,72)"/>
<path d="M0 0 C0.66 0.33 1.32 0.66 2 1 C2 2.32 2 3.64 2 5 C0.68 5.33 -0.64 5.66 -2 6 C-2 4.35 -2 2.7 -2 1 C-1.34 0.67 -0.68 0.34 0 0 Z " fill="#EFEFEF" transform="translate(58,73)"/>
<path d="M0 0 C1.32 0.66 2.64 1.32 4 2 C3.67 3.32 3.34 4.64 3 6 C0.525 5.01 0.525 5.01 -2 4 C-1.34 2.68 -0.68 1.36 0 0 Z " fill="#202020" transform="translate(81,67)"/>
<path d="M0 0 C0.33 0.66 0.66 1.32 1 2 C0.34 2 -0.32 2 -1 2 C-0.67 3.32 -0.34 4.64 0 6 C-1.32 6 -2.64 6 -4 6 C-4 5.01 -4 4.02 -4 3 C-2 1.3125 -2 1.3125 0 0 Z " fill="#DEDEDE" transform="translate(46,40)"/>
<path d="M0 0 C1.32 0 2.64 0 4 0 C4 2.97 4 5.94 4 9 C3.01 8.67 2.02 8.34 1 8 C1.020625 7.05125 1.04125 6.1025 1.0625 5.125 C1.22551826 2.09333717 1.22551826 2.09333717 0 0 Z " fill="#E2E2E2" transform="translate(19,30)"/>
<path d="M0 0 C0.66 0.66 1.32 1.32 2 2 C0.68 4.31 -0.64 6.62 -2 9 C-2.66 7.68 -3.32 6.36 -4 5 C-3.34 4.67 -2.68 4.34 -2 4 C-1.67 3.01 -1.34 2.02 -1 1 C-0.67 0.67 -0.34 0.34 0 0 Z " fill="#E9E9E9" transform="translate(77,5)"/>
<path d="M0 0 C2.475 0.99 2.475 0.99 5 2 C3.35 3.65 1.7 5.3 0 7 C0 4.66666667 0 2.33333333 0 0 Z " fill="#EAEAEA" transform="translate(59,39)"/>
<path d="M0 0 C0.99 0.33 1.98 0.66 3 1 C3 1.66 3 2.32 3 3 C3.99 3.33 4.98 3.66 6 4 C5.67 4.66 5.34 5.32 5 6 C3.35 5.67 1.7 5.34 0 5 C-0.5625 3.0625 -0.5625 3.0625 -1 1 C-0.67 0.67 -0.34 0.34 0 0 Z " fill="#2A2A2A" transform="translate(55,34)"/>
<path d="M0 0 C1.4606285 2.64738916 2 3.89448334 2 7 C1.01 7.33 0.02 7.66 -1 8 C-1.93065133 5.39417629 -2.14917407 4.35801776 -1.0625 1.75 C-0.711875 1.1725 -0.36125 0.595 0 0 Z " fill="#EBEBEB" transform="translate(86,31)"/>
</svg>
