<?xml version="1.0" encoding="UTF-8"?>
<svg version="1.1" xmlns="http://www.w3.org/2000/svg" width="200" height="200">
<path d="M0 0 C66 0 132 0 200 0 C200 66 200 132 200 200 C134 200 68 200 0 200 C0 134 0 68 0 0 Z " fill="#282828" transform="translate(0,0)"/>
<path d="M0 0 C3.3 0 6.6 0 10 0 C8.49828119 10.99544638 6.71806984 21.93273161 4.875 32.875 C4.59489854 34.54554718 4.31494972 36.21611996 4.03515625 37.88671875 C3.35852438 41.92477549 2.67984794 45.96248352 2 50 C-1.3 50 -4.6 50 -8 50 C-8.33 49.34 -8.66 48.68 -9 48 C-10.051875 48.495 -10.051875 48.495 -11.125 49 C-14.46116366 50.16040475 -16.4995735 50.58340442 -20 50 C-23.11421974 47.4273837 -24.6555901 45.80327826 -25.4140625 41.83203125 C-25.71303863 33.501469 -24.36629401 23.5850191 -19.4375 16.6875 C-17.38999635 14.58297726 -16.31383633 14.04972594 -13.38671875 13.5859375 C-10.88067122 13.56466977 -8.48524762 13.69057194 -6 14 C-5.34 15.32 -4.68 16.64 -4 18 C-3.34 18 -2.68 18 -2 18 C-2.04125 16.88625 -2.0825 15.7725 -2.125 14.625 C-2.14310774 9.57294007 -1.09344573 4.92050577 0 0 Z " fill="#F70101" transform="translate(106,68)"/>
<path d="M0 0 C3.3 0 6.6 0 10 0 C10.33 0.66 10.66 1.32 11 2 C11.66 1.34 12.32 0.68 13 0 C17.68511228 -0.77541057 21.70100202 -0.9278557 25.625 1.875 C28.92478857 9.37451949 26.95040897 18.29527884 25 26 C23.38197911 30.11859863 22.02079987 32.98960006 18 35 C14.96870706 35.77180521 12.11684259 36.38960532 9 36 C6.71875 34.00390625 6.71875 34.00390625 5 32 C4.86722656 32.97582031 4.73445312 33.95164063 4.59765625 34.95703125 C4.42105469 36.22933594 4.24445313 37.50164062 4.0625 38.8125 C3.88847656 40.07707031 3.71445313 41.34164062 3.53515625 42.64453125 C3 46 3 46 2 49 C-0.97 49 -3.94 49 -7 49 C-7.23522668 43.05444294 -6.3302952 37.63663735 -5.1875 31.8125 C-3.1837658 21.24360862 -1.52436395 10.64745123 0 0 Z " fill="#F80101" transform="translate(145,82)"/>
<path d="M0 0 C5.61 0 11.22 0 17 0 C13.35144312 29.18845501 13.35144312 29.18845501 10 42 C11.98 42 13.96 42 16 42 C16 44.31 16 46.62 16 49 C8.41 49 0.82 49 -7 49 C-7 46.69 -7 44.38 -7 42 C-4.36 42 -1.72 42 1 42 C1.02578125 41.38898438 1.0515625 40.77796875 1.078125 40.1484375 C1.75140391 29.28416411 3.95001703 18.67301765 6 8 C4.02 8 2.04 8 0 8 C0 5.36 0 2.72 0 0 Z " fill="#F90101" transform="translate(120,68)"/>
<path d="M0 0 C4.95792663 1.02881877 8.92538214 3.58428701 13.25 6.125 C14.09046875 6.58648437 14.9309375 7.04796875 15.796875 7.5234375 C18.09413935 8.88091189 20.07716065 10.14900237 22 12 C22.8203125 15.64453125 22.8203125 15.64453125 22 19 C20.1640625 21.00390625 20.1640625 21.00390625 17.625 22.5625 C16.72007813 23.13226563 15.81515625 23.70203125 14.8828125 24.2890625 C13.45582031 25.13597656 13.45582031 25.13597656 12 26 C11.06929687 26.58523437 10.13859375 27.17046875 9.1796875 27.7734375 C2.37353286 32 2.37353286 32 0 32 C-0.99 30.02 -1.98 28.04 -3 26 C-2.09636719 25.45730469 -1.19273438 24.91460937 -0.26171875 24.35546875 C0.92982388 23.63303739 2.1212226 22.91036864 3.3125 22.1875 C3.90740234 21.83107422 4.50230469 21.47464844 5.11523438 21.10742188 C8.14786711 19.2607349 10.46719278 17.53280722 13 15 C7.72 12.03 2.44 9.06 -3 6 C-2.01 4.02 -1.02 2.04 0 0 Z " fill="#F6F6F6" transform="translate(31,81)"/>
<path d="M0 0 C8.91 0 17.82 0 27 0 C27 2.31 27 4.62 27 7 C18.09 7 9.18 7 0 7 C0 4.69 0 2.38 0 0 Z " fill="#FFFFFF" transform="translate(49,117)"/>
<path d="M0 0 C2.375 0.75 2.375 0.75 3.375 1.75 C3.92558179 8.08169056 2.37580831 13.75794195 0.375 19.75 C-0.625 20.75 -0.625 20.75 -3.625 20.875 C-6.625 20.75 -6.625 20.75 -7.625 19.75 C-8.17144244 13.11644293 -8.06443995 6.46724183 -4.3125 0.75 C-2.625 -0.25 -2.625 -0.25 0 0 Z " fill="#332525" transform="translate(98.625,89.25)"/>
<path d="M0 0 C2.375 0.75 2.375 0.75 3.375 1.75 C3.68245078 7.48908113 3.47821214 13.32888634 1.375 18.75 C-1.625 20.75 -1.625 20.75 -4.25 20.4375 C-6.625 19.75 -6.625 19.75 -7.625 18.75 C-7.48254694 15.73258525 -7.01143426 12.74486552 -6.625 9.75 C-6.50125 8.47125 -6.3775 7.1925 -6.25 5.875 C-5.625 2.75 -5.625 2.75 -4.375 0.75 C-2.625 -0.25 -2.625 -0.25 0 0 Z " fill="#302626" transform="translate(158.625,89.25)"/>
</svg>
